M48
<<<<<<< Updated upstream
; DRILL file {KiCad 6.0.2-378541a8eb~116~ubuntu20.04.1} date Do 17 Feb 2022 23:44:53 CET
; FORMAT={-:-/ absolute / metric / decimal}
; #@! TF.CreationDate,2022-02-17T23:44:53+01:00
; #@! TF.GenerationSoftware,Kicad,Pcbnew,6.0.2-378541a8eb~116~ubuntu20.04.1
=======
; DRILL file {KiCad 6.0.11-2627ca5db0~126~ubuntu22.04.1} date Sa 01 Jul 2023 01:01:36 CEST
; FORMAT={-:-/ absolute / metric / decimal}
; #@! TF.CreationDate,2023-07-01T01:01:36+02:00
; #@! TF.GenerationSoftware,Kicad,Pcbnew,6.0.11-2627ca5db0~126~ubuntu22.04.1
>>>>>>> Stashed changes
; #@! TF.FileFunction,Plated,1,4,PTH
FMAT,2
METRIC
; #@! TA.AperFunction,Plated,PTH,ViaDrill
T1C0.400
; #@! TA.AperFunction,Plated,PTH,ComponentDrill
T2C0.800
; #@! TA.AperFunction,Plated,PTH,ComponentDrill
T3C0.990
; #@! TA.AperFunction,Plated,PTH,ComponentDrill
T4C1.000
; #@! TA.AperFunction,Plated,PTH,ComponentDrill
T5C1.300
%
G90
G05
T1
<<<<<<< Updated upstream
X109.851Y-25.625
X110.258Y-42.236
X111.934Y-24.558
X111.934Y-26.59
X112.086Y-36.191
X115.744Y-30.654
X115.744Y-37.258
X115.78Y-42.42
X115.78Y-55.04
X117.522Y-30.908
X117.522Y-35.988
X122.0Y-28.57
X124.644Y-49.7
X124.936Y-57.553
X126.9Y-44.48
X127.12Y-47.57
X128.59Y-51.32
X130.44Y-43.9
X130.44Y-46.79
X130.987Y-57.543
X130.99Y-38.54
X131.43Y-50.402
X132.406Y-32.686
X132.508Y-38.528
X132.559Y-23.694
X132.907Y-50.402
X134.097Y-50.215
X134.4Y-53.83
X136.46Y-53.81
X136.5Y-42.35
X137.131Y-48.891
X137.43Y-45.97
X138.096Y-44.878
X138.359Y-57.616
X138.413Y-38.528
X138.502Y-47.012
X138.502Y-48.129
X138.7Y-49.89
X140.738Y-36.787
X141.652Y-30.4
X141.652Y-33.448
X141.92Y-50.75
=======
X106.47Y-47.77
X111.77Y-47.7
X111.871Y-29.156
X111.871Y-31.188
X112.023Y-40.789
X112.5Y-55.69
X115.681Y-35.252
X115.681Y-41.856
X117.459Y-35.506
X117.459Y-40.586
X118.16Y-49.72
X120.9Y-57.34
X121.62Y-32.95
X123.07Y-47.5
X123.47Y-57.64
X124.51Y-49.82
X126.412Y-43.862
X126.412Y-45.03
X126.564Y-36.344
X126.564Y-49.806
X126.793Y-47.418
X130.476Y-55.165
X130.48Y-32.31
X130.49Y-57.6
X130.58Y-48.27
X130.73Y-53.895
X130.938Y-50.402
X131.936Y-42.274
X132.14Y-50.402
X132.508Y-38.528
X133.32Y-32.686
X133.397Y-50.402
X133.905Y-53.895
X135.302Y-53.895
X135.76Y-37.59
X135.81Y-42.135
X136.826Y-45.843
X137.05Y-35.81
X137.131Y-48.891
X137.14Y-30.34
X138.096Y-44.878
X138.502Y-47.012
X138.502Y-48.129
X138.731Y-49.895
X139.28Y-38.57
X140.6Y-34.33
X140.687Y-57.578
X140.738Y-36.787
X141.74Y-32.08
X141.99Y-52.84
>>>>>>> Stashed changes
X142.596Y-38.687
X153.031Y-38.782
T2
X147.38Y-22.98
X147.38Y-25.52
X147.38Y-28.06
X147.38Y-30.6
X147.38Y-33.14
X147.38Y-35.68
X147.38Y-38.22
X147.38Y-40.76
X147.38Y-43.3
X147.38Y-45.84
X147.38Y-48.38
X147.38Y-50.92
X147.38Y-53.46
X147.38Y-56.0
X155.0Y-22.98
X155.0Y-25.52
X155.0Y-28.06
X155.0Y-30.6
X155.0Y-33.14
X155.0Y-35.68
X155.0Y-38.22
X155.0Y-40.76
X155.0Y-43.3
X155.0Y-45.84
X155.0Y-48.38
X155.0Y-50.92
X155.0Y-53.46
X155.0Y-56.0
T3
X103.332Y-24.555
X103.332Y-29.055
T4
X137.75Y-23.18
X137.75Y-25.72
X140.29Y-23.18
X140.29Y-25.72
X142.83Y-23.18
X142.83Y-25.72
T5
X105.822Y-23.295
X105.822Y-30.305
T0
M30
