  0
SECTION
  2
HEADER
  9
$ANGBASE
  50
0.0
  9
$ANGDIR
  70
1
  9
$MEASUREMENT
  70
1
  0
ENDSEC
  0
SECTION
  2
TABLES
  0
TABLE
  2
LTYPE
  70
4
  0
LTYPE
  5
40F
  2
CONTINUOUS
  70
0
  3
Solid line
  72
65
  73
0
  40
0.0
  0
LTYPE
  5
410
  2
DASHDOT
 70
0
  3
Dash Dot ____ _ ____ _
 72
65
 73
4
 40
2.0
 49
1.25
 49
-0.25
 49
0.25
 49
-0.25
  0
LTYPE
  5
411
  2
DASHED
 70
0
  3
Dashed __ __ __ __ __
 72
65
 73
2
 40
0.75
 49
0.5
 49
-0.25
  0
LTYPE
  5
43B
  2
DOTTED
 70
0
  3
Dotted .  .  .  .
 72
65
 73
2
 40
0.2
 49
0.0
 49
-0.2
  0
ENDTAB
  0
TABLE
  2
STYLE
  70
4
  0
STYLE
  2
KICAD
  70
0
  40
0
  41
1
  42
1
  50
0
  71
0
  3
isocp.shx
  0
STYLE
  2
KICADB
  70
0
  40
0
  41
1
  42
1
  50
0
  71
0
  3
isocp.shx
  0
STYLE
  2
KICADI
  70
0
  40
0
  41
1
  42
1
  50
15
  71
0
  3
isocp.shx
  0
STYLE
  2
KICADBI
  70
0
  40
0
  41
1
  42
1
  50
15
  71
0
  3
isocp.shx
  0
ENDTAB
  0
TABLE
  2
LAYER
  70
1
  0
LAYER
  2
BLACK
  70
0
  62
7
  6
CONTINUOUS
  0
ENDTAB
  0
ENDSEC
  0
SECTION
  2
ENTITIES
0
LINE
8
BLACK
6
CONTINUOUS
10
100
20
-58
11
100
21
-22.5
0
LINE
8
BLACK
6
CONTINUOUS
10
110.25
20
-58.25
11
110.25
21
-55.75
0
LINE
8
BLACK
6
CONTINUOUS
10
109.75
20
-55.75
11
109.75
21
-58.25
0
LINE
8
BLACK
6
CONTINUOUS
10
110.25
20
-54.75
11
110.25
21
-52.5
0
LINE
8
BLACK
6
CONTINUOUS
10
109.75
20
-52.5
11
109.75
21
-54.75
0
LINE
8
BLACK
6
CONTINUOUS
10
101.75
20
-49.75
11
104.5
21
-49.75
0
LINE
8
BLACK
6
CONTINUOUS
10
104.5
20
-50.25
11
101.75
21
-50.25
0
ARC
8
BLACK
10
107.5
20
-50
40
0.25
50
-90
51
90
0
ARC
8
BLACK
10
105.5
20
-50
40
0.25
50
-270
51
-90
0
LINE
8
BLACK
6
CONTINUOUS
10
105.5
20
-49.75
11
107.5
21
-49.75
0
LINE
8
BLACK
6
CONTINUOUS
10
107.5
20
-50.25
11
105.5
21
-50.25
0
ARC
8
BLACK
10
108.5
20
-50
40
0.25
50
-270
51
-90
0
ARC
8
BLACK
10
110
20
-51.5
40
0.25
50
-180
51
-0
0
LINE
8
BLACK
6
CONTINUOUS
10
102
20
-20.5
11
158
21
-20.5
0
ARC
8
BLACK
10
110
20
-55.75
40
0.25
50
-0
51
180
0
ARC
8
BLACK
10
101.75
20
-50
40
0.25
50
-270
51
-90
0
ARC
8
BLACK
10
110
20
-52.5
40
0.25
50
-0
51
180
0
ARC
8
BLACK
10
102
20
-22.5
40
2
50
90
51
180
0
ARC
8
BLACK
10
110
20
-58.25
40
0.25
50
-180
51
-0
0
CIRCLE
8
BLACK
10
105
20
-55
40
1.7
0
ARC
8
BLACK
10
108.5
20
-51.5
40
1.25
50
-0
51
90
0
ARC
8
BLACK
10
108.5
20
-51.5
40
1.75
50
-0
51
90
0
ARC
8
BLACK
10
110
20
-54.75
40
0.25
50
-180
51
-0
0
ARC
8
BLACK
10
104.5
20
-50
40
0.25
50
-90
51
90
0
LINE
8
BLACK
6
CONTINUOUS
10
158
20
-60
11
102
21
-60
0
LINE
8
BLACK
6
CONTINUOUS
10
160
20
-22.5
11
160
21
-58
0
ARC
8
BLACK
10
102
20
-58
40
2
50
-180
51
-90
0
ARC
8
BLACK
10
158
20
-22.5
40
2
50
-0
51
90
0
ARC
8
BLACK
10
158
20
-58
40
2
50
-90
51
-0
0
LINE
8
BLACK
6
CONTINUOUS
10
106.087
20
-35.9243
11
106.987
21
-36.8242
0
LINE
8
BLACK
6
CONTINUOUS
10
106.987
20
-35.9243
11
106.087
21
-36.8242
0
LINE
8
BLACK
6
CONTINUOUS
10
106.087
20
-40.3242
11
106.987
21
-41.2242
0
LINE
8
BLACK
6
CONTINUOUS
10
106.987
20
-40.3242
11
106.087
21
-41.2242
0
LINE
8
BLACK
6
CONTINUOUS
10
102.551
20
-63.1298
11
102.551
21
-61.1298
0
LINE
8
BLACK
6
CONTINUOUS
10
102.551
20
-61.1298
11
103.027
21
-61.1298
0
LINE
8
BLACK
6
CONTINUOUS
10
103.027
20
-61.1298
11
103.313
21
-61.225
0
LINE
8
BLACK
6
CONTINUOUS
10
103.313
20
-61.225
11
103.504
21
-61.4155
0
LINE
8
BLACK
6
CONTINUOUS
10
103.504
20
-61.4155
11
103.599
21
-61.606
0
LINE
8
BLACK
6
CONTINUOUS
10
103.599
20
-61.606
11
103.694
21
-61.9869
0
LINE
8
BLACK
6
CONTINUOUS
10
103.694
20
-61.9869
11
103.694
21
-62.2726
0
LINE
8
BLACK
6
CONTINUOUS
10
103.694
20
-62.2726
11
103.599
21
-62.6536
0
LINE
8
BLACK
6
CONTINUOUS
10
103.599
20
-62.6536
11
103.504
21
-62.844
0
LINE
8
BLACK
6
CONTINUOUS
10
103.504
20
-62.844
11
103.313
21
-63.0345
0
LINE
8
BLACK
6
CONTINUOUS
10
103.313
20
-63.0345
11
103.027
21
-63.1298
0
LINE
8
BLACK
6
CONTINUOUS
10
103.027
20
-63.1298
11
102.551
21
-63.1298
0
LINE
8
BLACK
6
CONTINUOUS
10
104.551
20
-63.1298
11
104.551
21
-61.7964
0
LINE
8
BLACK
6
CONTINUOUS
10
104.551
20
-62.1774
11
104.646
21
-61.9869
0
LINE
8
BLACK
6
CONTINUOUS
10
104.646
20
-61.9869
11
104.742
21
-61.8917
0
LINE
8
BLACK
6
CONTINUOUS
10
104.742
20
-61.8917
11
104.932
21
-61.7964
0
LINE
8
BLACK
6
CONTINUOUS
10
104.932
20
-61.7964
11
105.123
21
-61.7964
0
LINE
8
BLACK
6
CONTINUOUS
10
105.789
20
-63.1298
11
105.789
21
-61.7964
0
LINE
8
BLACK
6
CONTINUOUS
10
105.789
20
-61.1298
11
105.694
21
-61.225
0
LINE
8
BLACK
6
CONTINUOUS
10
105.694
20
-61.225
11
105.789
21
-61.3202
0
LINE
8
BLACK
6
CONTINUOUS
10
105.789
20
-61.3202
11
105.885
21
-61.225
0
LINE
8
BLACK
6
CONTINUOUS
10
105.885
20
-61.225
11
105.789
21
-61.1298
0
LINE
8
BLACK
6
CONTINUOUS
10
105.789
20
-61.1298
11
105.789
21
-61.3202
0
LINE
8
BLACK
6
CONTINUOUS
10
107.027
20
-63.1298
11
106.837
21
-63.0345
0
LINE
8
BLACK
6
CONTINUOUS
10
106.837
20
-63.0345
11
106.742
21
-62.844
0
LINE
8
BLACK
6
CONTINUOUS
10
106.742
20
-62.844
11
106.742
21
-61.1298
0
LINE
8
BLACK
6
CONTINUOUS
10
108.075
20
-63.1298
11
107.885
21
-63.0345
0
LINE
8
BLACK
6
CONTINUOUS
10
107.885
20
-63.0345
11
107.789
21
-62.844
0
LINE
8
BLACK
6
CONTINUOUS
10
107.789
20
-62.844
11
107.789
21
-61.1298
0
LINE
8
BLACK
6
CONTINUOUS
10
110.361
20
-63.1298
11
110.361
21
-61.1298
0
LINE
8
BLACK
6
CONTINUOUS
10
110.361
20
-61.1298
11
111.027
21
-62.5583
0
LINE
8
BLACK
6
CONTINUOUS
10
111.027
20
-62.5583
11
111.694
21
-61.1298
0
LINE
8
BLACK
6
CONTINUOUS
10
111.694
20
-61.1298
11
111.694
21
-63.1298
0
LINE
8
BLACK
6
CONTINUOUS
10
113.504
20
-63.1298
11
113.504
21
-62.0821
0
LINE
8
BLACK
6
CONTINUOUS
10
113.504
20
-62.0821
11
113.408
21
-61.8917
0
LINE
8
BLACK
6
CONTINUOUS
10
113.408
20
-61.8917
11
113.218
21
-61.7964
0
LINE
8
BLACK
6
CONTINUOUS
10
113.218
20
-61.7964
11
112.837
21
-61.7964
0
LINE
8
BLACK
6
CONTINUOUS
10
112.837
20
-61.7964
11
112.646
21
-61.8917
0
LINE
8
BLACK
6
CONTINUOUS
10
113.504
20
-63.0345
11
113.313
21
-63.1298
0
LINE
8
BLACK
6
CONTINUOUS
10
113.313
20
-63.1298
11
112.837
21
-63.1298
0
LINE
8
BLACK
6
CONTINUOUS
10
112.837
20
-63.1298
11
112.646
21
-63.0345
0
LINE
8
BLACK
6
CONTINUOUS
10
112.646
20
-63.0345
11
112.551
21
-62.844
0
LINE
8
BLACK
6
CONTINUOUS
10
112.551
20
-62.844
11
112.551
21
-62.6536
0
LINE
8
BLACK
6
CONTINUOUS
10
112.551
20
-62.6536
11
112.646
21
-62.4631
0
LINE
8
BLACK
6
CONTINUOUS
10
112.646
20
-62.4631
11
112.837
21
-62.3679
0
LINE
8
BLACK
6
CONTINUOUS
10
112.837
20
-62.3679
11
113.313
21
-62.3679
0
LINE
8
BLACK
6
CONTINUOUS
10
113.313
20
-62.3679
11
113.504
21
-62.2726
0
LINE
8
BLACK
6
CONTINUOUS
10
114.456
20
-61.7964
11
114.456
21
-63.7964
0
LINE
8
BLACK
6
CONTINUOUS
10
114.456
20
-61.8917
11
114.646
21
-61.7964
0
LINE
8
BLACK
6
CONTINUOUS
10
114.646
20
-61.7964
11
115.027
21
-61.7964
0
LINE
8
BLACK
6
CONTINUOUS
10
115.027
20
-61.7964
11
115.218
21
-61.8917
0
LINE
8
BLACK
6
CONTINUOUS
10
115.218
20
-61.8917
11
115.313
21
-61.9869
0
LINE
8
BLACK
6
CONTINUOUS
10
115.313
20
-61.9869
11
115.408
21
-62.1774
0
LINE
8
BLACK
6
CONTINUOUS
10
115.408
20
-62.1774
11
115.408
21
-62.7488
0
LINE
8
BLACK
6
CONTINUOUS
10
115.408
20
-62.7488
11
115.313
21
-62.9393
0
LINE
8
BLACK
6
CONTINUOUS
10
115.313
20
-62.9393
11
115.218
21
-63.0345
0
LINE
8
BLACK
6
CONTINUOUS
10
115.218
20
-63.0345
11
115.027
21
-63.1298
0
LINE
8
BLACK
6
CONTINUOUS
10
115.027
20
-63.1298
11
114.646
21
-63.1298
0
LINE
8
BLACK
6
CONTINUOUS
10
114.646
20
-63.1298
11
114.456
21
-63.0345
0
LINE
8
BLACK
6
CONTINUOUS
10
116.265
20
-62.9393
11
116.361
21
-63.0345
0
LINE
8
BLACK
6
CONTINUOUS
10
116.361
20
-63.0345
11
116.265
21
-63.1298
0
LINE
8
BLACK
6
CONTINUOUS
10
116.265
20
-63.1298
11
116.17
21
-63.0345
0
LINE
8
BLACK
6
CONTINUOUS
10
116.17
20
-63.0345
11
116.265
21
-62.9393
0
LINE
8
BLACK
6
CONTINUOUS
10
116.265
20
-62.9393
11
116.265
21
-63.1298
0
LINE
8
BLACK
6
CONTINUOUS
10
116.265
20
-61.8917
11
116.361
21
-61.9869
0
LINE
8
BLACK
6
CONTINUOUS
10
116.361
20
-61.9869
11
116.265
21
-62.0821
0
LINE
8
BLACK
6
CONTINUOUS
10
116.265
20
-62.0821
11
116.17
21
-61.9869
0
LINE
8
BLACK
6
CONTINUOUS
10
116.17
20
-61.9869
11
116.265
21
-61.8917
0
LINE
8
BLACK
6
CONTINUOUS
10
116.265
20
-61.8917
11
116.265
21
-62.0821
0
LINE
8
BLACK
6
CONTINUOUS
10
99.075
20
-65.975
11
99.975
21
-66.875
0
LINE
8
BLACK
6
CONTINUOUS
10
99.975
20
-65.975
11
99.075
21
-66.875
0
LINE
8
BLACK
6
CONTINUOUS
10
102.932
20
-65.3298
11
103.123
21
-65.3298
0
LINE
8
BLACK
6
CONTINUOUS
10
103.123
20
-65.3298
11
103.313
21
-65.425
0
LINE
8
BLACK
6
CONTINUOUS
10
103.313
20
-65.425
11
103.408
21
-65.5202
0
LINE
8
BLACK
6
CONTINUOUS
10
103.408
20
-65.5202
11
103.504
21
-65.7107
0
LINE
8
BLACK
6
CONTINUOUS
10
103.504
20
-65.7107
11
103.599
21
-66.0917
0
LINE
8
BLACK
6
CONTINUOUS
10
103.599
20
-66.0917
11
103.599
21
-66.5679
0
LINE
8
BLACK
6
CONTINUOUS
10
103.599
20
-66.5679
11
103.504
21
-66.9488
0
LINE
8
BLACK
6
CONTINUOUS
10
103.504
20
-66.9488
11
103.408
21
-67.1393
0
LINE
8
BLACK
6
CONTINUOUS
10
103.408
20
-67.1393
11
103.313
21
-67.2345
0
LINE
8
BLACK
6
CONTINUOUS
10
103.313
20
-67.2345
11
103.123
21
-67.3298
0
LINE
8
BLACK
6
CONTINUOUS
10
103.123
20
-67.3298
11
102.932
21
-67.3298
0
LINE
8
BLACK
6
CONTINUOUS
10
102.932
20
-67.3298
11
102.742
21
-67.2345
0
LINE
8
BLACK
6
CONTINUOUS
10
102.742
20
-67.2345
11
102.646
21
-67.1393
0
LINE
8
BLACK
6
CONTINUOUS
10
102.646
20
-67.1393
11
102.551
21
-66.9488
0
LINE
8
BLACK
6
CONTINUOUS
10
102.551
20
-66.9488
11
102.456
21
-66.5679
0
LINE
8
BLACK
6
CONTINUOUS
10
102.456
20
-66.5679
11
102.456
21
-66.0917
0
LINE
8
BLACK
6
CONTINUOUS
10
102.456
20
-66.0917
11
102.551
21
-65.7107
0
LINE
8
BLACK
6
CONTINUOUS
10
102.551
20
-65.7107
11
102.646
21
-65.5202
0
LINE
8
BLACK
6
CONTINUOUS
10
102.646
20
-65.5202
11
102.742
21
-65.425
0
LINE
8
BLACK
6
CONTINUOUS
10
102.742
20
-65.425
11
102.932
21
-65.3298
0
LINE
8
BLACK
6
CONTINUOUS
10
104.456
20
-67.1393
11
104.551
21
-67.2345
0
LINE
8
BLACK
6
CONTINUOUS
10
104.551
20
-67.2345
11
104.456
21
-67.3298
0
LINE
8
BLACK
6
CONTINUOUS
10
104.456
20
-67.3298
11
104.361
21
-67.2345
0
LINE
8
BLACK
6
CONTINUOUS
10
104.361
20
-67.2345
11
104.456
21
-67.1393
0
LINE
8
BLACK
6
CONTINUOUS
10
104.456
20
-67.1393
11
104.456
21
-67.3298
0
LINE
8
BLACK
6
CONTINUOUS
10
105.504
20
-67.3298
11
105.885
21
-67.3298
0
LINE
8
BLACK
6
CONTINUOUS
10
105.885
20
-67.3298
11
106.075
21
-67.2345
0
LINE
8
BLACK
6
CONTINUOUS
10
106.075
20
-67.2345
11
106.17
21
-67.1393
0
LINE
8
BLACK
6
CONTINUOUS
10
106.17
20
-67.1393
11
106.361
21
-66.8536
0
LINE
8
BLACK
6
CONTINUOUS
10
106.361
20
-66.8536
11
106.456
21
-66.4726
0
LINE
8
BLACK
6
CONTINUOUS
10
106.456
20
-66.4726
11
106.456
21
-65.7107
0
LINE
8
BLACK
6
CONTINUOUS
10
106.456
20
-65.7107
11
106.361
21
-65.5202
0
LINE
8
BLACK
6
CONTINUOUS
10
106.361
20
-65.5202
11
106.265
21
-65.425
0
LINE
8
BLACK
6
CONTINUOUS
10
106.265
20
-65.425
11
106.075
21
-65.3298
0
LINE
8
BLACK
6
CONTINUOUS
10
106.075
20
-65.3298
11
105.694
21
-65.3298
0
LINE
8
BLACK
6
CONTINUOUS
10
105.694
20
-65.3298
11
105.504
21
-65.425
0
LINE
8
BLACK
6
CONTINUOUS
10
105.504
20
-65.425
11
105.408
21
-65.5202
0
LINE
8
BLACK
6
CONTINUOUS
10
105.408
20
-65.5202
11
105.313
21
-65.7107
0
LINE
8
BLACK
6
CONTINUOUS
10
105.313
20
-65.7107
11
105.313
21
-66.1869
0
LINE
8
BLACK
6
CONTINUOUS
10
105.313
20
-66.1869
11
105.408
21
-66.3774
0
LINE
8
BLACK
6
CONTINUOUS
10
105.408
20
-66.3774
11
105.504
21
-66.4726
0
LINE
8
BLACK
6
CONTINUOUS
10
105.504
20
-66.4726
11
105.694
21
-66.5679
0
LINE
8
BLACK
6
CONTINUOUS
10
105.694
20
-66.5679
11
106.075
21
-66.5679
0
LINE
8
BLACK
6
CONTINUOUS
10
106.075
20
-66.5679
11
106.265
21
-66.4726
0
LINE
8
BLACK
6
CONTINUOUS
10
106.265
20
-66.4726
11
106.361
21
-66.3774
0
LINE
8
BLACK
6
CONTINUOUS
10
106.361
20
-66.3774
11
106.456
21
-66.1869
0
LINE
8
BLACK
6
CONTINUOUS
10
107.694
20
-65.3298
11
107.885
21
-65.3298
0
LINE
8
BLACK
6
CONTINUOUS
10
107.885
20
-65.3298
11
108.075
21
-65.425
0
LINE
8
BLACK
6
CONTINUOUS
10
108.075
20
-65.425
11
108.17
21
-65.5202
0
LINE
8
BLACK
6
CONTINUOUS
10
108.17
20
-65.5202
11
108.265
21
-65.7107
0
LINE
8
BLACK
6
CONTINUOUS
10
108.265
20
-65.7107
11
108.361
21
-66.0917
0
LINE
8
BLACK
6
CONTINUOUS
10
108.361
20
-66.0917
11
108.361
21
-66.5679
0
LINE
8
BLACK
6
CONTINUOUS
10
108.361
20
-66.5679
11
108.265
21
-66.9488
0
LINE
8
BLACK
6
CONTINUOUS
10
108.265
20
-66.9488
11
108.17
21
-67.1393
0
LINE
8
BLACK
6
CONTINUOUS
10
108.17
20
-67.1393
11
108.075
21
-67.2345
0
LINE
8
BLACK
6
CONTINUOUS
10
108.075
20
-67.2345
11
107.885
21
-67.3298
0
LINE
8
BLACK
6
CONTINUOUS
10
107.885
20
-67.3298
11
107.694
21
-67.3298
0
LINE
8
BLACK
6
CONTINUOUS
10
107.694
20
-67.3298
11
107.504
21
-67.2345
0
LINE
8
BLACK
6
CONTINUOUS
10
107.504
20
-67.2345
11
107.408
21
-67.1393
0
LINE
8
BLACK
6
CONTINUOUS
10
107.408
20
-67.1393
11
107.313
21
-66.9488
0
LINE
8
BLACK
6
CONTINUOUS
10
107.313
20
-66.9488
11
107.218
21
-66.5679
0
LINE
8
BLACK
6
CONTINUOUS
10
107.218
20
-66.5679
11
107.218
21
-66.0917
0
LINE
8
BLACK
6
CONTINUOUS
10
107.218
20
-66.0917
11
107.313
21
-65.7107
0
LINE
8
BLACK
6
CONTINUOUS
10
107.313
20
-65.7107
11
107.408
21
-65.5202
0
LINE
8
BLACK
6
CONTINUOUS
10
107.408
20
-65.5202
11
107.504
21
-65.425
0
LINE
8
BLACK
6
CONTINUOUS
10
107.504
20
-65.425
11
107.694
21
-65.3298
0
LINE
8
BLACK
6
CONTINUOUS
10
109.599
20
-65.3298
11
109.789
21
-65.3298
0
LINE
8
BLACK
6
CONTINUOUS
10
109.789
20
-65.3298
11
109.98
21
-65.425
0
LINE
8
BLACK
6
CONTINUOUS
10
109.98
20
-65.425
11
110.075
21
-65.5202
0
LINE
8
BLACK
6
CONTINUOUS
10
110.075
20
-65.5202
11
110.17
21
-65.7107
0
LINE
8
BLACK
6
CONTINUOUS
10
110.17
20
-65.7107
11
110.265
21
-66.0917
0
LINE
8
BLACK
6
CONTINUOUS
10
110.265
20
-66.0917
11
110.265
21
-66.5679
0
LINE
8
BLACK
6
CONTINUOUS
10
110.265
20
-66.5679
11
110.17
21
-66.9488
0
LINE
8
BLACK
6
CONTINUOUS
10
110.17
20
-66.9488
11
110.075
21
-67.1393
0
LINE
8
BLACK
6
CONTINUOUS
10
110.075
20
-67.1393
11
109.98
21
-67.2345
0
LINE
8
BLACK
6
CONTINUOUS
10
109.98
20
-67.2345
11
109.789
21
-67.3298
0
LINE
8
BLACK
6
CONTINUOUS
10
109.789
20
-67.3298
11
109.599
21
-67.3298
0
LINE
8
BLACK
6
CONTINUOUS
10
109.599
20
-67.3298
11
109.408
21
-67.2345
0
LINE
8
BLACK
6
CONTINUOUS
10
109.408
20
-67.2345
11
109.313
21
-67.1393
0
LINE
8
BLACK
6
CONTINUOUS
10
109.313
20
-67.1393
11
109.218
21
-66.9488
0
LINE
8
BLACK
6
CONTINUOUS
10
109.218
20
-66.9488
11
109.123
21
-66.5679
0
LINE
8
BLACK
6
CONTINUOUS
10
109.123
20
-66.5679
11
109.123
21
-66.0917
0
LINE
8
BLACK
6
CONTINUOUS
10
109.123
20
-66.0917
11
109.218
21
-65.7107
0
LINE
8
BLACK
6
CONTINUOUS
10
109.218
20
-65.7107
11
109.313
21
-65.5202
0
LINE
8
BLACK
6
CONTINUOUS
10
109.313
20
-65.5202
11
109.408
21
-65.425
0
LINE
8
BLACK
6
CONTINUOUS
10
109.408
20
-65.425
11
109.599
21
-65.3298
0
LINE
8
BLACK
6
CONTINUOUS
10
111.123
20
-67.3298
11
111.123
21
-65.9964
0
LINE
8
BLACK
6
CONTINUOUS
10
111.123
20
-66.1869
11
111.218
21
-66.0917
0
LINE
8
BLACK
6
CONTINUOUS
10
111.218
20
-66.0917
11
111.408
21
-65.9964
0
LINE
8
BLACK
6
CONTINUOUS
10
111.408
20
-65.9964
11
111.694
21
-65.9964
0
LINE
8
BLACK
6
CONTINUOUS
10
111.694
20
-65.9964
11
111.885
21
-66.0917
0
LINE
8
BLACK
6
CONTINUOUS
10
111.885
20
-66.0917
11
111.98
21
-66.2821
0
LINE
8
BLACK
6
CONTINUOUS
10
111.98
20
-66.2821
11
111.98
21
-67.3298
0
LINE
8
BLACK
6
CONTINUOUS
10
111.98
20
-66.2821
11
112.075
21
-66.0917
0
LINE
8
BLACK
6
CONTINUOUS
10
112.075
20
-66.0917
11
112.265
21
-65.9964
0
LINE
8
BLACK
6
CONTINUOUS
10
112.265
20
-65.9964
11
112.551
21
-65.9964
0
LINE
8
BLACK
6
CONTINUOUS
10
112.551
20
-65.9964
11
112.742
21
-66.0917
0
LINE
8
BLACK
6
CONTINUOUS
10
112.742
20
-66.0917
11
112.837
21
-66.2821
0
LINE
8
BLACK
6
CONTINUOUS
10
112.837
20
-66.2821
11
112.837
21
-67.3298
0
LINE
8
BLACK
6
CONTINUOUS
10
113.789
20
-67.3298
11
113.789
21
-65.9964
0
LINE
8
BLACK
6
CONTINUOUS
10
113.789
20
-66.1869
11
113.885
21
-66.0917
0
LINE
8
BLACK
6
CONTINUOUS
10
113.885
20
-66.0917
11
114.075
21
-65.9964
0
LINE
8
BLACK
6
CONTINUOUS
10
114.075
20
-65.9964
11
114.361
21
-65.9964
0
LINE
8
BLACK
6
CONTINUOUS
10
114.361
20
-65.9964
11
114.551
21
-66.0917
0
LINE
8
BLACK
6
CONTINUOUS
10
114.551
20
-66.0917
11
114.646
21
-66.2821
0
LINE
8
BLACK
6
CONTINUOUS
10
114.646
20
-66.2821
11
114.646
21
-67.3298
0
LINE
8
BLACK
6
CONTINUOUS
10
114.646
20
-66.2821
11
114.742
21
-66.0917
0
LINE
8
BLACK
6
CONTINUOUS
10
114.742
20
-66.0917
11
114.932
21
-65.9964
0
LINE
8
BLACK
6
CONTINUOUS
10
114.932
20
-65.9964
11
115.218
21
-65.9964
0
LINE
8
BLACK
6
CONTINUOUS
10
115.218
20
-65.9964
11
115.408
21
-66.0917
0
LINE
8
BLACK
6
CONTINUOUS
10
115.408
20
-66.0917
11
115.504
21
-66.2821
0
LINE
8
BLACK
6
CONTINUOUS
10
115.504
20
-66.2821
11
115.504
21
-67.3298
0
LINE
8
BLACK
6
CONTINUOUS
10
119.408
20
-65.2345
11
117.694
21
-67.806
0
LINE
8
BLACK
6
CONTINUOUS
10
121.98
20
-65.3298
11
122.17
21
-65.3298
0
LINE
8
BLACK
6
CONTINUOUS
10
122.17
20
-65.3298
11
122.361
21
-65.425
0
LINE
8
BLACK
6
CONTINUOUS
10
122.361
20
-65.425
11
122.456
21
-65.5202
0
LINE
8
BLACK
6
CONTINUOUS
10
122.456
20
-65.5202
11
122.551
21
-65.7107
0
LINE
8
BLACK
6
CONTINUOUS
10
122.551
20
-65.7107
11
122.646
21
-66.0917
0
LINE
8
BLACK
6
CONTINUOUS
10
122.646
20
-66.0917
11
122.646
21
-66.5679
0
LINE
8
BLACK
6
CONTINUOUS
10
122.646
20
-66.5679
11
122.551
21
-66.9488
0
LINE
8
BLACK
6
CONTINUOUS
10
122.551
20
-66.9488
11
122.456
21
-67.1393
0
LINE
8
BLACK
6
CONTINUOUS
10
122.456
20
-67.1393
11
122.361
21
-67.2345
0
LINE
8
BLACK
6
CONTINUOUS
10
122.361
20
-67.2345
11
122.17
21
-67.3298
0
LINE
8
BLACK
6
CONTINUOUS
10
122.17
20
-67.3298
11
121.98
21
-67.3298
0
LINE
8
BLACK
6
CONTINUOUS
10
121.98
20
-67.3298
11
121.789
21
-67.2345
0
LINE
8
BLACK
6
CONTINUOUS
10
121.789
20
-67.2345
11
121.694
21
-67.1393
0
LINE
8
BLACK
6
CONTINUOUS
10
121.694
20
-67.1393
11
121.599
21
-66.9488
0
LINE
8
BLACK
6
CONTINUOUS
10
121.599
20
-66.9488
11
121.504
21
-66.5679
0
LINE
8
BLACK
6
CONTINUOUS
10
121.504
20
-66.5679
11
121.504
21
-66.0917
0
LINE
8
BLACK
6
CONTINUOUS
10
121.504
20
-66.0917
11
121.599
21
-65.7107
0
LINE
8
BLACK
6
CONTINUOUS
10
121.599
20
-65.7107
11
121.694
21
-65.5202
0
LINE
8
BLACK
6
CONTINUOUS
10
121.694
20
-65.5202
11
121.789
21
-65.425
0
LINE
8
BLACK
6
CONTINUOUS
10
121.789
20
-65.425
11
121.98
21
-65.3298
0
LINE
8
BLACK
6
CONTINUOUS
10
123.504
20
-67.1393
11
123.599
21
-67.2345
0
LINE
8
BLACK
6
CONTINUOUS
10
123.599
20
-67.2345
11
123.504
21
-67.3298
0
LINE
8
BLACK
6
CONTINUOUS
10
123.504
20
-67.3298
11
123.408
21
-67.2345
0
LINE
8
BLACK
6
CONTINUOUS
10
123.408
20
-67.2345
11
123.504
21
-67.1393
0
LINE
8
BLACK
6
CONTINUOUS
10
123.504
20
-67.1393
11
123.504
21
-67.3298
0
LINE
8
BLACK
6
CONTINUOUS
10
124.837
20
-65.3298
11
125.027
21
-65.3298
0
LINE
8
BLACK
6
CONTINUOUS
10
125.027
20
-65.3298
11
125.218
21
-65.425
0
LINE
8
BLACK
6
CONTINUOUS
10
125.218
20
-65.425
11
125.313
21
-65.5202
0
LINE
8
BLACK
6
CONTINUOUS
10
125.313
20
-65.5202
11
125.408
21
-65.7107
0
LINE
8
BLACK
6
CONTINUOUS
10
125.408
20
-65.7107
11
125.504
21
-66.0917
0
LINE
8
BLACK
6
CONTINUOUS
10
125.504
20
-66.0917
11
125.504
21
-66.5679
0
LINE
8
BLACK
6
CONTINUOUS
10
125.504
20
-66.5679
11
125.408
21
-66.9488
0
LINE
8
BLACK
6
CONTINUOUS
10
125.408
20
-66.9488
11
125.313
21
-67.1393
0
LINE
8
BLACK
6
CONTINUOUS
10
125.313
20
-67.1393
11
125.218
21
-67.2345
0
LINE
8
BLACK
6
CONTINUOUS
10
125.218
20
-67.2345
11
125.027
21
-67.3298
0
LINE
8
BLACK
6
CONTINUOUS
10
125.027
20
-67.3298
11
124.837
21
-67.3298
0
LINE
8
BLACK
6
CONTINUOUS
10
124.837
20
-67.3298
11
124.646
21
-67.2345
0
LINE
8
BLACK
6
CONTINUOUS
10
124.646
20
-67.2345
11
124.551
21
-67.1393
0
LINE
8
BLACK
6
CONTINUOUS
10
124.551
20
-67.1393
11
124.456
21
-66.9488
0
LINE
8
BLACK
6
CONTINUOUS
10
124.456
20
-66.9488
11
124.361
21
-66.5679
0
LINE
8
BLACK
6
CONTINUOUS
10
124.361
20
-66.5679
11
124.361
21
-66.0917
0
LINE
8
BLACK
6
CONTINUOUS
10
124.361
20
-66.0917
11
124.456
21
-65.7107
0
LINE
8
BLACK
6
CONTINUOUS
10
124.456
20
-65.7107
11
124.551
21
-65.5202
0
LINE
8
BLACK
6
CONTINUOUS
10
124.551
20
-65.5202
11
124.646
21
-65.425
0
LINE
8
BLACK
6
CONTINUOUS
10
124.646
20
-65.425
11
124.837
21
-65.3298
0
LINE
8
BLACK
6
CONTINUOUS
10
126.17
20
-65.3298
11
127.408
21
-65.3298
0
LINE
8
BLACK
6
CONTINUOUS
10
127.408
20
-65.3298
11
126.742
21
-66.0917
0
LINE
8
BLACK
6
CONTINUOUS
10
126.742
20
-66.0917
11
127.027
21
-66.0917
0
LINE
8
BLACK
6
CONTINUOUS
10
127.027
20
-66.0917
11
127.218
21
-66.1869
0
LINE
8
BLACK
6
CONTINUOUS
10
127.218
20
-66.1869
11
127.313
21
-66.2821
0
LINE
8
BLACK
6
CONTINUOUS
10
127.313
20
-66.2821
11
127.408
21
-66.4726
0
LINE
8
BLACK
6
CONTINUOUS
10
127.408
20
-66.4726
11
127.408
21
-66.9488
0
LINE
8
BLACK
6
CONTINUOUS
10
127.408
20
-66.9488
11
127.313
21
-67.1393
0
LINE
8
BLACK
6
CONTINUOUS
10
127.313
20
-67.1393
11
127.218
21
-67.2345
0
LINE
8
BLACK
6
CONTINUOUS
10
127.218
20
-67.2345
11
127.027
21
-67.3298
0
LINE
8
BLACK
6
CONTINUOUS
10
127.027
20
-67.3298
11
126.456
21
-67.3298
0
LINE
8
BLACK
6
CONTINUOUS
10
126.456
20
-67.3298
11
126.265
21
-67.2345
0
LINE
8
BLACK
6
CONTINUOUS
10
126.265
20
-67.2345
11
126.17
21
-67.1393
0
LINE
8
BLACK
6
CONTINUOUS
10
129.218
20
-65.3298
11
128.265
21
-65.3298
0
LINE
8
BLACK
6
CONTINUOUS
10
128.265
20
-65.3298
11
128.17
21
-66.2821
0
LINE
8
BLACK
6
CONTINUOUS
10
128.17
20
-66.2821
11
128.265
21
-66.1869
0
LINE
8
BLACK
6
CONTINUOUS
10
128.265
20
-66.1869
11
128.456
21
-66.0917
0
LINE
8
BLACK
6
CONTINUOUS
10
128.456
20
-66.0917
11
128.932
21
-66.0917
0
LINE
8
BLACK
6
CONTINUOUS
10
128.932
20
-66.0917
11
129.123
21
-66.1869
0
LINE
8
BLACK
6
CONTINUOUS
10
129.123
20
-66.1869
11
129.218
21
-66.2821
0
LINE
8
BLACK
6
CONTINUOUS
10
129.218
20
-66.2821
11
129.313
21
-66.4726
0
LINE
8
BLACK
6
CONTINUOUS
10
129.313
20
-66.4726
11
129.313
21
-66.9488
0
LINE
8
BLACK
6
CONTINUOUS
10
129.313
20
-66.9488
11
129.218
21
-67.1393
0
LINE
8
BLACK
6
CONTINUOUS
10
129.218
20
-67.1393
11
129.123
21
-67.2345
0
LINE
8
BLACK
6
CONTINUOUS
10
129.123
20
-67.2345
11
128.932
21
-67.3298
0
LINE
8
BLACK
6
CONTINUOUS
10
128.932
20
-67.3298
11
128.456
21
-67.3298
0
LINE
8
BLACK
6
CONTINUOUS
10
128.456
20
-67.3298
11
128.265
21
-67.2345
0
LINE
8
BLACK
6
CONTINUOUS
10
128.265
20
-67.2345
11
128.17
21
-67.1393
0
LINE
8
BLACK
6
CONTINUOUS
10
131.027
20
-65.9964
11
131.027
21
-67.3298
0
LINE
8
BLACK
6
CONTINUOUS
10
130.551
20
-65.2345
11
130.075
21
-66.6631
0
LINE
8
BLACK
6
CONTINUOUS
10
130.075
20
-66.6631
11
131.313
21
-66.6631
0
LINE
8
BLACK
6
CONTINUOUS
10
131.98
20
-65.3298
11
131.98
21
-65.7107
0
LINE
8
BLACK
6
CONTINUOUS
10
132.742
20
-65.3298
11
132.742
21
-65.7107
0
LINE
8
BLACK
6
CONTINUOUS
10
135.694
20
-68.0917
11
135.599
21
-67.9964
0
LINE
8
BLACK
6
CONTINUOUS
10
135.599
20
-67.9964
11
135.408
21
-67.7107
0
LINE
8
BLACK
6
CONTINUOUS
10
135.408
20
-67.7107
11
135.313
21
-67.5202
0
LINE
8
BLACK
6
CONTINUOUS
10
135.313
20
-67.5202
11
135.218
21
-67.2345
0
LINE
8
BLACK
6
CONTINUOUS
10
135.218
20
-67.2345
11
135.123
21
-66.7583
0
LINE
8
BLACK
6
CONTINUOUS
10
135.123
20
-66.7583
11
135.123
21
-66.3774
0
LINE
8
BLACK
6
CONTINUOUS
10
135.123
20
-66.3774
11
135.218
21
-65.9012
0
LINE
8
BLACK
6
CONTINUOUS
10
135.218
20
-65.9012
11
135.313
21
-65.6155
0
LINE
8
BLACK
6
CONTINUOUS
10
135.313
20
-65.6155
11
135.408
21
-65.425
0
LINE
8
BLACK
6
CONTINUOUS
10
135.408
20
-65.425
11
135.599
21
-65.1393
0
LINE
8
BLACK
6
CONTINUOUS
10
135.599
20
-65.1393
11
135.694
21
-65.044
0
LINE
8
BLACK
6
CONTINUOUS
10
136.361
20
-65.5202
11
136.456
21
-65.425
0
LINE
8
BLACK
6
CONTINUOUS
10
136.456
20
-65.425
11
136.646
21
-65.3298
0
LINE
8
BLACK
6
CONTINUOUS
10
136.646
20
-65.3298
11
137.123
21
-65.3298
0
LINE
8
BLACK
6
CONTINUOUS
10
137.123
20
-65.3298
11
137.313
21
-65.425
0
LINE
8
BLACK
6
CONTINUOUS
10
137.313
20
-65.425
11
137.408
21
-65.5202
0
LINE
8
BLACK
6
CONTINUOUS
10
137.408
20
-65.5202
11
137.504
21
-65.7107
0
LINE
8
BLACK
6
CONTINUOUS
10
137.504
20
-65.7107
11
137.504
21
-65.9012
0
LINE
8
BLACK
6
CONTINUOUS
10
137.504
20
-65.9012
11
137.408
21
-66.1869
0
LINE
8
BLACK
6
CONTINUOUS
10
137.408
20
-66.1869
11
136.265
21
-67.3298
0
LINE
8
BLACK
6
CONTINUOUS
10
136.265
20
-67.3298
11
137.504
21
-67.3298
0
LINE
8
BLACK
6
CONTINUOUS
10
139.885
20
-67.3298
11
139.885
21
-65.3298
0
LINE
8
BLACK
6
CONTINUOUS
10
140.742
20
-67.3298
11
140.742
21
-66.2821
0
LINE
8
BLACK
6
CONTINUOUS
10
140.742
20
-66.2821
11
140.646
21
-66.0917
0
LINE
8
BLACK
6
CONTINUOUS
10
140.646
20
-66.0917
11
140.456
21
-65.9964
0
LINE
8
BLACK
6
CONTINUOUS
10
140.456
20
-65.9964
11
140.17
21
-65.9964
0
LINE
8
BLACK
6
CONTINUOUS
10
140.17
20
-65.9964
11
139.98
21
-66.0917
0
LINE
8
BLACK
6
CONTINUOUS
10
139.98
20
-66.0917
11
139.885
21
-66.1869
0
LINE
8
BLACK
6
CONTINUOUS
10
141.98
20
-67.3298
11
141.789
21
-67.2345
0
LINE
8
BLACK
6
CONTINUOUS
10
141.789
20
-67.2345
11
141.694
21
-67.1393
0
LINE
8
BLACK
6
CONTINUOUS
10
141.694
20
-67.1393
11
141.599
21
-66.9488
0
LINE
8
BLACK
6
CONTINUOUS
10
141.599
20
-66.9488
11
141.599
21
-66.3774
0
LINE
8
BLACK
6
CONTINUOUS
10
141.599
20
-66.3774
11
141.694
21
-66.1869
0
LINE
8
BLACK
6
CONTINUOUS
10
141.694
20
-66.1869
11
141.789
21
-66.0917
0
LINE
8
BLACK
6
CONTINUOUS
10
141.789
20
-66.0917
11
141.98
21
-65.9964
0
LINE
8
BLACK
6
CONTINUOUS
10
141.98
20
-65.9964
11
142.265
21
-65.9964
0
LINE
8
BLACK
6
CONTINUOUS
10
142.265
20
-65.9964
11
142.456
21
-66.0917
0
LINE
8
BLACK
6
CONTINUOUS
10
142.456
20
-66.0917
11
142.551
21
-66.1869
0
LINE
8
BLACK
6
CONTINUOUS
10
142.551
20
-66.1869
11
142.646
21
-66.3774
0
LINE
8
BLACK
6
CONTINUOUS
10
142.646
20
-66.3774
11
142.646
21
-66.9488
0
LINE
8
BLACK
6
CONTINUOUS
10
142.646
20
-66.9488
11
142.551
21
-67.1393
0
LINE
8
BLACK
6
CONTINUOUS
10
142.551
20
-67.1393
11
142.456
21
-67.2345
0
LINE
8
BLACK
6
CONTINUOUS
10
142.456
20
-67.2345
11
142.265
21
-67.3298
0
LINE
8
BLACK
6
CONTINUOUS
10
142.265
20
-67.3298
11
141.98
21
-67.3298
0
LINE
8
BLACK
6
CONTINUOUS
10
143.789
20
-67.3298
11
143.599
21
-67.2345
0
LINE
8
BLACK
6
CONTINUOUS
10
143.599
20
-67.2345
11
143.504
21
-67.044
0
LINE
8
BLACK
6
CONTINUOUS
10
143.504
20
-67.044
11
143.504
21
-65.3298
0
LINE
8
BLACK
6
CONTINUOUS
10
145.313
20
-67.2345
11
145.123
21
-67.3298
0
LINE
8
BLACK
6
CONTINUOUS
10
145.123
20
-67.3298
11
144.742
21
-67.3298
0
LINE
8
BLACK
6
CONTINUOUS
10
144.742
20
-67.3298
11
144.551
21
-67.2345
0
LINE
8
BLACK
6
CONTINUOUS
10
144.551
20
-67.2345
11
144.456
21
-67.044
0
LINE
8
BLACK
6
CONTINUOUS
10
144.456
20
-67.044
11
144.456
21
-66.2821
0
LINE
8
BLACK
6
CONTINUOUS
10
144.456
20
-66.2821
11
144.551
21
-66.0917
0
LINE
8
BLACK
6
CONTINUOUS
10
144.551
20
-66.0917
11
144.742
21
-65.9964
0
LINE
8
BLACK
6
CONTINUOUS
10
144.742
20
-65.9964
11
145.123
21
-65.9964
0
LINE
8
BLACK
6
CONTINUOUS
10
145.123
20
-65.9964
11
145.313
21
-66.0917
0
LINE
8
BLACK
6
CONTINUOUS
10
145.313
20
-66.0917
11
145.408
21
-66.2821
0
LINE
8
BLACK
6
CONTINUOUS
10
145.408
20
-66.2821
11
145.408
21
-66.4726
0
LINE
8
BLACK
6
CONTINUOUS
10
145.408
20
-66.4726
11
144.456
21
-66.6631
0
LINE
8
BLACK
6
CONTINUOUS
10
146.17
20
-67.2345
11
146.361
21
-67.3298
0
LINE
8
BLACK
6
CONTINUOUS
10
146.361
20
-67.3298
11
146.742
21
-67.3298
0
LINE
8
BLACK
6
CONTINUOUS
10
146.742
20
-67.3298
11
146.932
21
-67.2345
0
LINE
8
BLACK
6
CONTINUOUS
10
146.932
20
-67.2345
11
147.027
21
-67.044
0
LINE
8
BLACK
6
CONTINUOUS
10
147.027
20
-67.044
11
147.027
21
-66.9488
0
LINE
8
BLACK
6
CONTINUOUS
10
147.027
20
-66.9488
11
146.932
21
-66.7583
0
LINE
8
BLACK
6
CONTINUOUS
10
146.932
20
-66.7583
11
146.742
21
-66.6631
0
LINE
8
BLACK
6
CONTINUOUS
10
146.742
20
-66.6631
11
146.456
21
-66.6631
0
LINE
8
BLACK
6
CONTINUOUS
10
146.456
20
-66.6631
11
146.265
21
-66.5679
0
LINE
8
BLACK
6
CONTINUOUS
10
146.265
20
-66.5679
11
146.17
21
-66.3774
0
LINE
8
BLACK
6
CONTINUOUS
10
146.17
20
-66.3774
11
146.17
21
-66.2821
0
LINE
8
BLACK
6
CONTINUOUS
10
146.17
20
-66.2821
11
146.265
21
-66.0917
0
LINE
8
BLACK
6
CONTINUOUS
10
146.265
20
-66.0917
11
146.456
21
-65.9964
0
LINE
8
BLACK
6
CONTINUOUS
10
146.456
20
-65.9964
11
146.742
21
-65.9964
0
LINE
8
BLACK
6
CONTINUOUS
10
146.742
20
-65.9964
11
146.932
21
-66.0917
0
LINE
8
BLACK
6
CONTINUOUS
10
147.694
20
-68.0917
11
147.789
21
-67.9964
0
LINE
8
BLACK
6
CONTINUOUS
10
147.789
20
-67.9964
11
147.98
21
-67.7107
0
LINE
8
BLACK
6
CONTINUOUS
10
147.98
20
-67.7107
11
148.075
21
-67.5202
0
LINE
8
BLACK
6
CONTINUOUS
10
148.075
20
-67.5202
11
148.17
21
-67.2345
0
LINE
8
BLACK
6
CONTINUOUS
10
148.17
20
-67.2345
11
148.265
21
-66.7583
0
LINE
8
BLACK
6
CONTINUOUS
10
148.265
20
-66.7583
11
148.265
21
-66.3774
0
LINE
8
BLACK
6
CONTINUOUS
10
148.265
20
-66.3774
11
148.17
21
-65.9012
0
LINE
8
BLACK
6
CONTINUOUS
10
148.17
20
-65.9012
11
148.075
21
-65.6155
0
LINE
8
BLACK
6
CONTINUOUS
10
148.075
20
-65.6155
11
147.98
21
-65.425
0
LINE
8
BLACK
6
CONTINUOUS
10
147.98
20
-65.425
11
147.789
21
-65.1393
0
LINE
8
BLACK
6
CONTINUOUS
10
147.789
20
-65.1393
11
147.694
21
-65.044
0
LINE
8
BLACK
6
CONTINUOUS
10
151.313
20
-68.0917
11
151.218
21
-67.9964
0
LINE
8
BLACK
6
CONTINUOUS
10
151.218
20
-67.9964
11
151.027
21
-67.7107
0
LINE
8
BLACK
6
CONTINUOUS
10
151.027
20
-67.7107
11
150.932
21
-67.5202
0
LINE
8
BLACK
6
CONTINUOUS
10
150.932
20
-67.5202
11
150.837
21
-67.2345
0
LINE
8
BLACK
6
CONTINUOUS
10
150.837
20
-67.2345
11
150.742
21
-66.7583
0
LINE
8
BLACK
6
CONTINUOUS
10
150.742
20
-66.7583
11
150.742
21
-66.3774
0
LINE
8
BLACK
6
CONTINUOUS
10
150.742
20
-66.3774
11
150.837
21
-65.9012
0
LINE
8
BLACK
6
CONTINUOUS
10
150.837
20
-65.9012
11
150.932
21
-65.6155
0
LINE
8
BLACK
6
CONTINUOUS
10
150.932
20
-65.6155
11
151.027
21
-65.425
0
LINE
8
BLACK
6
CONTINUOUS
10
151.027
20
-65.425
11
151.218
21
-65.1393
0
LINE
8
BLACK
6
CONTINUOUS
10
151.218
20
-65.1393
11
151.313
21
-65.044
0
LINE
8
BLACK
6
CONTINUOUS
10
152.075
20
-65.9964
11
152.075
21
-67.3298
0
LINE
8
BLACK
6
CONTINUOUS
10
152.075
20
-66.1869
11
152.17
21
-66.0917
0
LINE
8
BLACK
6
CONTINUOUS
10
152.17
20
-66.0917
11
152.361
21
-65.9964
0
LINE
8
BLACK
6
CONTINUOUS
10
152.361
20
-65.9964
11
152.646
21
-65.9964
0
LINE
8
BLACK
6
CONTINUOUS
10
152.646
20
-65.9964
11
152.837
21
-66.0917
0
LINE
8
BLACK
6
CONTINUOUS
10
152.837
20
-66.0917
11
152.932
21
-66.2821
0
LINE
8
BLACK
6
CONTINUOUS
10
152.932
20
-66.2821
11
152.932
21
-67.3298
0
LINE
8
BLACK
6
CONTINUOUS
10
154.17
20
-67.3298
11
153.98
21
-67.2345
0
LINE
8
BLACK
6
CONTINUOUS
10
153.98
20
-67.2345
11
153.885
21
-67.1393
0
LINE
8
BLACK
6
CONTINUOUS
10
153.885
20
-67.1393
11
153.789
21
-66.9488
0
LINE
8
BLACK
6
CONTINUOUS
10
153.789
20
-66.9488
11
153.789
21
-66.3774
0
LINE
8
BLACK
6
CONTINUOUS
10
153.789
20
-66.3774
11
153.885
21
-66.1869
0
LINE
8
BLACK
6
CONTINUOUS
10
153.885
20
-66.1869
11
153.98
21
-66.0917
0
LINE
8
BLACK
6
CONTINUOUS
10
153.98
20
-66.0917
11
154.17
21
-65.9964
0
LINE
8
BLACK
6
CONTINUOUS
10
154.17
20
-65.9964
11
154.456
21
-65.9964
0
LINE
8
BLACK
6
CONTINUOUS
10
154.456
20
-65.9964
11
154.646
21
-66.0917
0
LINE
8
BLACK
6
CONTINUOUS
10
154.646
20
-66.0917
11
154.742
21
-66.1869
0
LINE
8
BLACK
6
CONTINUOUS
10
154.742
20
-66.1869
11
154.837
21
-66.3774
0
LINE
8
BLACK
6
CONTINUOUS
10
154.837
20
-66.3774
11
154.837
21
-66.9488
0
LINE
8
BLACK
6
CONTINUOUS
10
154.837
20
-66.9488
11
154.742
21
-67.1393
0
LINE
8
BLACK
6
CONTINUOUS
10
154.742
20
-67.1393
11
154.646
21
-67.2345
0
LINE
8
BLACK
6
CONTINUOUS
10
154.646
20
-67.2345
11
154.456
21
-67.3298
0
LINE
8
BLACK
6
CONTINUOUS
10
154.456
20
-67.3298
11
154.17
21
-67.3298
0
LINE
8
BLACK
6
CONTINUOUS
10
155.408
20
-65.9964
11
156.17
21
-65.9964
0
LINE
8
BLACK
6
CONTINUOUS
10
155.694
20
-65.3298
11
155.694
21
-67.044
0
LINE
8
BLACK
6
CONTINUOUS
10
155.694
20
-67.044
11
155.789
21
-67.2345
0
LINE
8
BLACK
6
CONTINUOUS
10
155.789
20
-67.2345
11
155.98
21
-67.3298
0
LINE
8
BLACK
6
CONTINUOUS
10
155.98
20
-67.3298
11
156.17
21
-67.3298
0
LINE
8
BLACK
6
CONTINUOUS
10
158.361
20
-65.9964
11
158.361
21
-67.9964
0
LINE
8
BLACK
6
CONTINUOUS
10
158.361
20
-66.0917
11
158.551
21
-65.9964
0
LINE
8
BLACK
6
CONTINUOUS
10
158.551
20
-65.9964
11
158.932
21
-65.9964
0
LINE
8
BLACK
6
CONTINUOUS
10
158.932
20
-65.9964
11
159.123
21
-66.0917
0
LINE
8
BLACK
6
CONTINUOUS
10
159.123
20
-66.0917
11
159.218
21
-66.1869
0
LINE
8
BLACK
6
CONTINUOUS
10
159.218
20
-66.1869
11
159.313
21
-66.3774
0
LINE
8
BLACK
6
CONTINUOUS
10
159.313
20
-66.3774
11
159.313
21
-66.9488
0
LINE
8
BLACK
6
CONTINUOUS
10
159.313
20
-66.9488
11
159.218
21
-67.1393
0
LINE
8
BLACK
6
CONTINUOUS
10
159.218
20
-67.1393
11
159.123
21
-67.2345
0
LINE
8
BLACK
6
CONTINUOUS
10
159.123
20
-67.2345
11
158.932
21
-67.3298
0
LINE
8
BLACK
6
CONTINUOUS
10
158.932
20
-67.3298
11
158.551
21
-67.3298
0
LINE
8
BLACK
6
CONTINUOUS
10
158.551
20
-67.3298
11
158.361
21
-67.2345
0
LINE
8
BLACK
6
CONTINUOUS
10
160.456
20
-67.3298
11
160.265
21
-67.2345
0
LINE
8
BLACK
6
CONTINUOUS
10
160.265
20
-67.2345
11
160.17
21
-67.044
0
LINE
8
BLACK
6
CONTINUOUS
10
160.17
20
-67.044
11
160.17
21
-65.3298
0
LINE
8
BLACK
6
CONTINUOUS
10
162.075
20
-67.3298
11
162.075
21
-66.2821
0
LINE
8
BLACK
6
CONTINUOUS
10
162.075
20
-66.2821
11
161.98
21
-66.0917
0
LINE
8
BLACK
6
CONTINUOUS
10
161.98
20
-66.0917
11
161.789
21
-65.9964
0
LINE
8
BLACK
6
CONTINUOUS
10
161.789
20
-65.9964
11
161.408
21
-65.9964
0
LINE
8
BLACK
6
CONTINUOUS
10
161.408
20
-65.9964
11
161.218
21
-66.0917
0
LINE
8
BLACK
6
CONTINUOUS
10
162.075
20
-67.2345
11
161.885
21
-67.3298
0
LINE
8
BLACK
6
CONTINUOUS
10
161.885
20
-67.3298
11
161.408
21
-67.3298
0
LINE
8
BLACK
6
CONTINUOUS
10
161.408
20
-67.3298
11
161.218
21
-67.2345
0
LINE
8
BLACK
6
CONTINUOUS
10
161.218
20
-67.2345
11
161.123
21
-67.044
0
LINE
8
BLACK
6
CONTINUOUS
10
161.123
20
-67.044
11
161.123
21
-66.8536
0
LINE
8
BLACK
6
CONTINUOUS
10
161.123
20
-66.8536
11
161.218
21
-66.6631
0
LINE
8
BLACK
6
CONTINUOUS
10
161.218
20
-66.6631
11
161.408
21
-66.5679
0
LINE
8
BLACK
6
CONTINUOUS
10
161.408
20
-66.5679
11
161.885
21
-66.5679
0
LINE
8
BLACK
6
CONTINUOUS
10
161.885
20
-66.5679
11
162.075
21
-66.4726
0
LINE
8
BLACK
6
CONTINUOUS
10
162.742
20
-65.9964
11
163.504
21
-65.9964
0
LINE
8
BLACK
6
CONTINUOUS
10
163.027
20
-65.3298
11
163.027
21
-67.044
0
LINE
8
BLACK
6
CONTINUOUS
10
163.027
20
-67.044
11
163.123
21
-67.2345
0
LINE
8
BLACK
6
CONTINUOUS
10
163.123
20
-67.2345
11
163.313
21
-67.3298
0
LINE
8
BLACK
6
CONTINUOUS
10
163.313
20
-67.3298
11
163.504
21
-67.3298
0
LINE
8
BLACK
6
CONTINUOUS
10
164.932
20
-67.2345
11
164.742
21
-67.3298
0
LINE
8
BLACK
6
CONTINUOUS
10
164.742
20
-67.3298
11
164.361
21
-67.3298
0
LINE
8
BLACK
6
CONTINUOUS
10
164.361
20
-67.3298
11
164.17
21
-67.2345
0
LINE
8
BLACK
6
CONTINUOUS
10
164.17
20
-67.2345
11
164.075
21
-67.044
0
LINE
8
BLACK
6
CONTINUOUS
10
164.075
20
-67.044
11
164.075
21
-66.2821
0
LINE
8
BLACK
6
CONTINUOUS
10
164.075
20
-66.2821
11
164.17
21
-66.0917
0
LINE
8
BLACK
6
CONTINUOUS
10
164.17
20
-66.0917
11
164.361
21
-65.9964
0
LINE
8
BLACK
6
CONTINUOUS
10
164.361
20
-65.9964
11
164.742
21
-65.9964
0
LINE
8
BLACK
6
CONTINUOUS
10
164.742
20
-65.9964
11
164.932
21
-66.0917
0
LINE
8
BLACK
6
CONTINUOUS
10
164.932
20
-66.0917
11
165.027
21
-66.2821
0
LINE
8
BLACK
6
CONTINUOUS
10
165.027
20
-66.2821
11
165.027
21
-66.4726
0
LINE
8
BLACK
6
CONTINUOUS
10
165.027
20
-66.4726
11
164.075
21
-66.6631
0
LINE
8
BLACK
6
CONTINUOUS
10
166.742
20
-67.3298
11
166.742
21
-65.3298
0
LINE
8
BLACK
6
CONTINUOUS
10
166.742
20
-67.2345
11
166.551
21
-67.3298
0
LINE
8
BLACK
6
CONTINUOUS
10
166.551
20
-67.3298
11
166.17
21
-67.3298
0
LINE
8
BLACK
6
CONTINUOUS
10
166.17
20
-67.3298
11
165.98
21
-67.2345
0
LINE
8
BLACK
6
CONTINUOUS
10
165.98
20
-67.2345
11
165.885
21
-67.1393
0
LINE
8
BLACK
6
CONTINUOUS
10
165.885
20
-67.1393
11
165.789
21
-66.9488
0
LINE
8
BLACK
6
CONTINUOUS
10
165.789
20
-66.9488
11
165.789
21
-66.3774
0
LINE
8
BLACK
6
CONTINUOUS
10
165.789
20
-66.3774
11
165.885
21
-66.1869
0
LINE
8
BLACK
6
CONTINUOUS
10
165.885
20
-66.1869
11
165.98
21
-66.0917
0
LINE
8
BLACK
6
CONTINUOUS
10
165.98
20
-66.0917
11
166.17
21
-65.9964
0
LINE
8
BLACK
6
CONTINUOUS
10
166.17
20
-65.9964
11
166.551
21
-65.9964
0
LINE
8
BLACK
6
CONTINUOUS
10
166.551
20
-65.9964
11
166.742
21
-66.0917
0
LINE
8
BLACK
6
CONTINUOUS
10
167.504
20
-68.0917
11
167.599
21
-67.9964
0
LINE
8
BLACK
6
CONTINUOUS
10
167.599
20
-67.9964
11
167.789
21
-67.7107
0
LINE
8
BLACK
6
CONTINUOUS
10
167.789
20
-67.7107
11
167.885
21
-67.5202
0
LINE
8
BLACK
6
CONTINUOUS
10
167.885
20
-67.5202
11
167.98
21
-67.2345
0
LINE
8
BLACK
6
CONTINUOUS
10
167.98
20
-67.2345
11
168.075
21
-66.7583
0
LINE
8
BLACK
6
CONTINUOUS
10
168.075
20
-66.7583
11
168.075
21
-66.3774
0
LINE
8
BLACK
6
CONTINUOUS
10
168.075
20
-66.3774
11
167.98
21
-65.9012
0
LINE
8
BLACK
6
CONTINUOUS
10
167.98
20
-65.9012
11
167.885
21
-65.6155
0
LINE
8
BLACK
6
CONTINUOUS
10
167.885
20
-65.6155
11
167.789
21
-65.425
0
LINE
8
BLACK
6
CONTINUOUS
10
167.789
20
-65.425
11
167.599
21
-65.1393
0
LINE
8
BLACK
6
CONTINUOUS
10
167.599
20
-65.1393
11
167.504
21
-65.044
  0
ENDSEC
  0
EOF
