G04 #@! TF.GenerationSoftware,KiCad,Pcbnew,6.0.2-378541a8eb~116~ubuntu20.04.1*
G04 #@! TF.CreationDate,2022-02-16T17:00:19+01:00*
G04 #@! TF.ProjectId,minimig-arm-controller-0805,6d696e69-6d69-4672-9d61-726d2d636f6e,rev?*
G04 #@! TF.SameCoordinates,Original*
G04 #@! TF.FileFunction,Copper,L2,Inr*
G04 #@! TF.FilePolarity,Positive*
%FSLAX46Y46*%
G04 Gerber Fmt 4.6, Leading zero omitted, Abs format (unit mm)*
G04 Created by KiCad (PCBNEW 6.0.2-378541a8eb~116~ubuntu20.04.1) date 2022-02-16 17:00:19*
%MOMM*%
%LPD*%
G01*
G04 APERTURE LIST*
G04 #@! TA.AperFunction,ComponentPad*
%ADD10C,1.500000*%
G04 #@! TD*
G04 #@! TA.AperFunction,ComponentPad*
%ADD11O,1.700000X1.700000*%
G04 #@! TD*
G04 #@! TA.AperFunction,ComponentPad*
%ADD12R,1.700000X1.700000*%
G04 #@! TD*
G04 #@! TA.AperFunction,ComponentPad*
%ADD13O,1.600000X1.600000*%
G04 #@! TD*
G04 #@! TA.AperFunction,ComponentPad*
%ADD14R,1.600000X1.600000*%
G04 #@! TD*
G04 #@! TA.AperFunction,ViaPad*
%ADD15C,0.800000*%
G04 #@! TD*
G04 APERTURE END LIST*
D10*
G04 #@! TO.N,Net-(C18-Pad1)*
G04 #@! TO.C,X1*
X119980000Y-46230000D03*
G04 #@! TO.N,Net-(C9-Pad1)*
X119980000Y-51110000D03*
G04 #@! TD*
D11*
G04 #@! TO.N,GND*
G04 #@! TO.C,J1*
X124380000Y-26336000D03*
D12*
G04 #@! TO.N,VDDIN*
X124380000Y-23796000D03*
G04 #@! TD*
D11*
G04 #@! TO.N,VDDIN*
G04 #@! TO.C,JP2*
X134946400Y-23694400D03*
D12*
G04 #@! TO.N,TST*
X134946400Y-26234400D03*
G04 #@! TD*
D11*
G04 #@! TO.N,VDDIN*
G04 #@! TO.C,JP1*
X130120400Y-23694400D03*
D12*
G04 #@! TO.N,ERASE*
X130120400Y-26234400D03*
G04 #@! TD*
D13*
G04 #@! TO.N,DIN*
G04 #@! TO.C,U2*
X147380000Y-56000000D03*
G04 #@! TO.N,SCK*
X155000000Y-22980000D03*
G04 #@! TO.N,FPGA2*
X147380000Y-53460000D03*
G04 #@! TO.N,unconnected-(U2-Pad13)*
X155000000Y-25520000D03*
G04 #@! TO.N,FPGA1*
X147380000Y-50920000D03*
G04 #@! TO.N,unconnected-(U2-Pad12)*
X155000000Y-28060000D03*
G04 #@! TO.N,DISKLED*
X147380000Y-48380000D03*
G04 #@! TO.N,MMC_SEL*
X155000000Y-30600000D03*
G04 #@! TO.N,DONE*
X147380000Y-45840000D03*
G04 #@! TO.N,unconnected-(U2-Pad10)*
X155000000Y-33140000D03*
G04 #@! TO.N,unconnected-(U2-Pad23)*
X147380000Y-43300000D03*
G04 #@! TO.N,unconnected-(U2-Pad9)*
X155000000Y-35680000D03*
G04 #@! TO.N,unconnected-(U2-Pad22)*
X147380000Y-40760000D03*
G04 #@! TO.N,GND*
X155000000Y-38220000D03*
G04 #@! TO.N,BUTTON*
X147380000Y-38220000D03*
G04 #@! TO.N,CCLK*
X155000000Y-40760000D03*
G04 #@! TO.N,VDDIN*
X147380000Y-35680000D03*
G04 #@! TO.N,unconnected-(U2-Pad6)*
X155000000Y-43300000D03*
G04 #@! TO.N,GND*
X147380000Y-33140000D03*
G04 #@! TO.N,INIT*
X155000000Y-45840000D03*
G04 #@! TO.N,RXD*
X147380000Y-30600000D03*
G04 #@! TO.N,PROG*
X155000000Y-48380000D03*
G04 #@! TO.N,TXD*
X147380000Y-28060000D03*
G04 #@! TO.N,FPGA0*
X155000000Y-50920000D03*
G04 #@! TO.N,SDO*
X147380000Y-25520000D03*
G04 #@! TO.N,CLKEN*
X155000000Y-53460000D03*
G04 #@! TO.N,SDI*
X147380000Y-22980000D03*
D14*
G04 #@! TO.N,MCLR*
X155000000Y-56000000D03*
G04 #@! TD*
D15*
G04 #@! TO.N,GND*
X123470000Y-57640000D03*
X130490000Y-57600000D03*
X124510000Y-49820000D03*
X115780000Y-42420000D03*
X115780000Y-55040000D03*
X138731000Y-49894500D03*
X132000000Y-50402500D03*
X130730000Y-47926000D03*
X131936500Y-42274500D03*
X141652000Y-30400000D03*
X140686800Y-57578000D03*
X117522000Y-35988000D03*
X117522000Y-30908000D03*
X112086400Y-36191200D03*
X109851200Y-25624800D03*
X110257600Y-42236400D03*
X132406400Y-32686000D03*
X126564400Y-36343600D03*
G04 #@! TO.N,BUTTON*
X153031200Y-38782000D03*
X135810000Y-42134800D03*
G04 #@! TO.N,MMC_SEL*
X142596404Y-38687010D03*
X140737600Y-36787000D03*
G04 #@! TO.N,SDO*
X138502400Y-47011600D03*
G04 #@! TO.N,SCK*
X138502400Y-48129200D03*
G04 #@! TO.N,Net-(Q1-Pad3)*
X115744000Y-30654000D03*
X115744000Y-37258000D03*
G04 #@! TO.N,USB_PULLUP*
X137130800Y-48891200D03*
X121992400Y-24761200D03*
G04 #@! TO.N,VDDIN*
X138413500Y-38528000D03*
X141652000Y-33448000D03*
X132508000Y-38528000D03*
X126412000Y-43862000D03*
X133905000Y-53895000D03*
X142922000Y-51990000D03*
X111934000Y-24558000D03*
X111934000Y-26590000D03*
X132558800Y-23694400D03*
X126793000Y-47418000D03*
X126564400Y-49805600D03*
X130476000Y-55165000D03*
G04 #@! TO.N,SDI*
X138096000Y-44878000D03*
G04 #@! TO.N,VDDCORE*
X126412000Y-45030400D03*
X135302000Y-53895000D03*
X136826000Y-45843200D03*
X130730000Y-53895000D03*
G04 #@! TD*
G04 #@! TA.AperFunction,Conductor*
G04 #@! TO.N,VDDCORE*
G36*
X157970056Y-21009500D02*
G01*
X157972284Y-21009847D01*
X157984859Y-21011805D01*
X157984861Y-21011805D01*
X157993730Y-21013186D01*
X158002632Y-21012022D01*
X158002634Y-21012022D01*
X158008959Y-21011195D01*
X158034282Y-21010452D01*
X158198126Y-21022170D01*
X158203343Y-21022543D01*
X158221137Y-21025101D01*
X158411540Y-21066521D01*
X158428788Y-21071586D01*
X158611358Y-21139682D01*
X158627710Y-21147149D01*
X158693020Y-21182810D01*
X158798734Y-21240534D01*
X158813848Y-21250248D01*
X158923516Y-21332344D01*
X158969842Y-21367023D01*
X158983428Y-21378796D01*
X159121204Y-21516572D01*
X159132977Y-21530158D01*
X159249752Y-21686152D01*
X159259469Y-21701271D01*
X159352851Y-21872290D01*
X159360318Y-21888642D01*
X159428414Y-22071212D01*
X159433480Y-22088462D01*
X159474899Y-22278863D01*
X159477457Y-22296658D01*
X159479359Y-22323251D01*
X159488375Y-22449312D01*
X159489041Y-22458629D01*
X159488297Y-22476533D01*
X159488195Y-22484858D01*
X159486814Y-22493730D01*
X159487978Y-22502632D01*
X159487978Y-22502635D01*
X159490936Y-22525251D01*
X159492000Y-22541589D01*
X159492000Y-57950672D01*
X159490500Y-57970056D01*
X159486814Y-57993730D01*
X159487978Y-58002632D01*
X159487978Y-58002634D01*
X159488805Y-58008959D01*
X159489548Y-58034287D01*
X159477457Y-58203343D01*
X159474899Y-58221137D01*
X159435577Y-58401900D01*
X159433480Y-58411538D01*
X159428414Y-58428788D01*
X159360318Y-58611358D01*
X159352851Y-58627710D01*
X159259469Y-58798729D01*
X159249752Y-58813848D01*
X159244934Y-58820285D01*
X159132977Y-58969842D01*
X159121204Y-58983428D01*
X158983428Y-59121204D01*
X158969841Y-59132977D01*
X158813848Y-59249752D01*
X158798734Y-59259466D01*
X158693020Y-59317190D01*
X158627710Y-59352851D01*
X158611358Y-59360318D01*
X158428788Y-59428414D01*
X158411540Y-59433479D01*
X158248022Y-59469051D01*
X158221137Y-59474899D01*
X158203342Y-59477457D01*
X158154443Y-59480954D01*
X158041369Y-59489041D01*
X158023467Y-59488297D01*
X158015142Y-59488195D01*
X158006270Y-59486814D01*
X157997368Y-59487978D01*
X157997365Y-59487978D01*
X157974749Y-59490936D01*
X157958411Y-59492000D01*
X102049328Y-59492000D01*
X102029943Y-59490500D01*
X102029661Y-59490456D01*
X102027117Y-59490060D01*
X102015141Y-59488195D01*
X102015139Y-59488195D01*
X102006270Y-59486814D01*
X101997368Y-59487978D01*
X101997366Y-59487978D01*
X101991041Y-59488805D01*
X101965718Y-59489548D01*
X101796657Y-59477457D01*
X101778863Y-59474899D01*
X101751978Y-59469051D01*
X101588460Y-59433479D01*
X101571212Y-59428414D01*
X101388642Y-59360318D01*
X101372290Y-59352851D01*
X101306980Y-59317190D01*
X101201266Y-59259466D01*
X101186152Y-59249752D01*
X101030159Y-59132977D01*
X101016572Y-59121204D01*
X100878796Y-58983428D01*
X100867023Y-58969842D01*
X100755066Y-58820285D01*
X100750248Y-58813848D01*
X100740531Y-58798729D01*
X100647149Y-58627710D01*
X100639682Y-58611358D01*
X100571586Y-58428788D01*
X100566520Y-58411538D01*
X100564424Y-58401900D01*
X100525101Y-58221137D01*
X100522543Y-58203342D01*
X100510959Y-58041371D01*
X100511703Y-58023467D01*
X100511805Y-58015142D01*
X100513186Y-58006270D01*
X100511547Y-57993730D01*
X100509064Y-57974749D01*
X100508000Y-57958411D01*
X100508000Y-55000000D01*
X102787262Y-55000000D01*
X102787532Y-55004119D01*
X102804041Y-55255995D01*
X102806192Y-55288820D01*
X102806996Y-55292860D01*
X102806996Y-55292863D01*
X102859351Y-55556067D01*
X102862659Y-55572699D01*
X102863985Y-55576605D01*
X102863986Y-55576609D01*
X102953041Y-55838955D01*
X102955697Y-55846778D01*
X102957518Y-55850471D01*
X102957519Y-55850473D01*
X103067504Y-56073500D01*
X103083713Y-56106369D01*
X103244517Y-56347030D01*
X103247231Y-56350124D01*
X103247235Y-56350130D01*
X103432649Y-56561553D01*
X103435358Y-56564642D01*
X103438447Y-56567351D01*
X103649870Y-56752765D01*
X103649876Y-56752769D01*
X103652970Y-56755483D01*
X103893631Y-56916287D01*
X103897330Y-56918111D01*
X103897335Y-56918114D01*
X104149527Y-57042481D01*
X104153222Y-57044303D01*
X104157120Y-57045626D01*
X104157122Y-57045627D01*
X104423391Y-57136014D01*
X104423395Y-57136015D01*
X104427301Y-57137341D01*
X104431345Y-57138145D01*
X104431351Y-57138147D01*
X104707137Y-57193004D01*
X104707140Y-57193004D01*
X104711180Y-57193808D01*
X104715291Y-57194077D01*
X104715295Y-57194078D01*
X104995881Y-57212468D01*
X105000000Y-57212738D01*
X105004119Y-57212468D01*
X105284705Y-57194078D01*
X105284709Y-57194077D01*
X105288820Y-57193808D01*
X105292860Y-57193004D01*
X105292863Y-57193004D01*
X105568649Y-57138147D01*
X105568655Y-57138145D01*
X105572699Y-57137341D01*
X105576605Y-57136015D01*
X105576609Y-57136014D01*
X105842878Y-57045627D01*
X105842880Y-57045626D01*
X105846778Y-57044303D01*
X105850473Y-57042481D01*
X106102665Y-56918114D01*
X106102670Y-56918111D01*
X106106369Y-56916287D01*
X106347030Y-56755483D01*
X106350124Y-56752769D01*
X106350130Y-56752765D01*
X106561553Y-56567351D01*
X106564642Y-56564642D01*
X106567351Y-56561553D01*
X106752765Y-56350130D01*
X106752769Y-56350124D01*
X106755483Y-56347030D01*
X106916287Y-56106369D01*
X106932497Y-56073500D01*
X107042481Y-55850473D01*
X107042482Y-55850471D01*
X107044303Y-55846778D01*
X107046959Y-55838955D01*
X107136014Y-55576609D01*
X107136015Y-55576605D01*
X107137341Y-55572699D01*
X107140650Y-55556067D01*
X107193004Y-55292863D01*
X107193004Y-55292860D01*
X107193808Y-55288820D01*
X107195960Y-55255995D01*
X107212468Y-55004119D01*
X107212738Y-55000000D01*
X107203931Y-54865634D01*
X107194078Y-54715295D01*
X107194077Y-54715291D01*
X107193808Y-54711180D01*
X107190397Y-54694030D01*
X107138147Y-54431351D01*
X107138145Y-54431345D01*
X107137341Y-54427301D01*
X107096911Y-54308197D01*
X107045627Y-54157122D01*
X107045626Y-54157120D01*
X107044303Y-54153222D01*
X107042481Y-54149527D01*
X106918114Y-53897335D01*
X106918111Y-53897330D01*
X106916287Y-53893631D01*
X106755483Y-53652970D01*
X106752769Y-53649876D01*
X106752765Y-53649870D01*
X106567351Y-53438447D01*
X106564642Y-53435358D01*
X106561553Y-53432649D01*
X106350130Y-53247235D01*
X106350124Y-53247231D01*
X106347030Y-53244517D01*
X106106369Y-53083713D01*
X106102670Y-53081889D01*
X106102665Y-53081886D01*
X105850473Y-52957519D01*
X105850471Y-52957518D01*
X105846778Y-52955697D01*
X105842878Y-52954373D01*
X105576609Y-52863986D01*
X105576605Y-52863985D01*
X105572699Y-52862659D01*
X105568655Y-52861855D01*
X105568649Y-52861853D01*
X105292863Y-52806996D01*
X105292860Y-52806996D01*
X105288820Y-52806192D01*
X105284709Y-52805923D01*
X105284705Y-52805922D01*
X105004119Y-52787532D01*
X105000000Y-52787262D01*
X104995881Y-52787532D01*
X104715295Y-52805922D01*
X104715291Y-52805923D01*
X104711180Y-52806192D01*
X104707140Y-52806996D01*
X104707137Y-52806996D01*
X104431351Y-52861853D01*
X104431345Y-52861855D01*
X104427301Y-52862659D01*
X104423395Y-52863985D01*
X104423391Y-52863986D01*
X104157122Y-52954373D01*
X104153222Y-52955697D01*
X104149529Y-52957518D01*
X104149527Y-52957519D01*
X103897335Y-53081886D01*
X103897330Y-53081889D01*
X103893631Y-53083713D01*
X103652970Y-53244517D01*
X103649876Y-53247231D01*
X103649870Y-53247235D01*
X103438447Y-53432649D01*
X103435358Y-53435358D01*
X103432649Y-53438447D01*
X103247235Y-53649870D01*
X103247231Y-53649876D01*
X103244517Y-53652970D01*
X103083713Y-53893631D01*
X103081889Y-53897330D01*
X103081886Y-53897335D01*
X102957519Y-54149527D01*
X102955697Y-54153222D01*
X102954374Y-54157120D01*
X102954373Y-54157122D01*
X102903090Y-54308197D01*
X102862659Y-54427301D01*
X102861855Y-54431345D01*
X102861853Y-54431351D01*
X102809603Y-54694030D01*
X102806192Y-54711180D01*
X102805923Y-54715291D01*
X102805922Y-54715295D01*
X102793692Y-54901900D01*
X102789307Y-54968797D01*
X102787262Y-55000000D01*
X100508000Y-55000000D01*
X100508000Y-50079669D01*
X100992000Y-50079669D01*
X101025128Y-50235525D01*
X101027813Y-50241554D01*
X101027813Y-50241556D01*
X101081373Y-50361852D01*
X101089937Y-50381088D01*
X101093817Y-50386429D01*
X101093818Y-50386430D01*
X101126523Y-50431444D01*
X101183594Y-50509995D01*
X101188496Y-50514408D01*
X101188497Y-50514410D01*
X101253974Y-50573366D01*
X101302005Y-50616613D01*
X101307726Y-50619916D01*
X101432428Y-50691913D01*
X101439995Y-50696282D01*
X101591535Y-50745520D01*
X101698531Y-50756766D01*
X101706226Y-50757816D01*
X101728540Y-50761570D01*
X101732669Y-50762265D01*
X101732671Y-50762265D01*
X101737461Y-50763071D01*
X101743816Y-50763149D01*
X101745141Y-50763165D01*
X101745145Y-50763165D01*
X101750000Y-50763224D01*
X101777588Y-50759273D01*
X101795451Y-50758000D01*
X104446793Y-50758000D01*
X104467697Y-50759746D01*
X104487461Y-50763071D01*
X104493789Y-50763148D01*
X104495141Y-50763165D01*
X104495145Y-50763165D01*
X104500000Y-50763224D01*
X104504809Y-50762535D01*
X104504813Y-50762535D01*
X104513270Y-50761324D01*
X104525191Y-50759616D01*
X104529849Y-50759038D01*
X104597613Y-50751916D01*
X104651902Y-50746210D01*
X104651904Y-50746210D01*
X104658465Y-50745520D01*
X104810005Y-50696282D01*
X104817573Y-50691913D01*
X104937000Y-50622961D01*
X105005995Y-50606223D01*
X105063000Y-50622961D01*
X105182428Y-50691913D01*
X105189995Y-50696282D01*
X105341535Y-50745520D01*
X105448531Y-50756766D01*
X105456226Y-50757816D01*
X105478540Y-50761570D01*
X105482669Y-50762265D01*
X105482671Y-50762265D01*
X105487461Y-50763071D01*
X105493816Y-50763149D01*
X105495141Y-50763165D01*
X105495145Y-50763165D01*
X105500000Y-50763224D01*
X105527588Y-50759273D01*
X105545451Y-50758000D01*
X107446793Y-50758000D01*
X107467697Y-50759746D01*
X107487461Y-50763071D01*
X107493789Y-50763148D01*
X107495141Y-50763165D01*
X107495145Y-50763165D01*
X107500000Y-50763224D01*
X107504809Y-50762535D01*
X107504813Y-50762535D01*
X107513270Y-50761324D01*
X107525191Y-50759616D01*
X107529849Y-50759038D01*
X107597613Y-50751916D01*
X107651902Y-50746210D01*
X107651904Y-50746210D01*
X107658465Y-50745520D01*
X107810005Y-50696282D01*
X107817573Y-50691913D01*
X107937000Y-50622961D01*
X108005995Y-50606223D01*
X108063000Y-50622961D01*
X108182428Y-50691913D01*
X108189995Y-50696282D01*
X108341535Y-50745520D01*
X108448531Y-50756766D01*
X108456226Y-50757816D01*
X108487461Y-50763071D01*
X108493461Y-50763144D01*
X108493729Y-50763186D01*
X108493998Y-50763151D01*
X108500000Y-50763224D01*
X108504810Y-50762535D01*
X108504812Y-50762535D01*
X108505480Y-50762439D01*
X108506550Y-50762286D01*
X108536758Y-50761621D01*
X108632407Y-50771042D01*
X108656629Y-50775860D01*
X108772080Y-50810881D01*
X108794893Y-50820331D01*
X108901287Y-50877200D01*
X108921824Y-50890922D01*
X109015079Y-50967454D01*
X109032546Y-50984921D01*
X109109078Y-51078176D01*
X109122800Y-51098713D01*
X109134823Y-51121206D01*
X109171454Y-51189737D01*
X109179669Y-51205107D01*
X109189119Y-51227920D01*
X109224140Y-51343369D01*
X109228958Y-51367592D01*
X109231217Y-51390526D01*
X109238044Y-51459838D01*
X109237590Y-51475879D01*
X109238305Y-51475888D01*
X109238195Y-51484858D01*
X109236814Y-51493730D01*
X109237978Y-51502634D01*
X109238399Y-51505855D01*
X109238771Y-51509003D01*
X109254480Y-51658465D01*
X109303718Y-51810005D01*
X109307021Y-51815727D01*
X109307022Y-51815728D01*
X109377039Y-51937000D01*
X109393777Y-52005995D01*
X109377039Y-52063000D01*
X109303718Y-52189995D01*
X109254480Y-52341535D01*
X109253790Y-52348096D01*
X109253790Y-52348098D01*
X109242281Y-52457606D01*
X109241471Y-52463822D01*
X109240124Y-52472475D01*
X109236814Y-52493730D01*
X109237978Y-52502632D01*
X109237978Y-52502635D01*
X109240936Y-52525251D01*
X109242000Y-52541589D01*
X109242000Y-54700672D01*
X109240500Y-54720056D01*
X109236814Y-54743730D01*
X109237978Y-54752633D01*
X109238399Y-54755855D01*
X109238771Y-54759003D01*
X109254480Y-54908465D01*
X109303718Y-55060005D01*
X109307021Y-55065727D01*
X109307022Y-55065728D01*
X109377039Y-55187000D01*
X109393777Y-55255995D01*
X109377039Y-55313000D01*
X109303718Y-55439995D01*
X109254480Y-55591535D01*
X109253790Y-55598096D01*
X109253790Y-55598098D01*
X109242281Y-55707606D01*
X109241471Y-55713822D01*
X109240124Y-55722475D01*
X109236814Y-55743730D01*
X109237978Y-55752632D01*
X109237978Y-55752635D01*
X109240936Y-55775251D01*
X109242000Y-55791589D01*
X109242000Y-58200672D01*
X109240500Y-58220056D01*
X109236814Y-58243730D01*
X109237978Y-58252633D01*
X109238399Y-58255855D01*
X109238771Y-58259003D01*
X109254480Y-58408465D01*
X109256520Y-58414743D01*
X109256520Y-58414744D01*
X109274082Y-58468794D01*
X109303718Y-58560005D01*
X109383387Y-58697995D01*
X109387805Y-58702902D01*
X109387806Y-58702903D01*
X109474089Y-58798729D01*
X109490005Y-58816406D01*
X109495344Y-58820285D01*
X109592641Y-58890975D01*
X109618913Y-58910063D01*
X109624941Y-58912747D01*
X109624943Y-58912748D01*
X109758444Y-58972187D01*
X109764475Y-58974872D01*
X109842403Y-58991436D01*
X109913874Y-59006628D01*
X109913878Y-59006628D01*
X109920331Y-59008000D01*
X110079669Y-59008000D01*
X110086122Y-59006628D01*
X110086126Y-59006628D01*
X110157597Y-58991436D01*
X110235525Y-58974872D01*
X110246823Y-58969842D01*
X110375058Y-58912748D01*
X110375060Y-58912747D01*
X110381088Y-58910063D01*
X110509995Y-58816406D01*
X110525912Y-58798729D01*
X110612194Y-58702903D01*
X110612195Y-58702902D01*
X110616613Y-58697995D01*
X110696282Y-58560005D01*
X110725918Y-58468794D01*
X110743480Y-58414744D01*
X110743480Y-58414743D01*
X110745520Y-58408465D01*
X110756766Y-58301469D01*
X110757816Y-58293774D01*
X110763071Y-58262539D01*
X110763224Y-58250000D01*
X110759273Y-58222412D01*
X110758000Y-58204549D01*
X110758000Y-57640000D01*
X122556496Y-57640000D01*
X122557186Y-57646565D01*
X122569942Y-57767928D01*
X122576458Y-57829928D01*
X122635473Y-58011556D01*
X122638776Y-58017278D01*
X122638777Y-58017279D01*
X122644459Y-58027120D01*
X122730960Y-58176944D01*
X122735378Y-58181851D01*
X122735379Y-58181852D01*
X122801115Y-58254859D01*
X122858747Y-58318866D01*
X122922571Y-58365237D01*
X122986299Y-58411538D01*
X123013248Y-58431118D01*
X123019276Y-58433802D01*
X123019278Y-58433803D01*
X123181681Y-58506109D01*
X123187712Y-58508794D01*
X123281113Y-58528647D01*
X123368056Y-58547128D01*
X123368061Y-58547128D01*
X123374513Y-58548500D01*
X123565487Y-58548500D01*
X123571939Y-58547128D01*
X123571944Y-58547128D01*
X123658887Y-58528647D01*
X123752288Y-58508794D01*
X123758319Y-58506109D01*
X123920722Y-58433803D01*
X123920724Y-58433802D01*
X123926752Y-58431118D01*
X123953702Y-58411538D01*
X124017429Y-58365237D01*
X124081253Y-58318866D01*
X124138885Y-58254859D01*
X124204621Y-58181852D01*
X124204622Y-58181851D01*
X124209040Y-58176944D01*
X124295541Y-58027120D01*
X124301223Y-58017279D01*
X124301224Y-58017278D01*
X124304527Y-58011556D01*
X124363542Y-57829928D01*
X124370059Y-57767928D01*
X124382814Y-57646565D01*
X124383504Y-57640000D01*
X124379300Y-57600000D01*
X129576496Y-57600000D01*
X129577186Y-57606565D01*
X129594806Y-57774206D01*
X129596458Y-57789928D01*
X129655473Y-57971556D01*
X129658776Y-57977278D01*
X129658777Y-57977279D01*
X129677068Y-58008959D01*
X129750960Y-58136944D01*
X129755378Y-58141851D01*
X129755379Y-58141852D01*
X129852756Y-58250000D01*
X129878747Y-58278866D01*
X130033248Y-58391118D01*
X130039276Y-58393802D01*
X130039278Y-58393803D01*
X130201681Y-58466109D01*
X130207712Y-58468794D01*
X130284557Y-58485128D01*
X130388056Y-58507128D01*
X130388061Y-58507128D01*
X130394513Y-58508500D01*
X130585487Y-58508500D01*
X130591939Y-58507128D01*
X130591944Y-58507128D01*
X130695443Y-58485128D01*
X130772288Y-58468794D01*
X130778319Y-58466109D01*
X130940722Y-58393803D01*
X130940724Y-58393802D01*
X130946752Y-58391118D01*
X131101253Y-58278866D01*
X131127244Y-58250000D01*
X131224621Y-58141852D01*
X131224622Y-58141851D01*
X131229040Y-58136944D01*
X131302932Y-58008959D01*
X131321223Y-57977279D01*
X131321224Y-57977278D01*
X131324527Y-57971556D01*
X131383542Y-57789928D01*
X131385195Y-57774206D01*
X131402814Y-57606565D01*
X131403504Y-57600000D01*
X131401192Y-57578000D01*
X139773296Y-57578000D01*
X139793258Y-57767928D01*
X139852273Y-57949556D01*
X139855576Y-57955278D01*
X139855577Y-57955279D01*
X139877777Y-57993730D01*
X139947760Y-58114944D01*
X139952178Y-58119851D01*
X139952179Y-58119852D01*
X140055732Y-58234859D01*
X140075547Y-58256866D01*
X140230048Y-58369118D01*
X140236076Y-58371802D01*
X140236078Y-58371803D01*
X140398481Y-58444109D01*
X140404512Y-58446794D01*
X140495381Y-58466109D01*
X140584856Y-58485128D01*
X140584861Y-58485128D01*
X140591313Y-58486500D01*
X140782287Y-58486500D01*
X140788739Y-58485128D01*
X140788744Y-58485128D01*
X140878219Y-58466109D01*
X140969088Y-58446794D01*
X140975119Y-58444109D01*
X141137522Y-58371803D01*
X141137524Y-58371802D01*
X141143552Y-58369118D01*
X141298053Y-58256866D01*
X141317868Y-58234859D01*
X141421421Y-58119852D01*
X141421422Y-58119851D01*
X141425840Y-58114944D01*
X141495823Y-57993730D01*
X141518023Y-57955279D01*
X141518024Y-57955278D01*
X141521327Y-57949556D01*
X141580342Y-57767928D01*
X141600304Y-57578000D01*
X141587548Y-57456635D01*
X141581032Y-57394635D01*
X141581032Y-57394633D01*
X141580342Y-57388072D01*
X141521327Y-57206444D01*
X141514188Y-57194078D01*
X141441843Y-57068774D01*
X141425840Y-57041056D01*
X141314784Y-56917715D01*
X141302475Y-56904045D01*
X141302474Y-56904044D01*
X141298053Y-56899134D01*
X141143552Y-56786882D01*
X141137524Y-56784198D01*
X141137522Y-56784197D01*
X140975119Y-56711891D01*
X140975118Y-56711891D01*
X140969088Y-56709206D01*
X140875687Y-56689353D01*
X140788744Y-56670872D01*
X140788739Y-56670872D01*
X140782287Y-56669500D01*
X140591313Y-56669500D01*
X140584861Y-56670872D01*
X140584856Y-56670872D01*
X140497913Y-56689353D01*
X140404512Y-56709206D01*
X140398482Y-56711891D01*
X140398481Y-56711891D01*
X140236078Y-56784197D01*
X140236076Y-56784198D01*
X140230048Y-56786882D01*
X140075547Y-56899134D01*
X140071126Y-56904044D01*
X140071125Y-56904045D01*
X140058817Y-56917715D01*
X139947760Y-57041056D01*
X139931757Y-57068774D01*
X139859413Y-57194078D01*
X139852273Y-57206444D01*
X139793258Y-57388072D01*
X139792568Y-57394633D01*
X139792568Y-57394635D01*
X139786052Y-57456635D01*
X139773296Y-57578000D01*
X131401192Y-57578000D01*
X131383542Y-57410072D01*
X131324527Y-57228444D01*
X131229040Y-57063056D01*
X131101253Y-56921134D01*
X131000778Y-56848134D01*
X130952094Y-56812763D01*
X130952093Y-56812762D01*
X130946752Y-56808882D01*
X130940724Y-56806198D01*
X130940722Y-56806197D01*
X130778319Y-56733891D01*
X130778318Y-56733891D01*
X130772288Y-56731206D01*
X130662332Y-56707834D01*
X130591944Y-56692872D01*
X130591939Y-56692872D01*
X130585487Y-56691500D01*
X130394513Y-56691500D01*
X130388061Y-56692872D01*
X130388056Y-56692872D01*
X130317668Y-56707834D01*
X130207712Y-56731206D01*
X130201682Y-56733891D01*
X130201681Y-56733891D01*
X130039278Y-56806197D01*
X130039276Y-56806198D01*
X130033248Y-56808882D01*
X130027907Y-56812762D01*
X130027906Y-56812763D01*
X129979222Y-56848134D01*
X129878747Y-56921134D01*
X129750960Y-57063056D01*
X129655473Y-57228444D01*
X129596458Y-57410072D01*
X129576496Y-57600000D01*
X124379300Y-57600000D01*
X124363542Y-57450072D01*
X124304527Y-57268444D01*
X124294234Y-57250615D01*
X124229300Y-57138147D01*
X124209040Y-57103056D01*
X124178173Y-57068774D01*
X124085675Y-56966045D01*
X124085674Y-56966044D01*
X124081253Y-56961134D01*
X123926752Y-56848882D01*
X123920724Y-56846198D01*
X123920722Y-56846197D01*
X123758319Y-56773891D01*
X123758318Y-56773891D01*
X123752288Y-56771206D01*
X123658888Y-56751353D01*
X123571944Y-56732872D01*
X123571939Y-56732872D01*
X123565487Y-56731500D01*
X123374513Y-56731500D01*
X123368061Y-56732872D01*
X123368056Y-56732872D01*
X123281113Y-56751353D01*
X123187712Y-56771206D01*
X123181682Y-56773891D01*
X123181681Y-56773891D01*
X123019278Y-56846197D01*
X123019276Y-56846198D01*
X123013248Y-56848882D01*
X122858747Y-56961134D01*
X122854326Y-56966044D01*
X122854325Y-56966045D01*
X122761828Y-57068774D01*
X122730960Y-57103056D01*
X122710700Y-57138147D01*
X122645767Y-57250615D01*
X122635473Y-57268444D01*
X122576458Y-57450072D01*
X122556496Y-57640000D01*
X110758000Y-57640000D01*
X110758000Y-55803207D01*
X110759746Y-55782303D01*
X110762264Y-55767335D01*
X110763071Y-55762539D01*
X110763224Y-55750000D01*
X110759616Y-55724809D01*
X110759036Y-55720137D01*
X110758903Y-55718866D01*
X110745520Y-55591535D01*
X110696282Y-55439995D01*
X110622961Y-55313000D01*
X110606223Y-55244005D01*
X110622961Y-55187000D01*
X110692978Y-55065728D01*
X110692979Y-55065727D01*
X110696282Y-55060005D01*
X110702782Y-55040000D01*
X114866496Y-55040000D01*
X114867186Y-55046565D01*
X114879131Y-55160211D01*
X114886458Y-55229928D01*
X114945473Y-55411556D01*
X115040960Y-55576944D01*
X115045378Y-55581851D01*
X115045379Y-55581852D01*
X115158608Y-55707606D01*
X115168747Y-55718866D01*
X115323248Y-55831118D01*
X115329276Y-55833802D01*
X115329278Y-55833803D01*
X115366720Y-55850473D01*
X115497712Y-55908794D01*
X115580344Y-55926358D01*
X115678056Y-55947128D01*
X115678061Y-55947128D01*
X115684513Y-55948500D01*
X115875487Y-55948500D01*
X115881939Y-55947128D01*
X115881944Y-55947128D01*
X115979656Y-55926358D01*
X116062288Y-55908794D01*
X116193280Y-55850473D01*
X116230722Y-55833803D01*
X116230724Y-55833802D01*
X116236752Y-55831118D01*
X116391253Y-55718866D01*
X116401392Y-55707606D01*
X116514621Y-55581852D01*
X116514622Y-55581851D01*
X116519040Y-55576944D01*
X116614527Y-55411556D01*
X116673542Y-55229928D01*
X116680367Y-55165000D01*
X129562496Y-55165000D01*
X129563186Y-55171565D01*
X129576896Y-55302005D01*
X129582458Y-55354928D01*
X129641473Y-55536556D01*
X129644776Y-55542278D01*
X129644777Y-55542279D01*
X129649672Y-55550757D01*
X129736960Y-55701944D01*
X129741378Y-55706851D01*
X129741379Y-55706852D01*
X129849774Y-55827237D01*
X129864747Y-55843866D01*
X130019248Y-55956118D01*
X130025276Y-55958802D01*
X130025278Y-55958803D01*
X130117809Y-56000000D01*
X130193712Y-56033794D01*
X130258429Y-56047550D01*
X130374056Y-56072128D01*
X130374061Y-56072128D01*
X130380513Y-56073500D01*
X130571487Y-56073500D01*
X130577939Y-56072128D01*
X130577944Y-56072128D01*
X130693571Y-56047550D01*
X130758288Y-56033794D01*
X130834191Y-56000000D01*
X146066502Y-56000000D01*
X146086457Y-56228087D01*
X146087881Y-56233400D01*
X146087881Y-56233402D01*
X146119159Y-56350130D01*
X146145716Y-56449243D01*
X146148039Y-56454224D01*
X146148039Y-56454225D01*
X146240151Y-56651762D01*
X146240154Y-56651767D01*
X146242477Y-56656749D01*
X146373802Y-56844300D01*
X146535700Y-57006198D01*
X146540208Y-57009355D01*
X146540211Y-57009357D01*
X146578473Y-57036148D01*
X146723251Y-57137523D01*
X146728233Y-57139846D01*
X146728238Y-57139849D01*
X146884551Y-57212738D01*
X146930757Y-57234284D01*
X146936065Y-57235706D01*
X146936067Y-57235707D01*
X147146598Y-57292119D01*
X147146600Y-57292119D01*
X147151913Y-57293543D01*
X147380000Y-57313498D01*
X147608087Y-57293543D01*
X147613400Y-57292119D01*
X147613402Y-57292119D01*
X147823933Y-57235707D01*
X147823935Y-57235706D01*
X147829243Y-57234284D01*
X147875449Y-57212738D01*
X148031762Y-57139849D01*
X148031767Y-57139846D01*
X148036749Y-57137523D01*
X148181527Y-57036148D01*
X148219789Y-57009357D01*
X148219792Y-57009355D01*
X148224300Y-57006198D01*
X148386198Y-56844300D01*
X148517523Y-56656749D01*
X148519846Y-56651767D01*
X148519849Y-56651762D01*
X148611961Y-56454225D01*
X148611961Y-56454224D01*
X148614284Y-56449243D01*
X148640842Y-56350130D01*
X148672119Y-56233402D01*
X148672119Y-56233400D01*
X148673543Y-56228087D01*
X148693498Y-56000000D01*
X148673543Y-55771913D01*
X148669729Y-55757678D01*
X148615707Y-55556067D01*
X148615706Y-55556065D01*
X148614284Y-55550757D01*
X148565566Y-55446280D01*
X148519849Y-55348238D01*
X148519846Y-55348233D01*
X148517523Y-55343251D01*
X148433578Y-55223365D01*
X148389357Y-55160211D01*
X148389355Y-55160208D01*
X148386198Y-55155700D01*
X148224300Y-54993802D01*
X148219792Y-54990645D01*
X148219789Y-54990643D01*
X148102426Y-54908465D01*
X148036749Y-54862477D01*
X148031767Y-54860154D01*
X148031762Y-54860151D01*
X147997543Y-54844195D01*
X147944258Y-54797278D01*
X147924797Y-54729001D01*
X147945339Y-54661041D01*
X147997543Y-54615805D01*
X148031762Y-54599849D01*
X148031767Y-54599846D01*
X148036749Y-54597523D01*
X148163495Y-54508774D01*
X148219789Y-54469357D01*
X148219792Y-54469355D01*
X148224300Y-54466198D01*
X148386198Y-54304300D01*
X148389986Y-54298891D01*
X148473597Y-54179481D01*
X148517523Y-54116749D01*
X148519846Y-54111767D01*
X148519849Y-54111762D01*
X148611961Y-53914225D01*
X148611961Y-53914224D01*
X148614284Y-53909243D01*
X148616342Y-53901565D01*
X148672119Y-53693402D01*
X148672119Y-53693400D01*
X148673543Y-53688087D01*
X148693498Y-53460000D01*
X148673543Y-53231913D01*
X148614284Y-53010757D01*
X148589459Y-52957519D01*
X148519849Y-52808238D01*
X148519846Y-52808233D01*
X148517523Y-52803251D01*
X148386198Y-52615700D01*
X148224300Y-52453802D01*
X148219792Y-52450645D01*
X148219789Y-52450643D01*
X148141611Y-52395902D01*
X148036749Y-52322477D01*
X148031767Y-52320154D01*
X148031762Y-52320151D01*
X147997543Y-52304195D01*
X147944258Y-52257278D01*
X147924797Y-52189001D01*
X147945339Y-52121041D01*
X147997543Y-52075805D01*
X148031762Y-52059849D01*
X148031767Y-52059846D01*
X148036749Y-52057523D01*
X148193171Y-51947995D01*
X148219789Y-51929357D01*
X148219792Y-51929355D01*
X148224300Y-51926198D01*
X148386198Y-51764300D01*
X148398899Y-51746162D01*
X148460305Y-51658465D01*
X148517523Y-51576749D01*
X148519846Y-51571767D01*
X148519849Y-51571762D01*
X148611961Y-51374225D01*
X148611961Y-51374224D01*
X148614284Y-51369243D01*
X148628539Y-51316045D01*
X148672119Y-51153402D01*
X148672119Y-51153400D01*
X148673543Y-51148087D01*
X148693498Y-50920000D01*
X148673543Y-50691913D01*
X148669795Y-50677924D01*
X148615707Y-50476067D01*
X148615706Y-50476065D01*
X148614284Y-50470757D01*
X148585517Y-50409065D01*
X148519849Y-50268238D01*
X148519846Y-50268233D01*
X148517523Y-50263251D01*
X148430586Y-50139092D01*
X148389357Y-50080211D01*
X148389355Y-50080208D01*
X148386198Y-50075700D01*
X148224300Y-49913802D01*
X148219792Y-49910645D01*
X148219789Y-49910643D01*
X148090337Y-49820000D01*
X148036749Y-49782477D01*
X148031767Y-49780154D01*
X148031762Y-49780151D01*
X147997543Y-49764195D01*
X147944258Y-49717278D01*
X147924797Y-49649001D01*
X147945339Y-49581041D01*
X147997543Y-49535805D01*
X148031762Y-49519849D01*
X148031767Y-49519846D01*
X148036749Y-49517523D01*
X148172561Y-49422426D01*
X148219789Y-49389357D01*
X148219792Y-49389355D01*
X148224300Y-49386198D01*
X148386198Y-49224300D01*
X148517523Y-49036749D01*
X148519846Y-49031767D01*
X148519849Y-49031762D01*
X148611961Y-48834225D01*
X148611961Y-48834224D01*
X148614284Y-48829243D01*
X148619959Y-48808066D01*
X148672119Y-48613402D01*
X148672119Y-48613400D01*
X148673543Y-48608087D01*
X148693498Y-48380000D01*
X148673543Y-48151913D01*
X148660695Y-48103963D01*
X148615707Y-47936067D01*
X148615706Y-47936065D01*
X148614284Y-47930757D01*
X148611961Y-47925775D01*
X148519849Y-47728238D01*
X148519846Y-47728233D01*
X148517523Y-47723251D01*
X148399323Y-47554444D01*
X148389357Y-47540211D01*
X148389355Y-47540208D01*
X148386198Y-47535700D01*
X148224300Y-47373802D01*
X148219792Y-47370645D01*
X148219789Y-47370643D01*
X148050413Y-47252045D01*
X148036749Y-47242477D01*
X148031767Y-47240154D01*
X148031762Y-47240151D01*
X147997543Y-47224195D01*
X147944258Y-47177278D01*
X147924797Y-47109001D01*
X147945339Y-47041041D01*
X147997543Y-46995805D01*
X148031762Y-46979849D01*
X148031767Y-46979846D01*
X148036749Y-46977523D01*
X148202228Y-46861653D01*
X148219789Y-46849357D01*
X148219792Y-46849355D01*
X148224300Y-46846198D01*
X148386198Y-46684300D01*
X148401760Y-46662076D01*
X148507634Y-46510872D01*
X148517523Y-46496749D01*
X148519846Y-46491767D01*
X148519849Y-46491762D01*
X148611961Y-46294225D01*
X148611961Y-46294224D01*
X148614284Y-46289243D01*
X148673543Y-46068087D01*
X148693498Y-45840000D01*
X148673543Y-45611913D01*
X148657477Y-45551955D01*
X148615707Y-45396067D01*
X148615706Y-45396065D01*
X148614284Y-45390757D01*
X148611961Y-45385775D01*
X148519849Y-45188238D01*
X148519846Y-45188233D01*
X148517523Y-45183251D01*
X148419234Y-45042880D01*
X148389357Y-45000211D01*
X148389355Y-45000208D01*
X148386198Y-44995700D01*
X148224300Y-44833802D01*
X148219792Y-44830645D01*
X148219789Y-44830643D01*
X148079149Y-44732166D01*
X148036749Y-44702477D01*
X148031767Y-44700154D01*
X148031762Y-44700151D01*
X147997543Y-44684195D01*
X147944258Y-44637278D01*
X147924797Y-44569001D01*
X147945339Y-44501041D01*
X147997543Y-44455805D01*
X148031762Y-44439849D01*
X148031767Y-44439846D01*
X148036749Y-44437523D01*
X148181527Y-44336148D01*
X148219789Y-44309357D01*
X148219792Y-44309355D01*
X148224300Y-44306198D01*
X148386198Y-44144300D01*
X148517523Y-43956749D01*
X148519846Y-43951767D01*
X148519849Y-43951762D01*
X148611961Y-43754225D01*
X148611961Y-43754224D01*
X148614284Y-43749243D01*
X148633204Y-43678635D01*
X148672119Y-43533402D01*
X148672119Y-43533400D01*
X148673543Y-43528087D01*
X148693498Y-43300000D01*
X148673543Y-43071913D01*
X148665876Y-43043300D01*
X148615707Y-42856067D01*
X148615706Y-42856065D01*
X148614284Y-42850757D01*
X148589347Y-42797279D01*
X148519849Y-42648238D01*
X148519846Y-42648233D01*
X148517523Y-42643251D01*
X148417267Y-42500071D01*
X148389357Y-42460211D01*
X148389355Y-42460208D01*
X148386198Y-42455700D01*
X148224300Y-42293802D01*
X148219792Y-42290645D01*
X148219789Y-42290643D01*
X148132946Y-42229835D01*
X148036749Y-42162477D01*
X148031767Y-42160154D01*
X148031762Y-42160151D01*
X147997543Y-42144195D01*
X147944258Y-42097278D01*
X147924797Y-42029001D01*
X147945339Y-41961041D01*
X147997543Y-41915805D01*
X148031762Y-41899849D01*
X148031767Y-41899846D01*
X148036749Y-41897523D01*
X148219543Y-41769529D01*
X148219789Y-41769357D01*
X148219792Y-41769355D01*
X148224300Y-41766198D01*
X148386198Y-41604300D01*
X148517523Y-41416749D01*
X148519846Y-41411767D01*
X148519849Y-41411762D01*
X148611961Y-41214225D01*
X148611961Y-41214224D01*
X148614284Y-41209243D01*
X148673543Y-40988087D01*
X148693498Y-40760000D01*
X148673543Y-40531913D01*
X148614284Y-40310757D01*
X148611961Y-40305775D01*
X148519849Y-40108238D01*
X148519846Y-40108233D01*
X148517523Y-40103251D01*
X148386198Y-39915700D01*
X148224300Y-39753802D01*
X148219792Y-39750645D01*
X148219789Y-39750643D01*
X148079149Y-39652166D01*
X148036749Y-39622477D01*
X148031767Y-39620154D01*
X148031762Y-39620151D01*
X147997543Y-39604195D01*
X147944258Y-39557278D01*
X147924797Y-39489001D01*
X147945339Y-39421041D01*
X147997543Y-39375805D01*
X148031762Y-39359849D01*
X148031767Y-39359846D01*
X148036749Y-39357523D01*
X148141611Y-39284098D01*
X148219789Y-39229357D01*
X148219792Y-39229355D01*
X148224300Y-39226198D01*
X148386198Y-39064300D01*
X148517523Y-38876749D01*
X148519846Y-38871767D01*
X148519849Y-38871762D01*
X148561705Y-38782000D01*
X152117696Y-38782000D01*
X152137658Y-38971928D01*
X152196673Y-39153556D01*
X152292160Y-39318944D01*
X152296578Y-39323851D01*
X152296579Y-39323852D01*
X152415525Y-39455955D01*
X152419947Y-39460866D01*
X152574448Y-39573118D01*
X152580476Y-39575802D01*
X152580478Y-39575803D01*
X152692401Y-39625634D01*
X152748912Y-39650794D01*
X152842312Y-39670647D01*
X152929256Y-39689128D01*
X152929261Y-39689128D01*
X152935713Y-39690500D01*
X153126687Y-39690500D01*
X153133139Y-39689128D01*
X153133144Y-39689128D01*
X153220088Y-39670647D01*
X153313488Y-39650794D01*
X153369999Y-39625634D01*
X153481922Y-39575803D01*
X153481924Y-39575802D01*
X153487952Y-39573118D01*
X153642453Y-39460866D01*
X153646875Y-39455955D01*
X153765821Y-39323852D01*
X153765822Y-39323851D01*
X153770240Y-39318944D01*
X153863173Y-39157980D01*
X153914556Y-39108987D01*
X153984269Y-39095551D01*
X154050180Y-39121937D01*
X154061387Y-39131885D01*
X154155700Y-39226198D01*
X154160208Y-39229355D01*
X154160211Y-39229357D01*
X154238389Y-39284098D01*
X154343251Y-39357523D01*
X154348233Y-39359846D01*
X154348238Y-39359849D01*
X154382457Y-39375805D01*
X154435742Y-39422722D01*
X154455203Y-39490999D01*
X154434661Y-39558959D01*
X154382457Y-39604195D01*
X154348238Y-39620151D01*
X154348233Y-39620154D01*
X154343251Y-39622477D01*
X154300851Y-39652166D01*
X154160211Y-39750643D01*
X154160208Y-39750645D01*
X154155700Y-39753802D01*
X153993802Y-39915700D01*
X153862477Y-40103251D01*
X153860154Y-40108233D01*
X153860151Y-40108238D01*
X153768039Y-40305775D01*
X153765716Y-40310757D01*
X153706457Y-40531913D01*
X153686502Y-40760000D01*
X153706457Y-40988087D01*
X153765716Y-41209243D01*
X153768039Y-41214224D01*
X153768039Y-41214225D01*
X153860151Y-41411762D01*
X153860154Y-41411767D01*
X153862477Y-41416749D01*
X153993802Y-41604300D01*
X154155700Y-41766198D01*
X154160208Y-41769355D01*
X154160211Y-41769357D01*
X154160457Y-41769529D01*
X154343251Y-41897523D01*
X154348233Y-41899846D01*
X154348238Y-41899849D01*
X154382457Y-41915805D01*
X154435742Y-41962722D01*
X154455203Y-42030999D01*
X154434661Y-42098959D01*
X154382457Y-42144195D01*
X154348238Y-42160151D01*
X154348233Y-42160154D01*
X154343251Y-42162477D01*
X154247054Y-42229835D01*
X154160211Y-42290643D01*
X154160208Y-42290645D01*
X154155700Y-42293802D01*
X153993802Y-42455700D01*
X153990645Y-42460208D01*
X153990643Y-42460211D01*
X153962733Y-42500071D01*
X153862477Y-42643251D01*
X153860154Y-42648233D01*
X153860151Y-42648238D01*
X153790653Y-42797279D01*
X153765716Y-42850757D01*
X153764294Y-42856065D01*
X153764293Y-42856067D01*
X153714124Y-43043300D01*
X153706457Y-43071913D01*
X153686502Y-43300000D01*
X153706457Y-43528087D01*
X153707881Y-43533400D01*
X153707881Y-43533402D01*
X153746797Y-43678635D01*
X153765716Y-43749243D01*
X153768039Y-43754224D01*
X153768039Y-43754225D01*
X153860151Y-43951762D01*
X153860154Y-43951767D01*
X153862477Y-43956749D01*
X153993802Y-44144300D01*
X154155700Y-44306198D01*
X154160208Y-44309355D01*
X154160211Y-44309357D01*
X154198473Y-44336148D01*
X154343251Y-44437523D01*
X154348233Y-44439846D01*
X154348238Y-44439849D01*
X154382457Y-44455805D01*
X154435742Y-44502722D01*
X154455203Y-44570999D01*
X154434661Y-44638959D01*
X154382457Y-44684195D01*
X154348238Y-44700151D01*
X154348233Y-44700154D01*
X154343251Y-44702477D01*
X154300851Y-44732166D01*
X154160211Y-44830643D01*
X154160208Y-44830645D01*
X154155700Y-44833802D01*
X153993802Y-44995700D01*
X153990645Y-45000208D01*
X153990643Y-45000211D01*
X153960766Y-45042880D01*
X153862477Y-45183251D01*
X153860154Y-45188233D01*
X153860151Y-45188238D01*
X153768039Y-45385775D01*
X153765716Y-45390757D01*
X153764294Y-45396065D01*
X153764293Y-45396067D01*
X153722523Y-45551955D01*
X153706457Y-45611913D01*
X153686502Y-45840000D01*
X153706457Y-46068087D01*
X153765716Y-46289243D01*
X153768039Y-46294224D01*
X153768039Y-46294225D01*
X153860151Y-46491762D01*
X153860154Y-46491767D01*
X153862477Y-46496749D01*
X153872366Y-46510872D01*
X153978241Y-46662076D01*
X153993802Y-46684300D01*
X154155700Y-46846198D01*
X154160208Y-46849355D01*
X154160211Y-46849357D01*
X154177772Y-46861653D01*
X154343251Y-46977523D01*
X154348233Y-46979846D01*
X154348238Y-46979849D01*
X154382457Y-46995805D01*
X154435742Y-47042722D01*
X154455203Y-47110999D01*
X154434661Y-47178959D01*
X154382457Y-47224195D01*
X154348238Y-47240151D01*
X154348233Y-47240154D01*
X154343251Y-47242477D01*
X154329587Y-47252045D01*
X154160211Y-47370643D01*
X154160208Y-47370645D01*
X154155700Y-47373802D01*
X153993802Y-47535700D01*
X153990645Y-47540208D01*
X153990643Y-47540211D01*
X153980677Y-47554444D01*
X153862477Y-47723251D01*
X153860154Y-47728233D01*
X153860151Y-47728238D01*
X153768039Y-47925775D01*
X153765716Y-47930757D01*
X153764294Y-47936065D01*
X153764293Y-47936067D01*
X153719305Y-48103963D01*
X153706457Y-48151913D01*
X153686502Y-48380000D01*
X153706457Y-48608087D01*
X153707881Y-48613400D01*
X153707881Y-48613402D01*
X153760042Y-48808066D01*
X153765716Y-48829243D01*
X153768039Y-48834224D01*
X153768039Y-48834225D01*
X153860151Y-49031762D01*
X153860154Y-49031767D01*
X153862477Y-49036749D01*
X153993802Y-49224300D01*
X154155700Y-49386198D01*
X154160208Y-49389355D01*
X154160211Y-49389357D01*
X154207439Y-49422426D01*
X154343251Y-49517523D01*
X154348233Y-49519846D01*
X154348238Y-49519849D01*
X154382457Y-49535805D01*
X154435742Y-49582722D01*
X154455203Y-49650999D01*
X154434661Y-49718959D01*
X154382457Y-49764195D01*
X154348238Y-49780151D01*
X154348233Y-49780154D01*
X154343251Y-49782477D01*
X154289663Y-49820000D01*
X154160211Y-49910643D01*
X154160208Y-49910645D01*
X154155700Y-49913802D01*
X153993802Y-50075700D01*
X153990645Y-50080208D01*
X153990643Y-50080211D01*
X153949414Y-50139092D01*
X153862477Y-50263251D01*
X153860154Y-50268233D01*
X153860151Y-50268238D01*
X153794483Y-50409065D01*
X153765716Y-50470757D01*
X153764294Y-50476065D01*
X153764293Y-50476067D01*
X153710205Y-50677924D01*
X153706457Y-50691913D01*
X153686502Y-50920000D01*
X153706457Y-51148087D01*
X153707881Y-51153400D01*
X153707881Y-51153402D01*
X153751462Y-51316045D01*
X153765716Y-51369243D01*
X153768039Y-51374224D01*
X153768039Y-51374225D01*
X153860151Y-51571762D01*
X153860154Y-51571767D01*
X153862477Y-51576749D01*
X153919695Y-51658465D01*
X153981102Y-51746162D01*
X153993802Y-51764300D01*
X154155700Y-51926198D01*
X154160208Y-51929355D01*
X154160211Y-51929357D01*
X154186829Y-51947995D01*
X154343251Y-52057523D01*
X154348233Y-52059846D01*
X154348238Y-52059849D01*
X154382457Y-52075805D01*
X154435742Y-52122722D01*
X154455203Y-52190999D01*
X154434661Y-52258959D01*
X154382457Y-52304195D01*
X154348238Y-52320151D01*
X154348233Y-52320154D01*
X154343251Y-52322477D01*
X154238389Y-52395902D01*
X154160211Y-52450643D01*
X154160208Y-52450645D01*
X154155700Y-52453802D01*
X153993802Y-52615700D01*
X153862477Y-52803251D01*
X153860154Y-52808233D01*
X153860151Y-52808238D01*
X153790541Y-52957519D01*
X153765716Y-53010757D01*
X153706457Y-53231913D01*
X153686502Y-53460000D01*
X153706457Y-53688087D01*
X153707881Y-53693400D01*
X153707881Y-53693402D01*
X153763659Y-53901565D01*
X153765716Y-53909243D01*
X153768039Y-53914224D01*
X153768039Y-53914225D01*
X153860151Y-54111762D01*
X153860154Y-54111767D01*
X153862477Y-54116749D01*
X153906403Y-54179481D01*
X153990015Y-54298891D01*
X153993802Y-54304300D01*
X154155700Y-54466198D01*
X154160211Y-54469357D01*
X154164424Y-54472892D01*
X154163473Y-54474026D01*
X154203471Y-54524071D01*
X154210776Y-54594690D01*
X154178742Y-54658049D01*
X154117538Y-54694030D01*
X154100483Y-54697082D01*
X154089684Y-54698255D01*
X153953295Y-54749385D01*
X153836739Y-54836739D01*
X153749385Y-54953295D01*
X153698255Y-55089684D01*
X153691500Y-55151866D01*
X153691500Y-56848134D01*
X153698255Y-56910316D01*
X153749385Y-57046705D01*
X153836739Y-57163261D01*
X153953295Y-57250615D01*
X154089684Y-57301745D01*
X154151866Y-57308500D01*
X155848134Y-57308500D01*
X155910316Y-57301745D01*
X156046705Y-57250615D01*
X156163261Y-57163261D01*
X156250615Y-57046705D01*
X156301745Y-56910316D01*
X156308500Y-56848134D01*
X156308500Y-55151866D01*
X156301745Y-55089684D01*
X156250615Y-54953295D01*
X156163261Y-54836739D01*
X156046705Y-54749385D01*
X155910316Y-54698255D01*
X155899526Y-54697083D01*
X155897394Y-54696197D01*
X155894778Y-54695575D01*
X155894879Y-54695152D01*
X155833965Y-54669845D01*
X155793537Y-54611483D01*
X155791078Y-54540529D01*
X155827371Y-54479510D01*
X155836031Y-54472511D01*
X155839793Y-54469354D01*
X155844300Y-54466198D01*
X156006198Y-54304300D01*
X156009986Y-54298891D01*
X156093597Y-54179481D01*
X156137523Y-54116749D01*
X156139846Y-54111767D01*
X156139849Y-54111762D01*
X156231961Y-53914225D01*
X156231961Y-53914224D01*
X156234284Y-53909243D01*
X156236342Y-53901565D01*
X156292119Y-53693402D01*
X156292119Y-53693400D01*
X156293543Y-53688087D01*
X156313498Y-53460000D01*
X156293543Y-53231913D01*
X156234284Y-53010757D01*
X156209459Y-52957519D01*
X156139849Y-52808238D01*
X156139846Y-52808233D01*
X156137523Y-52803251D01*
X156006198Y-52615700D01*
X155844300Y-52453802D01*
X155839792Y-52450645D01*
X155839789Y-52450643D01*
X155761611Y-52395902D01*
X155656749Y-52322477D01*
X155651767Y-52320154D01*
X155651762Y-52320151D01*
X155617543Y-52304195D01*
X155564258Y-52257278D01*
X155544797Y-52189001D01*
X155565339Y-52121041D01*
X155617543Y-52075805D01*
X155651762Y-52059849D01*
X155651767Y-52059846D01*
X155656749Y-52057523D01*
X155813171Y-51947995D01*
X155839789Y-51929357D01*
X155839792Y-51929355D01*
X155844300Y-51926198D01*
X156006198Y-51764300D01*
X156018899Y-51746162D01*
X156080305Y-51658465D01*
X156137523Y-51576749D01*
X156139846Y-51571767D01*
X156139849Y-51571762D01*
X156231961Y-51374225D01*
X156231961Y-51374224D01*
X156234284Y-51369243D01*
X156248539Y-51316045D01*
X156292119Y-51153402D01*
X156292119Y-51153400D01*
X156293543Y-51148087D01*
X156313498Y-50920000D01*
X156293543Y-50691913D01*
X156289795Y-50677924D01*
X156235707Y-50476067D01*
X156235706Y-50476065D01*
X156234284Y-50470757D01*
X156205517Y-50409065D01*
X156139849Y-50268238D01*
X156139846Y-50268233D01*
X156137523Y-50263251D01*
X156050586Y-50139092D01*
X156009357Y-50080211D01*
X156009355Y-50080208D01*
X156006198Y-50075700D01*
X155844300Y-49913802D01*
X155839792Y-49910645D01*
X155839789Y-49910643D01*
X155710337Y-49820000D01*
X155656749Y-49782477D01*
X155651767Y-49780154D01*
X155651762Y-49780151D01*
X155617543Y-49764195D01*
X155564258Y-49717278D01*
X155544797Y-49649001D01*
X155565339Y-49581041D01*
X155617543Y-49535805D01*
X155651762Y-49519849D01*
X155651767Y-49519846D01*
X155656749Y-49517523D01*
X155792561Y-49422426D01*
X155839789Y-49389357D01*
X155839792Y-49389355D01*
X155844300Y-49386198D01*
X156006198Y-49224300D01*
X156137523Y-49036749D01*
X156139846Y-49031767D01*
X156139849Y-49031762D01*
X156231961Y-48834225D01*
X156231961Y-48834224D01*
X156234284Y-48829243D01*
X156239959Y-48808066D01*
X156292119Y-48613402D01*
X156292119Y-48613400D01*
X156293543Y-48608087D01*
X156313498Y-48380000D01*
X156293543Y-48151913D01*
X156280695Y-48103963D01*
X156235707Y-47936067D01*
X156235706Y-47936065D01*
X156234284Y-47930757D01*
X156231961Y-47925775D01*
X156139849Y-47728238D01*
X156139846Y-47728233D01*
X156137523Y-47723251D01*
X156019323Y-47554444D01*
X156009357Y-47540211D01*
X156009355Y-47540208D01*
X156006198Y-47535700D01*
X155844300Y-47373802D01*
X155839792Y-47370645D01*
X155839789Y-47370643D01*
X155670413Y-47252045D01*
X155656749Y-47242477D01*
X155651767Y-47240154D01*
X155651762Y-47240151D01*
X155617543Y-47224195D01*
X155564258Y-47177278D01*
X155544797Y-47109001D01*
X155565339Y-47041041D01*
X155617543Y-46995805D01*
X155651762Y-46979849D01*
X155651767Y-46979846D01*
X155656749Y-46977523D01*
X155822228Y-46861653D01*
X155839789Y-46849357D01*
X155839792Y-46849355D01*
X155844300Y-46846198D01*
X156006198Y-46684300D01*
X156021760Y-46662076D01*
X156127634Y-46510872D01*
X156137523Y-46496749D01*
X156139846Y-46491767D01*
X156139849Y-46491762D01*
X156231961Y-46294225D01*
X156231961Y-46294224D01*
X156234284Y-46289243D01*
X156293543Y-46068087D01*
X156313498Y-45840000D01*
X156293543Y-45611913D01*
X156277477Y-45551955D01*
X156235707Y-45396067D01*
X156235706Y-45396065D01*
X156234284Y-45390757D01*
X156231961Y-45385775D01*
X156139849Y-45188238D01*
X156139846Y-45188233D01*
X156137523Y-45183251D01*
X156039234Y-45042880D01*
X156009357Y-45000211D01*
X156009355Y-45000208D01*
X156006198Y-44995700D01*
X155844300Y-44833802D01*
X155839792Y-44830645D01*
X155839789Y-44830643D01*
X155699149Y-44732166D01*
X155656749Y-44702477D01*
X155651767Y-44700154D01*
X155651762Y-44700151D01*
X155617543Y-44684195D01*
X155564258Y-44637278D01*
X155544797Y-44569001D01*
X155565339Y-44501041D01*
X155617543Y-44455805D01*
X155651762Y-44439849D01*
X155651767Y-44439846D01*
X155656749Y-44437523D01*
X155801527Y-44336148D01*
X155839789Y-44309357D01*
X155839792Y-44309355D01*
X155844300Y-44306198D01*
X156006198Y-44144300D01*
X156137523Y-43956749D01*
X156139846Y-43951767D01*
X156139849Y-43951762D01*
X156231961Y-43754225D01*
X156231961Y-43754224D01*
X156234284Y-43749243D01*
X156253204Y-43678635D01*
X156292119Y-43533402D01*
X156292119Y-43533400D01*
X156293543Y-43528087D01*
X156313498Y-43300000D01*
X156293543Y-43071913D01*
X156285876Y-43043300D01*
X156235707Y-42856067D01*
X156235706Y-42856065D01*
X156234284Y-42850757D01*
X156209347Y-42797279D01*
X156139849Y-42648238D01*
X156139846Y-42648233D01*
X156137523Y-42643251D01*
X156037267Y-42500071D01*
X156009357Y-42460211D01*
X156009355Y-42460208D01*
X156006198Y-42455700D01*
X155844300Y-42293802D01*
X155839792Y-42290645D01*
X155839789Y-42290643D01*
X155752946Y-42229835D01*
X155656749Y-42162477D01*
X155651767Y-42160154D01*
X155651762Y-42160151D01*
X155617543Y-42144195D01*
X155564258Y-42097278D01*
X155544797Y-42029001D01*
X155565339Y-41961041D01*
X155617543Y-41915805D01*
X155651762Y-41899849D01*
X155651767Y-41899846D01*
X155656749Y-41897523D01*
X155839543Y-41769529D01*
X155839789Y-41769357D01*
X155839792Y-41769355D01*
X155844300Y-41766198D01*
X156006198Y-41604300D01*
X156137523Y-41416749D01*
X156139846Y-41411767D01*
X156139849Y-41411762D01*
X156231961Y-41214225D01*
X156231961Y-41214224D01*
X156234284Y-41209243D01*
X156293543Y-40988087D01*
X156313498Y-40760000D01*
X156293543Y-40531913D01*
X156234284Y-40310757D01*
X156231961Y-40305775D01*
X156139849Y-40108238D01*
X156139846Y-40108233D01*
X156137523Y-40103251D01*
X156006198Y-39915700D01*
X155844300Y-39753802D01*
X155839792Y-39750645D01*
X155839789Y-39750643D01*
X155699149Y-39652166D01*
X155656749Y-39622477D01*
X155651767Y-39620154D01*
X155651762Y-39620151D01*
X155617543Y-39604195D01*
X155564258Y-39557278D01*
X155544797Y-39489001D01*
X155565339Y-39421041D01*
X155617543Y-39375805D01*
X155651762Y-39359849D01*
X155651767Y-39359846D01*
X155656749Y-39357523D01*
X155761611Y-39284098D01*
X155839789Y-39229357D01*
X155839792Y-39229355D01*
X155844300Y-39226198D01*
X156006198Y-39064300D01*
X156137523Y-38876749D01*
X156139846Y-38871767D01*
X156139849Y-38871762D01*
X156231961Y-38674225D01*
X156231961Y-38674224D01*
X156234284Y-38669243D01*
X156253204Y-38598635D01*
X156292119Y-38453402D01*
X156292119Y-38453400D01*
X156293543Y-38448087D01*
X156313498Y-38220000D01*
X156293543Y-37991913D01*
X156273173Y-37915891D01*
X156235707Y-37776067D01*
X156235706Y-37776065D01*
X156234284Y-37770757D01*
X156217236Y-37734197D01*
X156139849Y-37568238D01*
X156139846Y-37568233D01*
X156137523Y-37563251D01*
X156006198Y-37375700D01*
X155844300Y-37213802D01*
X155839792Y-37210645D01*
X155839789Y-37210643D01*
X155735191Y-37137403D01*
X155656749Y-37082477D01*
X155651767Y-37080154D01*
X155651762Y-37080151D01*
X155617543Y-37064195D01*
X155564258Y-37017278D01*
X155544797Y-36949001D01*
X155565339Y-36881041D01*
X155617543Y-36835805D01*
X155651762Y-36819849D01*
X155651767Y-36819846D01*
X155656749Y-36817523D01*
X155836594Y-36691594D01*
X155839789Y-36689357D01*
X155839792Y-36689355D01*
X155844300Y-36686198D01*
X156006198Y-36524300D01*
X156010921Y-36517556D01*
X156086427Y-36409721D01*
X156137523Y-36336749D01*
X156139846Y-36331767D01*
X156139849Y-36331762D01*
X156231961Y-36134225D01*
X156231961Y-36134224D01*
X156234284Y-36129243D01*
X156266816Y-36007835D01*
X156292119Y-35913402D01*
X156292119Y-35913400D01*
X156293543Y-35908087D01*
X156313498Y-35680000D01*
X156293543Y-35451913D01*
X156279655Y-35400082D01*
X156235707Y-35236067D01*
X156235706Y-35236065D01*
X156234284Y-35230757D01*
X156228720Y-35218824D01*
X156139849Y-35028238D01*
X156139846Y-35028233D01*
X156137523Y-35023251D01*
X156006198Y-34835700D01*
X155844300Y-34673802D01*
X155839792Y-34670645D01*
X155839789Y-34670643D01*
X155761611Y-34615902D01*
X155656749Y-34542477D01*
X155651767Y-34540154D01*
X155651762Y-34540151D01*
X155617543Y-34524195D01*
X155564258Y-34477278D01*
X155544797Y-34409001D01*
X155565339Y-34341041D01*
X155617543Y-34295805D01*
X155651762Y-34279849D01*
X155651767Y-34279846D01*
X155656749Y-34277523D01*
X155761611Y-34204098D01*
X155839789Y-34149357D01*
X155839792Y-34149355D01*
X155844300Y-34146198D01*
X156006198Y-33984300D01*
X156137523Y-33796749D01*
X156139846Y-33791767D01*
X156139849Y-33791762D01*
X156231961Y-33594225D01*
X156231961Y-33594224D01*
X156234284Y-33589243D01*
X156293543Y-33368087D01*
X156313498Y-33140000D01*
X156293543Y-32911913D01*
X156245982Y-32734415D01*
X156235707Y-32696067D01*
X156235706Y-32696065D01*
X156234284Y-32690757D01*
X156231961Y-32685775D01*
X156139849Y-32488238D01*
X156139846Y-32488233D01*
X156137523Y-32483251D01*
X156019323Y-32314444D01*
X156009357Y-32300211D01*
X156009355Y-32300208D01*
X156006198Y-32295700D01*
X155844300Y-32133802D01*
X155839792Y-32130645D01*
X155839789Y-32130643D01*
X155761611Y-32075902D01*
X155656749Y-32002477D01*
X155651767Y-32000154D01*
X155651762Y-32000151D01*
X155617543Y-31984195D01*
X155564258Y-31937278D01*
X155544797Y-31869001D01*
X155565339Y-31801041D01*
X155617543Y-31755805D01*
X155651762Y-31739849D01*
X155651767Y-31739846D01*
X155656749Y-31737523D01*
X155821126Y-31622425D01*
X155839789Y-31609357D01*
X155839792Y-31609355D01*
X155844300Y-31606198D01*
X156006198Y-31444300D01*
X156013100Y-31434444D01*
X156134366Y-31261257D01*
X156137523Y-31256749D01*
X156139846Y-31251767D01*
X156139849Y-31251762D01*
X156231961Y-31054225D01*
X156231961Y-31054224D01*
X156234284Y-31049243D01*
X156239098Y-31031279D01*
X156292119Y-30833402D01*
X156292119Y-30833400D01*
X156293543Y-30828087D01*
X156313498Y-30600000D01*
X156293543Y-30371913D01*
X156291998Y-30366148D01*
X156235707Y-30156067D01*
X156235706Y-30156065D01*
X156234284Y-30150757D01*
X156231961Y-30145775D01*
X156139849Y-29948238D01*
X156139846Y-29948233D01*
X156137523Y-29943251D01*
X156064098Y-29838389D01*
X156009357Y-29760211D01*
X156009355Y-29760208D01*
X156006198Y-29755700D01*
X155844300Y-29593802D01*
X155839792Y-29590645D01*
X155839789Y-29590643D01*
X155698198Y-29491500D01*
X155656749Y-29462477D01*
X155651767Y-29460154D01*
X155651762Y-29460151D01*
X155617543Y-29444195D01*
X155564258Y-29397278D01*
X155544797Y-29329001D01*
X155565339Y-29261041D01*
X155617543Y-29215805D01*
X155651762Y-29199849D01*
X155651767Y-29199846D01*
X155656749Y-29197523D01*
X155761611Y-29124098D01*
X155839789Y-29069357D01*
X155839792Y-29069355D01*
X155844300Y-29066198D01*
X156006198Y-28904300D01*
X156137523Y-28716749D01*
X156139846Y-28711767D01*
X156139849Y-28711762D01*
X156231961Y-28514225D01*
X156231961Y-28514224D01*
X156234284Y-28509243D01*
X156293543Y-28288087D01*
X156313498Y-28060000D01*
X156293543Y-27831913D01*
X156255401Y-27689567D01*
X156235707Y-27616067D01*
X156235706Y-27616065D01*
X156234284Y-27610757D01*
X156221514Y-27583371D01*
X156139849Y-27408238D01*
X156139846Y-27408233D01*
X156137523Y-27403251D01*
X156039987Y-27263955D01*
X156009357Y-27220211D01*
X156009355Y-27220208D01*
X156006198Y-27215700D01*
X155844300Y-27053802D01*
X155839792Y-27050645D01*
X155839789Y-27050643D01*
X155761611Y-26995902D01*
X155656749Y-26922477D01*
X155651767Y-26920154D01*
X155651762Y-26920151D01*
X155617543Y-26904195D01*
X155564258Y-26857278D01*
X155544797Y-26789001D01*
X155565339Y-26721041D01*
X155617543Y-26675805D01*
X155651762Y-26659849D01*
X155651767Y-26659846D01*
X155656749Y-26657523D01*
X155762557Y-26583435D01*
X155839789Y-26529357D01*
X155839792Y-26529355D01*
X155844300Y-26526198D01*
X156006198Y-26364300D01*
X156028363Y-26332646D01*
X156103927Y-26224729D01*
X156137523Y-26176749D01*
X156139846Y-26171767D01*
X156139849Y-26171762D01*
X156231961Y-25974225D01*
X156231961Y-25974224D01*
X156234284Y-25969243D01*
X156248539Y-25916045D01*
X156292119Y-25753402D01*
X156292119Y-25753400D01*
X156293543Y-25748087D01*
X156313498Y-25520000D01*
X156293543Y-25291913D01*
X156250295Y-25130509D01*
X156235707Y-25076067D01*
X156235706Y-25076065D01*
X156234284Y-25070757D01*
X156208638Y-25015758D01*
X156139849Y-24868238D01*
X156139846Y-24868233D01*
X156137523Y-24863251D01*
X156030781Y-24710808D01*
X156009357Y-24680211D01*
X156009355Y-24680208D01*
X156006198Y-24675700D01*
X155844300Y-24513802D01*
X155839792Y-24510645D01*
X155839789Y-24510643D01*
X155682741Y-24400677D01*
X155656749Y-24382477D01*
X155651767Y-24380154D01*
X155651762Y-24380151D01*
X155617543Y-24364195D01*
X155564258Y-24317278D01*
X155544797Y-24249001D01*
X155565339Y-24181041D01*
X155617543Y-24135805D01*
X155651762Y-24119849D01*
X155651767Y-24119846D01*
X155656749Y-24117523D01*
X155824325Y-24000185D01*
X155839789Y-23989357D01*
X155839792Y-23989355D01*
X155844300Y-23986198D01*
X156006198Y-23824300D01*
X156137523Y-23636749D01*
X156139846Y-23631767D01*
X156139849Y-23631762D01*
X156231961Y-23434225D01*
X156231961Y-23434224D01*
X156234284Y-23429243D01*
X156238743Y-23412604D01*
X156292119Y-23213402D01*
X156292119Y-23213400D01*
X156293543Y-23208087D01*
X156313498Y-22980000D01*
X156293543Y-22751913D01*
X156278092Y-22694248D01*
X156235707Y-22536067D01*
X156235706Y-22536065D01*
X156234284Y-22530757D01*
X156221171Y-22502635D01*
X156139849Y-22328238D01*
X156139846Y-22328233D01*
X156137523Y-22323251D01*
X156006198Y-22135700D01*
X155844300Y-21973802D01*
X155839792Y-21970645D01*
X155839789Y-21970643D01*
X155699326Y-21872290D01*
X155656749Y-21842477D01*
X155651767Y-21840154D01*
X155651762Y-21840151D01*
X155454225Y-21748039D01*
X155454224Y-21748039D01*
X155449243Y-21745716D01*
X155443935Y-21744294D01*
X155443933Y-21744293D01*
X155233402Y-21687881D01*
X155233400Y-21687881D01*
X155228087Y-21686457D01*
X155000000Y-21666502D01*
X154771913Y-21686457D01*
X154766600Y-21687881D01*
X154766598Y-21687881D01*
X154556067Y-21744293D01*
X154556065Y-21744294D01*
X154550757Y-21745716D01*
X154545776Y-21748039D01*
X154545775Y-21748039D01*
X154348238Y-21840151D01*
X154348233Y-21840154D01*
X154343251Y-21842477D01*
X154300674Y-21872290D01*
X154160211Y-21970643D01*
X154160208Y-21970645D01*
X154155700Y-21973802D01*
X153993802Y-22135700D01*
X153862477Y-22323251D01*
X153860154Y-22328233D01*
X153860151Y-22328238D01*
X153778829Y-22502635D01*
X153765716Y-22530757D01*
X153764294Y-22536065D01*
X153764293Y-22536067D01*
X153721908Y-22694248D01*
X153706457Y-22751913D01*
X153686502Y-22980000D01*
X153706457Y-23208087D01*
X153707881Y-23213400D01*
X153707881Y-23213402D01*
X153761258Y-23412604D01*
X153765716Y-23429243D01*
X153768039Y-23434224D01*
X153768039Y-23434225D01*
X153860151Y-23631762D01*
X153860154Y-23631767D01*
X153862477Y-23636749D01*
X153993802Y-23824300D01*
X154155700Y-23986198D01*
X154160208Y-23989355D01*
X154160211Y-23989357D01*
X154175675Y-24000185D01*
X154343251Y-24117523D01*
X154348233Y-24119846D01*
X154348238Y-24119849D01*
X154382457Y-24135805D01*
X154435742Y-24182722D01*
X154455203Y-24250999D01*
X154434661Y-24318959D01*
X154382457Y-24364195D01*
X154348238Y-24380151D01*
X154348233Y-24380154D01*
X154343251Y-24382477D01*
X154317259Y-24400677D01*
X154160211Y-24510643D01*
X154160208Y-24510645D01*
X154155700Y-24513802D01*
X153993802Y-24675700D01*
X153990645Y-24680208D01*
X153990643Y-24680211D01*
X153969219Y-24710808D01*
X153862477Y-24863251D01*
X153860154Y-24868233D01*
X153860151Y-24868238D01*
X153791362Y-25015758D01*
X153765716Y-25070757D01*
X153764294Y-25076065D01*
X153764293Y-25076067D01*
X153749705Y-25130509D01*
X153706457Y-25291913D01*
X153686502Y-25520000D01*
X153706457Y-25748087D01*
X153707881Y-25753400D01*
X153707881Y-25753402D01*
X153751462Y-25916045D01*
X153765716Y-25969243D01*
X153768039Y-25974224D01*
X153768039Y-25974225D01*
X153860151Y-26171762D01*
X153860154Y-26171767D01*
X153862477Y-26176749D01*
X153896073Y-26224729D01*
X153971638Y-26332646D01*
X153993802Y-26364300D01*
X154155700Y-26526198D01*
X154160208Y-26529355D01*
X154160211Y-26529357D01*
X154237443Y-26583435D01*
X154343251Y-26657523D01*
X154348233Y-26659846D01*
X154348238Y-26659849D01*
X154382457Y-26675805D01*
X154435742Y-26722722D01*
X154455203Y-26790999D01*
X154434661Y-26858959D01*
X154382457Y-26904195D01*
X154348238Y-26920151D01*
X154348233Y-26920154D01*
X154343251Y-26922477D01*
X154238389Y-26995902D01*
X154160211Y-27050643D01*
X154160208Y-27050645D01*
X154155700Y-27053802D01*
X153993802Y-27215700D01*
X153990645Y-27220208D01*
X153990643Y-27220211D01*
X153960013Y-27263955D01*
X153862477Y-27403251D01*
X153860154Y-27408233D01*
X153860151Y-27408238D01*
X153778486Y-27583371D01*
X153765716Y-27610757D01*
X153764294Y-27616065D01*
X153764293Y-27616067D01*
X153744599Y-27689567D01*
X153706457Y-27831913D01*
X153686502Y-28060000D01*
X153706457Y-28288087D01*
X153765716Y-28509243D01*
X153768039Y-28514224D01*
X153768039Y-28514225D01*
X153860151Y-28711762D01*
X153860154Y-28711767D01*
X153862477Y-28716749D01*
X153993802Y-28904300D01*
X154155700Y-29066198D01*
X154160208Y-29069355D01*
X154160211Y-29069357D01*
X154238389Y-29124098D01*
X154343251Y-29197523D01*
X154348233Y-29199846D01*
X154348238Y-29199849D01*
X154382457Y-29215805D01*
X154435742Y-29262722D01*
X154455203Y-29330999D01*
X154434661Y-29398959D01*
X154382457Y-29444195D01*
X154348238Y-29460151D01*
X154348233Y-29460154D01*
X154343251Y-29462477D01*
X154301802Y-29491500D01*
X154160211Y-29590643D01*
X154160208Y-29590645D01*
X154155700Y-29593802D01*
X153993802Y-29755700D01*
X153990645Y-29760208D01*
X153990643Y-29760211D01*
X153935902Y-29838389D01*
X153862477Y-29943251D01*
X153860154Y-29948233D01*
X153860151Y-29948238D01*
X153768039Y-30145775D01*
X153765716Y-30150757D01*
X153764294Y-30156065D01*
X153764293Y-30156067D01*
X153708002Y-30366148D01*
X153706457Y-30371913D01*
X153686502Y-30600000D01*
X153706457Y-30828087D01*
X153707881Y-30833400D01*
X153707881Y-30833402D01*
X153760903Y-31031279D01*
X153765716Y-31049243D01*
X153768039Y-31054224D01*
X153768039Y-31054225D01*
X153860151Y-31251762D01*
X153860154Y-31251767D01*
X153862477Y-31256749D01*
X153865634Y-31261257D01*
X153986901Y-31434444D01*
X153993802Y-31444300D01*
X154155700Y-31606198D01*
X154160208Y-31609355D01*
X154160211Y-31609357D01*
X154178874Y-31622425D01*
X154343251Y-31737523D01*
X154348233Y-31739846D01*
X154348238Y-31739849D01*
X154382457Y-31755805D01*
X154435742Y-31802722D01*
X154455203Y-31870999D01*
X154434661Y-31938959D01*
X154382457Y-31984195D01*
X154348238Y-32000151D01*
X154348233Y-32000154D01*
X154343251Y-32002477D01*
X154238389Y-32075902D01*
X154160211Y-32130643D01*
X154160208Y-32130645D01*
X154155700Y-32133802D01*
X153993802Y-32295700D01*
X153990645Y-32300208D01*
X153990643Y-32300211D01*
X153980677Y-32314444D01*
X153862477Y-32483251D01*
X153860154Y-32488233D01*
X153860151Y-32488238D01*
X153768039Y-32685775D01*
X153765716Y-32690757D01*
X153764294Y-32696065D01*
X153764293Y-32696067D01*
X153754018Y-32734415D01*
X153706457Y-32911913D01*
X153686502Y-33140000D01*
X153706457Y-33368087D01*
X153765716Y-33589243D01*
X153768039Y-33594224D01*
X153768039Y-33594225D01*
X153860151Y-33791762D01*
X153860154Y-33791767D01*
X153862477Y-33796749D01*
X153993802Y-33984300D01*
X154155700Y-34146198D01*
X154160208Y-34149355D01*
X154160211Y-34149357D01*
X154238389Y-34204098D01*
X154343251Y-34277523D01*
X154348233Y-34279846D01*
X154348238Y-34279849D01*
X154382457Y-34295805D01*
X154435742Y-34342722D01*
X154455203Y-34410999D01*
X154434661Y-34478959D01*
X154382457Y-34524195D01*
X154348238Y-34540151D01*
X154348233Y-34540154D01*
X154343251Y-34542477D01*
X154238389Y-34615902D01*
X154160211Y-34670643D01*
X154160208Y-34670645D01*
X154155700Y-34673802D01*
X153993802Y-34835700D01*
X153862477Y-35023251D01*
X153860154Y-35028233D01*
X153860151Y-35028238D01*
X153771280Y-35218824D01*
X153765716Y-35230757D01*
X153764294Y-35236065D01*
X153764293Y-35236067D01*
X153720345Y-35400082D01*
X153706457Y-35451913D01*
X153686502Y-35680000D01*
X153706457Y-35908087D01*
X153707881Y-35913400D01*
X153707881Y-35913402D01*
X153733185Y-36007835D01*
X153765716Y-36129243D01*
X153768039Y-36134224D01*
X153768039Y-36134225D01*
X153860151Y-36331762D01*
X153860154Y-36331767D01*
X153862477Y-36336749D01*
X153913573Y-36409721D01*
X153989080Y-36517556D01*
X153993802Y-36524300D01*
X154155700Y-36686198D01*
X154160208Y-36689355D01*
X154160211Y-36689357D01*
X154163406Y-36691594D01*
X154343251Y-36817523D01*
X154348233Y-36819846D01*
X154348238Y-36819849D01*
X154382457Y-36835805D01*
X154435742Y-36882722D01*
X154455203Y-36950999D01*
X154434661Y-37018959D01*
X154382457Y-37064195D01*
X154348238Y-37080151D01*
X154348233Y-37080154D01*
X154343251Y-37082477D01*
X154264809Y-37137403D01*
X154160211Y-37210643D01*
X154160208Y-37210645D01*
X154155700Y-37213802D01*
X153993802Y-37375700D01*
X153862477Y-37563251D01*
X153860154Y-37568233D01*
X153860151Y-37568238D01*
X153782764Y-37734197D01*
X153765716Y-37770757D01*
X153764294Y-37776065D01*
X153764293Y-37776067D01*
X153718532Y-37946849D01*
X153681580Y-38007472D01*
X153617719Y-38038493D01*
X153547225Y-38030065D01*
X153522765Y-38016175D01*
X153508655Y-38005924D01*
X153487952Y-37990882D01*
X153481924Y-37988198D01*
X153481922Y-37988197D01*
X153319519Y-37915891D01*
X153319518Y-37915891D01*
X153313488Y-37913206D01*
X153219401Y-37893207D01*
X153133144Y-37874872D01*
X153133139Y-37874872D01*
X153126687Y-37873500D01*
X152935713Y-37873500D01*
X152929261Y-37874872D01*
X152929256Y-37874872D01*
X152842999Y-37893207D01*
X152748912Y-37913206D01*
X152742882Y-37915891D01*
X152742881Y-37915891D01*
X152580478Y-37988197D01*
X152580476Y-37988198D01*
X152574448Y-37990882D01*
X152569107Y-37994762D01*
X152569106Y-37994763D01*
X152539635Y-38016175D01*
X152419947Y-38103134D01*
X152415526Y-38108044D01*
X152415525Y-38108045D01*
X152371947Y-38156444D01*
X152292160Y-38245056D01*
X152196673Y-38410444D01*
X152137658Y-38592072D01*
X152117696Y-38782000D01*
X148561705Y-38782000D01*
X148611961Y-38674225D01*
X148611961Y-38674224D01*
X148614284Y-38669243D01*
X148633204Y-38598635D01*
X148672119Y-38453402D01*
X148672119Y-38453400D01*
X148673543Y-38448087D01*
X148693498Y-38220000D01*
X148673543Y-37991913D01*
X148653173Y-37915891D01*
X148615707Y-37776067D01*
X148615706Y-37776065D01*
X148614284Y-37770757D01*
X148597236Y-37734197D01*
X148519849Y-37568238D01*
X148519846Y-37568233D01*
X148517523Y-37563251D01*
X148386198Y-37375700D01*
X148224300Y-37213802D01*
X148219792Y-37210645D01*
X148219789Y-37210643D01*
X148115191Y-37137403D01*
X148036749Y-37082477D01*
X148031767Y-37080154D01*
X148031762Y-37080151D01*
X147997543Y-37064195D01*
X147944258Y-37017278D01*
X147924797Y-36949001D01*
X147945339Y-36881041D01*
X147997543Y-36835805D01*
X148031762Y-36819849D01*
X148031767Y-36819846D01*
X148036749Y-36817523D01*
X148216594Y-36691594D01*
X148219789Y-36689357D01*
X148219792Y-36689355D01*
X148224300Y-36686198D01*
X148386198Y-36524300D01*
X148390921Y-36517556D01*
X148466427Y-36409721D01*
X148517523Y-36336749D01*
X148519846Y-36331767D01*
X148519849Y-36331762D01*
X148611961Y-36134225D01*
X148611961Y-36134224D01*
X148614284Y-36129243D01*
X148646816Y-36007835D01*
X148672119Y-35913402D01*
X148672119Y-35913400D01*
X148673543Y-35908087D01*
X148693498Y-35680000D01*
X148673543Y-35451913D01*
X148659655Y-35400082D01*
X148615707Y-35236067D01*
X148615706Y-35236065D01*
X148614284Y-35230757D01*
X148608720Y-35218824D01*
X148519849Y-35028238D01*
X148519846Y-35028233D01*
X148517523Y-35023251D01*
X148386198Y-34835700D01*
X148224300Y-34673802D01*
X148219792Y-34670645D01*
X148219789Y-34670643D01*
X148141611Y-34615902D01*
X148036749Y-34542477D01*
X148031767Y-34540154D01*
X148031762Y-34540151D01*
X147997543Y-34524195D01*
X147944258Y-34477278D01*
X147924797Y-34409001D01*
X147945339Y-34341041D01*
X147997543Y-34295805D01*
X148031762Y-34279849D01*
X148031767Y-34279846D01*
X148036749Y-34277523D01*
X148141611Y-34204098D01*
X148219789Y-34149357D01*
X148219792Y-34149355D01*
X148224300Y-34146198D01*
X148386198Y-33984300D01*
X148517523Y-33796749D01*
X148519846Y-33791767D01*
X148519849Y-33791762D01*
X148611961Y-33594225D01*
X148611961Y-33594224D01*
X148614284Y-33589243D01*
X148673543Y-33368087D01*
X148693498Y-33140000D01*
X148673543Y-32911913D01*
X148625982Y-32734415D01*
X148615707Y-32696067D01*
X148615706Y-32696065D01*
X148614284Y-32690757D01*
X148611961Y-32685775D01*
X148519849Y-32488238D01*
X148519846Y-32488233D01*
X148517523Y-32483251D01*
X148399323Y-32314444D01*
X148389357Y-32300211D01*
X148389355Y-32300208D01*
X148386198Y-32295700D01*
X148224300Y-32133802D01*
X148219792Y-32130645D01*
X148219789Y-32130643D01*
X148141611Y-32075902D01*
X148036749Y-32002477D01*
X148031767Y-32000154D01*
X148031762Y-32000151D01*
X147997543Y-31984195D01*
X147944258Y-31937278D01*
X147924797Y-31869001D01*
X147945339Y-31801041D01*
X147997543Y-31755805D01*
X148031762Y-31739849D01*
X148031767Y-31739846D01*
X148036749Y-31737523D01*
X148201126Y-31622425D01*
X148219789Y-31609357D01*
X148219792Y-31609355D01*
X148224300Y-31606198D01*
X148386198Y-31444300D01*
X148393100Y-31434444D01*
X148514366Y-31261257D01*
X148517523Y-31256749D01*
X148519846Y-31251767D01*
X148519849Y-31251762D01*
X148611961Y-31054225D01*
X148611961Y-31054224D01*
X148614284Y-31049243D01*
X148619098Y-31031279D01*
X148672119Y-30833402D01*
X148672119Y-30833400D01*
X148673543Y-30828087D01*
X148693498Y-30600000D01*
X148673543Y-30371913D01*
X148671998Y-30366148D01*
X148615707Y-30156067D01*
X148615706Y-30156065D01*
X148614284Y-30150757D01*
X148611961Y-30145775D01*
X148519849Y-29948238D01*
X148519846Y-29948233D01*
X148517523Y-29943251D01*
X148444098Y-29838389D01*
X148389357Y-29760211D01*
X148389355Y-29760208D01*
X148386198Y-29755700D01*
X148224300Y-29593802D01*
X148219792Y-29590645D01*
X148219789Y-29590643D01*
X148078198Y-29491500D01*
X148036749Y-29462477D01*
X148031767Y-29460154D01*
X148031762Y-29460151D01*
X147997543Y-29444195D01*
X147944258Y-29397278D01*
X147924797Y-29329001D01*
X147945339Y-29261041D01*
X147997543Y-29215805D01*
X148031762Y-29199849D01*
X148031767Y-29199846D01*
X148036749Y-29197523D01*
X148141611Y-29124098D01*
X148219789Y-29069357D01*
X148219792Y-29069355D01*
X148224300Y-29066198D01*
X148386198Y-28904300D01*
X148517523Y-28716749D01*
X148519846Y-28711767D01*
X148519849Y-28711762D01*
X148611961Y-28514225D01*
X148611961Y-28514224D01*
X148614284Y-28509243D01*
X148673543Y-28288087D01*
X148693498Y-28060000D01*
X148673543Y-27831913D01*
X148635401Y-27689567D01*
X148615707Y-27616067D01*
X148615706Y-27616065D01*
X148614284Y-27610757D01*
X148601514Y-27583371D01*
X148519849Y-27408238D01*
X148519846Y-27408233D01*
X148517523Y-27403251D01*
X148419987Y-27263955D01*
X148389357Y-27220211D01*
X148389355Y-27220208D01*
X148386198Y-27215700D01*
X148224300Y-27053802D01*
X148219792Y-27050645D01*
X148219789Y-27050643D01*
X148141611Y-26995902D01*
X148036749Y-26922477D01*
X148031767Y-26920154D01*
X148031762Y-26920151D01*
X147997543Y-26904195D01*
X147944258Y-26857278D01*
X147924797Y-26789001D01*
X147945339Y-26721041D01*
X147997543Y-26675805D01*
X148031762Y-26659849D01*
X148031767Y-26659846D01*
X148036749Y-26657523D01*
X148142557Y-26583435D01*
X148219789Y-26529357D01*
X148219792Y-26529355D01*
X148224300Y-26526198D01*
X148386198Y-26364300D01*
X148408363Y-26332646D01*
X148483927Y-26224729D01*
X148517523Y-26176749D01*
X148519846Y-26171767D01*
X148519849Y-26171762D01*
X148611961Y-25974225D01*
X148611961Y-25974224D01*
X148614284Y-25969243D01*
X148628539Y-25916045D01*
X148672119Y-25753402D01*
X148672119Y-25753400D01*
X148673543Y-25748087D01*
X148693498Y-25520000D01*
X148673543Y-25291913D01*
X148630295Y-25130509D01*
X148615707Y-25076067D01*
X148615706Y-25076065D01*
X148614284Y-25070757D01*
X148588638Y-25015758D01*
X148519849Y-24868238D01*
X148519846Y-24868233D01*
X148517523Y-24863251D01*
X148410781Y-24710808D01*
X148389357Y-24680211D01*
X148389355Y-24680208D01*
X148386198Y-24675700D01*
X148224300Y-24513802D01*
X148219792Y-24510645D01*
X148219789Y-24510643D01*
X148062741Y-24400677D01*
X148036749Y-24382477D01*
X148031767Y-24380154D01*
X148031762Y-24380151D01*
X147997543Y-24364195D01*
X147944258Y-24317278D01*
X147924797Y-24249001D01*
X147945339Y-24181041D01*
X147997543Y-24135805D01*
X148031762Y-24119849D01*
X148031767Y-24119846D01*
X148036749Y-24117523D01*
X148204325Y-24000185D01*
X148219789Y-23989357D01*
X148219792Y-23989355D01*
X148224300Y-23986198D01*
X148386198Y-23824300D01*
X148517523Y-23636749D01*
X148519846Y-23631767D01*
X148519849Y-23631762D01*
X148611961Y-23434225D01*
X148611961Y-23434224D01*
X148614284Y-23429243D01*
X148618743Y-23412604D01*
X148672119Y-23213402D01*
X148672119Y-23213400D01*
X148673543Y-23208087D01*
X148693498Y-22980000D01*
X148673543Y-22751913D01*
X148658092Y-22694248D01*
X148615707Y-22536067D01*
X148615706Y-22536065D01*
X148614284Y-22530757D01*
X148601171Y-22502635D01*
X148519849Y-22328238D01*
X148519846Y-22328233D01*
X148517523Y-22323251D01*
X148386198Y-22135700D01*
X148224300Y-21973802D01*
X148219792Y-21970645D01*
X148219789Y-21970643D01*
X148079326Y-21872290D01*
X148036749Y-21842477D01*
X148031767Y-21840154D01*
X148031762Y-21840151D01*
X147834225Y-21748039D01*
X147834224Y-21748039D01*
X147829243Y-21745716D01*
X147823935Y-21744294D01*
X147823933Y-21744293D01*
X147613402Y-21687881D01*
X147613400Y-21687881D01*
X147608087Y-21686457D01*
X147380000Y-21666502D01*
X147151913Y-21686457D01*
X147146600Y-21687881D01*
X147146598Y-21687881D01*
X146936067Y-21744293D01*
X146936065Y-21744294D01*
X146930757Y-21745716D01*
X146925776Y-21748039D01*
X146925775Y-21748039D01*
X146728238Y-21840151D01*
X146728233Y-21840154D01*
X146723251Y-21842477D01*
X146680674Y-21872290D01*
X146540211Y-21970643D01*
X146540208Y-21970645D01*
X146535700Y-21973802D01*
X146373802Y-22135700D01*
X146242477Y-22323251D01*
X146240154Y-22328233D01*
X146240151Y-22328238D01*
X146158829Y-22502635D01*
X146145716Y-22530757D01*
X146144294Y-22536065D01*
X146144293Y-22536067D01*
X146101908Y-22694248D01*
X146086457Y-22751913D01*
X146066502Y-22980000D01*
X146086457Y-23208087D01*
X146087881Y-23213400D01*
X146087881Y-23213402D01*
X146141258Y-23412604D01*
X146145716Y-23429243D01*
X146148039Y-23434224D01*
X146148039Y-23434225D01*
X146240151Y-23631762D01*
X146240154Y-23631767D01*
X146242477Y-23636749D01*
X146373802Y-23824300D01*
X146535700Y-23986198D01*
X146540208Y-23989355D01*
X146540211Y-23989357D01*
X146555675Y-24000185D01*
X146723251Y-24117523D01*
X146728233Y-24119846D01*
X146728238Y-24119849D01*
X146762457Y-24135805D01*
X146815742Y-24182722D01*
X146835203Y-24250999D01*
X146814661Y-24318959D01*
X146762457Y-24364195D01*
X146728238Y-24380151D01*
X146728233Y-24380154D01*
X146723251Y-24382477D01*
X146697259Y-24400677D01*
X146540211Y-24510643D01*
X146540208Y-24510645D01*
X146535700Y-24513802D01*
X146373802Y-24675700D01*
X146370645Y-24680208D01*
X146370643Y-24680211D01*
X146349219Y-24710808D01*
X146242477Y-24863251D01*
X146240154Y-24868233D01*
X146240151Y-24868238D01*
X146171362Y-25015758D01*
X146145716Y-25070757D01*
X146144294Y-25076065D01*
X146144293Y-25076067D01*
X146129705Y-25130509D01*
X146086457Y-25291913D01*
X146066502Y-25520000D01*
X146086457Y-25748087D01*
X146087881Y-25753400D01*
X146087881Y-25753402D01*
X146131462Y-25916045D01*
X146145716Y-25969243D01*
X146148039Y-25974224D01*
X146148039Y-25974225D01*
X146240151Y-26171762D01*
X146240154Y-26171767D01*
X146242477Y-26176749D01*
X146276073Y-26224729D01*
X146351638Y-26332646D01*
X146373802Y-26364300D01*
X146535700Y-26526198D01*
X146540208Y-26529355D01*
X146540211Y-26529357D01*
X146617443Y-26583435D01*
X146723251Y-26657523D01*
X146728233Y-26659846D01*
X146728238Y-26659849D01*
X146762457Y-26675805D01*
X146815742Y-26722722D01*
X146835203Y-26790999D01*
X146814661Y-26858959D01*
X146762457Y-26904195D01*
X146728238Y-26920151D01*
X146728233Y-26920154D01*
X146723251Y-26922477D01*
X146618389Y-26995902D01*
X146540211Y-27050643D01*
X146540208Y-27050645D01*
X146535700Y-27053802D01*
X146373802Y-27215700D01*
X146370645Y-27220208D01*
X146370643Y-27220211D01*
X146340013Y-27263955D01*
X146242477Y-27403251D01*
X146240154Y-27408233D01*
X146240151Y-27408238D01*
X146158486Y-27583371D01*
X146145716Y-27610757D01*
X146144294Y-27616065D01*
X146144293Y-27616067D01*
X146124599Y-27689567D01*
X146086457Y-27831913D01*
X146066502Y-28060000D01*
X146086457Y-28288087D01*
X146145716Y-28509243D01*
X146148039Y-28514224D01*
X146148039Y-28514225D01*
X146240151Y-28711762D01*
X146240154Y-28711767D01*
X146242477Y-28716749D01*
X146373802Y-28904300D01*
X146535700Y-29066198D01*
X146540208Y-29069355D01*
X146540211Y-29069357D01*
X146618389Y-29124098D01*
X146723251Y-29197523D01*
X146728233Y-29199846D01*
X146728238Y-29199849D01*
X146762457Y-29215805D01*
X146815742Y-29262722D01*
X146835203Y-29330999D01*
X146814661Y-29398959D01*
X146762457Y-29444195D01*
X146728238Y-29460151D01*
X146728233Y-29460154D01*
X146723251Y-29462477D01*
X146681802Y-29491500D01*
X146540211Y-29590643D01*
X146540208Y-29590645D01*
X146535700Y-29593802D01*
X146373802Y-29755700D01*
X146370645Y-29760208D01*
X146370643Y-29760211D01*
X146315902Y-29838389D01*
X146242477Y-29943251D01*
X146240154Y-29948233D01*
X146240151Y-29948238D01*
X146148039Y-30145775D01*
X146145716Y-30150757D01*
X146144294Y-30156065D01*
X146144293Y-30156067D01*
X146088002Y-30366148D01*
X146086457Y-30371913D01*
X146066502Y-30600000D01*
X146086457Y-30828087D01*
X146087881Y-30833400D01*
X146087881Y-30833402D01*
X146140903Y-31031279D01*
X146145716Y-31049243D01*
X146148039Y-31054224D01*
X146148039Y-31054225D01*
X146240151Y-31251762D01*
X146240154Y-31251767D01*
X146242477Y-31256749D01*
X146245634Y-31261257D01*
X146366901Y-31434444D01*
X146373802Y-31444300D01*
X146535700Y-31606198D01*
X146540208Y-31609355D01*
X146540211Y-31609357D01*
X146558874Y-31622425D01*
X146723251Y-31737523D01*
X146728233Y-31739846D01*
X146728238Y-31739849D01*
X146762457Y-31755805D01*
X146815742Y-31802722D01*
X146835203Y-31870999D01*
X146814661Y-31938959D01*
X146762457Y-31984195D01*
X146728238Y-32000151D01*
X146728233Y-32000154D01*
X146723251Y-32002477D01*
X146618389Y-32075902D01*
X146540211Y-32130643D01*
X146540208Y-32130645D01*
X146535700Y-32133802D01*
X146373802Y-32295700D01*
X146370645Y-32300208D01*
X146370643Y-32300211D01*
X146360677Y-32314444D01*
X146242477Y-32483251D01*
X146240154Y-32488233D01*
X146240151Y-32488238D01*
X146148039Y-32685775D01*
X146145716Y-32690757D01*
X146144294Y-32696065D01*
X146144293Y-32696067D01*
X146134018Y-32734415D01*
X146086457Y-32911913D01*
X146066502Y-33140000D01*
X146086457Y-33368087D01*
X146145716Y-33589243D01*
X146148039Y-33594224D01*
X146148039Y-33594225D01*
X146240151Y-33791762D01*
X146240154Y-33791767D01*
X146242477Y-33796749D01*
X146373802Y-33984300D01*
X146535700Y-34146198D01*
X146540208Y-34149355D01*
X146540211Y-34149357D01*
X146618389Y-34204098D01*
X146723251Y-34277523D01*
X146728233Y-34279846D01*
X146728238Y-34279849D01*
X146762457Y-34295805D01*
X146815742Y-34342722D01*
X146835203Y-34410999D01*
X146814661Y-34478959D01*
X146762457Y-34524195D01*
X146728238Y-34540151D01*
X146728233Y-34540154D01*
X146723251Y-34542477D01*
X146618389Y-34615902D01*
X146540211Y-34670643D01*
X146540208Y-34670645D01*
X146535700Y-34673802D01*
X146373802Y-34835700D01*
X146242477Y-35023251D01*
X146240154Y-35028233D01*
X146240151Y-35028238D01*
X146151280Y-35218824D01*
X146145716Y-35230757D01*
X146144294Y-35236065D01*
X146144293Y-35236067D01*
X146100345Y-35400082D01*
X146086457Y-35451913D01*
X146066502Y-35680000D01*
X146086457Y-35908087D01*
X146087881Y-35913400D01*
X146087881Y-35913402D01*
X146113185Y-36007835D01*
X146145716Y-36129243D01*
X146148039Y-36134224D01*
X146148039Y-36134225D01*
X146240151Y-36331762D01*
X146240154Y-36331767D01*
X146242477Y-36336749D01*
X146293573Y-36409721D01*
X146369080Y-36517556D01*
X146373802Y-36524300D01*
X146535700Y-36686198D01*
X146540208Y-36689355D01*
X146540211Y-36689357D01*
X146543406Y-36691594D01*
X146723251Y-36817523D01*
X146728233Y-36819846D01*
X146728238Y-36819849D01*
X146762457Y-36835805D01*
X146815742Y-36882722D01*
X146835203Y-36950999D01*
X146814661Y-37018959D01*
X146762457Y-37064195D01*
X146728238Y-37080151D01*
X146728233Y-37080154D01*
X146723251Y-37082477D01*
X146644809Y-37137403D01*
X146540211Y-37210643D01*
X146540208Y-37210645D01*
X146535700Y-37213802D01*
X146373802Y-37375700D01*
X146242477Y-37563251D01*
X146240154Y-37568233D01*
X146240151Y-37568238D01*
X146162764Y-37734197D01*
X146145716Y-37770757D01*
X146144294Y-37776065D01*
X146144293Y-37776067D01*
X146106827Y-37915891D01*
X146086457Y-37991913D01*
X146066502Y-38220000D01*
X146086457Y-38448087D01*
X146087881Y-38453400D01*
X146087881Y-38453402D01*
X146126797Y-38598635D01*
X146145716Y-38669243D01*
X146148039Y-38674224D01*
X146148039Y-38674225D01*
X146240151Y-38871762D01*
X146240154Y-38871767D01*
X146242477Y-38876749D01*
X146373802Y-39064300D01*
X146535700Y-39226198D01*
X146540208Y-39229355D01*
X146540211Y-39229357D01*
X146618389Y-39284098D01*
X146723251Y-39357523D01*
X146728233Y-39359846D01*
X146728238Y-39359849D01*
X146762457Y-39375805D01*
X146815742Y-39422722D01*
X146835203Y-39490999D01*
X146814661Y-39558959D01*
X146762457Y-39604195D01*
X146728238Y-39620151D01*
X146728233Y-39620154D01*
X146723251Y-39622477D01*
X146680851Y-39652166D01*
X146540211Y-39750643D01*
X146540208Y-39750645D01*
X146535700Y-39753802D01*
X146373802Y-39915700D01*
X146242477Y-40103251D01*
X146240154Y-40108233D01*
X146240151Y-40108238D01*
X146148039Y-40305775D01*
X146145716Y-40310757D01*
X146086457Y-40531913D01*
X146066502Y-40760000D01*
X146086457Y-40988087D01*
X146145716Y-41209243D01*
X146148039Y-41214224D01*
X146148039Y-41214225D01*
X146240151Y-41411762D01*
X146240154Y-41411767D01*
X146242477Y-41416749D01*
X146373802Y-41604300D01*
X146535700Y-41766198D01*
X146540208Y-41769355D01*
X146540211Y-41769357D01*
X146540457Y-41769529D01*
X146723251Y-41897523D01*
X146728233Y-41899846D01*
X146728238Y-41899849D01*
X146762457Y-41915805D01*
X146815742Y-41962722D01*
X146835203Y-42030999D01*
X146814661Y-42098959D01*
X146762457Y-42144195D01*
X146728238Y-42160151D01*
X146728233Y-42160154D01*
X146723251Y-42162477D01*
X146627054Y-42229835D01*
X146540211Y-42290643D01*
X146540208Y-42290645D01*
X146535700Y-42293802D01*
X146373802Y-42455700D01*
X146370645Y-42460208D01*
X146370643Y-42460211D01*
X146342733Y-42500071D01*
X146242477Y-42643251D01*
X146240154Y-42648233D01*
X146240151Y-42648238D01*
X146170653Y-42797279D01*
X146145716Y-42850757D01*
X146144294Y-42856065D01*
X146144293Y-42856067D01*
X146094124Y-43043300D01*
X146086457Y-43071913D01*
X146066502Y-43300000D01*
X146086457Y-43528087D01*
X146087881Y-43533400D01*
X146087881Y-43533402D01*
X146126797Y-43678635D01*
X146145716Y-43749243D01*
X146148039Y-43754224D01*
X146148039Y-43754225D01*
X146240151Y-43951762D01*
X146240154Y-43951767D01*
X146242477Y-43956749D01*
X146373802Y-44144300D01*
X146535700Y-44306198D01*
X146540208Y-44309355D01*
X146540211Y-44309357D01*
X146578473Y-44336148D01*
X146723251Y-44437523D01*
X146728233Y-44439846D01*
X146728238Y-44439849D01*
X146762457Y-44455805D01*
X146815742Y-44502722D01*
X146835203Y-44570999D01*
X146814661Y-44638959D01*
X146762457Y-44684195D01*
X146728238Y-44700151D01*
X146728233Y-44700154D01*
X146723251Y-44702477D01*
X146680851Y-44732166D01*
X146540211Y-44830643D01*
X146540208Y-44830645D01*
X146535700Y-44833802D01*
X146373802Y-44995700D01*
X146370645Y-45000208D01*
X146370643Y-45000211D01*
X146340766Y-45042880D01*
X146242477Y-45183251D01*
X146240154Y-45188233D01*
X146240151Y-45188238D01*
X146148039Y-45385775D01*
X146145716Y-45390757D01*
X146144294Y-45396065D01*
X146144293Y-45396067D01*
X146102523Y-45551955D01*
X146086457Y-45611913D01*
X146066502Y-45840000D01*
X146086457Y-46068087D01*
X146145716Y-46289243D01*
X146148039Y-46294224D01*
X146148039Y-46294225D01*
X146240151Y-46491762D01*
X146240154Y-46491767D01*
X146242477Y-46496749D01*
X146252366Y-46510872D01*
X146358241Y-46662076D01*
X146373802Y-46684300D01*
X146535700Y-46846198D01*
X146540208Y-46849355D01*
X146540211Y-46849357D01*
X146557772Y-46861653D01*
X146723251Y-46977523D01*
X146728233Y-46979846D01*
X146728238Y-46979849D01*
X146762457Y-46995805D01*
X146815742Y-47042722D01*
X146835203Y-47110999D01*
X146814661Y-47178959D01*
X146762457Y-47224195D01*
X146728238Y-47240151D01*
X146728233Y-47240154D01*
X146723251Y-47242477D01*
X146709587Y-47252045D01*
X146540211Y-47370643D01*
X146540208Y-47370645D01*
X146535700Y-47373802D01*
X146373802Y-47535700D01*
X146370645Y-47540208D01*
X146370643Y-47540211D01*
X146360677Y-47554444D01*
X146242477Y-47723251D01*
X146240154Y-47728233D01*
X146240151Y-47728238D01*
X146148039Y-47925775D01*
X146145716Y-47930757D01*
X146144294Y-47936065D01*
X146144293Y-47936067D01*
X146099305Y-48103963D01*
X146086457Y-48151913D01*
X146066502Y-48380000D01*
X146086457Y-48608087D01*
X146087881Y-48613400D01*
X146087881Y-48613402D01*
X146140042Y-48808066D01*
X146145716Y-48829243D01*
X146148039Y-48834224D01*
X146148039Y-48834225D01*
X146240151Y-49031762D01*
X146240154Y-49031767D01*
X146242477Y-49036749D01*
X146373802Y-49224300D01*
X146535700Y-49386198D01*
X146540208Y-49389355D01*
X146540211Y-49389357D01*
X146587439Y-49422426D01*
X146723251Y-49517523D01*
X146728233Y-49519846D01*
X146728238Y-49519849D01*
X146762457Y-49535805D01*
X146815742Y-49582722D01*
X146835203Y-49650999D01*
X146814661Y-49718959D01*
X146762457Y-49764195D01*
X146728238Y-49780151D01*
X146728233Y-49780154D01*
X146723251Y-49782477D01*
X146669663Y-49820000D01*
X146540211Y-49910643D01*
X146540208Y-49910645D01*
X146535700Y-49913802D01*
X146373802Y-50075700D01*
X146370645Y-50080208D01*
X146370643Y-50080211D01*
X146329414Y-50139092D01*
X146242477Y-50263251D01*
X146240154Y-50268233D01*
X146240151Y-50268238D01*
X146174483Y-50409065D01*
X146145716Y-50470757D01*
X146144294Y-50476065D01*
X146144293Y-50476067D01*
X146090205Y-50677924D01*
X146086457Y-50691913D01*
X146066502Y-50920000D01*
X146086457Y-51148087D01*
X146087881Y-51153400D01*
X146087881Y-51153402D01*
X146131462Y-51316045D01*
X146145716Y-51369243D01*
X146148039Y-51374224D01*
X146148039Y-51374225D01*
X146240151Y-51571762D01*
X146240154Y-51571767D01*
X146242477Y-51576749D01*
X146299695Y-51658465D01*
X146361102Y-51746162D01*
X146373802Y-51764300D01*
X146535700Y-51926198D01*
X146540208Y-51929355D01*
X146540211Y-51929357D01*
X146566829Y-51947995D01*
X146723251Y-52057523D01*
X146728233Y-52059846D01*
X146728238Y-52059849D01*
X146762457Y-52075805D01*
X146815742Y-52122722D01*
X146835203Y-52190999D01*
X146814661Y-52258959D01*
X146762457Y-52304195D01*
X146728238Y-52320151D01*
X146728233Y-52320154D01*
X146723251Y-52322477D01*
X146618389Y-52395902D01*
X146540211Y-52450643D01*
X146540208Y-52450645D01*
X146535700Y-52453802D01*
X146373802Y-52615700D01*
X146242477Y-52803251D01*
X146240154Y-52808233D01*
X146240151Y-52808238D01*
X146170541Y-52957519D01*
X146145716Y-53010757D01*
X146086457Y-53231913D01*
X146066502Y-53460000D01*
X146086457Y-53688087D01*
X146087881Y-53693400D01*
X146087881Y-53693402D01*
X146143659Y-53901565D01*
X146145716Y-53909243D01*
X146148039Y-53914224D01*
X146148039Y-53914225D01*
X146240151Y-54111762D01*
X146240154Y-54111767D01*
X146242477Y-54116749D01*
X146286403Y-54179481D01*
X146370015Y-54298891D01*
X146373802Y-54304300D01*
X146535700Y-54466198D01*
X146540208Y-54469355D01*
X146540211Y-54469357D01*
X146596505Y-54508774D01*
X146723251Y-54597523D01*
X146728233Y-54599846D01*
X146728238Y-54599849D01*
X146762457Y-54615805D01*
X146815742Y-54662722D01*
X146835203Y-54730999D01*
X146814661Y-54798959D01*
X146762457Y-54844195D01*
X146728238Y-54860151D01*
X146728233Y-54860154D01*
X146723251Y-54862477D01*
X146657574Y-54908465D01*
X146540211Y-54990643D01*
X146540208Y-54990645D01*
X146535700Y-54993802D01*
X146373802Y-55155700D01*
X146370645Y-55160208D01*
X146370643Y-55160211D01*
X146326422Y-55223365D01*
X146242477Y-55343251D01*
X146240154Y-55348233D01*
X146240151Y-55348238D01*
X146194434Y-55446280D01*
X146145716Y-55550757D01*
X146144294Y-55556065D01*
X146144293Y-55556067D01*
X146090271Y-55757678D01*
X146086457Y-55771913D01*
X146066502Y-56000000D01*
X130834191Y-56000000D01*
X130926722Y-55958803D01*
X130926724Y-55958802D01*
X130932752Y-55956118D01*
X131087253Y-55843866D01*
X131102226Y-55827237D01*
X131210621Y-55706852D01*
X131210622Y-55706851D01*
X131215040Y-55701944D01*
X131302328Y-55550757D01*
X131307223Y-55542279D01*
X131307224Y-55542278D01*
X131310527Y-55536556D01*
X131369542Y-55354928D01*
X131375105Y-55302005D01*
X131388814Y-55171565D01*
X131389504Y-55165000D01*
X131369542Y-54975072D01*
X131310527Y-54793444D01*
X131290654Y-54759022D01*
X131262595Y-54710423D01*
X131215040Y-54628056D01*
X131184706Y-54594366D01*
X131091675Y-54491045D01*
X131091674Y-54491044D01*
X131087253Y-54486134D01*
X130932752Y-54373882D01*
X130926724Y-54371198D01*
X130926722Y-54371197D01*
X130764319Y-54298891D01*
X130764318Y-54298891D01*
X130758288Y-54296206D01*
X130645721Y-54272279D01*
X130577944Y-54257872D01*
X130577939Y-54257872D01*
X130571487Y-54256500D01*
X130380513Y-54256500D01*
X130374061Y-54257872D01*
X130374056Y-54257872D01*
X130306279Y-54272279D01*
X130193712Y-54296206D01*
X130187682Y-54298891D01*
X130187681Y-54298891D01*
X130025278Y-54371197D01*
X130025276Y-54371198D01*
X130019248Y-54373882D01*
X129864747Y-54486134D01*
X129860326Y-54491044D01*
X129860325Y-54491045D01*
X129767295Y-54594366D01*
X129736960Y-54628056D01*
X129689405Y-54710423D01*
X129661347Y-54759022D01*
X129641473Y-54793444D01*
X129582458Y-54975072D01*
X129562496Y-55165000D01*
X116680367Y-55165000D01*
X116680870Y-55160211D01*
X116692814Y-55046565D01*
X116693504Y-55040000D01*
X116674846Y-54862477D01*
X116674232Y-54856635D01*
X116674232Y-54856633D01*
X116673542Y-54850072D01*
X116614527Y-54668444D01*
X116608526Y-54658049D01*
X116522341Y-54508774D01*
X116519040Y-54503056D01*
X116503804Y-54486134D01*
X116395675Y-54366045D01*
X116395674Y-54366044D01*
X116391253Y-54361134D01*
X116236752Y-54248882D01*
X116230724Y-54246198D01*
X116230722Y-54246197D01*
X116068319Y-54173891D01*
X116068318Y-54173891D01*
X116062288Y-54171206D01*
X115960297Y-54149527D01*
X115881944Y-54132872D01*
X115881939Y-54132872D01*
X115875487Y-54131500D01*
X115684513Y-54131500D01*
X115678061Y-54132872D01*
X115678056Y-54132872D01*
X115599703Y-54149527D01*
X115497712Y-54171206D01*
X115491682Y-54173891D01*
X115491681Y-54173891D01*
X115329278Y-54246197D01*
X115329276Y-54246198D01*
X115323248Y-54248882D01*
X115168747Y-54361134D01*
X115164326Y-54366044D01*
X115164325Y-54366045D01*
X115056197Y-54486134D01*
X115040960Y-54503056D01*
X115037659Y-54508774D01*
X114951475Y-54658049D01*
X114945473Y-54668444D01*
X114886458Y-54850072D01*
X114885768Y-54856633D01*
X114885768Y-54856635D01*
X114885154Y-54862477D01*
X114866496Y-55040000D01*
X110702782Y-55040000D01*
X110745520Y-54908465D01*
X110756766Y-54801469D01*
X110757816Y-54793774D01*
X110763071Y-54762539D01*
X110763224Y-54750000D01*
X110759273Y-54722412D01*
X110758000Y-54704549D01*
X110758000Y-53895000D01*
X132991496Y-53895000D01*
X133011458Y-54084928D01*
X133070473Y-54266556D01*
X133073776Y-54272278D01*
X133073777Y-54272279D01*
X133094514Y-54308197D01*
X133165960Y-54431944D01*
X133170378Y-54436851D01*
X133170379Y-54436852D01*
X133214753Y-54486134D01*
X133293747Y-54573866D01*
X133345522Y-54611483D01*
X133413733Y-54661041D01*
X133448248Y-54686118D01*
X133454276Y-54688802D01*
X133454278Y-54688803D01*
X133616681Y-54761109D01*
X133622712Y-54763794D01*
X133712010Y-54782775D01*
X133803056Y-54802128D01*
X133803061Y-54802128D01*
X133809513Y-54803500D01*
X134000487Y-54803500D01*
X134006939Y-54802128D01*
X134006944Y-54802128D01*
X134097990Y-54782775D01*
X134187288Y-54763794D01*
X134193319Y-54761109D01*
X134355722Y-54688803D01*
X134355724Y-54688802D01*
X134361752Y-54686118D01*
X134396268Y-54661041D01*
X134464478Y-54611483D01*
X134516253Y-54573866D01*
X134595247Y-54486134D01*
X134639621Y-54436852D01*
X134639622Y-54436851D01*
X134644040Y-54431944D01*
X134715486Y-54308197D01*
X134736223Y-54272279D01*
X134736224Y-54272278D01*
X134739527Y-54266556D01*
X134798542Y-54084928D01*
X134818504Y-53895000D01*
X134798542Y-53705072D01*
X134739527Y-53523444D01*
X134644040Y-53358056D01*
X134544257Y-53247235D01*
X134520675Y-53221045D01*
X134520674Y-53221044D01*
X134516253Y-53216134D01*
X134361752Y-53103882D01*
X134355724Y-53101198D01*
X134355722Y-53101197D01*
X134193319Y-53028891D01*
X134193318Y-53028891D01*
X134187288Y-53026206D01*
X134091168Y-53005775D01*
X134006944Y-52987872D01*
X134006939Y-52987872D01*
X134000487Y-52986500D01*
X133809513Y-52986500D01*
X133803061Y-52987872D01*
X133803056Y-52987872D01*
X133718832Y-53005775D01*
X133622712Y-53026206D01*
X133616682Y-53028891D01*
X133616681Y-53028891D01*
X133454278Y-53101197D01*
X133454276Y-53101198D01*
X133448248Y-53103882D01*
X133293747Y-53216134D01*
X133289326Y-53221044D01*
X133289325Y-53221045D01*
X133265744Y-53247235D01*
X133165960Y-53358056D01*
X133070473Y-53523444D01*
X133011458Y-53705072D01*
X132991496Y-53895000D01*
X110758000Y-53895000D01*
X110758000Y-52553207D01*
X110759746Y-52532303D01*
X110760932Y-52525251D01*
X110763071Y-52512539D01*
X110763224Y-52500000D01*
X110759616Y-52474809D01*
X110759036Y-52470137D01*
X110758373Y-52463822D01*
X110745520Y-52341535D01*
X110696282Y-52189995D01*
X110622961Y-52063000D01*
X110606223Y-51994005D01*
X110622961Y-51937000D01*
X110692978Y-51815728D01*
X110692979Y-51815727D01*
X110696282Y-51810005D01*
X110745520Y-51658465D01*
X110756766Y-51551469D01*
X110757816Y-51543774D01*
X110763071Y-51512539D01*
X110763224Y-51500000D01*
X110762056Y-51491843D01*
X110761013Y-51481585D01*
X110760669Y-51475888D01*
X110745634Y-51227331D01*
X110724132Y-51110000D01*
X118716693Y-51110000D01*
X118735885Y-51329371D01*
X118792880Y-51542076D01*
X118825822Y-51612721D01*
X118883618Y-51736666D01*
X118883621Y-51736671D01*
X118885944Y-51741653D01*
X118889100Y-51746160D01*
X118889101Y-51746162D01*
X118933805Y-51810005D01*
X119012251Y-51922038D01*
X119167962Y-52077749D01*
X119348346Y-52204056D01*
X119547924Y-52297120D01*
X119760629Y-52354115D01*
X119980000Y-52373307D01*
X120199371Y-52354115D01*
X120412076Y-52297120D01*
X120611654Y-52204056D01*
X120792038Y-52077749D01*
X120879787Y-51990000D01*
X142008496Y-51990000D01*
X142009186Y-51996565D01*
X142016169Y-52063000D01*
X142028458Y-52179928D01*
X142087473Y-52361556D01*
X142182960Y-52526944D01*
X142187378Y-52531851D01*
X142187379Y-52531852D01*
X142206607Y-52553207D01*
X142310747Y-52668866D01*
X142465248Y-52781118D01*
X142471276Y-52783802D01*
X142471278Y-52783803D01*
X142633681Y-52856109D01*
X142639712Y-52858794D01*
X142733112Y-52878647D01*
X142820056Y-52897128D01*
X142820061Y-52897128D01*
X142826513Y-52898500D01*
X143017487Y-52898500D01*
X143023939Y-52897128D01*
X143023944Y-52897128D01*
X143110888Y-52878647D01*
X143204288Y-52858794D01*
X143210319Y-52856109D01*
X143372722Y-52783803D01*
X143372724Y-52783802D01*
X143378752Y-52781118D01*
X143533253Y-52668866D01*
X143637393Y-52553207D01*
X143656621Y-52531852D01*
X143656622Y-52531851D01*
X143661040Y-52526944D01*
X143756527Y-52361556D01*
X143815542Y-52179928D01*
X143827832Y-52063000D01*
X143834814Y-51996565D01*
X143835504Y-51990000D01*
X143827887Y-51917527D01*
X143816232Y-51806635D01*
X143816232Y-51806633D01*
X143815542Y-51800072D01*
X143756527Y-51618444D01*
X143661040Y-51453056D01*
X143580794Y-51363933D01*
X143537675Y-51316045D01*
X143537674Y-51316044D01*
X143533253Y-51311134D01*
X143378752Y-51198882D01*
X143372724Y-51196198D01*
X143372722Y-51196197D01*
X143210319Y-51123891D01*
X143210318Y-51123891D01*
X143204288Y-51121206D01*
X143110887Y-51101353D01*
X143023944Y-51082872D01*
X143023939Y-51082872D01*
X143017487Y-51081500D01*
X142826513Y-51081500D01*
X142820061Y-51082872D01*
X142820056Y-51082872D01*
X142733112Y-51101353D01*
X142639712Y-51121206D01*
X142633682Y-51123891D01*
X142633681Y-51123891D01*
X142471278Y-51196197D01*
X142471276Y-51196198D01*
X142465248Y-51198882D01*
X142310747Y-51311134D01*
X142306326Y-51316044D01*
X142306325Y-51316045D01*
X142263207Y-51363933D01*
X142182960Y-51453056D01*
X142087473Y-51618444D01*
X142028458Y-51800072D01*
X142027768Y-51806633D01*
X142027768Y-51806635D01*
X142016113Y-51917527D01*
X142008496Y-51990000D01*
X120879787Y-51990000D01*
X120947749Y-51922038D01*
X121026196Y-51810005D01*
X121070899Y-51746162D01*
X121070900Y-51746160D01*
X121074056Y-51741653D01*
X121076379Y-51736671D01*
X121076382Y-51736666D01*
X121134178Y-51612721D01*
X121167120Y-51542076D01*
X121224115Y-51329371D01*
X121243307Y-51110000D01*
X121224115Y-50890629D01*
X121167120Y-50677924D01*
X121116074Y-50568455D01*
X121076382Y-50483334D01*
X121076379Y-50483329D01*
X121074056Y-50478347D01*
X121070899Y-50473838D01*
X120950908Y-50302473D01*
X120950906Y-50302470D01*
X120947749Y-50297962D01*
X120792038Y-50142251D01*
X120611654Y-50015944D01*
X120412076Y-49922880D01*
X120199371Y-49865885D01*
X119980000Y-49846693D01*
X119760629Y-49865885D01*
X119547924Y-49922880D01*
X119454562Y-49966415D01*
X119353334Y-50013618D01*
X119353329Y-50013621D01*
X119348347Y-50015944D01*
X119343840Y-50019100D01*
X119343838Y-50019101D01*
X119172473Y-50139092D01*
X119172470Y-50139094D01*
X119167962Y-50142251D01*
X119012251Y-50297962D01*
X119009094Y-50302470D01*
X119009092Y-50302473D01*
X118889101Y-50473838D01*
X118885944Y-50478347D01*
X118883621Y-50483329D01*
X118883618Y-50483334D01*
X118843926Y-50568455D01*
X118792880Y-50677924D01*
X118735885Y-50890629D01*
X118716693Y-51110000D01*
X110724132Y-51110000D01*
X110720058Y-51087768D01*
X110697082Y-50962390D01*
X110697080Y-50962383D01*
X110696394Y-50958638D01*
X110615125Y-50697839D01*
X110604573Y-50674394D01*
X110504575Y-50452205D01*
X110504574Y-50452202D01*
X110503014Y-50448737D01*
X110501049Y-50445486D01*
X110501044Y-50445477D01*
X110374123Y-50235525D01*
X110361694Y-50214965D01*
X110332073Y-50177156D01*
X110195579Y-50002935D01*
X110195576Y-50002932D01*
X110193226Y-49999932D01*
X110013294Y-49820000D01*
X123596496Y-49820000D01*
X123597186Y-49826565D01*
X123614945Y-49995528D01*
X123616458Y-50009928D01*
X123675473Y-50191556D01*
X123678776Y-50197278D01*
X123678777Y-50197279D01*
X123688988Y-50214965D01*
X123770960Y-50356944D01*
X123775378Y-50361851D01*
X123775379Y-50361852D01*
X123876212Y-50473838D01*
X123898747Y-50498866D01*
X123994528Y-50568455D01*
X124046511Y-50606223D01*
X124053248Y-50611118D01*
X124059276Y-50613802D01*
X124059278Y-50613803D01*
X124221681Y-50686109D01*
X124227712Y-50688794D01*
X124321113Y-50708647D01*
X124408056Y-50727128D01*
X124408061Y-50727128D01*
X124414513Y-50728500D01*
X124605487Y-50728500D01*
X124611939Y-50727128D01*
X124611944Y-50727128D01*
X124698887Y-50708647D01*
X124792288Y-50688794D01*
X124798319Y-50686109D01*
X124960722Y-50613803D01*
X124960724Y-50613802D01*
X124966752Y-50611118D01*
X124973490Y-50606223D01*
X125025472Y-50568455D01*
X125121253Y-50498866D01*
X125143788Y-50473838D01*
X125244621Y-50361852D01*
X125244622Y-50361851D01*
X125249040Y-50356944D01*
X125331012Y-50214965D01*
X125341223Y-50197279D01*
X125341224Y-50197278D01*
X125344527Y-50191556D01*
X125403542Y-50009928D01*
X125405056Y-49995528D01*
X125412647Y-49923300D01*
X125439660Y-49857643D01*
X125497882Y-49817014D01*
X125568827Y-49814311D01*
X125629971Y-49850393D01*
X125661901Y-49913804D01*
X125663266Y-49923294D01*
X125670858Y-49995528D01*
X125729873Y-50177156D01*
X125825360Y-50342544D01*
X125829778Y-50347451D01*
X125829779Y-50347452D01*
X125947637Y-50478347D01*
X125953147Y-50484466D01*
X126107648Y-50596718D01*
X126113676Y-50599402D01*
X126113678Y-50599403D01*
X126276081Y-50671709D01*
X126282112Y-50674394D01*
X126375513Y-50694247D01*
X126462456Y-50712728D01*
X126462461Y-50712728D01*
X126468913Y-50714100D01*
X126659887Y-50714100D01*
X126666339Y-50712728D01*
X126666344Y-50712728D01*
X126753287Y-50694247D01*
X126846688Y-50674394D01*
X126852719Y-50671709D01*
X127015122Y-50599403D01*
X127015124Y-50599402D01*
X127021152Y-50596718D01*
X127175653Y-50484466D01*
X127181163Y-50478347D01*
X127249456Y-50402500D01*
X131086496Y-50402500D01*
X131087186Y-50409065D01*
X131104863Y-50577249D01*
X131106458Y-50592428D01*
X131165473Y-50774056D01*
X131260960Y-50939444D01*
X131265378Y-50944351D01*
X131265379Y-50944352D01*
X131384325Y-51076455D01*
X131388747Y-51081366D01*
X131543248Y-51193618D01*
X131549276Y-51196302D01*
X131549278Y-51196303D01*
X131627499Y-51231129D01*
X131717712Y-51271294D01*
X131811112Y-51291147D01*
X131898056Y-51309628D01*
X131898061Y-51309628D01*
X131904513Y-51311000D01*
X132095487Y-51311000D01*
X132101939Y-51309628D01*
X132101944Y-51309628D01*
X132188888Y-51291147D01*
X132282288Y-51271294D01*
X132372501Y-51231129D01*
X132450722Y-51196303D01*
X132450724Y-51196302D01*
X132456752Y-51193618D01*
X132611253Y-51081366D01*
X132615675Y-51076455D01*
X132734621Y-50944352D01*
X132734622Y-50944351D01*
X132739040Y-50939444D01*
X132834527Y-50774056D01*
X132893542Y-50592428D01*
X132895138Y-50577249D01*
X132912814Y-50409065D01*
X132913504Y-50402500D01*
X132907718Y-50347452D01*
X132894232Y-50219135D01*
X132894232Y-50219133D01*
X132893542Y-50212572D01*
X132834527Y-50030944D01*
X132827690Y-50019101D01*
X132772379Y-49923301D01*
X132739040Y-49865556D01*
X132703933Y-49826565D01*
X132615675Y-49728545D01*
X132615674Y-49728544D01*
X132611253Y-49723634D01*
X132491102Y-49636339D01*
X132462094Y-49615263D01*
X132462093Y-49615262D01*
X132456752Y-49611382D01*
X132450724Y-49608698D01*
X132450722Y-49608697D01*
X132288319Y-49536391D01*
X132288318Y-49536391D01*
X132282288Y-49533706D01*
X132188888Y-49513853D01*
X132101944Y-49495372D01*
X132101939Y-49495372D01*
X132095487Y-49494000D01*
X131904513Y-49494000D01*
X131898061Y-49495372D01*
X131898056Y-49495372D01*
X131811113Y-49513853D01*
X131717712Y-49533706D01*
X131711682Y-49536391D01*
X131711681Y-49536391D01*
X131549278Y-49608697D01*
X131549276Y-49608698D01*
X131543248Y-49611382D01*
X131537907Y-49615262D01*
X131537906Y-49615263D01*
X131508898Y-49636339D01*
X131388747Y-49723634D01*
X131384326Y-49728544D01*
X131384325Y-49728545D01*
X131296068Y-49826565D01*
X131260960Y-49865556D01*
X131227621Y-49923301D01*
X131172311Y-50019101D01*
X131165473Y-50030944D01*
X131106458Y-50212572D01*
X131105768Y-50219133D01*
X131105768Y-50219135D01*
X131092282Y-50347452D01*
X131086496Y-50402500D01*
X127249456Y-50402500D01*
X127299021Y-50347452D01*
X127299022Y-50347451D01*
X127303440Y-50342544D01*
X127398927Y-50177156D01*
X127457942Y-49995528D01*
X127465152Y-49926934D01*
X127477214Y-49812165D01*
X127477904Y-49805600D01*
X127473948Y-49767957D01*
X127458632Y-49622235D01*
X127458632Y-49622233D01*
X127457942Y-49615672D01*
X127398927Y-49434044D01*
X127303440Y-49268656D01*
X127280185Y-49242828D01*
X127180075Y-49131645D01*
X127180074Y-49131644D01*
X127175653Y-49126734D01*
X127076557Y-49054736D01*
X127026494Y-49018363D01*
X127026493Y-49018362D01*
X127021152Y-49014482D01*
X127015124Y-49011798D01*
X127015122Y-49011797D01*
X126852719Y-48939491D01*
X126852718Y-48939491D01*
X126846688Y-48936806D01*
X126753288Y-48916953D01*
X126666344Y-48898472D01*
X126666339Y-48898472D01*
X126659887Y-48897100D01*
X126468913Y-48897100D01*
X126462461Y-48898472D01*
X126462456Y-48898472D01*
X126375513Y-48916953D01*
X126282112Y-48936806D01*
X126276082Y-48939491D01*
X126276081Y-48939491D01*
X126113678Y-49011797D01*
X126113676Y-49011798D01*
X126107648Y-49014482D01*
X126102307Y-49018362D01*
X126102306Y-49018363D01*
X126052243Y-49054736D01*
X125953147Y-49126734D01*
X125948726Y-49131644D01*
X125948725Y-49131645D01*
X125848616Y-49242828D01*
X125825360Y-49268656D01*
X125729873Y-49434044D01*
X125670858Y-49615672D01*
X125670168Y-49622233D01*
X125670168Y-49622235D01*
X125661753Y-49702300D01*
X125634740Y-49767957D01*
X125576518Y-49808586D01*
X125505573Y-49811289D01*
X125444429Y-49775207D01*
X125412499Y-49711796D01*
X125411133Y-49702299D01*
X125410196Y-49693378D01*
X125407223Y-49665092D01*
X125404232Y-49636635D01*
X125404232Y-49636633D01*
X125403542Y-49630072D01*
X125344527Y-49448444D01*
X125335641Y-49433052D01*
X125260969Y-49303718D01*
X125249040Y-49283056D01*
X125223208Y-49254366D01*
X125125675Y-49146045D01*
X125125674Y-49146044D01*
X125121253Y-49141134D01*
X125022157Y-49069136D01*
X124972094Y-49032763D01*
X124972093Y-49032762D01*
X124966752Y-49028882D01*
X124960724Y-49026198D01*
X124960722Y-49026197D01*
X124798319Y-48953891D01*
X124798318Y-48953891D01*
X124792288Y-48951206D01*
X124698888Y-48931353D01*
X124611944Y-48912872D01*
X124611939Y-48912872D01*
X124605487Y-48911500D01*
X124414513Y-48911500D01*
X124408061Y-48912872D01*
X124408056Y-48912872D01*
X124321112Y-48931353D01*
X124227712Y-48951206D01*
X124221682Y-48953891D01*
X124221681Y-48953891D01*
X124059278Y-49026197D01*
X124059276Y-49026198D01*
X124053248Y-49028882D01*
X124047907Y-49032762D01*
X124047906Y-49032763D01*
X123997843Y-49069136D01*
X123898747Y-49141134D01*
X123894326Y-49146044D01*
X123894325Y-49146045D01*
X123796793Y-49254366D01*
X123770960Y-49283056D01*
X123759031Y-49303718D01*
X123684360Y-49433052D01*
X123675473Y-49448444D01*
X123616458Y-49630072D01*
X123615768Y-49636633D01*
X123615768Y-49636635D01*
X123607292Y-49717278D01*
X123596496Y-49820000D01*
X110013294Y-49820000D01*
X110000068Y-49806774D01*
X109973085Y-49785634D01*
X109788026Y-49640649D01*
X109788023Y-49640647D01*
X109785035Y-49638306D01*
X109690307Y-49581041D01*
X109554523Y-49498956D01*
X109554514Y-49498951D01*
X109551263Y-49496986D01*
X109544629Y-49494000D01*
X109305632Y-49386437D01*
X109305630Y-49386436D01*
X109302161Y-49384875D01*
X109041362Y-49303606D01*
X109037617Y-49302920D01*
X109037610Y-49302918D01*
X108874302Y-49272991D01*
X108772669Y-49254366D01*
X108768875Y-49254137D01*
X108768871Y-49254136D01*
X108674775Y-49248445D01*
X108535021Y-49239991D01*
X108521735Y-49238476D01*
X108512539Y-49236929D01*
X108506321Y-49236853D01*
X108504864Y-49236835D01*
X108504859Y-49236835D01*
X108500000Y-49236776D01*
X108488136Y-49238475D01*
X108474804Y-49240384D01*
X108470113Y-49240966D01*
X108348098Y-49253790D01*
X108348096Y-49253790D01*
X108341535Y-49254480D01*
X108189995Y-49303718D01*
X108184273Y-49307021D01*
X108184272Y-49307022D01*
X108063000Y-49377039D01*
X107994005Y-49393777D01*
X107937000Y-49377039D01*
X107815728Y-49307022D01*
X107815727Y-49307021D01*
X107810005Y-49303718D01*
X107701550Y-49268479D01*
X107664744Y-49256520D01*
X107664743Y-49256520D01*
X107658465Y-49254480D01*
X107551469Y-49243234D01*
X107543774Y-49242184D01*
X107521460Y-49238430D01*
X107517331Y-49237735D01*
X107517329Y-49237735D01*
X107512539Y-49236929D01*
X107506184Y-49236851D01*
X107504859Y-49236835D01*
X107504855Y-49236835D01*
X107500000Y-49236776D01*
X107475715Y-49240254D01*
X107472412Y-49240727D01*
X107454549Y-49242000D01*
X105553207Y-49242000D01*
X105532303Y-49240254D01*
X105521728Y-49238475D01*
X105512539Y-49236929D01*
X105506211Y-49236852D01*
X105504859Y-49236835D01*
X105504855Y-49236835D01*
X105500000Y-49236776D01*
X105495191Y-49237465D01*
X105495187Y-49237465D01*
X105486730Y-49238676D01*
X105474809Y-49240384D01*
X105470151Y-49240962D01*
X105402387Y-49248084D01*
X105348098Y-49253790D01*
X105348096Y-49253790D01*
X105341535Y-49254480D01*
X105189995Y-49303718D01*
X105184273Y-49307021D01*
X105184272Y-49307022D01*
X105063000Y-49377039D01*
X104994005Y-49393777D01*
X104937000Y-49377039D01*
X104815728Y-49307022D01*
X104815727Y-49307021D01*
X104810005Y-49303718D01*
X104701550Y-49268479D01*
X104664744Y-49256520D01*
X104664743Y-49256520D01*
X104658465Y-49254480D01*
X104551469Y-49243234D01*
X104543774Y-49242184D01*
X104521460Y-49238430D01*
X104517331Y-49237735D01*
X104517329Y-49237735D01*
X104512539Y-49236929D01*
X104506184Y-49236851D01*
X104504859Y-49236835D01*
X104504855Y-49236835D01*
X104500000Y-49236776D01*
X104475715Y-49240254D01*
X104472412Y-49240727D01*
X104454549Y-49242000D01*
X101803207Y-49242000D01*
X101782303Y-49240254D01*
X101771728Y-49238475D01*
X101762539Y-49236929D01*
X101756211Y-49236852D01*
X101754859Y-49236835D01*
X101754855Y-49236835D01*
X101750000Y-49236776D01*
X101745191Y-49237465D01*
X101745187Y-49237465D01*
X101736730Y-49238676D01*
X101724809Y-49240384D01*
X101720151Y-49240962D01*
X101652387Y-49248084D01*
X101598098Y-49253790D01*
X101598096Y-49253790D01*
X101591535Y-49254480D01*
X101439995Y-49303718D01*
X101302005Y-49383387D01*
X101297098Y-49387805D01*
X101297097Y-49387806D01*
X101238765Y-49440329D01*
X101183594Y-49490005D01*
X101179715Y-49495344D01*
X101095409Y-49611382D01*
X101089937Y-49618913D01*
X101087253Y-49624941D01*
X101087252Y-49624943D01*
X101027813Y-49758444D01*
X101025128Y-49764475D01*
X101008564Y-49842403D01*
X100993388Y-49913802D01*
X100992000Y-49920331D01*
X100992000Y-50079669D01*
X100508000Y-50079669D01*
X100508000Y-48891200D01*
X136217296Y-48891200D01*
X136217986Y-48897765D01*
X136232694Y-49037700D01*
X136237258Y-49081128D01*
X136296273Y-49262756D01*
X136299576Y-49268478D01*
X136299577Y-49268479D01*
X136321830Y-49307022D01*
X136391760Y-49428144D01*
X136396178Y-49433051D01*
X136396179Y-49433052D01*
X136471965Y-49517221D01*
X136519547Y-49570066D01*
X136674048Y-49682318D01*
X136680076Y-49685002D01*
X136680078Y-49685003D01*
X136777876Y-49728545D01*
X136848512Y-49759994D01*
X136941912Y-49779847D01*
X137028856Y-49798328D01*
X137028861Y-49798328D01*
X137035313Y-49799700D01*
X137226287Y-49799700D01*
X137232739Y-49798328D01*
X137232744Y-49798328D01*
X137319688Y-49779847D01*
X137413088Y-49759994D01*
X137483724Y-49728545D01*
X137581522Y-49685003D01*
X137581524Y-49685002D01*
X137587552Y-49682318D01*
X137631700Y-49650243D01*
X137698566Y-49626385D01*
X137767718Y-49642465D01*
X137817198Y-49693378D01*
X137831070Y-49765349D01*
X137820354Y-49867308D01*
X137817496Y-49894500D01*
X137818186Y-49901065D01*
X137836541Y-50075700D01*
X137837458Y-50084428D01*
X137896473Y-50266056D01*
X137991960Y-50431444D01*
X137996378Y-50436351D01*
X137996379Y-50436352D01*
X138066663Y-50514410D01*
X138119747Y-50573366D01*
X138218843Y-50645364D01*
X138258800Y-50674394D01*
X138274248Y-50685618D01*
X138280276Y-50688302D01*
X138280278Y-50688303D01*
X138440743Y-50759746D01*
X138448712Y-50763294D01*
X138542112Y-50783147D01*
X138629056Y-50801628D01*
X138629061Y-50801628D01*
X138635513Y-50803000D01*
X138826487Y-50803000D01*
X138832939Y-50801628D01*
X138832944Y-50801628D01*
X138919888Y-50783147D01*
X139013288Y-50763294D01*
X139021257Y-50759746D01*
X139181722Y-50688303D01*
X139181724Y-50688302D01*
X139187752Y-50685618D01*
X139203201Y-50674394D01*
X139243157Y-50645364D01*
X139342253Y-50573366D01*
X139395337Y-50514410D01*
X139465621Y-50436352D01*
X139465622Y-50436351D01*
X139470040Y-50431444D01*
X139565527Y-50266056D01*
X139624542Y-50084428D01*
X139625460Y-50075700D01*
X139643814Y-49901065D01*
X139644504Y-49894500D01*
X139641646Y-49867308D01*
X139625232Y-49711135D01*
X139625232Y-49711133D01*
X139624542Y-49704572D01*
X139565527Y-49522944D01*
X139560575Y-49514366D01*
X139486576Y-49386198D01*
X139470040Y-49357556D01*
X139419726Y-49301676D01*
X139346675Y-49220545D01*
X139346674Y-49220544D01*
X139342253Y-49215634D01*
X139239713Y-49141134D01*
X139193094Y-49107263D01*
X139193093Y-49107262D01*
X139187752Y-49103382D01*
X139181724Y-49100698D01*
X139181722Y-49100697D01*
X139089153Y-49059483D01*
X139035057Y-49013503D01*
X139014408Y-48945576D01*
X139033760Y-48877268D01*
X139066341Y-48842440D01*
X139108309Y-48811949D01*
X139108311Y-48811947D01*
X139113653Y-48808066D01*
X139209811Y-48701272D01*
X139237021Y-48671052D01*
X139237022Y-48671051D01*
X139241440Y-48666144D01*
X139336927Y-48500756D01*
X139395942Y-48319128D01*
X139399341Y-48286794D01*
X139415214Y-48135765D01*
X139415904Y-48129200D01*
X139404680Y-48022406D01*
X139396632Y-47945835D01*
X139396632Y-47945833D01*
X139395942Y-47939272D01*
X139336927Y-47757644D01*
X139328262Y-47742635D01*
X139265195Y-47633400D01*
X139248457Y-47564404D01*
X139265195Y-47507400D01*
X139333623Y-47388879D01*
X139333624Y-47388878D01*
X139336927Y-47383156D01*
X139395942Y-47201528D01*
X139410829Y-47059891D01*
X139415214Y-47018165D01*
X139415904Y-47011600D01*
X139411991Y-46974366D01*
X139396632Y-46828235D01*
X139396632Y-46828233D01*
X139395942Y-46821672D01*
X139336927Y-46640044D01*
X139241440Y-46474656D01*
X139223455Y-46454681D01*
X139118075Y-46337645D01*
X139118074Y-46337644D01*
X139113653Y-46332734D01*
X138979788Y-46235475D01*
X138964494Y-46224363D01*
X138964493Y-46224362D01*
X138959152Y-46220482D01*
X138953124Y-46217798D01*
X138953122Y-46217797D01*
X138790719Y-46145491D01*
X138790718Y-46145491D01*
X138784688Y-46142806D01*
X138691288Y-46122953D01*
X138604344Y-46104472D01*
X138604339Y-46104472D01*
X138597887Y-46103100D01*
X138406913Y-46103100D01*
X138400461Y-46104472D01*
X138400456Y-46104472D01*
X138313513Y-46122953D01*
X138220112Y-46142806D01*
X138214082Y-46145491D01*
X138214081Y-46145491D01*
X138051678Y-46217797D01*
X138051676Y-46217798D01*
X138045648Y-46220482D01*
X138040307Y-46224362D01*
X138040306Y-46224363D01*
X138025012Y-46235475D01*
X137891147Y-46332734D01*
X137886726Y-46337644D01*
X137886725Y-46337645D01*
X137781346Y-46454681D01*
X137763360Y-46474656D01*
X137667873Y-46640044D01*
X137608858Y-46821672D01*
X137608168Y-46828233D01*
X137608168Y-46828235D01*
X137592809Y-46974366D01*
X137588896Y-47011600D01*
X137589586Y-47018165D01*
X137593972Y-47059891D01*
X137608858Y-47201528D01*
X137667873Y-47383156D01*
X137671176Y-47388878D01*
X137671177Y-47388879D01*
X137739605Y-47507400D01*
X137756343Y-47576396D01*
X137739605Y-47633400D01*
X137676538Y-47742635D01*
X137667873Y-47757644D01*
X137608858Y-47939272D01*
X137608397Y-47943656D01*
X137575053Y-48005412D01*
X137512902Y-48039731D01*
X137442063Y-48035000D01*
X137434291Y-48031845D01*
X137419127Y-48025094D01*
X137419121Y-48025092D01*
X137413088Y-48022406D01*
X137319687Y-48002553D01*
X137232744Y-47984072D01*
X137232739Y-47984072D01*
X137226287Y-47982700D01*
X137035313Y-47982700D01*
X137028861Y-47984072D01*
X137028856Y-47984072D01*
X136941912Y-48002553D01*
X136848512Y-48022406D01*
X136842482Y-48025091D01*
X136842481Y-48025091D01*
X136680078Y-48097397D01*
X136680076Y-48097398D01*
X136674048Y-48100082D01*
X136668707Y-48103962D01*
X136668706Y-48103963D01*
X136633971Y-48129200D01*
X136519547Y-48212334D01*
X136515126Y-48217244D01*
X136515125Y-48217245D01*
X136416752Y-48326500D01*
X136391760Y-48354256D01*
X136296273Y-48519644D01*
X136237258Y-48701272D01*
X136236568Y-48707833D01*
X136236568Y-48707835D01*
X136223284Y-48834225D01*
X136217296Y-48891200D01*
X100508000Y-48891200D01*
X100508000Y-46230000D01*
X118716693Y-46230000D01*
X118735885Y-46449371D01*
X118792880Y-46662076D01*
X118827002Y-46735251D01*
X118883618Y-46856666D01*
X118883621Y-46856671D01*
X118885944Y-46861653D01*
X118889100Y-46866160D01*
X118889101Y-46866162D01*
X118968706Y-46979849D01*
X119012251Y-47042038D01*
X119167962Y-47197749D01*
X119172471Y-47200906D01*
X119172473Y-47200908D01*
X119211267Y-47228072D01*
X119348346Y-47324056D01*
X119547924Y-47417120D01*
X119760629Y-47474115D01*
X119980000Y-47493307D01*
X120199371Y-47474115D01*
X120408792Y-47418000D01*
X125879496Y-47418000D01*
X125880186Y-47424565D01*
X125893217Y-47548544D01*
X125899458Y-47607928D01*
X125958473Y-47789556D01*
X126053960Y-47954944D01*
X126058378Y-47959851D01*
X126058379Y-47959852D01*
X126117123Y-48025094D01*
X126181747Y-48096866D01*
X126336248Y-48209118D01*
X126342276Y-48211802D01*
X126342278Y-48211803D01*
X126504681Y-48284109D01*
X126510712Y-48286794D01*
X126604112Y-48306647D01*
X126691056Y-48325128D01*
X126691061Y-48325128D01*
X126697513Y-48326500D01*
X126888487Y-48326500D01*
X126894939Y-48325128D01*
X126894944Y-48325128D01*
X126981887Y-48306647D01*
X127075288Y-48286794D01*
X127081319Y-48284109D01*
X127243722Y-48211803D01*
X127243724Y-48211802D01*
X127249752Y-48209118D01*
X127404253Y-48096866D01*
X127468877Y-48025094D01*
X127527621Y-47959852D01*
X127527622Y-47959851D01*
X127532040Y-47954944D01*
X127548751Y-47926000D01*
X129816496Y-47926000D01*
X129817186Y-47932565D01*
X129834863Y-48100749D01*
X129836458Y-48115928D01*
X129895473Y-48297556D01*
X129898776Y-48303278D01*
X129898777Y-48303279D01*
X129911392Y-48325128D01*
X129990960Y-48462944D01*
X130118747Y-48604866D01*
X130273248Y-48717118D01*
X130279276Y-48719802D01*
X130279278Y-48719803D01*
X130441681Y-48792109D01*
X130447712Y-48794794D01*
X130541112Y-48814647D01*
X130628056Y-48833128D01*
X130628061Y-48833128D01*
X130634513Y-48834500D01*
X130825487Y-48834500D01*
X130831939Y-48833128D01*
X130831944Y-48833128D01*
X130918887Y-48814647D01*
X131012288Y-48794794D01*
X131018319Y-48792109D01*
X131180722Y-48719803D01*
X131180724Y-48719802D01*
X131186752Y-48717118D01*
X131341253Y-48604866D01*
X131469040Y-48462944D01*
X131548608Y-48325128D01*
X131561223Y-48303279D01*
X131561224Y-48303278D01*
X131564527Y-48297556D01*
X131623542Y-48115928D01*
X131625138Y-48100749D01*
X131642814Y-47932565D01*
X131643504Y-47926000D01*
X131623542Y-47736072D01*
X131564527Y-47554444D01*
X131469040Y-47389056D01*
X131341253Y-47247134D01*
X131186752Y-47134882D01*
X131180724Y-47132198D01*
X131180722Y-47132197D01*
X131018319Y-47059891D01*
X131018318Y-47059891D01*
X131012288Y-47057206D01*
X130918887Y-47037353D01*
X130831944Y-47018872D01*
X130831939Y-47018872D01*
X130825487Y-47017500D01*
X130634513Y-47017500D01*
X130628061Y-47018872D01*
X130628056Y-47018872D01*
X130541113Y-47037353D01*
X130447712Y-47057206D01*
X130441682Y-47059891D01*
X130441681Y-47059891D01*
X130279278Y-47132197D01*
X130279276Y-47132198D01*
X130273248Y-47134882D01*
X130118747Y-47247134D01*
X129990960Y-47389056D01*
X129895473Y-47554444D01*
X129836458Y-47736072D01*
X129816496Y-47926000D01*
X127548751Y-47926000D01*
X127627527Y-47789556D01*
X127686542Y-47607928D01*
X127692784Y-47548544D01*
X127705814Y-47424565D01*
X127706504Y-47418000D01*
X127696630Y-47324056D01*
X127687232Y-47234635D01*
X127687232Y-47234633D01*
X127686542Y-47228072D01*
X127627527Y-47046444D01*
X127603620Y-47005035D01*
X127535341Y-46886774D01*
X127532040Y-46881056D01*
X127518630Y-46866162D01*
X127408675Y-46744045D01*
X127408674Y-46744044D01*
X127404253Y-46739134D01*
X127290882Y-46656765D01*
X127255094Y-46630763D01*
X127255093Y-46630762D01*
X127249752Y-46626882D01*
X127243724Y-46624198D01*
X127243722Y-46624197D01*
X127081319Y-46551891D01*
X127081318Y-46551891D01*
X127075288Y-46549206D01*
X126981887Y-46529353D01*
X126894944Y-46510872D01*
X126894939Y-46510872D01*
X126888487Y-46509500D01*
X126697513Y-46509500D01*
X126691061Y-46510872D01*
X126691056Y-46510872D01*
X126604113Y-46529353D01*
X126510712Y-46549206D01*
X126504682Y-46551891D01*
X126504681Y-46551891D01*
X126342278Y-46624197D01*
X126342276Y-46624198D01*
X126336248Y-46626882D01*
X126330907Y-46630762D01*
X126330906Y-46630763D01*
X126295118Y-46656765D01*
X126181747Y-46739134D01*
X126177326Y-46744044D01*
X126177325Y-46744045D01*
X126067371Y-46866162D01*
X126053960Y-46881056D01*
X126050659Y-46886774D01*
X125982381Y-47005035D01*
X125958473Y-47046444D01*
X125899458Y-47228072D01*
X125898768Y-47234633D01*
X125898768Y-47234635D01*
X125889370Y-47324056D01*
X125879496Y-47418000D01*
X120408792Y-47418000D01*
X120412076Y-47417120D01*
X120611654Y-47324056D01*
X120748733Y-47228072D01*
X120787527Y-47200908D01*
X120787529Y-47200906D01*
X120792038Y-47197749D01*
X120947749Y-47042038D01*
X120991295Y-46979849D01*
X121070899Y-46866162D01*
X121070900Y-46866160D01*
X121074056Y-46861653D01*
X121076379Y-46856671D01*
X121076382Y-46856666D01*
X121132998Y-46735251D01*
X121167120Y-46662076D01*
X121224115Y-46449371D01*
X121243307Y-46230000D01*
X121224115Y-46010629D01*
X121167120Y-45797924D01*
X121105247Y-45665237D01*
X121076382Y-45603334D01*
X121076379Y-45603329D01*
X121074056Y-45598347D01*
X120947749Y-45417962D01*
X120792038Y-45262251D01*
X120611654Y-45135944D01*
X120412076Y-45042880D01*
X120199371Y-44985885D01*
X119980000Y-44966693D01*
X119760629Y-44985885D01*
X119547924Y-45042880D01*
X119480745Y-45074206D01*
X119353334Y-45133618D01*
X119353329Y-45133621D01*
X119348347Y-45135944D01*
X119343840Y-45139100D01*
X119343838Y-45139101D01*
X119172473Y-45259092D01*
X119172470Y-45259094D01*
X119167962Y-45262251D01*
X119012251Y-45417962D01*
X118885944Y-45598347D01*
X118883621Y-45603329D01*
X118883618Y-45603334D01*
X118854753Y-45665237D01*
X118792880Y-45797924D01*
X118735885Y-46010629D01*
X118716693Y-46230000D01*
X100508000Y-46230000D01*
X100508000Y-44878000D01*
X137182496Y-44878000D01*
X137183186Y-44884565D01*
X137194867Y-44995700D01*
X137202458Y-45067928D01*
X137261473Y-45249556D01*
X137264776Y-45255278D01*
X137264777Y-45255279D01*
X137268802Y-45262251D01*
X137356960Y-45414944D01*
X137484747Y-45556866D01*
X137639248Y-45669118D01*
X137645276Y-45671802D01*
X137645278Y-45671803D01*
X137807681Y-45744109D01*
X137813712Y-45746794D01*
X137907113Y-45766647D01*
X137994056Y-45785128D01*
X137994061Y-45785128D01*
X138000513Y-45786500D01*
X138191487Y-45786500D01*
X138197939Y-45785128D01*
X138197944Y-45785128D01*
X138284887Y-45766647D01*
X138378288Y-45746794D01*
X138384319Y-45744109D01*
X138546722Y-45671803D01*
X138546724Y-45671802D01*
X138552752Y-45669118D01*
X138707253Y-45556866D01*
X138835040Y-45414944D01*
X138923198Y-45262251D01*
X138927223Y-45255279D01*
X138927224Y-45255278D01*
X138930527Y-45249556D01*
X138989542Y-45067928D01*
X138997134Y-44995700D01*
X139008814Y-44884565D01*
X139009504Y-44878000D01*
X139004527Y-44830643D01*
X138990232Y-44694635D01*
X138990232Y-44694633D01*
X138989542Y-44688072D01*
X138930527Y-44506444D01*
X138835040Y-44341056D01*
X138707253Y-44199134D01*
X138552752Y-44086882D01*
X138546724Y-44084198D01*
X138546722Y-44084197D01*
X138384319Y-44011891D01*
X138384318Y-44011891D01*
X138378288Y-44009206D01*
X138284888Y-43989353D01*
X138197944Y-43970872D01*
X138197939Y-43970872D01*
X138191487Y-43969500D01*
X138000513Y-43969500D01*
X137994061Y-43970872D01*
X137994056Y-43970872D01*
X137907113Y-43989353D01*
X137813712Y-44009206D01*
X137807682Y-44011891D01*
X137807681Y-44011891D01*
X137645278Y-44084197D01*
X137645276Y-44084198D01*
X137639248Y-44086882D01*
X137484747Y-44199134D01*
X137356960Y-44341056D01*
X137261473Y-44506444D01*
X137202458Y-44688072D01*
X137201768Y-44694633D01*
X137201768Y-44694635D01*
X137187473Y-44830643D01*
X137182496Y-44878000D01*
X100508000Y-44878000D01*
X100508000Y-43862000D01*
X125498496Y-43862000D01*
X125499186Y-43868565D01*
X125513824Y-44007834D01*
X125518458Y-44051928D01*
X125577473Y-44233556D01*
X125672960Y-44398944D01*
X125677378Y-44403851D01*
X125677379Y-44403852D01*
X125796325Y-44535955D01*
X125800747Y-44540866D01*
X125955248Y-44653118D01*
X125961276Y-44655802D01*
X125961278Y-44655803D01*
X126073201Y-44705634D01*
X126129712Y-44730794D01*
X126223113Y-44750647D01*
X126310056Y-44769128D01*
X126310061Y-44769128D01*
X126316513Y-44770500D01*
X126507487Y-44770500D01*
X126513939Y-44769128D01*
X126513944Y-44769128D01*
X126600888Y-44750647D01*
X126694288Y-44730794D01*
X126750799Y-44705634D01*
X126862722Y-44655803D01*
X126862724Y-44655802D01*
X126868752Y-44653118D01*
X127023253Y-44540866D01*
X127027675Y-44535955D01*
X127146621Y-44403852D01*
X127146622Y-44403851D01*
X127151040Y-44398944D01*
X127246527Y-44233556D01*
X127305542Y-44051928D01*
X127310177Y-44007834D01*
X127324814Y-43868565D01*
X127325504Y-43862000D01*
X127305542Y-43672072D01*
X127246527Y-43490444D01*
X127151040Y-43325056D01*
X127050868Y-43213803D01*
X127027675Y-43188045D01*
X127027674Y-43188044D01*
X127023253Y-43183134D01*
X126868752Y-43070882D01*
X126862724Y-43068198D01*
X126862722Y-43068197D01*
X126700319Y-42995891D01*
X126700318Y-42995891D01*
X126694288Y-42993206D01*
X126600888Y-42973353D01*
X126513944Y-42954872D01*
X126513939Y-42954872D01*
X126507487Y-42953500D01*
X126316513Y-42953500D01*
X126310061Y-42954872D01*
X126310056Y-42954872D01*
X126223113Y-42973353D01*
X126129712Y-42993206D01*
X126123682Y-42995891D01*
X126123681Y-42995891D01*
X125961278Y-43068197D01*
X125961276Y-43068198D01*
X125955248Y-43070882D01*
X125800747Y-43183134D01*
X125796326Y-43188044D01*
X125796325Y-43188045D01*
X125773133Y-43213803D01*
X125672960Y-43325056D01*
X125577473Y-43490444D01*
X125518458Y-43672072D01*
X125498496Y-43862000D01*
X100508000Y-43862000D01*
X100508000Y-42236400D01*
X109344096Y-42236400D01*
X109344786Y-42242965D01*
X109353380Y-42324728D01*
X109364058Y-42426328D01*
X109423073Y-42607956D01*
X109518560Y-42773344D01*
X109522978Y-42778251D01*
X109522979Y-42778252D01*
X109558362Y-42817549D01*
X109646347Y-42915266D01*
X109710467Y-42961852D01*
X109767920Y-43003594D01*
X109800848Y-43027518D01*
X109806876Y-43030202D01*
X109806878Y-43030203D01*
X109961099Y-43098866D01*
X109975312Y-43105194D01*
X110068712Y-43125047D01*
X110155656Y-43143528D01*
X110155661Y-43143528D01*
X110162113Y-43144900D01*
X110353087Y-43144900D01*
X110359539Y-43143528D01*
X110359544Y-43143528D01*
X110446488Y-43125047D01*
X110539888Y-43105194D01*
X110554101Y-43098866D01*
X110708322Y-43030203D01*
X110708324Y-43030202D01*
X110714352Y-43027518D01*
X110747281Y-43003594D01*
X110804733Y-42961852D01*
X110868853Y-42915266D01*
X110956838Y-42817549D01*
X110992221Y-42778252D01*
X110992222Y-42778251D01*
X110996640Y-42773344D01*
X111092127Y-42607956D01*
X111151142Y-42426328D01*
X111151807Y-42420000D01*
X114866496Y-42420000D01*
X114867186Y-42426565D01*
X114871166Y-42464428D01*
X114886458Y-42609928D01*
X114945473Y-42791556D01*
X115040960Y-42956944D01*
X115045378Y-42961851D01*
X115045379Y-42961852D01*
X115149413Y-43077393D01*
X115168747Y-43098866D01*
X115323248Y-43211118D01*
X115329276Y-43213802D01*
X115329278Y-43213803D01*
X115491681Y-43286109D01*
X115497712Y-43288794D01*
X115591112Y-43308647D01*
X115678056Y-43327128D01*
X115678061Y-43327128D01*
X115684513Y-43328500D01*
X115875487Y-43328500D01*
X115881939Y-43327128D01*
X115881944Y-43327128D01*
X115968887Y-43308647D01*
X116062288Y-43288794D01*
X116068319Y-43286109D01*
X116230722Y-43213803D01*
X116230724Y-43213802D01*
X116236752Y-43211118D01*
X116391253Y-43098866D01*
X116410587Y-43077393D01*
X116514621Y-42961852D01*
X116514622Y-42961851D01*
X116519040Y-42956944D01*
X116614527Y-42791556D01*
X116673542Y-42609928D01*
X116688835Y-42464428D01*
X116692814Y-42426565D01*
X116693504Y-42420000D01*
X116692814Y-42413435D01*
X116678212Y-42274500D01*
X131022996Y-42274500D01*
X131023686Y-42281065D01*
X131042041Y-42455700D01*
X131042958Y-42464428D01*
X131101973Y-42646056D01*
X131197460Y-42811444D01*
X131201878Y-42816351D01*
X131201879Y-42816352D01*
X131237639Y-42856067D01*
X131325247Y-42953366D01*
X131479748Y-43065618D01*
X131485776Y-43068302D01*
X131485778Y-43068303D01*
X131571719Y-43106566D01*
X131654212Y-43143294D01*
X131747613Y-43163147D01*
X131834556Y-43181628D01*
X131834561Y-43181628D01*
X131841013Y-43183000D01*
X132031987Y-43183000D01*
X132038439Y-43181628D01*
X132038444Y-43181628D01*
X132125387Y-43163147D01*
X132218788Y-43143294D01*
X132301281Y-43106566D01*
X132387222Y-43068303D01*
X132387224Y-43068302D01*
X132393252Y-43065618D01*
X132547753Y-42953366D01*
X132635361Y-42856067D01*
X132671121Y-42816352D01*
X132671122Y-42816351D01*
X132675540Y-42811444D01*
X132771027Y-42646056D01*
X132830042Y-42464428D01*
X132830960Y-42455700D01*
X132849314Y-42281065D01*
X132850004Y-42274500D01*
X132846000Y-42236400D01*
X132835321Y-42134800D01*
X134896496Y-42134800D01*
X134897186Y-42141365D01*
X134913208Y-42293802D01*
X134916458Y-42324728D01*
X134975473Y-42506356D01*
X135070960Y-42671744D01*
X135198747Y-42813666D01*
X135353248Y-42925918D01*
X135359276Y-42928602D01*
X135359278Y-42928603D01*
X135521681Y-43000909D01*
X135527712Y-43003594D01*
X135621113Y-43023447D01*
X135708056Y-43041928D01*
X135708061Y-43041928D01*
X135714513Y-43043300D01*
X135905487Y-43043300D01*
X135911939Y-43041928D01*
X135911944Y-43041928D01*
X135998888Y-43023447D01*
X136092288Y-43003594D01*
X136098319Y-43000909D01*
X136260722Y-42928603D01*
X136260724Y-42928602D01*
X136266752Y-42925918D01*
X136421253Y-42813666D01*
X136549040Y-42671744D01*
X136644527Y-42506356D01*
X136703542Y-42324728D01*
X136706793Y-42293802D01*
X136722814Y-42141365D01*
X136723504Y-42134800D01*
X136714428Y-42048444D01*
X136704232Y-41951435D01*
X136704232Y-41951433D01*
X136703542Y-41944872D01*
X136644527Y-41763244D01*
X136549040Y-41597856D01*
X136421253Y-41455934D01*
X136303376Y-41370291D01*
X136272094Y-41347563D01*
X136272093Y-41347562D01*
X136266752Y-41343682D01*
X136260724Y-41340998D01*
X136260722Y-41340997D01*
X136098319Y-41268691D01*
X136098318Y-41268691D01*
X136092288Y-41266006D01*
X135998888Y-41246153D01*
X135911944Y-41227672D01*
X135911939Y-41227672D01*
X135905487Y-41226300D01*
X135714513Y-41226300D01*
X135708061Y-41227672D01*
X135708056Y-41227672D01*
X135621112Y-41246153D01*
X135527712Y-41266006D01*
X135521682Y-41268691D01*
X135521681Y-41268691D01*
X135359278Y-41340997D01*
X135359276Y-41340998D01*
X135353248Y-41343682D01*
X135347907Y-41347562D01*
X135347906Y-41347563D01*
X135316624Y-41370291D01*
X135198747Y-41455934D01*
X135070960Y-41597856D01*
X134975473Y-41763244D01*
X134916458Y-41944872D01*
X134915768Y-41951433D01*
X134915768Y-41951435D01*
X134905572Y-42048444D01*
X134896496Y-42134800D01*
X132835321Y-42134800D01*
X132830732Y-42091135D01*
X132830732Y-42091133D01*
X132830042Y-42084572D01*
X132771027Y-41902944D01*
X132766075Y-41894366D01*
X132733814Y-41838490D01*
X132675540Y-41737556D01*
X132636816Y-41694548D01*
X132552175Y-41600545D01*
X132552174Y-41600544D01*
X132547753Y-41595634D01*
X132393252Y-41483382D01*
X132387224Y-41480698D01*
X132387222Y-41480697D01*
X132224819Y-41408391D01*
X132224818Y-41408391D01*
X132218788Y-41405706D01*
X132125388Y-41385853D01*
X132038444Y-41367372D01*
X132038439Y-41367372D01*
X132031987Y-41366000D01*
X131841013Y-41366000D01*
X131834561Y-41367372D01*
X131834556Y-41367372D01*
X131747612Y-41385853D01*
X131654212Y-41405706D01*
X131648182Y-41408391D01*
X131648181Y-41408391D01*
X131485778Y-41480697D01*
X131485776Y-41480698D01*
X131479748Y-41483382D01*
X131325247Y-41595634D01*
X131320826Y-41600544D01*
X131320825Y-41600545D01*
X131236185Y-41694548D01*
X131197460Y-41737556D01*
X131139186Y-41838490D01*
X131106926Y-41894366D01*
X131101973Y-41902944D01*
X131042958Y-42084572D01*
X131042268Y-42091133D01*
X131042268Y-42091135D01*
X131027000Y-42236400D01*
X131022996Y-42274500D01*
X116678212Y-42274500D01*
X116674232Y-42236635D01*
X116674232Y-42236633D01*
X116673542Y-42230072D01*
X116614527Y-42048444D01*
X116519040Y-41883056D01*
X116391253Y-41741134D01*
X116236752Y-41628882D01*
X116230724Y-41626198D01*
X116230722Y-41626197D01*
X116068319Y-41553891D01*
X116068318Y-41553891D01*
X116062288Y-41551206D01*
X115968887Y-41531353D01*
X115881944Y-41512872D01*
X115881939Y-41512872D01*
X115875487Y-41511500D01*
X115684513Y-41511500D01*
X115678061Y-41512872D01*
X115678056Y-41512872D01*
X115591113Y-41531353D01*
X115497712Y-41551206D01*
X115491682Y-41553891D01*
X115491681Y-41553891D01*
X115329278Y-41626197D01*
X115329276Y-41626198D01*
X115323248Y-41628882D01*
X115168747Y-41741134D01*
X115040960Y-41883056D01*
X114945473Y-42048444D01*
X114886458Y-42230072D01*
X114885768Y-42236633D01*
X114885768Y-42236635D01*
X114867186Y-42413435D01*
X114866496Y-42420000D01*
X111151807Y-42420000D01*
X111161821Y-42324728D01*
X111170414Y-42242965D01*
X111171104Y-42236400D01*
X111163666Y-42165634D01*
X111151832Y-42053035D01*
X111151832Y-42053033D01*
X111151142Y-42046472D01*
X111092127Y-41864844D01*
X110996640Y-41699456D01*
X110936590Y-41632763D01*
X110873275Y-41562445D01*
X110873274Y-41562444D01*
X110868853Y-41557534D01*
X110714352Y-41445282D01*
X110708324Y-41442598D01*
X110708322Y-41442597D01*
X110545919Y-41370291D01*
X110545918Y-41370291D01*
X110539888Y-41367606D01*
X110445594Y-41347563D01*
X110359544Y-41329272D01*
X110359539Y-41329272D01*
X110353087Y-41327900D01*
X110162113Y-41327900D01*
X110155661Y-41329272D01*
X110155656Y-41329272D01*
X110069606Y-41347563D01*
X109975312Y-41367606D01*
X109969282Y-41370291D01*
X109969281Y-41370291D01*
X109806878Y-41442597D01*
X109806876Y-41442598D01*
X109800848Y-41445282D01*
X109646347Y-41557534D01*
X109641926Y-41562444D01*
X109641925Y-41562445D01*
X109578611Y-41632763D01*
X109518560Y-41699456D01*
X109423073Y-41864844D01*
X109364058Y-42046472D01*
X109363368Y-42053033D01*
X109363368Y-42053035D01*
X109351534Y-42165634D01*
X109344096Y-42236400D01*
X100508000Y-42236400D01*
X100508000Y-38528000D01*
X131594496Y-38528000D01*
X131614458Y-38717928D01*
X131673473Y-38899556D01*
X131768960Y-39064944D01*
X131773378Y-39069851D01*
X131773379Y-39069852D01*
X131892325Y-39201955D01*
X131896747Y-39206866D01*
X132051248Y-39319118D01*
X132057276Y-39321802D01*
X132057278Y-39321803D01*
X132219681Y-39394109D01*
X132225712Y-39396794D01*
X132319112Y-39416647D01*
X132406056Y-39435128D01*
X132406061Y-39435128D01*
X132412513Y-39436500D01*
X132603487Y-39436500D01*
X132609939Y-39435128D01*
X132609944Y-39435128D01*
X132696888Y-39416647D01*
X132790288Y-39396794D01*
X132796319Y-39394109D01*
X132958722Y-39321803D01*
X132958724Y-39321802D01*
X132964752Y-39319118D01*
X133119253Y-39206866D01*
X133123675Y-39201955D01*
X133242621Y-39069852D01*
X133242622Y-39069851D01*
X133247040Y-39064944D01*
X133342527Y-38899556D01*
X133401542Y-38717928D01*
X133421504Y-38528000D01*
X137499996Y-38528000D01*
X137519958Y-38717928D01*
X137578973Y-38899556D01*
X137674460Y-39064944D01*
X137678878Y-39069851D01*
X137678879Y-39069852D01*
X137797825Y-39201955D01*
X137802247Y-39206866D01*
X137956748Y-39319118D01*
X137962776Y-39321802D01*
X137962778Y-39321803D01*
X138125181Y-39394109D01*
X138131212Y-39396794D01*
X138224612Y-39416647D01*
X138311556Y-39435128D01*
X138311561Y-39435128D01*
X138318013Y-39436500D01*
X138508987Y-39436500D01*
X138515439Y-39435128D01*
X138515444Y-39435128D01*
X138602388Y-39416647D01*
X138695788Y-39396794D01*
X138701819Y-39394109D01*
X138864222Y-39321803D01*
X138864224Y-39321802D01*
X138870252Y-39319118D01*
X139024753Y-39206866D01*
X139029175Y-39201955D01*
X139148121Y-39069852D01*
X139148122Y-39069851D01*
X139152540Y-39064944D01*
X139248027Y-38899556D01*
X139307042Y-38717928D01*
X139310292Y-38687010D01*
X141682900Y-38687010D01*
X141702862Y-38876938D01*
X141761877Y-39058566D01*
X141765180Y-39064288D01*
X141765181Y-39064289D01*
X141765559Y-39064944D01*
X141857364Y-39223954D01*
X141861782Y-39228861D01*
X141861783Y-39228862D01*
X141947312Y-39323852D01*
X141985151Y-39365876D01*
X142080468Y-39435128D01*
X142109134Y-39455955D01*
X142139652Y-39478128D01*
X142145680Y-39480812D01*
X142145682Y-39480813D01*
X142308085Y-39553119D01*
X142314116Y-39555804D01*
X142395572Y-39573118D01*
X142494460Y-39594138D01*
X142494465Y-39594138D01*
X142500917Y-39595510D01*
X142691891Y-39595510D01*
X142698343Y-39594138D01*
X142698348Y-39594138D01*
X142797236Y-39573118D01*
X142878692Y-39555804D01*
X142884723Y-39553119D01*
X143047126Y-39480813D01*
X143047128Y-39480812D01*
X143053156Y-39478128D01*
X143083675Y-39455955D01*
X143112340Y-39435128D01*
X143207657Y-39365876D01*
X143245496Y-39323852D01*
X143331025Y-39228862D01*
X143331026Y-39228861D01*
X143335444Y-39223954D01*
X143427249Y-39064944D01*
X143427627Y-39064289D01*
X143427628Y-39064288D01*
X143430931Y-39058566D01*
X143489946Y-38876938D01*
X143509908Y-38687010D01*
X143489946Y-38497082D01*
X143430931Y-38315454D01*
X143335444Y-38150066D01*
X143207657Y-38008144D01*
X143053156Y-37895892D01*
X143047128Y-37893208D01*
X143047126Y-37893207D01*
X142884723Y-37820901D01*
X142884722Y-37820901D01*
X142878692Y-37818216D01*
X142785291Y-37798363D01*
X142698348Y-37779882D01*
X142698343Y-37779882D01*
X142691891Y-37778510D01*
X142500917Y-37778510D01*
X142494465Y-37779882D01*
X142494460Y-37779882D01*
X142407517Y-37798363D01*
X142314116Y-37818216D01*
X142308086Y-37820901D01*
X142308085Y-37820901D01*
X142145682Y-37893207D01*
X142145680Y-37893208D01*
X142139652Y-37895892D01*
X141985151Y-38008144D01*
X141857364Y-38150066D01*
X141761877Y-38315454D01*
X141702862Y-38497082D01*
X141682900Y-38687010D01*
X139310292Y-38687010D01*
X139327004Y-38528000D01*
X139307042Y-38338072D01*
X139248027Y-38156444D01*
X139152540Y-37991056D01*
X139107244Y-37940749D01*
X139029175Y-37854045D01*
X139029174Y-37854044D01*
X139024753Y-37849134D01*
X138870252Y-37736882D01*
X138864224Y-37734198D01*
X138864222Y-37734197D01*
X138701819Y-37661891D01*
X138701818Y-37661891D01*
X138695788Y-37659206D01*
X138583221Y-37635279D01*
X138515444Y-37620872D01*
X138515439Y-37620872D01*
X138508987Y-37619500D01*
X138318013Y-37619500D01*
X138311561Y-37620872D01*
X138311556Y-37620872D01*
X138243779Y-37635279D01*
X138131212Y-37659206D01*
X138125182Y-37661891D01*
X138125181Y-37661891D01*
X137962778Y-37734197D01*
X137962776Y-37734198D01*
X137956748Y-37736882D01*
X137802247Y-37849134D01*
X137797826Y-37854044D01*
X137797825Y-37854045D01*
X137719757Y-37940749D01*
X137674460Y-37991056D01*
X137578973Y-38156444D01*
X137519958Y-38338072D01*
X137499996Y-38528000D01*
X133421504Y-38528000D01*
X133401542Y-38338072D01*
X133342527Y-38156444D01*
X133247040Y-37991056D01*
X133201744Y-37940749D01*
X133123675Y-37854045D01*
X133123674Y-37854044D01*
X133119253Y-37849134D01*
X132964752Y-37736882D01*
X132958724Y-37734198D01*
X132958722Y-37734197D01*
X132796319Y-37661891D01*
X132796318Y-37661891D01*
X132790288Y-37659206D01*
X132677721Y-37635279D01*
X132609944Y-37620872D01*
X132609939Y-37620872D01*
X132603487Y-37619500D01*
X132412513Y-37619500D01*
X132406061Y-37620872D01*
X132406056Y-37620872D01*
X132338279Y-37635279D01*
X132225712Y-37659206D01*
X132219682Y-37661891D01*
X132219681Y-37661891D01*
X132057278Y-37734197D01*
X132057276Y-37734198D01*
X132051248Y-37736882D01*
X131896747Y-37849134D01*
X131892326Y-37854044D01*
X131892325Y-37854045D01*
X131814257Y-37940749D01*
X131768960Y-37991056D01*
X131673473Y-38156444D01*
X131614458Y-38338072D01*
X131594496Y-38528000D01*
X100508000Y-38528000D01*
X100508000Y-37258000D01*
X114830496Y-37258000D01*
X114831186Y-37264565D01*
X114842867Y-37375700D01*
X114850458Y-37447928D01*
X114909473Y-37629556D01*
X114912776Y-37635278D01*
X114912777Y-37635279D01*
X114925414Y-37657166D01*
X115004960Y-37794944D01*
X115009378Y-37799851D01*
X115009379Y-37799852D01*
X115053753Y-37849134D01*
X115132747Y-37936866D01*
X115287248Y-38049118D01*
X115293276Y-38051802D01*
X115293278Y-38051803D01*
X115455681Y-38124109D01*
X115461712Y-38126794D01*
X115555112Y-38146647D01*
X115642056Y-38165128D01*
X115642061Y-38165128D01*
X115648513Y-38166500D01*
X115839487Y-38166500D01*
X115845939Y-38165128D01*
X115845944Y-38165128D01*
X115932887Y-38146647D01*
X116026288Y-38126794D01*
X116032319Y-38124109D01*
X116194722Y-38051803D01*
X116194724Y-38051802D01*
X116200752Y-38049118D01*
X116355253Y-37936866D01*
X116434247Y-37849134D01*
X116478621Y-37799852D01*
X116478622Y-37799851D01*
X116483040Y-37794944D01*
X116562586Y-37657166D01*
X116575223Y-37635279D01*
X116575224Y-37635278D01*
X116578527Y-37629556D01*
X116637542Y-37447928D01*
X116645134Y-37375700D01*
X116656814Y-37264565D01*
X116657504Y-37258000D01*
X116652527Y-37210643D01*
X116638232Y-37074635D01*
X116638232Y-37074633D01*
X116637542Y-37068072D01*
X116578527Y-36886444D01*
X116483040Y-36721056D01*
X116437744Y-36670749D01*
X116359675Y-36584045D01*
X116359674Y-36584044D01*
X116355253Y-36579134D01*
X116200752Y-36466882D01*
X116194724Y-36464198D01*
X116194722Y-36464197D01*
X116032319Y-36391891D01*
X116032318Y-36391891D01*
X116026288Y-36389206D01*
X115913721Y-36365279D01*
X115845944Y-36350872D01*
X115845939Y-36350872D01*
X115839487Y-36349500D01*
X115648513Y-36349500D01*
X115642061Y-36350872D01*
X115642056Y-36350872D01*
X115574279Y-36365279D01*
X115461712Y-36389206D01*
X115455682Y-36391891D01*
X115455681Y-36391891D01*
X115293278Y-36464197D01*
X115293276Y-36464198D01*
X115287248Y-36466882D01*
X115132747Y-36579134D01*
X115128326Y-36584044D01*
X115128325Y-36584045D01*
X115050257Y-36670749D01*
X115004960Y-36721056D01*
X114909473Y-36886444D01*
X114850458Y-37068072D01*
X114849768Y-37074633D01*
X114849768Y-37074635D01*
X114835473Y-37210643D01*
X114830496Y-37258000D01*
X100508000Y-37258000D01*
X100508000Y-36223064D01*
X105637707Y-36223064D01*
X105655582Y-36341257D01*
X105663240Y-36391891D01*
X105666825Y-36415599D01*
X105669028Y-36421585D01*
X105669029Y-36421591D01*
X105731860Y-36592360D01*
X105731862Y-36592365D01*
X105734063Y-36598346D01*
X105737425Y-36603768D01*
X105817585Y-36733052D01*
X105836674Y-36763840D01*
X105841055Y-36768473D01*
X105841056Y-36768474D01*
X105966081Y-36900685D01*
X105970466Y-36905322D01*
X106129975Y-37017011D01*
X106135838Y-37019548D01*
X106302825Y-37091810D01*
X106302829Y-37091811D01*
X106308684Y-37094345D01*
X106314931Y-37095650D01*
X106314934Y-37095651D01*
X106494557Y-37133176D01*
X106494562Y-37133177D01*
X106499293Y-37134165D01*
X106505685Y-37134500D01*
X106648663Y-37134500D01*
X106717951Y-37127462D01*
X106787378Y-37120410D01*
X106787379Y-37120410D01*
X106793727Y-37119765D01*
X106874843Y-37094345D01*
X106973451Y-37063444D01*
X106973456Y-37063442D01*
X106979541Y-37061535D01*
X107066475Y-37013346D01*
X107144271Y-36970223D01*
X107144274Y-36970221D01*
X107149850Y-36967130D01*
X107154691Y-36962981D01*
X107154695Y-36962978D01*
X107292855Y-36844560D01*
X107297698Y-36840409D01*
X107339127Y-36787000D01*
X107394085Y-36716148D01*
X107417046Y-36686547D01*
X107426731Y-36666866D01*
X107500200Y-36517556D01*
X107503018Y-36511829D01*
X107515425Y-36464197D01*
X107550492Y-36329575D01*
X107550492Y-36329572D01*
X107552102Y-36323393D01*
X107559030Y-36191200D01*
X111172896Y-36191200D01*
X111173586Y-36197765D01*
X111188194Y-36336749D01*
X111192858Y-36381128D01*
X111251873Y-36562756D01*
X111255176Y-36568478D01*
X111255177Y-36568479D01*
X111275551Y-36603768D01*
X111347360Y-36728144D01*
X111351778Y-36733051D01*
X111351779Y-36733052D01*
X111427837Y-36817523D01*
X111475147Y-36870066D01*
X111523673Y-36905322D01*
X111608744Y-36967130D01*
X111629648Y-36982318D01*
X111635676Y-36985002D01*
X111635678Y-36985003D01*
X111798081Y-37057309D01*
X111804112Y-37059994D01*
X111897513Y-37079847D01*
X111984456Y-37098328D01*
X111984461Y-37098328D01*
X111990913Y-37099700D01*
X112181887Y-37099700D01*
X112188339Y-37098328D01*
X112188344Y-37098328D01*
X112275288Y-37079847D01*
X112368688Y-37059994D01*
X112374719Y-37057309D01*
X112537122Y-36985003D01*
X112537124Y-36985002D01*
X112543152Y-36982318D01*
X112564057Y-36967130D01*
X112649127Y-36905322D01*
X112697653Y-36870066D01*
X112744963Y-36817523D01*
X112821021Y-36733052D01*
X112821022Y-36733051D01*
X112825440Y-36728144D01*
X112897249Y-36603768D01*
X112917623Y-36568479D01*
X112917624Y-36568478D01*
X112920927Y-36562756D01*
X112979942Y-36381128D01*
X112984607Y-36336749D01*
X112999214Y-36197765D01*
X112999904Y-36191200D01*
X112997819Y-36171365D01*
X112980632Y-36007835D01*
X112980632Y-36007833D01*
X112979942Y-36001272D01*
X112975630Y-35988000D01*
X116608496Y-35988000D01*
X116609186Y-35994565D01*
X116625909Y-36153672D01*
X116628458Y-36177928D01*
X116687473Y-36359556D01*
X116690776Y-36365278D01*
X116690777Y-36365279D01*
X116723289Y-36421591D01*
X116782960Y-36524944D01*
X116787378Y-36529851D01*
X116787379Y-36529852D01*
X116853933Y-36603768D01*
X116910747Y-36666866D01*
X117065248Y-36779118D01*
X117071276Y-36781802D01*
X117071278Y-36781803D01*
X117233681Y-36854109D01*
X117239712Y-36856794D01*
X117333113Y-36876647D01*
X117420056Y-36895128D01*
X117420061Y-36895128D01*
X117426513Y-36896500D01*
X117617487Y-36896500D01*
X117623939Y-36895128D01*
X117623944Y-36895128D01*
X117710888Y-36876647D01*
X117804288Y-36856794D01*
X117810319Y-36854109D01*
X117972722Y-36781803D01*
X117972724Y-36781802D01*
X117978752Y-36779118D01*
X118133253Y-36666866D01*
X118190067Y-36603768D01*
X118256621Y-36529852D01*
X118256622Y-36529851D01*
X118261040Y-36524944D01*
X118320711Y-36421591D01*
X118353223Y-36365279D01*
X118353224Y-36365278D01*
X118356527Y-36359556D01*
X118361711Y-36343600D01*
X125650896Y-36343600D01*
X125651586Y-36350165D01*
X125657846Y-36409721D01*
X125670858Y-36533528D01*
X125729873Y-36715156D01*
X125733176Y-36720878D01*
X125733177Y-36720879D01*
X125740205Y-36733052D01*
X125825360Y-36880544D01*
X125829778Y-36885451D01*
X125829779Y-36885452D01*
X125917797Y-36983206D01*
X125953147Y-37022466D01*
X126001104Y-37057309D01*
X126084440Y-37117856D01*
X126107648Y-37134718D01*
X126113676Y-37137402D01*
X126113678Y-37137403D01*
X126161189Y-37158556D01*
X126282112Y-37212394D01*
X126375513Y-37232247D01*
X126462456Y-37250728D01*
X126462461Y-37250728D01*
X126468913Y-37252100D01*
X126659887Y-37252100D01*
X126666339Y-37250728D01*
X126666344Y-37250728D01*
X126753287Y-37232247D01*
X126846688Y-37212394D01*
X126967611Y-37158556D01*
X127015122Y-37137403D01*
X127015124Y-37137402D01*
X127021152Y-37134718D01*
X127044361Y-37117856D01*
X127127696Y-37057309D01*
X127175653Y-37022466D01*
X127211003Y-36983206D01*
X127299021Y-36885452D01*
X127299022Y-36885451D01*
X127303440Y-36880544D01*
X127357448Y-36787000D01*
X139824096Y-36787000D01*
X139824786Y-36793565D01*
X139835461Y-36895128D01*
X139844058Y-36976928D01*
X139903073Y-37158556D01*
X139906376Y-37164278D01*
X139906377Y-37164279D01*
X139934156Y-37212394D01*
X139998560Y-37323944D01*
X140002978Y-37328851D01*
X140002979Y-37328852D01*
X140115848Y-37454206D01*
X140126347Y-37465866D01*
X140280848Y-37578118D01*
X140286876Y-37580802D01*
X140286878Y-37580803D01*
X140396380Y-37629556D01*
X140455312Y-37655794D01*
X140548713Y-37675647D01*
X140635656Y-37694128D01*
X140635661Y-37694128D01*
X140642113Y-37695500D01*
X140833087Y-37695500D01*
X140839539Y-37694128D01*
X140839544Y-37694128D01*
X140926487Y-37675647D01*
X141019888Y-37655794D01*
X141078820Y-37629556D01*
X141188322Y-37580803D01*
X141188324Y-37580802D01*
X141194352Y-37578118D01*
X141348853Y-37465866D01*
X141359352Y-37454206D01*
X141472221Y-37328852D01*
X141472222Y-37328851D01*
X141476640Y-37323944D01*
X141541044Y-37212394D01*
X141568823Y-37164279D01*
X141568824Y-37164278D01*
X141572127Y-37158556D01*
X141631142Y-36976928D01*
X141639740Y-36895128D01*
X141650414Y-36793565D01*
X141651104Y-36787000D01*
X141644173Y-36721056D01*
X141631832Y-36603635D01*
X141631832Y-36603633D01*
X141631142Y-36597072D01*
X141572127Y-36415444D01*
X141556979Y-36389206D01*
X141479941Y-36255774D01*
X141476640Y-36250056D01*
X141417349Y-36184206D01*
X141353275Y-36113045D01*
X141353274Y-36113044D01*
X141348853Y-36108134D01*
X141194352Y-35995882D01*
X141188324Y-35993198D01*
X141188322Y-35993197D01*
X141025919Y-35920891D01*
X141025918Y-35920891D01*
X141019888Y-35918206D01*
X140926488Y-35898353D01*
X140839544Y-35879872D01*
X140839539Y-35879872D01*
X140833087Y-35878500D01*
X140642113Y-35878500D01*
X140635661Y-35879872D01*
X140635656Y-35879872D01*
X140548712Y-35898353D01*
X140455312Y-35918206D01*
X140449282Y-35920891D01*
X140449281Y-35920891D01*
X140286878Y-35993197D01*
X140286876Y-35993198D01*
X140280848Y-35995882D01*
X140126347Y-36108134D01*
X140121926Y-36113044D01*
X140121925Y-36113045D01*
X140057852Y-36184206D01*
X139998560Y-36250056D01*
X139995259Y-36255774D01*
X139918222Y-36389206D01*
X139903073Y-36415444D01*
X139844058Y-36597072D01*
X139843368Y-36603633D01*
X139843368Y-36603635D01*
X139831027Y-36721056D01*
X139824096Y-36787000D01*
X127357448Y-36787000D01*
X127388595Y-36733052D01*
X127395623Y-36720879D01*
X127395624Y-36720878D01*
X127398927Y-36715156D01*
X127457942Y-36533528D01*
X127470955Y-36409721D01*
X127477214Y-36350165D01*
X127477904Y-36343600D01*
X127468072Y-36250056D01*
X127458632Y-36160235D01*
X127458632Y-36160233D01*
X127457942Y-36153672D01*
X127398927Y-35972044D01*
X127378349Y-35936401D01*
X127314567Y-35825929D01*
X127303440Y-35806656D01*
X127175653Y-35664734D01*
X127021152Y-35552482D01*
X127015124Y-35549798D01*
X127015122Y-35549797D01*
X126852719Y-35477491D01*
X126852718Y-35477491D01*
X126846688Y-35474806D01*
X126738986Y-35451913D01*
X126666344Y-35436472D01*
X126666339Y-35436472D01*
X126659887Y-35435100D01*
X126468913Y-35435100D01*
X126462461Y-35436472D01*
X126462456Y-35436472D01*
X126389814Y-35451913D01*
X126282112Y-35474806D01*
X126276082Y-35477491D01*
X126276081Y-35477491D01*
X126113678Y-35549797D01*
X126113676Y-35549798D01*
X126107648Y-35552482D01*
X125953147Y-35664734D01*
X125825360Y-35806656D01*
X125814233Y-35825929D01*
X125750452Y-35936401D01*
X125729873Y-35972044D01*
X125670858Y-36153672D01*
X125670168Y-36160233D01*
X125670168Y-36160235D01*
X125660728Y-36250056D01*
X125650896Y-36343600D01*
X118361711Y-36343600D01*
X118415542Y-36177928D01*
X118418092Y-36153672D01*
X118434814Y-35994565D01*
X118435504Y-35988000D01*
X118428451Y-35920891D01*
X118416232Y-35804635D01*
X118416232Y-35804633D01*
X118415542Y-35798072D01*
X118356527Y-35616444D01*
X118261040Y-35451056D01*
X118205185Y-35389022D01*
X118137675Y-35314045D01*
X118137674Y-35314044D01*
X118133253Y-35309134D01*
X118018520Y-35225775D01*
X117984094Y-35200763D01*
X117984093Y-35200762D01*
X117978752Y-35196882D01*
X117972724Y-35194198D01*
X117972722Y-35194197D01*
X117810319Y-35121891D01*
X117810318Y-35121891D01*
X117804288Y-35119206D01*
X117710888Y-35099353D01*
X117623944Y-35080872D01*
X117623939Y-35080872D01*
X117617487Y-35079500D01*
X117426513Y-35079500D01*
X117420061Y-35080872D01*
X117420056Y-35080872D01*
X117333112Y-35099353D01*
X117239712Y-35119206D01*
X117233682Y-35121891D01*
X117233681Y-35121891D01*
X117071278Y-35194197D01*
X117071276Y-35194198D01*
X117065248Y-35196882D01*
X117059907Y-35200762D01*
X117059906Y-35200763D01*
X117025480Y-35225775D01*
X116910747Y-35309134D01*
X116906326Y-35314044D01*
X116906325Y-35314045D01*
X116838816Y-35389022D01*
X116782960Y-35451056D01*
X116687473Y-35616444D01*
X116628458Y-35798072D01*
X116627768Y-35804633D01*
X116627768Y-35804635D01*
X116615549Y-35920891D01*
X116608496Y-35988000D01*
X112975630Y-35988000D01*
X112920927Y-35819644D01*
X112913429Y-35806656D01*
X112837142Y-35674525D01*
X112825440Y-35654256D01*
X112761755Y-35583526D01*
X112702075Y-35517245D01*
X112702074Y-35517244D01*
X112697653Y-35512334D01*
X112543152Y-35400082D01*
X112537124Y-35397398D01*
X112537122Y-35397397D01*
X112374719Y-35325091D01*
X112374718Y-35325091D01*
X112368688Y-35322406D01*
X112275288Y-35302553D01*
X112188344Y-35284072D01*
X112188339Y-35284072D01*
X112181887Y-35282700D01*
X111990913Y-35282700D01*
X111984461Y-35284072D01*
X111984456Y-35284072D01*
X111897513Y-35302553D01*
X111804112Y-35322406D01*
X111798082Y-35325091D01*
X111798081Y-35325091D01*
X111635678Y-35397397D01*
X111635676Y-35397398D01*
X111629648Y-35400082D01*
X111475147Y-35512334D01*
X111470726Y-35517244D01*
X111470725Y-35517245D01*
X111411046Y-35583526D01*
X111347360Y-35654256D01*
X111335658Y-35674525D01*
X111259372Y-35806656D01*
X111251873Y-35819644D01*
X111192858Y-36001272D01*
X111192168Y-36007833D01*
X111192168Y-36007835D01*
X111174981Y-36171365D01*
X111172896Y-36191200D01*
X107559030Y-36191200D01*
X107559374Y-36184635D01*
X107561959Y-36135317D01*
X107561959Y-36135313D01*
X107562293Y-36128936D01*
X107533175Y-35936401D01*
X107530972Y-35930415D01*
X107530971Y-35930409D01*
X107468140Y-35759640D01*
X107468138Y-35759635D01*
X107465937Y-35753654D01*
X107410804Y-35664734D01*
X107366688Y-35593582D01*
X107366687Y-35593581D01*
X107363326Y-35588160D01*
X107296266Y-35517245D01*
X107233919Y-35451315D01*
X107229534Y-35446678D01*
X107214959Y-35436472D01*
X107075259Y-35338654D01*
X107070025Y-35334989D01*
X107001304Y-35305251D01*
X106897175Y-35260190D01*
X106897171Y-35260189D01*
X106891316Y-35257655D01*
X106885069Y-35256350D01*
X106885066Y-35256349D01*
X106705443Y-35218824D01*
X106705438Y-35218823D01*
X106700707Y-35217835D01*
X106694315Y-35217500D01*
X106551337Y-35217500D01*
X106482049Y-35224538D01*
X106412622Y-35231590D01*
X106412621Y-35231590D01*
X106406273Y-35232235D01*
X106349939Y-35249889D01*
X106226549Y-35288556D01*
X106226544Y-35288558D01*
X106220459Y-35290465D01*
X106165312Y-35321034D01*
X106055729Y-35381777D01*
X106055726Y-35381779D01*
X106050150Y-35384870D01*
X106045309Y-35389019D01*
X106045305Y-35389022D01*
X105945220Y-35474806D01*
X105902302Y-35511591D01*
X105898391Y-35516633D01*
X105898390Y-35516634D01*
X105867573Y-35556363D01*
X105782954Y-35665453D01*
X105780138Y-35671176D01*
X105780136Y-35671179D01*
X105703990Y-35825929D01*
X105696982Y-35840171D01*
X105695373Y-35846349D01*
X105695372Y-35846351D01*
X105653309Y-36007835D01*
X105647898Y-36028607D01*
X105647564Y-36034986D01*
X105641344Y-36153672D01*
X105637707Y-36223064D01*
X100508000Y-36223064D01*
X100508000Y-31823064D01*
X105637707Y-31823064D01*
X105650207Y-31905716D01*
X105664958Y-32003251D01*
X105666825Y-32015599D01*
X105669028Y-32021585D01*
X105669029Y-32021591D01*
X105731860Y-32192360D01*
X105731862Y-32192365D01*
X105734063Y-32198346D01*
X105836674Y-32363840D01*
X105970466Y-32505322D01*
X106129975Y-32617011D01*
X106135838Y-32619548D01*
X106302825Y-32691810D01*
X106302829Y-32691811D01*
X106308684Y-32694345D01*
X106314931Y-32695650D01*
X106314934Y-32695651D01*
X106494557Y-32733176D01*
X106494562Y-32733177D01*
X106499293Y-32734165D01*
X106505685Y-32734500D01*
X106648663Y-32734500D01*
X106717951Y-32727462D01*
X106787378Y-32720410D01*
X106787379Y-32720410D01*
X106793727Y-32719765D01*
X106874843Y-32694345D01*
X106901473Y-32686000D01*
X131492896Y-32686000D01*
X131493586Y-32692565D01*
X131501226Y-32765251D01*
X131512858Y-32875928D01*
X131571873Y-33057556D01*
X131667360Y-33222944D01*
X131671778Y-33227851D01*
X131671779Y-33227852D01*
X131698989Y-33258072D01*
X131795147Y-33364866D01*
X131806896Y-33373402D01*
X131918607Y-33454565D01*
X131949648Y-33477118D01*
X131955676Y-33479802D01*
X131955678Y-33479803D01*
X132118081Y-33552109D01*
X132124112Y-33554794D01*
X132217513Y-33574647D01*
X132304456Y-33593128D01*
X132304461Y-33593128D01*
X132310913Y-33594500D01*
X132501887Y-33594500D01*
X132508339Y-33593128D01*
X132508344Y-33593128D01*
X132595288Y-33574647D01*
X132688688Y-33554794D01*
X132694719Y-33552109D01*
X132857122Y-33479803D01*
X132857124Y-33479802D01*
X132863152Y-33477118D01*
X132894194Y-33454565D01*
X132903230Y-33448000D01*
X140738496Y-33448000D01*
X140739186Y-33454565D01*
X140753894Y-33594500D01*
X140758458Y-33637928D01*
X140817473Y-33819556D01*
X140912960Y-33984944D01*
X141040747Y-34126866D01*
X141195248Y-34239118D01*
X141201276Y-34241802D01*
X141201278Y-34241803D01*
X141363681Y-34314109D01*
X141369712Y-34316794D01*
X141463113Y-34336647D01*
X141550056Y-34355128D01*
X141550061Y-34355128D01*
X141556513Y-34356500D01*
X141747487Y-34356500D01*
X141753939Y-34355128D01*
X141753944Y-34355128D01*
X141840887Y-34336647D01*
X141934288Y-34316794D01*
X141940319Y-34314109D01*
X142102722Y-34241803D01*
X142102724Y-34241802D01*
X142108752Y-34239118D01*
X142263253Y-34126866D01*
X142391040Y-33984944D01*
X142486527Y-33819556D01*
X142545542Y-33637928D01*
X142550107Y-33594500D01*
X142564814Y-33454565D01*
X142565504Y-33448000D01*
X142557664Y-33373402D01*
X142546232Y-33264635D01*
X142546232Y-33264633D01*
X142545542Y-33258072D01*
X142486527Y-33076444D01*
X142391040Y-32911056D01*
X142365064Y-32882206D01*
X142267675Y-32774045D01*
X142267674Y-32774044D01*
X142263253Y-32769134D01*
X142148520Y-32685775D01*
X142114094Y-32660763D01*
X142114093Y-32660762D01*
X142108752Y-32656882D01*
X142102724Y-32654198D01*
X142102722Y-32654197D01*
X141940319Y-32581891D01*
X141940318Y-32581891D01*
X141934288Y-32579206D01*
X141840887Y-32559353D01*
X141753944Y-32540872D01*
X141753939Y-32540872D01*
X141747487Y-32539500D01*
X141556513Y-32539500D01*
X141550061Y-32540872D01*
X141550056Y-32540872D01*
X141463113Y-32559353D01*
X141369712Y-32579206D01*
X141363682Y-32581891D01*
X141363681Y-32581891D01*
X141201278Y-32654197D01*
X141201276Y-32654198D01*
X141195248Y-32656882D01*
X141189907Y-32660762D01*
X141189906Y-32660763D01*
X141155480Y-32685775D01*
X141040747Y-32769134D01*
X141036326Y-32774044D01*
X141036325Y-32774045D01*
X140938937Y-32882206D01*
X140912960Y-32911056D01*
X140817473Y-33076444D01*
X140758458Y-33258072D01*
X140757768Y-33264633D01*
X140757768Y-33264635D01*
X140746336Y-33373402D01*
X140738496Y-33448000D01*
X132903230Y-33448000D01*
X133005904Y-33373402D01*
X133017653Y-33364866D01*
X133113811Y-33258072D01*
X133141021Y-33227852D01*
X133141022Y-33227851D01*
X133145440Y-33222944D01*
X133240927Y-33057556D01*
X133299942Y-32875928D01*
X133311575Y-32765251D01*
X133319214Y-32692565D01*
X133319904Y-32686000D01*
X133308680Y-32579206D01*
X133300632Y-32502635D01*
X133300632Y-32502633D01*
X133299942Y-32496072D01*
X133240927Y-32314444D01*
X133145440Y-32149056D01*
X133017653Y-32007134D01*
X132863152Y-31894882D01*
X132857124Y-31892198D01*
X132857122Y-31892197D01*
X132694719Y-31819891D01*
X132694718Y-31819891D01*
X132688688Y-31817206D01*
X132595288Y-31797353D01*
X132508344Y-31778872D01*
X132508339Y-31778872D01*
X132501887Y-31777500D01*
X132310913Y-31777500D01*
X132304461Y-31778872D01*
X132304456Y-31778872D01*
X132217512Y-31797353D01*
X132124112Y-31817206D01*
X132118082Y-31819891D01*
X132118081Y-31819891D01*
X131955678Y-31892197D01*
X131955676Y-31892198D01*
X131949648Y-31894882D01*
X131795147Y-32007134D01*
X131667360Y-32149056D01*
X131571873Y-32314444D01*
X131512858Y-32496072D01*
X131512168Y-32502633D01*
X131512168Y-32502635D01*
X131504120Y-32579206D01*
X131492896Y-32686000D01*
X106901473Y-32686000D01*
X106973451Y-32663444D01*
X106973456Y-32663442D01*
X106979541Y-32661535D01*
X107130540Y-32577834D01*
X107144271Y-32570223D01*
X107144274Y-32570221D01*
X107149850Y-32567130D01*
X107154691Y-32562981D01*
X107154695Y-32562978D01*
X107292855Y-32444560D01*
X107297698Y-32440409D01*
X107417046Y-32286547D01*
X107457779Y-32203768D01*
X107500200Y-32117556D01*
X107503018Y-32111829D01*
X107504628Y-32105649D01*
X107550492Y-31929575D01*
X107550492Y-31929572D01*
X107552102Y-31923393D01*
X107562293Y-31728936D01*
X107533175Y-31536401D01*
X107530972Y-31530415D01*
X107530971Y-31530409D01*
X107468140Y-31359640D01*
X107468138Y-31359635D01*
X107465937Y-31353654D01*
X107363326Y-31188160D01*
X107259973Y-31078866D01*
X107233919Y-31051315D01*
X107229534Y-31046678D01*
X107070025Y-30934989D01*
X106992486Y-30901435D01*
X106897175Y-30860190D01*
X106897171Y-30860189D01*
X106891316Y-30857655D01*
X106885069Y-30856350D01*
X106885066Y-30856349D01*
X106705443Y-30818824D01*
X106705438Y-30818823D01*
X106700707Y-30817835D01*
X106694315Y-30817500D01*
X106551337Y-30817500D01*
X106482049Y-30824538D01*
X106412622Y-30831590D01*
X106412621Y-30831590D01*
X106406273Y-30832235D01*
X106368960Y-30843928D01*
X106226549Y-30888556D01*
X106226544Y-30888558D01*
X106220459Y-30890465D01*
X106176982Y-30914565D01*
X106055729Y-30981777D01*
X106055726Y-30981779D01*
X106050150Y-30984870D01*
X106045309Y-30989019D01*
X106045305Y-30989022D01*
X105925900Y-31091365D01*
X105902302Y-31111591D01*
X105782954Y-31265453D01*
X105780138Y-31271176D01*
X105780136Y-31271179D01*
X105736608Y-31359640D01*
X105696982Y-31440171D01*
X105695373Y-31446349D01*
X105695372Y-31446351D01*
X105658771Y-31586866D01*
X105647898Y-31628607D01*
X105647564Y-31634986D01*
X105638086Y-31815834D01*
X105637707Y-31823064D01*
X100508000Y-31823064D01*
X100508000Y-30654000D01*
X114830496Y-30654000D01*
X114831186Y-30660565D01*
X114849430Y-30834144D01*
X114850458Y-30843928D01*
X114909473Y-31025556D01*
X115004960Y-31190944D01*
X115009378Y-31195851D01*
X115009379Y-31195852D01*
X115109572Y-31307128D01*
X115132747Y-31332866D01*
X115169598Y-31359640D01*
X115272557Y-31434444D01*
X115287248Y-31445118D01*
X115293276Y-31447802D01*
X115293278Y-31447803D01*
X115455681Y-31520109D01*
X115461712Y-31522794D01*
X115525728Y-31536401D01*
X115642056Y-31561128D01*
X115642061Y-31561128D01*
X115648513Y-31562500D01*
X115839487Y-31562500D01*
X115845939Y-31561128D01*
X115845944Y-31561128D01*
X115962272Y-31536401D01*
X116026288Y-31522794D01*
X116032319Y-31520109D01*
X116194722Y-31447803D01*
X116194724Y-31447802D01*
X116200752Y-31445118D01*
X116215444Y-31434444D01*
X116318402Y-31359640D01*
X116355253Y-31332866D01*
X116466078Y-31209783D01*
X116526523Y-31172544D01*
X116597507Y-31173896D01*
X116656491Y-31213410D01*
X116679545Y-31255156D01*
X116687473Y-31279556D01*
X116690776Y-31285278D01*
X116690777Y-31285279D01*
X116718252Y-31332866D01*
X116782960Y-31444944D01*
X116910747Y-31586866D01*
X117065248Y-31699118D01*
X117071276Y-31701802D01*
X117071278Y-31701803D01*
X117233681Y-31774109D01*
X117239712Y-31776794D01*
X117333113Y-31796647D01*
X117420056Y-31815128D01*
X117420061Y-31815128D01*
X117426513Y-31816500D01*
X117617487Y-31816500D01*
X117623939Y-31815128D01*
X117623944Y-31815128D01*
X117710887Y-31796647D01*
X117804288Y-31776794D01*
X117810319Y-31774109D01*
X117972722Y-31701803D01*
X117972724Y-31701802D01*
X117978752Y-31699118D01*
X118133253Y-31586866D01*
X118261040Y-31444944D01*
X118325748Y-31332866D01*
X118353223Y-31285279D01*
X118353224Y-31285278D01*
X118356527Y-31279556D01*
X118415542Y-31097928D01*
X118417138Y-31082749D01*
X118434814Y-30914565D01*
X118435504Y-30908000D01*
X118415542Y-30718072D01*
X118356527Y-30536444D01*
X118277751Y-30400000D01*
X140738496Y-30400000D01*
X140758458Y-30589928D01*
X140817473Y-30771556D01*
X140912960Y-30936944D01*
X140917378Y-30941851D01*
X140917379Y-30941852D01*
X141008467Y-31043015D01*
X141040747Y-31078866D01*
X141080076Y-31107440D01*
X141184799Y-31183526D01*
X141195248Y-31191118D01*
X141201276Y-31193802D01*
X141201278Y-31193803D01*
X141362208Y-31265453D01*
X141369712Y-31268794D01*
X141463112Y-31288647D01*
X141550056Y-31307128D01*
X141550061Y-31307128D01*
X141556513Y-31308500D01*
X141747487Y-31308500D01*
X141753939Y-31307128D01*
X141753944Y-31307128D01*
X141840888Y-31288647D01*
X141934288Y-31268794D01*
X141941792Y-31265453D01*
X142102722Y-31193803D01*
X142102724Y-31193802D01*
X142108752Y-31191118D01*
X142119202Y-31183526D01*
X142223924Y-31107440D01*
X142263253Y-31078866D01*
X142295533Y-31043015D01*
X142386621Y-30941852D01*
X142386622Y-30941851D01*
X142391040Y-30936944D01*
X142486527Y-30771556D01*
X142545542Y-30589928D01*
X142565504Y-30400000D01*
X142548061Y-30234041D01*
X142546232Y-30216635D01*
X142546232Y-30216633D01*
X142545542Y-30210072D01*
X142486527Y-30028444D01*
X142391040Y-29863056D01*
X142290868Y-29751803D01*
X142267675Y-29726045D01*
X142267674Y-29726044D01*
X142263253Y-29721134D01*
X142108752Y-29608882D01*
X142102724Y-29606198D01*
X142102722Y-29606197D01*
X141940319Y-29533891D01*
X141940318Y-29533891D01*
X141934288Y-29531206D01*
X141840887Y-29511353D01*
X141753944Y-29492872D01*
X141753939Y-29492872D01*
X141747487Y-29491500D01*
X141556513Y-29491500D01*
X141550061Y-29492872D01*
X141550056Y-29492872D01*
X141463112Y-29511353D01*
X141369712Y-29531206D01*
X141363682Y-29533891D01*
X141363681Y-29533891D01*
X141201278Y-29606197D01*
X141201276Y-29606198D01*
X141195248Y-29608882D01*
X141040747Y-29721134D01*
X141036326Y-29726044D01*
X141036325Y-29726045D01*
X141013133Y-29751803D01*
X140912960Y-29863056D01*
X140817473Y-30028444D01*
X140758458Y-30210072D01*
X140757768Y-30216633D01*
X140757768Y-30216635D01*
X140755939Y-30234041D01*
X140738496Y-30400000D01*
X118277751Y-30400000D01*
X118261040Y-30371056D01*
X118181254Y-30282444D01*
X118137675Y-30234045D01*
X118137671Y-30234041D01*
X118133253Y-30229134D01*
X117978752Y-30116882D01*
X117972724Y-30114198D01*
X117972722Y-30114197D01*
X117810319Y-30041891D01*
X117810318Y-30041891D01*
X117804288Y-30039206D01*
X117710888Y-30019353D01*
X117623944Y-30000872D01*
X117623939Y-30000872D01*
X117617487Y-29999500D01*
X117426513Y-29999500D01*
X117420061Y-30000872D01*
X117420056Y-30000872D01*
X117333112Y-30019353D01*
X117239712Y-30039206D01*
X117233682Y-30041891D01*
X117233681Y-30041891D01*
X117071278Y-30114197D01*
X117071276Y-30114198D01*
X117065248Y-30116882D01*
X116910747Y-30229134D01*
X116799923Y-30352217D01*
X116739477Y-30389456D01*
X116668493Y-30388104D01*
X116609509Y-30348590D01*
X116586455Y-30306844D01*
X116578527Y-30282444D01*
X116550582Y-30234041D01*
X116486341Y-30122774D01*
X116483040Y-30117056D01*
X116403254Y-30028444D01*
X116359675Y-29980045D01*
X116359674Y-29980044D01*
X116355253Y-29975134D01*
X116200752Y-29862882D01*
X116194724Y-29860198D01*
X116194722Y-29860197D01*
X116032319Y-29787891D01*
X116032318Y-29787891D01*
X116026288Y-29785206D01*
X115932888Y-29765353D01*
X115845944Y-29746872D01*
X115845939Y-29746872D01*
X115839487Y-29745500D01*
X115648513Y-29745500D01*
X115642061Y-29746872D01*
X115642056Y-29746872D01*
X115555112Y-29765353D01*
X115461712Y-29785206D01*
X115455682Y-29787891D01*
X115455681Y-29787891D01*
X115293278Y-29860197D01*
X115293276Y-29860198D01*
X115287248Y-29862882D01*
X115132747Y-29975134D01*
X115128326Y-29980044D01*
X115128325Y-29980045D01*
X115084747Y-30028444D01*
X115004960Y-30117056D01*
X115001659Y-30122774D01*
X114937419Y-30234041D01*
X114909473Y-30282444D01*
X114850458Y-30464072D01*
X114830496Y-30654000D01*
X100508000Y-30654000D01*
X100508000Y-26590000D01*
X111020496Y-26590000D01*
X111040458Y-26779928D01*
X111099473Y-26961556D01*
X111194960Y-27126944D01*
X111199378Y-27131851D01*
X111199379Y-27131852D01*
X111255982Y-27194716D01*
X111322747Y-27268866D01*
X111396839Y-27322697D01*
X111466803Y-27373529D01*
X111477248Y-27381118D01*
X111483276Y-27383802D01*
X111483278Y-27383803D01*
X111643734Y-27455242D01*
X111651712Y-27458794D01*
X111745113Y-27478647D01*
X111832056Y-27497128D01*
X111832061Y-27497128D01*
X111838513Y-27498500D01*
X112029487Y-27498500D01*
X112035939Y-27497128D01*
X112035944Y-27497128D01*
X112122887Y-27478647D01*
X112216288Y-27458794D01*
X112224266Y-27455242D01*
X112384722Y-27383803D01*
X112384724Y-27383802D01*
X112390752Y-27381118D01*
X112401198Y-27373529D01*
X112471161Y-27322697D01*
X112545253Y-27268866D01*
X112612018Y-27194716D01*
X112668621Y-27131852D01*
X112668622Y-27131851D01*
X112673040Y-27126944D01*
X112768527Y-26961556D01*
X112827542Y-26779928D01*
X112847504Y-26590000D01*
X112841545Y-26533300D01*
X112828232Y-26406635D01*
X112828232Y-26406633D01*
X112827542Y-26400072D01*
X112768527Y-26218444D01*
X112673040Y-26053056D01*
X112592794Y-25963933D01*
X112549675Y-25916045D01*
X112549674Y-25916044D01*
X112545253Y-25911134D01*
X112390752Y-25798882D01*
X112384724Y-25796198D01*
X112384722Y-25796197D01*
X112222319Y-25723891D01*
X112222318Y-25723891D01*
X112216288Y-25721206D01*
X112103570Y-25697247D01*
X112041097Y-25663518D01*
X112006775Y-25601369D01*
X112011503Y-25530530D01*
X112053779Y-25473492D01*
X112103570Y-25450753D01*
X112216288Y-25426794D01*
X112222319Y-25424109D01*
X112384722Y-25351803D01*
X112384724Y-25351802D01*
X112390752Y-25349118D01*
X112399878Y-25342488D01*
X112461945Y-25297393D01*
X112545253Y-25236866D01*
X112673040Y-25094944D01*
X112752448Y-24957406D01*
X112765223Y-24935279D01*
X112765224Y-24935278D01*
X112768527Y-24929556D01*
X112823230Y-24761200D01*
X121078896Y-24761200D01*
X121079586Y-24767765D01*
X121092718Y-24892705D01*
X121098858Y-24951128D01*
X121157873Y-25132756D01*
X121161176Y-25138478D01*
X121161177Y-25138479D01*
X121162364Y-25140535D01*
X121253360Y-25298144D01*
X121257778Y-25303051D01*
X121257779Y-25303052D01*
X121376470Y-25434872D01*
X121381147Y-25440066D01*
X121439430Y-25482411D01*
X121527821Y-25546631D01*
X121535648Y-25552318D01*
X121541676Y-25555002D01*
X121541678Y-25555003D01*
X121698446Y-25624800D01*
X121710112Y-25629994D01*
X121803513Y-25649847D01*
X121890456Y-25668328D01*
X121890461Y-25668328D01*
X121896913Y-25669700D01*
X122087887Y-25669700D01*
X122094339Y-25668328D01*
X122094344Y-25668328D01*
X122181287Y-25649847D01*
X122274688Y-25629994D01*
X122286354Y-25624800D01*
X122443122Y-25555003D01*
X122443124Y-25555002D01*
X122449152Y-25552318D01*
X122456980Y-25546631D01*
X122545370Y-25482411D01*
X122603653Y-25440066D01*
X122608330Y-25434872D01*
X122727021Y-25303052D01*
X122727022Y-25303051D01*
X122731440Y-25298144D01*
X122822436Y-25140535D01*
X122823623Y-25138479D01*
X122823624Y-25138478D01*
X122826927Y-25132756D01*
X122882651Y-24961255D01*
X122922725Y-24902651D01*
X122988121Y-24875014D01*
X123058078Y-24887121D01*
X123103310Y-24924628D01*
X123166739Y-25009261D01*
X123283295Y-25096615D01*
X123291704Y-25099767D01*
X123291705Y-25099768D01*
X123400451Y-25140535D01*
X123457216Y-25183176D01*
X123481916Y-25249738D01*
X123466709Y-25319087D01*
X123447316Y-25345568D01*
X123441358Y-25351803D01*
X123331751Y-25466500D01*
X123320629Y-25478138D01*
X123194743Y-25662680D01*
X123100688Y-25865305D01*
X123040989Y-26080570D01*
X123017251Y-26302695D01*
X123017548Y-26307848D01*
X123017548Y-26307851D01*
X123023011Y-26402590D01*
X123030110Y-26525715D01*
X123031247Y-26530761D01*
X123031248Y-26530767D01*
X123031510Y-26531928D01*
X123079222Y-26743639D01*
X123117461Y-26837811D01*
X123150896Y-26920151D01*
X123163266Y-26950616D01*
X123165965Y-26955020D01*
X123271320Y-27126944D01*
X123279987Y-27141088D01*
X123426250Y-27309938D01*
X123598126Y-27452632D01*
X123791000Y-27565338D01*
X123795825Y-27567180D01*
X123795826Y-27567181D01*
X123845488Y-27586145D01*
X123999692Y-27645030D01*
X124004760Y-27646061D01*
X124004763Y-27646062D01*
X124112017Y-27667883D01*
X124218597Y-27689567D01*
X124223772Y-27689757D01*
X124223774Y-27689757D01*
X124436673Y-27697564D01*
X124436677Y-27697564D01*
X124441837Y-27697753D01*
X124446957Y-27697097D01*
X124446959Y-27697097D01*
X124658288Y-27670025D01*
X124658289Y-27670025D01*
X124663416Y-27669368D01*
X124668366Y-27667883D01*
X124872429Y-27606661D01*
X124872434Y-27606659D01*
X124877384Y-27605174D01*
X125077994Y-27506896D01*
X125259860Y-27377173D01*
X125418096Y-27219489D01*
X125430581Y-27202115D01*
X125545435Y-27042277D01*
X125548453Y-27038077D01*
X125583444Y-26967279D01*
X125645136Y-26842453D01*
X125645137Y-26842451D01*
X125647430Y-26837811D01*
X125712370Y-26624069D01*
X125741529Y-26402590D01*
X125741744Y-26393794D01*
X125743074Y-26339365D01*
X125743074Y-26339361D01*
X125743156Y-26336000D01*
X125724852Y-26113361D01*
X125670431Y-25896702D01*
X125581354Y-25691840D01*
X125491093Y-25552318D01*
X125462822Y-25508617D01*
X125462820Y-25508614D01*
X125460014Y-25504277D01*
X125442002Y-25484482D01*
X125312798Y-25342488D01*
X125281746Y-25278642D01*
X125290141Y-25208143D01*
X125335317Y-25153375D01*
X125361761Y-25139706D01*
X125468297Y-25099767D01*
X125476705Y-25096615D01*
X125593261Y-25009261D01*
X125680615Y-24892705D01*
X125731745Y-24756316D01*
X125738500Y-24694134D01*
X125738500Y-23661095D01*
X128757651Y-23661095D01*
X128757948Y-23666248D01*
X128757948Y-23666251D01*
X128763974Y-23770763D01*
X128770510Y-23884115D01*
X128771647Y-23889161D01*
X128771648Y-23889167D01*
X128782538Y-23937487D01*
X128819622Y-24102039D01*
X128903666Y-24309016D01*
X128940029Y-24368355D01*
X129013472Y-24488203D01*
X129020387Y-24499488D01*
X129166650Y-24668338D01*
X129170630Y-24671642D01*
X129175381Y-24675587D01*
X129215016Y-24734490D01*
X129216513Y-24805471D01*
X129179397Y-24865993D01*
X129139125Y-24890512D01*
X129051741Y-24923271D01*
X129023695Y-24933785D01*
X128907139Y-25021139D01*
X128819785Y-25137695D01*
X128768655Y-25274084D01*
X128761900Y-25336266D01*
X128761900Y-27132534D01*
X128768655Y-27194716D01*
X128819785Y-27331105D01*
X128907139Y-27447661D01*
X129023695Y-27535015D01*
X129160084Y-27586145D01*
X129222266Y-27592900D01*
X131018534Y-27592900D01*
X131080716Y-27586145D01*
X131217105Y-27535015D01*
X131333661Y-27447661D01*
X131421015Y-27331105D01*
X131472145Y-27194716D01*
X131478900Y-27132534D01*
X131478900Y-25336266D01*
X131472145Y-25274084D01*
X131421015Y-25137695D01*
X131333661Y-25021139D01*
X131217105Y-24933785D01*
X131189059Y-24923271D01*
X131098603Y-24889360D01*
X131041839Y-24846718D01*
X131017139Y-24780156D01*
X131032347Y-24710808D01*
X131053893Y-24682127D01*
X131055816Y-24680211D01*
X131158496Y-24577889D01*
X131168070Y-24564566D01*
X131285835Y-24400677D01*
X131288853Y-24396477D01*
X131298406Y-24377149D01*
X131385536Y-24200853D01*
X131385537Y-24200851D01*
X131387830Y-24196211D01*
X131411737Y-24117523D01*
X131451267Y-23987417D01*
X131451268Y-23987413D01*
X131452770Y-23982469D01*
X131453529Y-23982700D01*
X131485417Y-23924133D01*
X131547687Y-23890031D01*
X131618509Y-23895010D01*
X131675397Y-23937487D01*
X131694454Y-23974182D01*
X131724273Y-24065956D01*
X131727576Y-24071678D01*
X131727577Y-24071679D01*
X131747869Y-24106825D01*
X131819760Y-24231344D01*
X131824178Y-24236251D01*
X131824179Y-24236252D01*
X131939379Y-24364195D01*
X131947547Y-24373266D01*
X132102048Y-24485518D01*
X132108076Y-24488202D01*
X132108078Y-24488203D01*
X132264846Y-24558000D01*
X132276512Y-24563194D01*
X132362809Y-24581537D01*
X132456856Y-24601528D01*
X132456861Y-24601528D01*
X132463313Y-24602900D01*
X132654287Y-24602900D01*
X132660739Y-24601528D01*
X132660744Y-24601528D01*
X132754791Y-24581537D01*
X132841088Y-24563194D01*
X132852754Y-24558000D01*
X133009522Y-24488203D01*
X133009524Y-24488202D01*
X133015552Y-24485518D01*
X133170053Y-24373266D01*
X133178221Y-24364195D01*
X133293421Y-24236252D01*
X133293422Y-24236251D01*
X133297840Y-24231344D01*
X133369731Y-24106825D01*
X133390023Y-24071679D01*
X133390024Y-24071678D01*
X133393327Y-24065956D01*
X133395655Y-24058790D01*
X133395959Y-24058345D01*
X133398053Y-24053643D01*
X133398913Y-24054026D01*
X133435725Y-24000185D01*
X133501121Y-23972545D01*
X133571078Y-23984648D01*
X133623386Y-24032652D01*
X133638406Y-24070020D01*
X133645622Y-24102039D01*
X133729666Y-24309016D01*
X133766029Y-24368355D01*
X133839472Y-24488203D01*
X133846387Y-24499488D01*
X133992650Y-24668338D01*
X133996630Y-24671642D01*
X134001381Y-24675587D01*
X134041016Y-24734490D01*
X134042513Y-24805471D01*
X134005397Y-24865993D01*
X133965125Y-24890512D01*
X133877741Y-24923271D01*
X133849695Y-24933785D01*
X133733139Y-25021139D01*
X133645785Y-25137695D01*
X133594655Y-25274084D01*
X133587900Y-25336266D01*
X133587900Y-27132534D01*
X133594655Y-27194716D01*
X133645785Y-27331105D01*
X133733139Y-27447661D01*
X133849695Y-27535015D01*
X133986084Y-27586145D01*
X134048266Y-27592900D01*
X135844534Y-27592900D01*
X135906716Y-27586145D01*
X136043105Y-27535015D01*
X136159661Y-27447661D01*
X136247015Y-27331105D01*
X136298145Y-27194716D01*
X136304900Y-27132534D01*
X136304900Y-25336266D01*
X136298145Y-25274084D01*
X136247015Y-25137695D01*
X136159661Y-25021139D01*
X136043105Y-24933785D01*
X136015059Y-24923271D01*
X135924603Y-24889360D01*
X135867839Y-24846718D01*
X135843139Y-24780156D01*
X135858347Y-24710808D01*
X135879893Y-24682127D01*
X135881816Y-24680211D01*
X135984496Y-24577889D01*
X135994070Y-24564566D01*
X136111835Y-24400677D01*
X136114853Y-24396477D01*
X136124406Y-24377149D01*
X136211536Y-24200853D01*
X136211537Y-24200851D01*
X136213830Y-24196211D01*
X136268538Y-24016148D01*
X136277265Y-23987423D01*
X136277265Y-23987421D01*
X136278770Y-23982469D01*
X136307929Y-23760990D01*
X136309556Y-23694400D01*
X136291252Y-23471761D01*
X136236831Y-23255102D01*
X136147754Y-23050240D01*
X136098772Y-22974525D01*
X136029222Y-22867017D01*
X136029220Y-22867014D01*
X136026414Y-22862677D01*
X135876070Y-22697451D01*
X135872019Y-22694252D01*
X135872015Y-22694248D01*
X135704814Y-22562200D01*
X135704810Y-22562198D01*
X135700759Y-22558998D01*
X135505189Y-22451038D01*
X135500320Y-22449314D01*
X135500316Y-22449312D01*
X135299487Y-22378195D01*
X135299483Y-22378194D01*
X135294612Y-22376469D01*
X135289519Y-22375562D01*
X135289516Y-22375561D01*
X135079773Y-22338200D01*
X135079767Y-22338199D01*
X135074684Y-22337294D01*
X135000852Y-22336392D01*
X134856481Y-22334628D01*
X134856479Y-22334628D01*
X134851311Y-22334565D01*
X134630491Y-22368355D01*
X134418156Y-22437757D01*
X134387843Y-22453537D01*
X134229305Y-22536067D01*
X134220007Y-22540907D01*
X134215874Y-22544010D01*
X134215871Y-22544012D01*
X134154729Y-22589919D01*
X134041365Y-22675035D01*
X133887029Y-22836538D01*
X133884115Y-22840810D01*
X133884114Y-22840811D01*
X133871804Y-22858857D01*
X133761143Y-23021080D01*
X133745403Y-23054990D01*
X133674338Y-23208087D01*
X133667088Y-23223705D01*
X133644460Y-23305299D01*
X133638071Y-23328335D01*
X133600592Y-23388633D01*
X133536463Y-23419095D01*
X133466044Y-23410051D01*
X133411694Y-23364372D01*
X133396822Y-23333600D01*
X133393327Y-23322844D01*
X133297840Y-23157456D01*
X133201303Y-23050240D01*
X133174475Y-23020445D01*
X133174474Y-23020444D01*
X133170053Y-23015534D01*
X133015552Y-22903282D01*
X133009524Y-22900598D01*
X133009522Y-22900597D01*
X132847119Y-22828291D01*
X132847118Y-22828291D01*
X132841088Y-22825606D01*
X132747688Y-22805753D01*
X132660744Y-22787272D01*
X132660739Y-22787272D01*
X132654287Y-22785900D01*
X132463313Y-22785900D01*
X132456861Y-22787272D01*
X132456856Y-22787272D01*
X132369912Y-22805753D01*
X132276512Y-22825606D01*
X132270482Y-22828291D01*
X132270481Y-22828291D01*
X132108078Y-22900597D01*
X132108076Y-22900598D01*
X132102048Y-22903282D01*
X131947547Y-23015534D01*
X131943126Y-23020444D01*
X131943125Y-23020445D01*
X131916298Y-23050240D01*
X131819760Y-23157456D01*
X131724273Y-23322844D01*
X131695108Y-23412604D01*
X131692430Y-23420846D01*
X131652356Y-23479451D01*
X131586959Y-23507088D01*
X131517003Y-23494981D01*
X131464697Y-23446975D01*
X131450393Y-23412604D01*
X131412092Y-23260123D01*
X131412091Y-23260120D01*
X131410831Y-23255102D01*
X131321754Y-23050240D01*
X131272772Y-22974525D01*
X131203222Y-22867017D01*
X131203220Y-22867014D01*
X131200414Y-22862677D01*
X131050070Y-22697451D01*
X131046019Y-22694252D01*
X131046015Y-22694248D01*
X130878814Y-22562200D01*
X130878810Y-22562198D01*
X130874759Y-22558998D01*
X130679189Y-22451038D01*
X130674320Y-22449314D01*
X130674316Y-22449312D01*
X130473487Y-22378195D01*
X130473483Y-22378194D01*
X130468612Y-22376469D01*
X130463519Y-22375562D01*
X130463516Y-22375561D01*
X130253773Y-22338200D01*
X130253767Y-22338199D01*
X130248684Y-22337294D01*
X130174852Y-22336392D01*
X130030481Y-22334628D01*
X130030479Y-22334628D01*
X130025311Y-22334565D01*
X129804491Y-22368355D01*
X129592156Y-22437757D01*
X129561843Y-22453537D01*
X129403305Y-22536067D01*
X129394007Y-22540907D01*
X129389874Y-22544010D01*
X129389871Y-22544012D01*
X129328729Y-22589919D01*
X129215365Y-22675035D01*
X129061029Y-22836538D01*
X129058115Y-22840810D01*
X129058114Y-22840811D01*
X129045804Y-22858857D01*
X128935143Y-23021080D01*
X128919403Y-23054990D01*
X128848338Y-23208087D01*
X128841088Y-23223705D01*
X128781389Y-23438970D01*
X128757651Y-23661095D01*
X125738500Y-23661095D01*
X125738500Y-22897866D01*
X125731745Y-22835684D01*
X125680615Y-22699295D01*
X125593261Y-22582739D01*
X125476705Y-22495385D01*
X125340316Y-22444255D01*
X125278134Y-22437500D01*
X123481866Y-22437500D01*
X123419684Y-22444255D01*
X123283295Y-22495385D01*
X123166739Y-22582739D01*
X123079385Y-22699295D01*
X123028255Y-22835684D01*
X123021500Y-22897866D01*
X123021500Y-24256416D01*
X123001498Y-24324537D01*
X122947842Y-24371030D01*
X122877568Y-24381134D01*
X122812988Y-24351640D01*
X122786381Y-24319416D01*
X122763402Y-24279616D01*
X122731440Y-24224256D01*
X122651799Y-24135805D01*
X122608075Y-24087245D01*
X122608074Y-24087244D01*
X122603653Y-24082334D01*
X122473020Y-23987423D01*
X122454494Y-23973963D01*
X122454493Y-23973962D01*
X122449152Y-23970082D01*
X122443124Y-23967398D01*
X122443122Y-23967397D01*
X122280719Y-23895091D01*
X122280718Y-23895091D01*
X122274688Y-23892406D01*
X122181288Y-23872553D01*
X122094344Y-23854072D01*
X122094339Y-23854072D01*
X122087887Y-23852700D01*
X121896913Y-23852700D01*
X121890461Y-23854072D01*
X121890456Y-23854072D01*
X121803513Y-23872553D01*
X121710112Y-23892406D01*
X121704082Y-23895091D01*
X121704081Y-23895091D01*
X121541678Y-23967397D01*
X121541676Y-23967398D01*
X121535648Y-23970082D01*
X121530307Y-23973962D01*
X121530306Y-23973963D01*
X121511780Y-23987423D01*
X121381147Y-24082334D01*
X121376726Y-24087244D01*
X121376725Y-24087245D01*
X121333002Y-24135805D01*
X121253360Y-24224256D01*
X121204424Y-24309016D01*
X121170328Y-24368072D01*
X121157873Y-24389644D01*
X121098858Y-24571272D01*
X121098168Y-24577833D01*
X121098168Y-24577835D01*
X121097779Y-24581537D01*
X121078896Y-24761200D01*
X112823230Y-24761200D01*
X112827542Y-24747928D01*
X112828955Y-24734490D01*
X112846814Y-24564565D01*
X112847504Y-24558000D01*
X112830969Y-24400677D01*
X112828232Y-24374635D01*
X112828232Y-24374633D01*
X112827542Y-24368072D01*
X112768527Y-24186444D01*
X112673040Y-24021056D01*
X112642752Y-23987417D01*
X112549675Y-23884045D01*
X112549674Y-23884044D01*
X112545253Y-23879134D01*
X112390752Y-23766882D01*
X112384724Y-23764198D01*
X112384722Y-23764197D01*
X112222319Y-23691891D01*
X112222318Y-23691891D01*
X112216288Y-23689206D01*
X112108294Y-23666251D01*
X112035944Y-23650872D01*
X112035939Y-23650872D01*
X112029487Y-23649500D01*
X111838513Y-23649500D01*
X111832061Y-23650872D01*
X111832056Y-23650872D01*
X111759706Y-23666251D01*
X111651712Y-23689206D01*
X111645682Y-23691891D01*
X111645681Y-23691891D01*
X111483278Y-23764197D01*
X111483276Y-23764198D01*
X111477248Y-23766882D01*
X111322747Y-23879134D01*
X111318326Y-23884044D01*
X111318325Y-23884045D01*
X111225249Y-23987417D01*
X111194960Y-24021056D01*
X111099473Y-24186444D01*
X111040458Y-24368072D01*
X111039768Y-24374633D01*
X111039768Y-24374635D01*
X111037031Y-24400677D01*
X111020496Y-24558000D01*
X111021186Y-24564565D01*
X111039046Y-24734490D01*
X111040458Y-24747928D01*
X111099473Y-24929556D01*
X111102776Y-24935278D01*
X111102777Y-24935279D01*
X111115552Y-24957406D01*
X111194960Y-25094944D01*
X111322747Y-25236866D01*
X111406055Y-25297393D01*
X111468123Y-25342488D01*
X111477248Y-25349118D01*
X111483276Y-25351802D01*
X111483278Y-25351803D01*
X111645681Y-25424109D01*
X111651712Y-25426794D01*
X111764430Y-25450753D01*
X111826903Y-25484482D01*
X111861225Y-25546631D01*
X111856497Y-25617470D01*
X111814221Y-25674508D01*
X111764430Y-25697247D01*
X111651712Y-25721206D01*
X111645682Y-25723891D01*
X111645681Y-25723891D01*
X111483278Y-25796197D01*
X111483276Y-25796198D01*
X111477248Y-25798882D01*
X111322747Y-25911134D01*
X111318326Y-25916044D01*
X111318325Y-25916045D01*
X111275207Y-25963933D01*
X111194960Y-26053056D01*
X111099473Y-26218444D01*
X111040458Y-26400072D01*
X111039768Y-26406633D01*
X111039768Y-26406635D01*
X111026455Y-26533300D01*
X111020496Y-26590000D01*
X100508000Y-26590000D01*
X100508000Y-25624800D01*
X108937696Y-25624800D01*
X108938386Y-25631365D01*
X108955993Y-25798882D01*
X108957658Y-25814728D01*
X109016673Y-25996356D01*
X109112160Y-26161744D01*
X109116578Y-26166651D01*
X109116579Y-26166652D01*
X109158060Y-26212721D01*
X109239947Y-26303666D01*
X109317193Y-26359789D01*
X109376104Y-26402590D01*
X109394448Y-26415918D01*
X109400476Y-26418602D01*
X109400478Y-26418603D01*
X109562881Y-26490909D01*
X109568912Y-26493594D01*
X109662312Y-26513447D01*
X109749256Y-26531928D01*
X109749261Y-26531928D01*
X109755713Y-26533300D01*
X109946687Y-26533300D01*
X109953139Y-26531928D01*
X109953144Y-26531928D01*
X110040088Y-26513447D01*
X110133488Y-26493594D01*
X110139519Y-26490909D01*
X110301922Y-26418603D01*
X110301924Y-26418602D01*
X110307952Y-26415918D01*
X110326297Y-26402590D01*
X110385207Y-26359789D01*
X110462453Y-26303666D01*
X110544340Y-26212721D01*
X110585821Y-26166652D01*
X110585822Y-26166651D01*
X110590240Y-26161744D01*
X110685727Y-25996356D01*
X110744742Y-25814728D01*
X110746408Y-25798882D01*
X110764014Y-25631365D01*
X110764704Y-25624800D01*
X110752037Y-25504277D01*
X110745432Y-25441435D01*
X110745432Y-25441433D01*
X110744742Y-25434872D01*
X110685727Y-25253244D01*
X110590240Y-25087856D01*
X110472783Y-24957406D01*
X110466875Y-24950845D01*
X110466874Y-24950844D01*
X110462453Y-24945934D01*
X110342445Y-24858743D01*
X110313294Y-24837563D01*
X110313293Y-24837562D01*
X110307952Y-24833682D01*
X110301924Y-24830998D01*
X110301922Y-24830997D01*
X110139519Y-24758691D01*
X110139518Y-24758691D01*
X110133488Y-24756006D01*
X110032264Y-24734490D01*
X109953144Y-24717672D01*
X109953139Y-24717672D01*
X109946687Y-24716300D01*
X109755713Y-24716300D01*
X109749261Y-24717672D01*
X109749256Y-24717672D01*
X109670136Y-24734490D01*
X109568912Y-24756006D01*
X109562882Y-24758691D01*
X109562881Y-24758691D01*
X109400478Y-24830997D01*
X109400476Y-24830998D01*
X109394448Y-24833682D01*
X109389107Y-24837562D01*
X109389106Y-24837563D01*
X109359955Y-24858743D01*
X109239947Y-24945934D01*
X109235526Y-24950844D01*
X109235525Y-24950845D01*
X109229618Y-24957406D01*
X109112160Y-25087856D01*
X109016673Y-25253244D01*
X108957658Y-25434872D01*
X108956968Y-25441433D01*
X108956968Y-25441435D01*
X108950363Y-25504277D01*
X108937696Y-25624800D01*
X100508000Y-25624800D01*
X100508000Y-22549328D01*
X100509500Y-22529943D01*
X100511805Y-22515141D01*
X100511805Y-22515139D01*
X100513186Y-22506270D01*
X100511763Y-22495385D01*
X100511195Y-22491041D01*
X100510452Y-22465713D01*
X100511789Y-22447029D01*
X100522543Y-22296657D01*
X100525101Y-22278863D01*
X100566520Y-22088462D01*
X100571586Y-22071212D01*
X100639682Y-21888642D01*
X100647149Y-21872290D01*
X100740531Y-21701271D01*
X100750248Y-21686152D01*
X100867023Y-21530158D01*
X100878796Y-21516572D01*
X101016572Y-21378796D01*
X101030158Y-21367023D01*
X101076484Y-21332344D01*
X101186152Y-21250248D01*
X101201266Y-21240534D01*
X101306980Y-21182810D01*
X101372290Y-21147149D01*
X101388642Y-21139682D01*
X101571212Y-21071586D01*
X101588460Y-21066521D01*
X101778863Y-21025101D01*
X101796658Y-21022543D01*
X101845557Y-21019046D01*
X101958631Y-21010959D01*
X101976533Y-21011703D01*
X101984858Y-21011805D01*
X101993730Y-21013186D01*
X102002632Y-21012022D01*
X102002635Y-21012022D01*
X102025251Y-21009064D01*
X102041589Y-21008000D01*
X157950672Y-21008000D01*
X157970056Y-21009500D01*
G37*
G04 #@! TD.AperFunction*
G04 #@! TD*
M02*
