  0
SECTION
  2
HEADER
  9
$ANGBASE
  50
0.0
  9
$ANGDIR
  70
1
  9
$MEASUREMENT
  70
1
  0
ENDSEC
  0
SECTION
  2
TABLES
  0
TABLE
  2
LTYPE
  70
4
  0
LTYPE
  5
40F
  2
CONTINUOUS
  70
0
  3
Solid line
  72
65
  73
0
  40
0.0
  0
LTYPE
  5
410
  2
DASHDOT
 70
0
  3
Dash Dot ____ _ ____ _
 72
65
 73
4
 40
2.0
 49
1.25
 49
-0.25
 49
0.25
 49
-0.25
  0
LTYPE
  5
411
  2
DASHED
 70
0
  3
Dashed __ __ __ __ __
 72
65
 73
2
 40
0.75
 49
0.5
 49
-0.25
  0
LTYPE
  5
43B
  2
DOTTED
 70
0
  3
Dotted .  .  .  .
 72
65
 73
2
 40
0.2
 49
0.0
 49
-0.2
  0
ENDTAB
  0
TABLE
  2
STYLE
  70
4
  0
STYLE
  2
KICAD
  70
0
  40
0
  41
1
  42
1
  50
0
  71
0
  3
isocp.shx
  0
STYLE
  2
KICADB
  70
0
  40
0
  41
1
  42
1
  50
0
  71
0
  3
isocp.shx
  0
STYLE
  2
KICADI
  70
0
  40
0
  41
1
  42
1
  50
15
  71
0
  3
isocp.shx
  0
STYLE
  2
KICADBI
  70
0
  40
0
  41
1
  42
1
  50
15
  71
0
  3
isocp.shx
  0
ENDTAB
  0
TABLE
  2
LAYER
  70
1
  0
LAYER
  2
BLACK
  70
0
  62
7
  6
CONTINUOUS
  0
ENDTAB
  0
ENDSEC
  0
SECTION
  2
ENTITIES
0
LINE
8
BLACK
6
CONTINUOUS
10
100
20
-58
11
100
21
-22.5
0
LINE
8
BLACK
6
CONTINUOUS
10
110.25
20
-58.25
11
110.25
21
-55.75
0
LINE
8
BLACK
6
CONTINUOUS
10
109.75
20
-55.75
11
109.75
21
-58.25
0
LINE
8
BLACK
6
CONTINUOUS
10
110.25
20
-54.75
11
110.25
21
-52.5
0
LINE
8
BLACK
6
CONTINUOUS
10
109.75
20
-52.5
11
109.75
21
-54.75
0
LINE
8
BLACK
6
CONTINUOUS
10
101.75
20
-49.75
11
104.5
21
-49.75
0
LINE
8
BLACK
6
CONTINUOUS
10
104.5
20
-50.25
11
101.75
21
-50.25
0
ARC
8
BLACK
10
107.5
20
-50
40
0.25
50
-90
51
90
0
ARC
8
BLACK
10
105.5
20
-50
40
0.25
50
-270
51
-90
0
LINE
8
BLACK
6
CONTINUOUS
10
105.5
20
-49.75
11
107.5
21
-49.75
0
LINE
8
BLACK
6
CONTINUOUS
10
107.5
20
-50.25
11
105.5
21
-50.25
0
ARC
8
BLACK
10
108.5
20
-50
40
0.25
50
-270
51
-90
0
ARC
8
BLACK
10
110
20
-51.5
40
0.25
50
-180
51
-0
0
LINE
8
BLACK
6
CONTINUOUS
10
102
20
-20.5
11
158
21
-20.5
0
ARC
8
BLACK
10
110
20
-55.75
40
0.25
50
-0
51
180
0
ARC
8
BLACK
10
101.75
20
-50
40
0.25
50
-270
51
-90
0
ARC
8
BLACK
10
110
20
-52.5
40
0.25
50
-0
51
180
0
ARC
8
BLACK
10
102
20
-22.5
40
2
50
90
51
180
0
ARC
8
BLACK
10
110
20
-58.25
40
0.25
50
-180
51
-0
0
CIRCLE
8
BLACK
10
105
20
-55
40
1.7
0
ARC
8
BLACK
10
108.5
20
-51.5
40
1.25
50
-0
51
90
0
ARC
8
BLACK
10
108.5
20
-51.5
40
1.75
50
-0
51
90
0
ARC
8
BLACK
10
110
20
-54.75
40
0.25
50
-180
51
-0
0
ARC
8
BLACK
10
104.5
20
-50
40
0.25
50
-90
51
90
0
LINE
8
BLACK
6
CONTINUOUS
10
158
20
-60
11
102
21
-60
0
LINE
8
BLACK
6
CONTINUOUS
10
160
20
-22.5
11
160
21
-58
0
ARC
8
BLACK
10
102
20
-58
40
2
50
-180
51
-90
0
ARC
8
BLACK
10
158
20
-22.5
40
2
50
-0
51
90
0
ARC
8
BLACK
10
158
20
-58
40
2
50
-90
51
-0
0
LINE
8
BLACK
6
CONTINUOUS
10
106.27
20
-47.57
11
106.67
21
-47.97
0
LINE
8
BLACK
6
CONTINUOUS
10
106.67
20
-47.57
11
106.27
21
-47.97
0
LINE
8
BLACK
6
CONTINUOUS
10
111.57
20
-47.5
11
111.97
21
-47.9
0
LINE
8
BLACK
6
CONTINUOUS
10
111.97
20
-47.5
11
111.57
21
-47.9
0
LINE
8
BLACK
6
CONTINUOUS
10
111.671
20
-28.9562
11
112.071
21
-29.3562
0
LINE
8
BLACK
6
CONTINUOUS
10
112.071
20
-28.9562
11
111.671
21
-29.3562
0
LINE
8
BLACK
6
CONTINUOUS
10
111.671
20
-30.9882
11
112.071
21
-31.3882
0
LINE
8
BLACK
6
CONTINUOUS
10
112.071
20
-30.9882
11
111.671
21
-31.3882
0
LINE
8
BLACK
6
CONTINUOUS
10
111.823
20
-40.5894
11
112.223
21
-40.9894
0
LINE
8
BLACK
6
CONTINUOUS
10
112.223
20
-40.5894
11
111.823
21
-40.9894
0
LINE
8
BLACK
6
CONTINUOUS
10
112.3
20
-55.49
11
112.7
21
-55.89
0
LINE
8
BLACK
6
CONTINUOUS
10
112.7
20
-55.49
11
112.3
21
-55.89
0
LINE
8
BLACK
6
CONTINUOUS
10
115.481
20
-35.0523
11
115.881
21
-35.4522
0
LINE
8
BLACK
6
CONTINUOUS
10
115.881
20
-35.0523
11
115.481
21
-35.4522
0
LINE
8
BLACK
6
CONTINUOUS
10
115.481
20
-41.6562
11
115.881
21
-42.0562
0
LINE
8
BLACK
6
CONTINUOUS
10
115.881
20
-41.6562
11
115.481
21
-42.0562
0
LINE
8
BLACK
6
CONTINUOUS
10
117.259
20
-35.3062
11
117.659
21
-35.7062
0
LINE
8
BLACK
6
CONTINUOUS
10
117.659
20
-35.3062
11
117.259
21
-35.7062
0
LINE
8
BLACK
6
CONTINUOUS
10
117.259
20
-40.3862
11
117.659
21
-40.7862
0
LINE
8
BLACK
6
CONTINUOUS
10
117.659
20
-40.3862
11
117.259
21
-40.7862
0
LINE
8
BLACK
6
CONTINUOUS
10
117.96
20
-49.52
11
118.36
21
-49.92
0
LINE
8
BLACK
6
CONTINUOUS
10
118.36
20
-49.52
11
117.96
21
-49.92
0
LINE
8
BLACK
6
CONTINUOUS
10
120.7
20
-57.14
11
121.1
21
-57.54
0
LINE
8
BLACK
6
CONTINUOUS
10
121.1
20
-57.14
11
120.7
21
-57.54
0
LINE
8
BLACK
6
CONTINUOUS
10
121.42
20
-32.75
11
121.82
21
-33.15
0
LINE
8
BLACK
6
CONTINUOUS
10
121.82
20
-32.75
11
121.42
21
-33.15
0
LINE
8
BLACK
6
CONTINUOUS
10
122.87
20
-47.3
11
123.27
21
-47.7
0
LINE
8
BLACK
6
CONTINUOUS
10
123.27
20
-47.3
11
122.87
21
-47.7
0
LINE
8
BLACK
6
CONTINUOUS
10
123.27
20
-57.44
11
123.67
21
-57.84
0
LINE
8
BLACK
6
CONTINUOUS
10
123.67
20
-57.44
11
123.27
21
-57.84
0
LINE
8
BLACK
6
CONTINUOUS
10
124.31
20
-49.62
11
124.71
21
-50.02
0
LINE
8
BLACK
6
CONTINUOUS
10
124.71
20
-49.62
11
124.31
21
-50.02
0
LINE
8
BLACK
6
CONTINUOUS
10
126.212
20
-43.662
11
126.612
21
-44.062
0
LINE
8
BLACK
6
CONTINUOUS
10
126.612
20
-43.662
11
126.212
21
-44.062
0
LINE
8
BLACK
6
CONTINUOUS
10
126.212
20
-44.8304
11
126.612
21
-45.2304
0
LINE
8
BLACK
6
CONTINUOUS
10
126.612
20
-44.8304
11
126.212
21
-45.2304
0
LINE
8
BLACK
6
CONTINUOUS
10
126.364
20
-36.1436
11
126.764
21
-36.5436
0
LINE
8
BLACK
6
CONTINUOUS
10
126.764
20
-36.1436
11
126.364
21
-36.5436
0
LINE
8
BLACK
6
CONTINUOUS
10
126.364
20
-49.6056
11
126.764
21
-50.0056
0
LINE
8
BLACK
6
CONTINUOUS
10
126.764
20
-49.6056
11
126.364
21
-50.0056
0
LINE
8
BLACK
6
CONTINUOUS
10
126.593
20
-47.218
11
126.993
21
-47.618
0
LINE
8
BLACK
6
CONTINUOUS
10
126.993
20
-47.218
11
126.593
21
-47.618
0
LINE
8
BLACK
6
CONTINUOUS
10
130.276
20
-54.965
11
130.676
21
-55.365
0
LINE
8
BLACK
6
CONTINUOUS
10
130.676
20
-54.965
11
130.276
21
-55.365
0
LINE
8
BLACK
6
CONTINUOUS
10
130.28
20
-32.11
11
130.68
21
-32.51
0
LINE
8
BLACK
6
CONTINUOUS
10
130.68
20
-32.11
11
130.28
21
-32.51
0
LINE
8
BLACK
6
CONTINUOUS
10
130.29
20
-57.4
11
130.69
21
-57.8
0
LINE
8
BLACK
6
CONTINUOUS
10
130.69
20
-57.4
11
130.29
21
-57.8
0
LINE
8
BLACK
6
CONTINUOUS
10
130.38
20
-48.07
11
130.78
21
-48.47
0
LINE
8
BLACK
6
CONTINUOUS
10
130.78
20
-48.07
11
130.38
21
-48.47
0
LINE
8
BLACK
6
CONTINUOUS
10
130.53
20
-53.695
11
130.93
21
-54.095
0
LINE
8
BLACK
6
CONTINUOUS
10
130.93
20
-53.695
11
130.53
21
-54.095
0
LINE
8
BLACK
6
CONTINUOUS
10
130.737
20
-50.2025
11
131.137
21
-50.6025
0
LINE
8
BLACK
6
CONTINUOUS
10
131.137
20
-50.2025
11
130.737
21
-50.6025
0
LINE
8
BLACK
6
CONTINUOUS
10
131.737
20
-42.0745
11
132.136
21
-42.4745
0
LINE
8
BLACK
6
CONTINUOUS
10
132.136
20
-42.0745
11
131.737
21
-42.4745
0
LINE
8
BLACK
6
CONTINUOUS
10
131.94
20
-50.2025
11
132.34
21
-50.6025
0
LINE
8
BLACK
6
CONTINUOUS
10
132.34
20
-50.2025
11
131.94
21
-50.6025
0
LINE
8
BLACK
6
CONTINUOUS
10
132.308
20
-38.328
11
132.708
21
-38.728
0
LINE
8
BLACK
6
CONTINUOUS
10
132.708
20
-38.328
11
132.308
21
-38.728
0
LINE
8
BLACK
6
CONTINUOUS
10
133.12
20
-32.486
11
133.52
21
-32.886
0
LINE
8
BLACK
6
CONTINUOUS
10
133.52
20
-32.486
11
133.12
21
-32.886
0
LINE
8
BLACK
6
CONTINUOUS
10
133.197
20
-50.2025
11
133.597
21
-50.6025
0
LINE
8
BLACK
6
CONTINUOUS
10
133.597
20
-50.2025
11
133.197
21
-50.6025
0
LINE
8
BLACK
6
CONTINUOUS
10
133.705
20
-53.695
11
134.105
21
-54.095
0
LINE
8
BLACK
6
CONTINUOUS
10
134.105
20
-53.695
11
133.705
21
-54.095
0
LINE
8
BLACK
6
CONTINUOUS
10
135.102
20
-53.695
11
135.502
21
-54.095
0
LINE
8
BLACK
6
CONTINUOUS
10
135.502
20
-53.695
11
135.102
21
-54.095
0
LINE
8
BLACK
6
CONTINUOUS
10
135.56
20
-37.39
11
135.96
21
-37.79
0
LINE
8
BLACK
6
CONTINUOUS
10
135.96
20
-37.39
11
135.56
21
-37.79
0
LINE
8
BLACK
6
CONTINUOUS
10
135.61
20
-41.9348
11
136.01
21
-42.3348
0
LINE
8
BLACK
6
CONTINUOUS
10
136.01
20
-41.9348
11
135.61
21
-42.3348
0
LINE
8
BLACK
6
CONTINUOUS
10
136.626
20
-45.6432
11
137.026
21
-46.0432
0
LINE
8
BLACK
6
CONTINUOUS
10
137.026
20
-45.6432
11
136.626
21
-46.0432
0
LINE
8
BLACK
6
CONTINUOUS
10
136.85
20
-35.61
11
137.25
21
-36.01
0
LINE
8
BLACK
6
CONTINUOUS
10
137.25
20
-35.61
11
136.85
21
-36.01
0
LINE
8
BLACK
6
CONTINUOUS
10
136.931
20
-48.6912
11
137.331
21
-49.0912
0
LINE
8
BLACK
6
CONTINUOUS
10
137.331
20
-48.6912
11
136.931
21
-49.0912
0
LINE
8
BLACK
6
CONTINUOUS
10
136.94
20
-30.14
11
137.34
21
-30.54
0
LINE
8
BLACK
6
CONTINUOUS
10
137.34
20
-30.14
11
136.94
21
-30.54
0
LINE
8
BLACK
6
CONTINUOUS
10
137.896
20
-44.678
11
138.296
21
-45.078
0
LINE
8
BLACK
6
CONTINUOUS
10
138.296
20
-44.678
11
137.896
21
-45.078
0
LINE
8
BLACK
6
CONTINUOUS
10
138.302
20
-46.8116
11
138.702
21
-47.2116
0
LINE
8
BLACK
6
CONTINUOUS
10
138.702
20
-46.8116
11
138.302
21
-47.2116
0
LINE
8
BLACK
6
CONTINUOUS
10
138.302
20
-47.9292
11
138.702
21
-48.3292
0
LINE
8
BLACK
6
CONTINUOUS
10
138.702
20
-47.9292
11
138.302
21
-48.3292
0
LINE
8
BLACK
6
CONTINUOUS
10
138.531
20
-49.6945
11
138.931
21
-50.0945
0
LINE
8
BLACK
6
CONTINUOUS
10
138.931
20
-49.6945
11
138.531
21
-50.0945
0
LINE
8
BLACK
6
CONTINUOUS
10
139.08
20
-38.37
11
139.48
21
-38.77
0
LINE
8
BLACK
6
CONTINUOUS
10
139.48
20
-38.37
11
139.08
21
-38.77
0
LINE
8
BLACK
6
CONTINUOUS
10
140.4
20
-34.13
11
140.8
21
-34.53
0
LINE
8
BLACK
6
CONTINUOUS
10
140.8
20
-34.13
11
140.4
21
-34.53
0
LINE
8
BLACK
6
CONTINUOUS
10
140.487
20
-57.378
11
140.887
21
-57.778
0
LINE
8
BLACK
6
CONTINUOUS
10
140.887
20
-57.378
11
140.487
21
-57.778
0
LINE
8
BLACK
6
CONTINUOUS
10
140.538
20
-36.587
11
140.938
21
-36.987
0
LINE
8
BLACK
6
CONTINUOUS
10
140.938
20
-36.587
11
140.538
21
-36.987
0
LINE
8
BLACK
6
CONTINUOUS
10
141.54
20
-31.88
11
141.94
21
-32.28
0
LINE
8
BLACK
6
CONTINUOUS
10
141.94
20
-31.88
11
141.54
21
-32.28
0
LINE
8
BLACK
6
CONTINUOUS
10
141.79
20
-52.64
11
142.19
21
-53.04
0
LINE
8
BLACK
6
CONTINUOUS
10
142.19
20
-52.64
11
141.79
21
-53.04
0
LINE
8
BLACK
6
CONTINUOUS
10
142.396
20
-38.487
11
142.796
21
-38.887
0
LINE
8
BLACK
6
CONTINUOUS
10
142.796
20
-38.487
11
142.396
21
-38.887
0
LINE
8
BLACK
6
CONTINUOUS
10
152.831
20
-38.582
11
153.231
21
-38.982
0
LINE
8
BLACK
6
CONTINUOUS
10
153.231
20
-38.582
11
152.831
21
-38.982
0
CIRCLE
8
BLACK
10
147.38
20
-22.98
40
0.4
0
CIRCLE
8
BLACK
10
147.38
20
-25.52
40
0.4
0
CIRCLE
8
BLACK
10
147.38
20
-28.06
40
0.4
0
CIRCLE
8
BLACK
10
147.38
20
-30.6
40
0.4
0
CIRCLE
8
BLACK
10
147.38
20
-33.14
40
0.4
0
CIRCLE
8
BLACK
10
147.38
20
-35.68
40
0.4
0
CIRCLE
8
BLACK
10
147.38
20
-38.22
40
0.4
0
CIRCLE
8
BLACK
10
147.38
20
-40.76
40
0.4
0
CIRCLE
8
BLACK
10
147.38
20
-43.3
40
0.4
0
CIRCLE
8
BLACK
10
147.38
20
-45.84
40
0.4
0
CIRCLE
8
BLACK
10
147.38
20
-48.38
40
0.4
0
CIRCLE
8
BLACK
10
147.38
20
-50.92
40
0.4
0
CIRCLE
8
BLACK
10
147.38
20
-53.46
40
0.4
0
CIRCLE
8
BLACK
10
147.38
20
-56
40
0.4
0
CIRCLE
8
BLACK
10
155
20
-22.98
40
0.4
0
CIRCLE
8
BLACK
10
155
20
-25.52
40
0.4
0
CIRCLE
8
BLACK
10
155
20
-28.06
40
0.4
0
CIRCLE
8
BLACK
10
155
20
-30.6
40
0.4
0
CIRCLE
8
BLACK
10
155
20
-33.14
40
0.4
0
CIRCLE
8
BLACK
10
155
20
-35.68
40
0.4
0
CIRCLE
8
BLACK
10
155
20
-38.22
40
0.4
0
CIRCLE
8
BLACK
10
155
20
-40.76
40
0.4
0
CIRCLE
8
BLACK
10
155
20
-43.3
40
0.4
0
CIRCLE
8
BLACK
10
155
20
-45.84
40
0.4
0
CIRCLE
8
BLACK
10
155
20
-48.38
40
0.4
0
CIRCLE
8
BLACK
10
155
20
-50.92
40
0.4
0
CIRCLE
8
BLACK
10
155
20
-53.46
40
0.4
0
CIRCLE
8
BLACK
10
155
20
-56
40
0.4
0
LINE
8
BLACK
6
CONTINUOUS
10
103.332
20
-24.06
11
103.332
21
-25.05
0
LINE
8
BLACK
6
CONTINUOUS
10
102.837
20
-24.555
11
103.828
21
-24.555
0
LINE
8
BLACK
6
CONTINUOUS
10
103.332
20
-28.56
11
103.332
21
-29.55
0
LINE
8
BLACK
6
CONTINUOUS
10
102.837
20
-29.055
11
103.828
21
-29.055
0
LINE
8
BLACK
6
CONTINUOUS
10
138.104
20
-23.5336
11
138.104
21
-22.8264
0
LINE
8
BLACK
6
CONTINUOUS
10
138.104
20
-22.8264
11
137.396
21
-22.8264
0
LINE
8
BLACK
6
CONTINUOUS
10
137.396
20
-22.8264
11
137.396
21
-23.5336
0
LINE
8
BLACK
6
CONTINUOUS
10
137.396
20
-23.5336
11
138.104
21
-23.5336
0
LINE
8
BLACK
6
CONTINUOUS
10
138.104
20
-26.0736
11
138.104
21
-25.3664
0
LINE
8
BLACK
6
CONTINUOUS
10
138.104
20
-25.3664
11
137.396
21
-25.3664
0
LINE
8
BLACK
6
CONTINUOUS
10
137.396
20
-25.3664
11
137.396
21
-26.0736
0
LINE
8
BLACK
6
CONTINUOUS
10
137.396
20
-26.0736
11
138.104
21
-26.0736
0
LINE
8
BLACK
6
CONTINUOUS
10
140.644
20
-23.5336
11
140.644
21
-22.8264
0
LINE
8
BLACK
6
CONTINUOUS
10
140.644
20
-22.8264
11
139.936
21
-22.8264
0
LINE
8
BLACK
6
CONTINUOUS
10
139.936
20
-22.8264
11
139.936
21
-23.5336
0
LINE
8
BLACK
6
CONTINUOUS
10
139.936
20
-23.5336
11
140.644
21
-23.5336
0
LINE
8
BLACK
6
CONTINUOUS
10
140.644
20
-26.0736
11
140.644
21
-25.3664
0
LINE
8
BLACK
6
CONTINUOUS
10
140.644
20
-25.3664
11
139.936
21
-25.3664
0
LINE
8
BLACK
6
CONTINUOUS
10
139.936
20
-25.3664
11
139.936
21
-26.0736
0
LINE
8
BLACK
6
CONTINUOUS
10
139.936
20
-26.0736
11
140.644
21
-26.0736
0
LINE
8
BLACK
6
CONTINUOUS
10
143.184
20
-23.5336
11
143.184
21
-22.8264
0
LINE
8
BLACK
6
CONTINUOUS
10
143.184
20
-22.8264
11
142.476
21
-22.8264
0
LINE
8
BLACK
6
CONTINUOUS
10
142.476
20
-22.8264
11
142.476
21
-23.5336
0
LINE
8
BLACK
6
CONTINUOUS
10
142.476
20
-23.5336
11
143.184
21
-23.5336
0
LINE
8
BLACK
6
CONTINUOUS
10
143.184
20
-26.0736
11
143.184
21
-25.3664
0
LINE
8
BLACK
6
CONTINUOUS
10
143.184
20
-25.3664
11
142.476
21
-25.3664
0
LINE
8
BLACK
6
CONTINUOUS
10
142.476
20
-25.3664
11
142.476
21
-26.0736
0
LINE
8
BLACK
6
CONTINUOUS
10
142.476
20
-26.0736
11
143.184
21
-26.0736
0
LINE
8
BLACK
6
CONTINUOUS
10
105.822
20
-23.945
11
106.472
21
-23.295
0
LINE
8
BLACK
6
CONTINUOUS
10
106.472
20
-23.295
11
105.822
21
-22.645
0
LINE
8
BLACK
6
CONTINUOUS
10
105.822
20
-22.645
11
105.172
21
-23.295
0
LINE
8
BLACK
6
CONTINUOUS
10
105.172
20
-23.295
11
105.822
21
-23.945
0
LINE
8
BLACK
6
CONTINUOUS
10
105.822
20
-30.955
11
106.472
21
-30.305
0
LINE
8
BLACK
6
CONTINUOUS
10
106.472
20
-30.305
11
105.822
21
-29.655
0
LINE
8
BLACK
6
CONTINUOUS
10
105.822
20
-29.655
11
105.172
21
-30.305
0
LINE
8
BLACK
6
CONTINUOUS
10
105.172
20
-30.305
11
105.822
21
-30.955
0
LINE
8
BLACK
6
CONTINUOUS
10
102.551
20
-63.1298
11
102.551
21
-61.1298
0
LINE
8
BLACK
6
CONTINUOUS
10
102.551
20
-61.1298
11
103.027
21
-61.1298
0
LINE
8
BLACK
6
CONTINUOUS
10
103.027
20
-61.1298
11
103.313
21
-61.225
0
LINE
8
BLACK
6
CONTINUOUS
10
103.313
20
-61.225
11
103.504
21
-61.4155
0
LINE
8
BLACK
6
CONTINUOUS
10
103.504
20
-61.4155
11
103.599
21
-61.606
0
LINE
8
BLACK
6
CONTINUOUS
10
103.599
20
-61.606
11
103.694
21
-61.9869
0
LINE
8
BLACK
6
CONTINUOUS
10
103.694
20
-61.9869
11
103.694
21
-62.2726
0
LINE
8
BLACK
6
CONTINUOUS
10
103.694
20
-62.2726
11
103.599
21
-62.6536
0
LINE
8
BLACK
6
CONTINUOUS
10
103.599
20
-62.6536
11
103.504
21
-62.844
0
LINE
8
BLACK
6
CONTINUOUS
10
103.504
20
-62.844
11
103.313
21
-63.0345
0
LINE
8
BLACK
6
CONTINUOUS
10
103.313
20
-63.0345
11
103.027
21
-63.1298
0
LINE
8
BLACK
6
CONTINUOUS
10
103.027
20
-63.1298
11
102.551
21
-63.1298
0
LINE
8
BLACK
6
CONTINUOUS
10
104.551
20
-63.1298
11
104.551
21
-61.7964
0
LINE
8
BLACK
6
CONTINUOUS
10
104.551
20
-62.1774
11
104.646
21
-61.9869
0
LINE
8
BLACK
6
CONTINUOUS
10
104.646
20
-61.9869
11
104.742
21
-61.8917
0
LINE
8
BLACK
6
CONTINUOUS
10
104.742
20
-61.8917
11
104.932
21
-61.7964
0
LINE
8
BLACK
6
CONTINUOUS
10
104.932
20
-61.7964
11
105.123
21
-61.7964
0
LINE
8
BLACK
6
CONTINUOUS
10
105.789
20
-63.1298
11
105.789
21
-61.7964
0
LINE
8
BLACK
6
CONTINUOUS
10
105.789
20
-61.1298
11
105.694
21
-61.225
0
LINE
8
BLACK
6
CONTINUOUS
10
105.694
20
-61.225
11
105.789
21
-61.3202
0
LINE
8
BLACK
6
CONTINUOUS
10
105.789
20
-61.3202
11
105.885
21
-61.225
0
LINE
8
BLACK
6
CONTINUOUS
10
105.885
20
-61.225
11
105.789
21
-61.1298
0
LINE
8
BLACK
6
CONTINUOUS
10
105.789
20
-61.1298
11
105.789
21
-61.3202
0
LINE
8
BLACK
6
CONTINUOUS
10
107.027
20
-63.1298
11
106.837
21
-63.0345
0
LINE
8
BLACK
6
CONTINUOUS
10
106.837
20
-63.0345
11
106.742
21
-62.844
0
LINE
8
BLACK
6
CONTINUOUS
10
106.742
20
-62.844
11
106.742
21
-61.1298
0
LINE
8
BLACK
6
CONTINUOUS
10
108.075
20
-63.1298
11
107.885
21
-63.0345
0
LINE
8
BLACK
6
CONTINUOUS
10
107.885
20
-63.0345
11
107.789
21
-62.844
0
LINE
8
BLACK
6
CONTINUOUS
10
107.789
20
-62.844
11
107.789
21
-61.1298
0
LINE
8
BLACK
6
CONTINUOUS
10
110.361
20
-63.1298
11
110.361
21
-61.1298
0
LINE
8
BLACK
6
CONTINUOUS
10
110.361
20
-61.1298
11
111.027
21
-62.5583
0
LINE
8
BLACK
6
CONTINUOUS
10
111.027
20
-62.5583
11
111.694
21
-61.1298
0
LINE
8
BLACK
6
CONTINUOUS
10
111.694
20
-61.1298
11
111.694
21
-63.1298
0
LINE
8
BLACK
6
CONTINUOUS
10
113.504
20
-63.1298
11
113.504
21
-62.0821
0
LINE
8
BLACK
6
CONTINUOUS
10
113.504
20
-62.0821
11
113.408
21
-61.8917
0
LINE
8
BLACK
6
CONTINUOUS
10
113.408
20
-61.8917
11
113.218
21
-61.7964
0
LINE
8
BLACK
6
CONTINUOUS
10
113.218
20
-61.7964
11
112.837
21
-61.7964
0
LINE
8
BLACK
6
CONTINUOUS
10
112.837
20
-61.7964
11
112.646
21
-61.8917
0
LINE
8
BLACK
6
CONTINUOUS
10
113.504
20
-63.0345
11
113.313
21
-63.1298
0
LINE
8
BLACK
6
CONTINUOUS
10
113.313
20
-63.1298
11
112.837
21
-63.1298
0
LINE
8
BLACK
6
CONTINUOUS
10
112.837
20
-63.1298
11
112.646
21
-63.0345
0
LINE
8
BLACK
6
CONTINUOUS
10
112.646
20
-63.0345
11
112.551
21
-62.844
0
LINE
8
BLACK
6
CONTINUOUS
10
112.551
20
-62.844
11
112.551
21
-62.6536
0
LINE
8
BLACK
6
CONTINUOUS
10
112.551
20
-62.6536
11
112.646
21
-62.4631
0
LINE
8
BLACK
6
CONTINUOUS
10
112.646
20
-62.4631
11
112.837
21
-62.3679
0
LINE
8
BLACK
6
CONTINUOUS
10
112.837
20
-62.3679
11
113.313
21
-62.3679
0
LINE
8
BLACK
6
CONTINUOUS
10
113.313
20
-62.3679
11
113.504
21
-62.2726
0
LINE
8
BLACK
6
CONTINUOUS
10
114.456
20
-61.7964
11
114.456
21
-63.7964
0
LINE
8
BLACK
6
CONTINUOUS
10
114.456
20
-61.8917
11
114.646
21
-61.7964
0
LINE
8
BLACK
6
CONTINUOUS
10
114.646
20
-61.7964
11
115.027
21
-61.7964
0
LINE
8
BLACK
6
CONTINUOUS
10
115.027
20
-61.7964
11
115.218
21
-61.8917
0
LINE
8
BLACK
6
CONTINUOUS
10
115.218
20
-61.8917
11
115.313
21
-61.9869
0
LINE
8
BLACK
6
CONTINUOUS
10
115.313
20
-61.9869
11
115.408
21
-62.1774
0
LINE
8
BLACK
6
CONTINUOUS
10
115.408
20
-62.1774
11
115.408
21
-62.7488
0
LINE
8
BLACK
6
CONTINUOUS
10
115.408
20
-62.7488
11
115.313
21
-62.9393
0
LINE
8
BLACK
6
CONTINUOUS
10
115.313
20
-62.9393
11
115.218
21
-63.0345
0
LINE
8
BLACK
6
CONTINUOUS
10
115.218
20
-63.0345
11
115.027
21
-63.1298
0
LINE
8
BLACK
6
CONTINUOUS
10
115.027
20
-63.1298
11
114.646
21
-63.1298
0
LINE
8
BLACK
6
CONTINUOUS
10
114.646
20
-63.1298
11
114.456
21
-63.0345
0
LINE
8
BLACK
6
CONTINUOUS
10
116.265
20
-62.9393
11
116.361
21
-63.0345
0
LINE
8
BLACK
6
CONTINUOUS
10
116.361
20
-63.0345
11
116.265
21
-63.1298
0
LINE
8
BLACK
6
CONTINUOUS
10
116.265
20
-63.1298
11
116.17
21
-63.0345
0
LINE
8
BLACK
6
CONTINUOUS
10
116.17
20
-63.0345
11
116.265
21
-62.9393
0
LINE
8
BLACK
6
CONTINUOUS
10
116.265
20
-62.9393
11
116.265
21
-63.1298
0
LINE
8
BLACK
6
CONTINUOUS
10
116.265
20
-61.8917
11
116.361
21
-61.9869
0
LINE
8
BLACK
6
CONTINUOUS
10
116.361
20
-61.9869
11
116.265
21
-62.0821
0
LINE
8
BLACK
6
CONTINUOUS
10
116.265
20
-62.0821
11
116.17
21
-61.9869
0
LINE
8
BLACK
6
CONTINUOUS
10
116.17
20
-61.9869
11
116.265
21
-61.8917
0
LINE
8
BLACK
6
CONTINUOUS
10
116.265
20
-61.8917
11
116.265
21
-62.0821
0
LINE
8
BLACK
6
CONTINUOUS
10
99.575
20
-66.225
11
99.975
21
-66.625
0
LINE
8
BLACK
6
CONTINUOUS
10
99.975
20
-66.225
11
99.575
21
-66.625
0
LINE
8
BLACK
6
CONTINUOUS
10
102.932
20
-65.3298
11
103.123
21
-65.3298
0
LINE
8
BLACK
6
CONTINUOUS
10
103.123
20
-65.3298
11
103.313
21
-65.425
0
LINE
8
BLACK
6
CONTINUOUS
10
103.313
20
-65.425
11
103.408
21
-65.5202
0
LINE
8
BLACK
6
CONTINUOUS
10
103.408
20
-65.5202
11
103.504
21
-65.7107
0
LINE
8
BLACK
6
CONTINUOUS
10
103.504
20
-65.7107
11
103.599
21
-66.0917
0
LINE
8
BLACK
6
CONTINUOUS
10
103.599
20
-66.0917
11
103.599
21
-66.5679
0
LINE
8
BLACK
6
CONTINUOUS
10
103.599
20
-66.5679
11
103.504
21
-66.9488
0
LINE
8
BLACK
6
CONTINUOUS
10
103.504
20
-66.9488
11
103.408
21
-67.1393
0
LINE
8
BLACK
6
CONTINUOUS
10
103.408
20
-67.1393
11
103.313
21
-67.2345
0
LINE
8
BLACK
6
CONTINUOUS
10
103.313
20
-67.2345
11
103.123
21
-67.3298
0
LINE
8
BLACK
6
CONTINUOUS
10
103.123
20
-67.3298
11
102.932
21
-67.3298
0
LINE
8
BLACK
6
CONTINUOUS
10
102.932
20
-67.3298
11
102.742
21
-67.2345
0
LINE
8
BLACK
6
CONTINUOUS
10
102.742
20
-67.2345
11
102.646
21
-67.1393
0
LINE
8
BLACK
6
CONTINUOUS
10
102.646
20
-67.1393
11
102.551
21
-66.9488
0
LINE
8
BLACK
6
CONTINUOUS
10
102.551
20
-66.9488
11
102.456
21
-66.5679
0
LINE
8
BLACK
6
CONTINUOUS
10
102.456
20
-66.5679
11
102.456
21
-66.0917
0
LINE
8
BLACK
6
CONTINUOUS
10
102.456
20
-66.0917
11
102.551
21
-65.7107
0
LINE
8
BLACK
6
CONTINUOUS
10
102.551
20
-65.7107
11
102.646
21
-65.5202
0
LINE
8
BLACK
6
CONTINUOUS
10
102.646
20
-65.5202
11
102.742
21
-65.425
0
LINE
8
BLACK
6
CONTINUOUS
10
102.742
20
-65.425
11
102.932
21
-65.3298
0
LINE
8
BLACK
6
CONTINUOUS
10
104.456
20
-67.1393
11
104.551
21
-67.2345
0
LINE
8
BLACK
6
CONTINUOUS
10
104.551
20
-67.2345
11
104.456
21
-67.3298
0
LINE
8
BLACK
6
CONTINUOUS
10
104.456
20
-67.3298
11
104.361
21
-67.2345
0
LINE
8
BLACK
6
CONTINUOUS
10
104.361
20
-67.2345
11
104.456
21
-67.1393
0
LINE
8
BLACK
6
CONTINUOUS
10
104.456
20
-67.1393
11
104.456
21
-67.3298
0
LINE
8
BLACK
6
CONTINUOUS
10
106.265
20
-65.9964
11
106.265
21
-67.3298
0
LINE
8
BLACK
6
CONTINUOUS
10
105.789
20
-65.2345
11
105.313
21
-66.6631
0
LINE
8
BLACK
6
CONTINUOUS
10
105.313
20
-66.6631
11
106.551
21
-66.6631
0
LINE
8
BLACK
6
CONTINUOUS
10
107.694
20
-65.3298
11
107.885
21
-65.3298
0
LINE
8
BLACK
6
CONTINUOUS
10
107.885
20
-65.3298
11
108.075
21
-65.425
0
LINE
8
BLACK
6
CONTINUOUS
10
108.075
20
-65.425
11
108.17
21
-65.5202
0
LINE
8
BLACK
6
CONTINUOUS
10
108.17
20
-65.5202
11
108.265
21
-65.7107
0
LINE
8
BLACK
6
CONTINUOUS
10
108.265
20
-65.7107
11
108.361
21
-66.0917
0
LINE
8
BLACK
6
CONTINUOUS
10
108.361
20
-66.0917
11
108.361
21
-66.5679
0
LINE
8
BLACK
6
CONTINUOUS
10
108.361
20
-66.5679
11
108.265
21
-66.9488
0
LINE
8
BLACK
6
CONTINUOUS
10
108.265
20
-66.9488
11
108.17
21
-67.1393
0
LINE
8
BLACK
6
CONTINUOUS
10
108.17
20
-67.1393
11
108.075
21
-67.2345
0
LINE
8
BLACK
6
CONTINUOUS
10
108.075
20
-67.2345
11
107.885
21
-67.3298
0
LINE
8
BLACK
6
CONTINUOUS
10
107.885
20
-67.3298
11
107.694
21
-67.3298
0
LINE
8
BLACK
6
CONTINUOUS
10
107.694
20
-67.3298
11
107.504
21
-67.2345
0
LINE
8
BLACK
6
CONTINUOUS
10
107.504
20
-67.2345
11
107.408
21
-67.1393
0
LINE
8
BLACK
6
CONTINUOUS
10
107.408
20
-67.1393
11
107.313
21
-66.9488
0
LINE
8
BLACK
6
CONTINUOUS
10
107.313
20
-66.9488
11
107.218
21
-66.5679
0
LINE
8
BLACK
6
CONTINUOUS
10
107.218
20
-66.5679
11
107.218
21
-66.0917
0
LINE
8
BLACK
6
CONTINUOUS
10
107.218
20
-66.0917
11
107.313
21
-65.7107
0
LINE
8
BLACK
6
CONTINUOUS
10
107.313
20
-65.7107
11
107.408
21
-65.5202
0
LINE
8
BLACK
6
CONTINUOUS
10
107.408
20
-65.5202
11
107.504
21
-65.425
0
LINE
8
BLACK
6
CONTINUOUS
10
107.504
20
-65.425
11
107.694
21
-65.3298
0
LINE
8
BLACK
6
CONTINUOUS
10
109.599
20
-65.3298
11
109.789
21
-65.3298
0
LINE
8
BLACK
6
CONTINUOUS
10
109.789
20
-65.3298
11
109.98
21
-65.425
0
LINE
8
BLACK
6
CONTINUOUS
10
109.98
20
-65.425
11
110.075
21
-65.5202
0
LINE
8
BLACK
6
CONTINUOUS
10
110.075
20
-65.5202
11
110.17
21
-65.7107
0
LINE
8
BLACK
6
CONTINUOUS
10
110.17
20
-65.7107
11
110.265
21
-66.0917
0
LINE
8
BLACK
6
CONTINUOUS
10
110.265
20
-66.0917
11
110.265
21
-66.5679
0
LINE
8
BLACK
6
CONTINUOUS
10
110.265
20
-66.5679
11
110.17
21
-66.9488
0
LINE
8
BLACK
6
CONTINUOUS
10
110.17
20
-66.9488
11
110.075
21
-67.1393
0
LINE
8
BLACK
6
CONTINUOUS
10
110.075
20
-67.1393
11
109.98
21
-67.2345
0
LINE
8
BLACK
6
CONTINUOUS
10
109.98
20
-67.2345
11
109.789
21
-67.3298
0
LINE
8
BLACK
6
CONTINUOUS
10
109.789
20
-67.3298
11
109.599
21
-67.3298
0
LINE
8
BLACK
6
CONTINUOUS
10
109.599
20
-67.3298
11
109.408
21
-67.2345
0
LINE
8
BLACK
6
CONTINUOUS
10
109.408
20
-67.2345
11
109.313
21
-67.1393
0
LINE
8
BLACK
6
CONTINUOUS
10
109.313
20
-67.1393
11
109.218
21
-66.9488
0
LINE
8
BLACK
6
CONTINUOUS
10
109.218
20
-66.9488
11
109.123
21
-66.5679
0
LINE
8
BLACK
6
CONTINUOUS
10
109.123
20
-66.5679
11
109.123
21
-66.0917
0
LINE
8
BLACK
6
CONTINUOUS
10
109.123
20
-66.0917
11
109.218
21
-65.7107
0
LINE
8
BLACK
6
CONTINUOUS
10
109.218
20
-65.7107
11
109.313
21
-65.5202
0
LINE
8
BLACK
6
CONTINUOUS
10
109.313
20
-65.5202
11
109.408
21
-65.425
0
LINE
8
BLACK
6
CONTINUOUS
10
109.408
20
-65.425
11
109.599
21
-65.3298
0
LINE
8
BLACK
6
CONTINUOUS
10
111.123
20
-67.3298
11
111.123
21
-65.9964
0
LINE
8
BLACK
6
CONTINUOUS
10
111.123
20
-66.1869
11
111.218
21
-66.0917
0
LINE
8
BLACK
6
CONTINUOUS
10
111.218
20
-66.0917
11
111.408
21
-65.9964
0
LINE
8
BLACK
6
CONTINUOUS
10
111.408
20
-65.9964
11
111.694
21
-65.9964
0
LINE
8
BLACK
6
CONTINUOUS
10
111.694
20
-65.9964
11
111.885
21
-66.0917
0
LINE
8
BLACK
6
CONTINUOUS
10
111.885
20
-66.0917
11
111.98
21
-66.2821
0
LINE
8
BLACK
6
CONTINUOUS
10
111.98
20
-66.2821
11
111.98
21
-67.3298
0
LINE
8
BLACK
6
CONTINUOUS
10
111.98
20
-66.2821
11
112.075
21
-66.0917
0
LINE
8
BLACK
6
CONTINUOUS
10
112.075
20
-66.0917
11
112.265
21
-65.9964
0
LINE
8
BLACK
6
CONTINUOUS
10
112.265
20
-65.9964
11
112.551
21
-65.9964
0
LINE
8
BLACK
6
CONTINUOUS
10
112.551
20
-65.9964
11
112.742
21
-66.0917
0
LINE
8
BLACK
6
CONTINUOUS
10
112.742
20
-66.0917
11
112.837
21
-66.2821
0
LINE
8
BLACK
6
CONTINUOUS
10
112.837
20
-66.2821
11
112.837
21
-67.3298
0
LINE
8
BLACK
6
CONTINUOUS
10
113.789
20
-67.3298
11
113.789
21
-65.9964
0
LINE
8
BLACK
6
CONTINUOUS
10
113.789
20
-66.1869
11
113.885
21
-66.0917
0
LINE
8
BLACK
6
CONTINUOUS
10
113.885
20
-66.0917
11
114.075
21
-65.9964
0
LINE
8
BLACK
6
CONTINUOUS
10
114.075
20
-65.9964
11
114.361
21
-65.9964
0
LINE
8
BLACK
6
CONTINUOUS
10
114.361
20
-65.9964
11
114.551
21
-66.0917
0
LINE
8
BLACK
6
CONTINUOUS
10
114.551
20
-66.0917
11
114.646
21
-66.2821
0
LINE
8
BLACK
6
CONTINUOUS
10
114.646
20
-66.2821
11
114.646
21
-67.3298
0
LINE
8
BLACK
6
CONTINUOUS
10
114.646
20
-66.2821
11
114.742
21
-66.0917
0
LINE
8
BLACK
6
CONTINUOUS
10
114.742
20
-66.0917
11
114.932
21
-65.9964
0
LINE
8
BLACK
6
CONTINUOUS
10
114.932
20
-65.9964
11
115.218
21
-65.9964
0
LINE
8
BLACK
6
CONTINUOUS
10
115.218
20
-65.9964
11
115.408
21
-66.0917
0
LINE
8
BLACK
6
CONTINUOUS
10
115.408
20
-66.0917
11
115.504
21
-66.2821
0
LINE
8
BLACK
6
CONTINUOUS
10
115.504
20
-66.2821
11
115.504
21
-67.3298
0
LINE
8
BLACK
6
CONTINUOUS
10
119.408
20
-65.2345
11
117.694
21
-67.806
0
LINE
8
BLACK
6
CONTINUOUS
10
121.98
20
-65.3298
11
122.17
21
-65.3298
0
LINE
8
BLACK
6
CONTINUOUS
10
122.17
20
-65.3298
11
122.361
21
-65.425
0
LINE
8
BLACK
6
CONTINUOUS
10
122.361
20
-65.425
11
122.456
21
-65.5202
0
LINE
8
BLACK
6
CONTINUOUS
10
122.456
20
-65.5202
11
122.551
21
-65.7107
0
LINE
8
BLACK
6
CONTINUOUS
10
122.551
20
-65.7107
11
122.646
21
-66.0917
0
LINE
8
BLACK
6
CONTINUOUS
10
122.646
20
-66.0917
11
122.646
21
-66.5679
0
LINE
8
BLACK
6
CONTINUOUS
10
122.646
20
-66.5679
11
122.551
21
-66.9488
0
LINE
8
BLACK
6
CONTINUOUS
10
122.551
20
-66.9488
11
122.456
21
-67.1393
0
LINE
8
BLACK
6
CONTINUOUS
10
122.456
20
-67.1393
11
122.361
21
-67.2345
0
LINE
8
BLACK
6
CONTINUOUS
10
122.361
20
-67.2345
11
122.17
21
-67.3298
0
LINE
8
BLACK
6
CONTINUOUS
10
122.17
20
-67.3298
11
121.98
21
-67.3298
0
LINE
8
BLACK
6
CONTINUOUS
10
121.98
20
-67.3298
11
121.789
21
-67.2345
0
LINE
8
BLACK
6
CONTINUOUS
10
121.789
20
-67.2345
11
121.694
21
-67.1393
0
LINE
8
BLACK
6
CONTINUOUS
10
121.694
20
-67.1393
11
121.599
21
-66.9488
0
LINE
8
BLACK
6
CONTINUOUS
10
121.599
20
-66.9488
11
121.504
21
-66.5679
0
LINE
8
BLACK
6
CONTINUOUS
10
121.504
20
-66.5679
11
121.504
21
-66.0917
0
LINE
8
BLACK
6
CONTINUOUS
10
121.504
20
-66.0917
11
121.599
21
-65.7107
0
LINE
8
BLACK
6
CONTINUOUS
10
121.599
20
-65.7107
11
121.694
21
-65.5202
0
LINE
8
BLACK
6
CONTINUOUS
10
121.694
20
-65.5202
11
121.789
21
-65.425
0
LINE
8
BLACK
6
CONTINUOUS
10
121.789
20
-65.425
11
121.98
21
-65.3298
0
LINE
8
BLACK
6
CONTINUOUS
10
123.504
20
-67.1393
11
123.599
21
-67.2345
0
LINE
8
BLACK
6
CONTINUOUS
10
123.599
20
-67.2345
11
123.504
21
-67.3298
0
LINE
8
BLACK
6
CONTINUOUS
10
123.504
20
-67.3298
11
123.408
21
-67.2345
0
LINE
8
BLACK
6
CONTINUOUS
10
123.408
20
-67.2345
11
123.504
21
-67.1393
0
LINE
8
BLACK
6
CONTINUOUS
10
123.504
20
-67.1393
11
123.504
21
-67.3298
0
LINE
8
BLACK
6
CONTINUOUS
10
124.837
20
-65.3298
11
125.027
21
-65.3298
0
LINE
8
BLACK
6
CONTINUOUS
10
125.027
20
-65.3298
11
125.218
21
-65.425
0
LINE
8
BLACK
6
CONTINUOUS
10
125.218
20
-65.425
11
125.313
21
-65.5202
0
LINE
8
BLACK
6
CONTINUOUS
10
125.313
20
-65.5202
11
125.408
21
-65.7107
0
LINE
8
BLACK
6
CONTINUOUS
10
125.408
20
-65.7107
11
125.504
21
-66.0917
0
LINE
8
BLACK
6
CONTINUOUS
10
125.504
20
-66.0917
11
125.504
21
-66.5679
0
LINE
8
BLACK
6
CONTINUOUS
10
125.504
20
-66.5679
11
125.408
21
-66.9488
0
LINE
8
BLACK
6
CONTINUOUS
10
125.408
20
-66.9488
11
125.313
21
-67.1393
0
LINE
8
BLACK
6
CONTINUOUS
10
125.313
20
-67.1393
11
125.218
21
-67.2345
0
LINE
8
BLACK
6
CONTINUOUS
10
125.218
20
-67.2345
11
125.027
21
-67.3298
0
LINE
8
BLACK
6
CONTINUOUS
10
125.027
20
-67.3298
11
124.837
21
-67.3298
0
LINE
8
BLACK
6
CONTINUOUS
10
124.837
20
-67.3298
11
124.646
21
-67.2345
0
LINE
8
BLACK
6
CONTINUOUS
10
124.646
20
-67.2345
11
124.551
21
-67.1393
0
LINE
8
BLACK
6
CONTINUOUS
10
124.551
20
-67.1393
11
124.456
21
-66.9488
0
LINE
8
BLACK
6
CONTINUOUS
10
124.456
20
-66.9488
11
124.361
21
-66.5679
0
LINE
8
BLACK
6
CONTINUOUS
10
124.361
20
-66.5679
11
124.361
21
-66.0917
0
LINE
8
BLACK
6
CONTINUOUS
10
124.361
20
-66.0917
11
124.456
21
-65.7107
0
LINE
8
BLACK
6
CONTINUOUS
10
124.456
20
-65.7107
11
124.551
21
-65.5202
0
LINE
8
BLACK
6
CONTINUOUS
10
124.551
20
-65.5202
11
124.646
21
-65.425
0
LINE
8
BLACK
6
CONTINUOUS
10
124.646
20
-65.425
11
124.837
21
-65.3298
0
LINE
8
BLACK
6
CONTINUOUS
10
127.408
20
-67.3298
11
126.265
21
-67.3298
0
LINE
8
BLACK
6
CONTINUOUS
10
126.837
20
-67.3298
11
126.837
21
-65.3298
0
LINE
8
BLACK
6
CONTINUOUS
10
126.837
20
-65.3298
11
126.646
21
-65.6155
0
LINE
8
BLACK
6
CONTINUOUS
10
126.646
20
-65.6155
11
126.456
21
-65.806
0
LINE
8
BLACK
6
CONTINUOUS
10
126.456
20
-65.806
11
126.265
21
-65.9012
0
LINE
8
BLACK
6
CONTINUOUS
10
129.218
20
-65.3298
11
128.265
21
-65.3298
0
LINE
8
BLACK
6
CONTINUOUS
10
128.265
20
-65.3298
11
128.17
21
-66.2821
0
LINE
8
BLACK
6
CONTINUOUS
10
128.17
20
-66.2821
11
128.265
21
-66.1869
0
LINE
8
BLACK
6
CONTINUOUS
10
128.265
20
-66.1869
11
128.456
21
-66.0917
0
LINE
8
BLACK
6
CONTINUOUS
10
128.456
20
-66.0917
11
128.932
21
-66.0917
0
LINE
8
BLACK
6
CONTINUOUS
10
128.932
20
-66.0917
11
129.123
21
-66.1869
0
LINE
8
BLACK
6
CONTINUOUS
10
129.123
20
-66.1869
11
129.218
21
-66.2821
0
LINE
8
BLACK
6
CONTINUOUS
10
129.218
20
-66.2821
11
129.313
21
-66.4726
0
LINE
8
BLACK
6
CONTINUOUS
10
129.313
20
-66.4726
11
129.313
21
-66.9488
0
LINE
8
BLACK
6
CONTINUOUS
10
129.313
20
-66.9488
11
129.218
21
-67.1393
0
LINE
8
BLACK
6
CONTINUOUS
10
129.218
20
-67.1393
11
129.123
21
-67.2345
0
LINE
8
BLACK
6
CONTINUOUS
10
129.123
20
-67.2345
11
128.932
21
-67.3298
0
LINE
8
BLACK
6
CONTINUOUS
10
128.932
20
-67.3298
11
128.456
21
-67.3298
0
LINE
8
BLACK
6
CONTINUOUS
10
128.456
20
-67.3298
11
128.265
21
-67.2345
0
LINE
8
BLACK
6
CONTINUOUS
10
128.265
20
-67.2345
11
128.17
21
-67.1393
0
LINE
8
BLACK
6
CONTINUOUS
10
129.98
20
-65.3298
11
131.313
21
-65.3298
0
LINE
8
BLACK
6
CONTINUOUS
10
131.313
20
-65.3298
11
130.456
21
-67.3298
0
LINE
8
BLACK
6
CONTINUOUS
10
131.98
20
-65.3298
11
131.98
21
-65.7107
0
LINE
8
BLACK
6
CONTINUOUS
10
132.742
20
-65.3298
11
132.742
21
-65.7107
0
LINE
8
BLACK
6
CONTINUOUS
10
135.694
20
-68.0917
11
135.599
21
-67.9964
0
LINE
8
BLACK
6
CONTINUOUS
10
135.599
20
-67.9964
11
135.408
21
-67.7107
0
LINE
8
BLACK
6
CONTINUOUS
10
135.408
20
-67.7107
11
135.313
21
-67.5202
0
LINE
8
BLACK
6
CONTINUOUS
10
135.313
20
-67.5202
11
135.218
21
-67.2345
0
LINE
8
BLACK
6
CONTINUOUS
10
135.218
20
-67.2345
11
135.123
21
-66.7583
0
LINE
8
BLACK
6
CONTINUOUS
10
135.123
20
-66.7583
11
135.123
21
-66.3774
0
LINE
8
BLACK
6
CONTINUOUS
10
135.123
20
-66.3774
11
135.218
21
-65.9012
0
LINE
8
BLACK
6
CONTINUOUS
10
135.218
20
-65.9012
11
135.313
21
-65.6155
0
LINE
8
BLACK
6
CONTINUOUS
10
135.313
20
-65.6155
11
135.408
21
-65.425
0
LINE
8
BLACK
6
CONTINUOUS
10
135.408
20
-65.425
11
135.599
21
-65.1393
0
LINE
8
BLACK
6
CONTINUOUS
10
135.599
20
-65.1393
11
135.694
21
-65.044
0
LINE
8
BLACK
6
CONTINUOUS
10
137.408
20
-65.3298
11
136.456
21
-65.3298
0
LINE
8
BLACK
6
CONTINUOUS
10
136.456
20
-65.3298
11
136.361
21
-66.2821
0
LINE
8
BLACK
6
CONTINUOUS
10
136.361
20
-66.2821
11
136.456
21
-66.1869
0
LINE
8
BLACK
6
CONTINUOUS
10
136.456
20
-66.1869
11
136.646
21
-66.0917
0
LINE
8
BLACK
6
CONTINUOUS
10
136.646
20
-66.0917
11
137.123
21
-66.0917
0
LINE
8
BLACK
6
CONTINUOUS
10
137.123
20
-66.0917
11
137.313
21
-66.1869
0
LINE
8
BLACK
6
CONTINUOUS
10
137.313
20
-66.1869
11
137.408
21
-66.2821
0
LINE
8
BLACK
6
CONTINUOUS
10
137.408
20
-66.2821
11
137.504
21
-66.4726
0
LINE
8
BLACK
6
CONTINUOUS
10
137.504
20
-66.4726
11
137.504
21
-66.9488
0
LINE
8
BLACK
6
CONTINUOUS
10
137.504
20
-66.9488
11
137.408
21
-67.1393
0
LINE
8
BLACK
6
CONTINUOUS
10
137.408
20
-67.1393
11
137.313
21
-67.2345
0
LINE
8
BLACK
6
CONTINUOUS
10
137.313
20
-67.2345
11
137.123
21
-67.3298
0
LINE
8
BLACK
6
CONTINUOUS
10
137.123
20
-67.3298
11
136.646
21
-67.3298
0
LINE
8
BLACK
6
CONTINUOUS
10
136.646
20
-67.3298
11
136.456
21
-67.2345
0
LINE
8
BLACK
6
CONTINUOUS
10
136.456
20
-67.2345
11
136.361
21
-67.1393
0
LINE
8
BLACK
6
CONTINUOUS
10
138.265
20
-65.5202
11
138.361
21
-65.425
0
LINE
8
BLACK
6
CONTINUOUS
10
138.361
20
-65.425
11
138.551
21
-65.3298
0
LINE
8
BLACK
6
CONTINUOUS
10
138.551
20
-65.3298
11
139.027
21
-65.3298
0
LINE
8
BLACK
6
CONTINUOUS
10
139.027
20
-65.3298
11
139.218
21
-65.425
0
LINE
8
BLACK
6
CONTINUOUS
10
139.218
20
-65.425
11
139.313
21
-65.5202
0
LINE
8
BLACK
6
CONTINUOUS
10
139.313
20
-65.5202
11
139.408
21
-65.7107
0
LINE
8
BLACK
6
CONTINUOUS
10
139.408
20
-65.7107
11
139.408
21
-65.9012
0
LINE
8
BLACK
6
CONTINUOUS
10
139.408
20
-65.9012
11
139.313
21
-66.1869
0
LINE
8
BLACK
6
CONTINUOUS
10
139.313
20
-66.1869
11
138.17
21
-67.3298
0
LINE
8
BLACK
6
CONTINUOUS
10
138.17
20
-67.3298
11
139.408
21
-67.3298
0
LINE
8
BLACK
6
CONTINUOUS
10
141.789
20
-67.3298
11
141.789
21
-65.3298
0
LINE
8
BLACK
6
CONTINUOUS
10
142.646
20
-67.3298
11
142.646
21
-66.2821
0
LINE
8
BLACK
6
CONTINUOUS
10
142.646
20
-66.2821
11
142.551
21
-66.0917
0
LINE
8
BLACK
6
CONTINUOUS
10
142.551
20
-66.0917
11
142.361
21
-65.9964
0
LINE
8
BLACK
6
CONTINUOUS
10
142.361
20
-65.9964
11
142.075
21
-65.9964
0
LINE
8
BLACK
6
CONTINUOUS
10
142.075
20
-65.9964
11
141.885
21
-66.0917
0
LINE
8
BLACK
6
CONTINUOUS
10
141.885
20
-66.0917
11
141.789
21
-66.1869
0
LINE
8
BLACK
6
CONTINUOUS
10
143.885
20
-67.3298
11
143.694
21
-67.2345
0
LINE
8
BLACK
6
CONTINUOUS
10
143.694
20
-67.2345
11
143.599
21
-67.1393
0
LINE
8
BLACK
6
CONTINUOUS
10
143.599
20
-67.1393
11
143.504
21
-66.9488
0
LINE
8
BLACK
6
CONTINUOUS
10
143.504
20
-66.9488
11
143.504
21
-66.3774
0
LINE
8
BLACK
6
CONTINUOUS
10
143.504
20
-66.3774
11
143.599
21
-66.1869
0
LINE
8
BLACK
6
CONTINUOUS
10
143.599
20
-66.1869
11
143.694
21
-66.0917
0
LINE
8
BLACK
6
CONTINUOUS
10
143.694
20
-66.0917
11
143.885
21
-65.9964
0
LINE
8
BLACK
6
CONTINUOUS
10
143.885
20
-65.9964
11
144.17
21
-65.9964
0
LINE
8
BLACK
6
CONTINUOUS
10
144.17
20
-65.9964
11
144.361
21
-66.0917
0
LINE
8
BLACK
6
CONTINUOUS
10
144.361
20
-66.0917
11
144.456
21
-66.1869
0
LINE
8
BLACK
6
CONTINUOUS
10
144.456
20
-66.1869
11
144.551
21
-66.3774
0
LINE
8
BLACK
6
CONTINUOUS
10
144.551
20
-66.3774
11
144.551
21
-66.9488
0
LINE
8
BLACK
6
CONTINUOUS
10
144.551
20
-66.9488
11
144.456
21
-67.1393
0
LINE
8
BLACK
6
CONTINUOUS
10
144.456
20
-67.1393
11
144.361
21
-67.2345
0
LINE
8
BLACK
6
CONTINUOUS
10
144.361
20
-67.2345
11
144.17
21
-67.3298
0
LINE
8
BLACK
6
CONTINUOUS
10
144.17
20
-67.3298
11
143.885
21
-67.3298
0
LINE
8
BLACK
6
CONTINUOUS
10
145.694
20
-67.3298
11
145.504
21
-67.2345
0
LINE
8
BLACK
6
CONTINUOUS
10
145.504
20
-67.2345
11
145.408
21
-67.044
0
LINE
8
BLACK
6
CONTINUOUS
10
145.408
20
-67.044
11
145.408
21
-65.3298
0
LINE
8
BLACK
6
CONTINUOUS
10
147.218
20
-67.2345
11
147.027
21
-67.3298
0
LINE
8
BLACK
6
CONTINUOUS
10
147.027
20
-67.3298
11
146.646
21
-67.3298
0
LINE
8
BLACK
6
CONTINUOUS
10
146.646
20
-67.3298
11
146.456
21
-67.2345
0
LINE
8
BLACK
6
CONTINUOUS
10
146.456
20
-67.2345
11
146.361
21
-67.044
0
LINE
8
BLACK
6
CONTINUOUS
10
146.361
20
-67.044
11
146.361
21
-66.2821
0
LINE
8
BLACK
6
CONTINUOUS
10
146.361
20
-66.2821
11
146.456
21
-66.0917
0
LINE
8
BLACK
6
CONTINUOUS
10
146.456
20
-66.0917
11
146.646
21
-65.9964
0
LINE
8
BLACK
6
CONTINUOUS
10
146.646
20
-65.9964
11
147.027
21
-65.9964
0
LINE
8
BLACK
6
CONTINUOUS
10
147.027
20
-65.9964
11
147.218
21
-66.0917
0
LINE
8
BLACK
6
CONTINUOUS
10
147.218
20
-66.0917
11
147.313
21
-66.2821
0
LINE
8
BLACK
6
CONTINUOUS
10
147.313
20
-66.2821
11
147.313
21
-66.4726
0
LINE
8
BLACK
6
CONTINUOUS
10
147.313
20
-66.4726
11
146.361
21
-66.6631
0
LINE
8
BLACK
6
CONTINUOUS
10
148.075
20
-67.2345
11
148.265
21
-67.3298
0
LINE
8
BLACK
6
CONTINUOUS
10
148.265
20
-67.3298
11
148.646
21
-67.3298
0
LINE
8
BLACK
6
CONTINUOUS
10
148.646
20
-67.3298
11
148.837
21
-67.2345
0
LINE
8
BLACK
6
CONTINUOUS
10
148.837
20
-67.2345
11
148.932
21
-67.044
0
LINE
8
BLACK
6
CONTINUOUS
10
148.932
20
-67.044
11
148.932
21
-66.9488
0
LINE
8
BLACK
6
CONTINUOUS
10
148.932
20
-66.9488
11
148.837
21
-66.7583
0
LINE
8
BLACK
6
CONTINUOUS
10
148.837
20
-66.7583
11
148.646
21
-66.6631
0
LINE
8
BLACK
6
CONTINUOUS
10
148.646
20
-66.6631
11
148.361
21
-66.6631
0
LINE
8
BLACK
6
CONTINUOUS
10
148.361
20
-66.6631
11
148.17
21
-66.5679
0
LINE
8
BLACK
6
CONTINUOUS
10
148.17
20
-66.5679
11
148.075
21
-66.3774
0
LINE
8
BLACK
6
CONTINUOUS
10
148.075
20
-66.3774
11
148.075
21
-66.2821
0
LINE
8
BLACK
6
CONTINUOUS
10
148.075
20
-66.2821
11
148.17
21
-66.0917
0
LINE
8
BLACK
6
CONTINUOUS
10
148.17
20
-66.0917
11
148.361
21
-65.9964
0
LINE
8
BLACK
6
CONTINUOUS
10
148.361
20
-65.9964
11
148.646
21
-65.9964
0
LINE
8
BLACK
6
CONTINUOUS
10
148.646
20
-65.9964
11
148.837
21
-66.0917
0
LINE
8
BLACK
6
CONTINUOUS
10
149.599
20
-68.0917
11
149.694
21
-67.9964
0
LINE
8
BLACK
6
CONTINUOUS
10
149.694
20
-67.9964
11
149.885
21
-67.7107
0
LINE
8
BLACK
6
CONTINUOUS
10
149.885
20
-67.7107
11
149.98
21
-67.5202
0
LINE
8
BLACK
6
CONTINUOUS
10
149.98
20
-67.5202
11
150.075
21
-67.2345
0
LINE
8
BLACK
6
CONTINUOUS
10
150.075
20
-67.2345
11
150.17
21
-66.7583
0
LINE
8
BLACK
6
CONTINUOUS
10
150.17
20
-66.7583
11
150.17
21
-66.3774
0
LINE
8
BLACK
6
CONTINUOUS
10
150.17
20
-66.3774
11
150.075
21
-65.9012
0
LINE
8
BLACK
6
CONTINUOUS
10
150.075
20
-65.9012
11
149.98
21
-65.6155
0
LINE
8
BLACK
6
CONTINUOUS
10
149.98
20
-65.6155
11
149.885
21
-65.425
0
LINE
8
BLACK
6
CONTINUOUS
10
149.885
20
-65.425
11
149.694
21
-65.1393
0
LINE
8
BLACK
6
CONTINUOUS
10
149.694
20
-65.1393
11
149.599
21
-65.044
0
CIRCLE
8
BLACK
10
99.575
20
-69.065
40
0.4
0
LINE
8
BLACK
6
CONTINUOUS
10
102.932
20
-67.9698
11
103.123
21
-67.9698
0
LINE
8
BLACK
6
CONTINUOUS
10
103.123
20
-67.9698
11
103.313
21
-68.065
0
LINE
8
BLACK
6
CONTINUOUS
10
103.313
20
-68.065
11
103.408
21
-68.1602
0
LINE
8
BLACK
6
CONTINUOUS
10
103.408
20
-68.1602
11
103.504
21
-68.3507
0
LINE
8
BLACK
6
CONTINUOUS
10
103.504
20
-68.3507
11
103.599
21
-68.7317
0
LINE
8
BLACK
6
CONTINUOUS
10
103.599
20
-68.7317
11
103.599
21
-69.2079
0
LINE
8
BLACK
6
CONTINUOUS
10
103.599
20
-69.2079
11
103.504
21
-69.5888
0
LINE
8
BLACK
6
CONTINUOUS
10
103.504
20
-69.5888
11
103.408
21
-69.7793
0
LINE
8
BLACK
6
CONTINUOUS
10
103.408
20
-69.7793
11
103.313
21
-69.8745
0
LINE
8
BLACK
6
CONTINUOUS
10
103.313
20
-69.8745
11
103.123
21
-69.9698
0
LINE
8
BLACK
6
CONTINUOUS
10
103.123
20
-69.9698
11
102.932
21
-69.9698
0
LINE
8
BLACK
6
CONTINUOUS
10
102.932
20
-69.9698
11
102.742
21
-69.8745
0
LINE
8
BLACK
6
CONTINUOUS
10
102.742
20
-69.8745
11
102.646
21
-69.7793
0
LINE
8
BLACK
6
CONTINUOUS
10
102.646
20
-69.7793
11
102.551
21
-69.5888
0
LINE
8
BLACK
6
CONTINUOUS
10
102.551
20
-69.5888
11
102.456
21
-69.2079
0
LINE
8
BLACK
6
CONTINUOUS
10
102.456
20
-69.2079
11
102.456
21
-68.7317
0
LINE
8
BLACK
6
CONTINUOUS
10
102.456
20
-68.7317
11
102.551
21
-68.3507
0
LINE
8
BLACK
6
CONTINUOUS
10
102.551
20
-68.3507
11
102.646
21
-68.1602
0
LINE
8
BLACK
6
CONTINUOUS
10
102.646
20
-68.1602
11
102.742
21
-68.065
0
LINE
8
BLACK
6
CONTINUOUS
10
102.742
20
-68.065
11
102.932
21
-67.9698
0
LINE
8
BLACK
6
CONTINUOUS
10
104.456
20
-69.7793
11
104.551
21
-69.8745
0
LINE
8
BLACK
6
CONTINUOUS
10
104.551
20
-69.8745
11
104.456
21
-69.9698
0
LINE
8
BLACK
6
CONTINUOUS
10
104.456
20
-69.9698
11
104.361
21
-69.8745
0
LINE
8
BLACK
6
CONTINUOUS
10
104.361
20
-69.8745
11
104.456
21
-69.7793
0
LINE
8
BLACK
6
CONTINUOUS
10
104.456
20
-69.7793
11
104.456
21
-69.9698
0
LINE
8
BLACK
6
CONTINUOUS
10
105.694
20
-68.8269
11
105.504
21
-68.7317
0
LINE
8
BLACK
6
CONTINUOUS
10
105.504
20
-68.7317
11
105.408
21
-68.6364
0
LINE
8
BLACK
6
CONTINUOUS
10
105.408
20
-68.6364
11
105.313
21
-68.446
0
LINE
8
BLACK
6
CONTINUOUS
10
105.313
20
-68.446
11
105.313
21
-68.3507
0
LINE
8
BLACK
6
CONTINUOUS
10
105.313
20
-68.3507
11
105.408
21
-68.1602
0
LINE
8
BLACK
6
CONTINUOUS
10
105.408
20
-68.1602
11
105.504
21
-68.065
0
LINE
8
BLACK
6
CONTINUOUS
10
105.504
20
-68.065
11
105.694
21
-67.9698
0
LINE
8
BLACK
6
CONTINUOUS
10
105.694
20
-67.9698
11
106.075
21
-67.9698
0
LINE
8
BLACK
6
CONTINUOUS
10
106.075
20
-67.9698
11
106.265
21
-68.065
0
LINE
8
BLACK
6
CONTINUOUS
10
106.265
20
-68.065
11
106.361
21
-68.1602
0
LINE
8
BLACK
6
CONTINUOUS
10
106.361
20
-68.1602
11
106.456
21
-68.3507
0
LINE
8
BLACK
6
CONTINUOUS
10
106.456
20
-68.3507
11
106.456
21
-68.446
0
LINE
8
BLACK
6
CONTINUOUS
10
106.456
20
-68.446
11
106.361
21
-68.6364
0
LINE
8
BLACK
6
CONTINUOUS
10
106.361
20
-68.6364
11
106.265
21
-68.7317
0
LINE
8
BLACK
6
CONTINUOUS
10
106.265
20
-68.7317
11
106.075
21
-68.8269
0
LINE
8
BLACK
6
CONTINUOUS
10
106.075
20
-68.8269
11
105.694
21
-68.8269
0
LINE
8
BLACK
6
CONTINUOUS
10
105.694
20
-68.8269
11
105.504
21
-68.9221
0
LINE
8
BLACK
6
CONTINUOUS
10
105.504
20
-68.9221
11
105.408
21
-69.0174
0
LINE
8
BLACK
6
CONTINUOUS
10
105.408
20
-69.0174
11
105.313
21
-69.2079
0
LINE
8
BLACK
6
CONTINUOUS
10
105.313
20
-69.2079
11
105.313
21
-69.5888
0
LINE
8
BLACK
6
CONTINUOUS
10
105.313
20
-69.5888
11
105.408
21
-69.7793
0
LINE
8
BLACK
6
CONTINUOUS
10
105.408
20
-69.7793
11
105.504
21
-69.8745
0
LINE
8
BLACK
6
CONTINUOUS
10
105.504
20
-69.8745
11
105.694
21
-69.9698
0
LINE
8
BLACK
6
CONTINUOUS
10
105.694
20
-69.9698
11
106.075
21
-69.9698
0
LINE
8
BLACK
6
CONTINUOUS
10
106.075
20
-69.9698
11
106.265
21
-69.8745
0
LINE
8
BLACK
6
CONTINUOUS
10
106.265
20
-69.8745
11
106.361
21
-69.7793
0
LINE
8
BLACK
6
CONTINUOUS
10
106.361
20
-69.7793
11
106.456
21
-69.5888
0
LINE
8
BLACK
6
CONTINUOUS
10
106.456
20
-69.5888
11
106.456
21
-69.2079
0
LINE
8
BLACK
6
CONTINUOUS
10
106.456
20
-69.2079
11
106.361
21
-69.0174
0
LINE
8
BLACK
6
CONTINUOUS
10
106.361
20
-69.0174
11
106.265
21
-68.9221
0
LINE
8
BLACK
6
CONTINUOUS
10
106.265
20
-68.9221
11
106.075
21
-68.8269
0
LINE
8
BLACK
6
CONTINUOUS
10
107.694
20
-67.9698
11
107.885
21
-67.9698
0
LINE
8
BLACK
6
CONTINUOUS
10
107.885
20
-67.9698
11
108.075
21
-68.065
0
LINE
8
BLACK
6
CONTINUOUS
10
108.075
20
-68.065
11
108.17
21
-68.1602
0
LINE
8
BLACK
6
CONTINUOUS
10
108.17
20
-68.1602
11
108.265
21
-68.3507
0
LINE
8
BLACK
6
CONTINUOUS
10
108.265
20
-68.3507
11
108.361
21
-68.7317
0
LINE
8
BLACK
6
CONTINUOUS
10
108.361
20
-68.7317
11
108.361
21
-69.2079
0
LINE
8
BLACK
6
CONTINUOUS
10
108.361
20
-69.2079
11
108.265
21
-69.5888
0
LINE
8
BLACK
6
CONTINUOUS
10
108.265
20
-69.5888
11
108.17
21
-69.7793
0
LINE
8
BLACK
6
CONTINUOUS
10
108.17
20
-69.7793
11
108.075
21
-69.8745
0
LINE
8
BLACK
6
CONTINUOUS
10
108.075
20
-69.8745
11
107.885
21
-69.9698
0
LINE
8
BLACK
6
CONTINUOUS
10
107.885
20
-69.9698
11
107.694
21
-69.9698
0
LINE
8
BLACK
6
CONTINUOUS
10
107.694
20
-69.9698
11
107.504
21
-69.8745
0
LINE
8
BLACK
6
CONTINUOUS
10
107.504
20
-69.8745
11
107.408
21
-69.7793
0
LINE
8
BLACK
6
CONTINUOUS
10
107.408
20
-69.7793
11
107.313
21
-69.5888
0
LINE
8
BLACK
6
CONTINUOUS
10
107.313
20
-69.5888
11
107.218
21
-69.2079
0
LINE
8
BLACK
6
CONTINUOUS
10
107.218
20
-69.2079
11
107.218
21
-68.7317
0
LINE
8
BLACK
6
CONTINUOUS
10
107.218
20
-68.7317
11
107.313
21
-68.3507
0
LINE
8
BLACK
6
CONTINUOUS
10
107.313
20
-68.3507
11
107.408
21
-68.1602
0
LINE
8
BLACK
6
CONTINUOUS
10
107.408
20
-68.1602
11
107.504
21
-68.065
0
LINE
8
BLACK
6
CONTINUOUS
10
107.504
20
-68.065
11
107.694
21
-67.9698
0
LINE
8
BLACK
6
CONTINUOUS
10
109.599
20
-67.9698
11
109.789
21
-67.9698
0
LINE
8
BLACK
6
CONTINUOUS
10
109.789
20
-67.9698
11
109.98
21
-68.065
0
LINE
8
BLACK
6
CONTINUOUS
10
109.98
20
-68.065
11
110.075
21
-68.1602
0
LINE
8
BLACK
6
CONTINUOUS
10
110.075
20
-68.1602
11
110.17
21
-68.3507
0
LINE
8
BLACK
6
CONTINUOUS
10
110.17
20
-68.3507
11
110.265
21
-68.7317
0
LINE
8
BLACK
6
CONTINUOUS
10
110.265
20
-68.7317
11
110.265
21
-69.2079
0
LINE
8
BLACK
6
CONTINUOUS
10
110.265
20
-69.2079
11
110.17
21
-69.5888
0
LINE
8
BLACK
6
CONTINUOUS
10
110.17
20
-69.5888
11
110.075
21
-69.7793
0
LINE
8
BLACK
6
CONTINUOUS
10
110.075
20
-69.7793
11
109.98
21
-69.8745
0
LINE
8
BLACK
6
CONTINUOUS
10
109.98
20
-69.8745
11
109.789
21
-69.9698
0
LINE
8
BLACK
6
CONTINUOUS
10
109.789
20
-69.9698
11
109.599
21
-69.9698
0
LINE
8
BLACK
6
CONTINUOUS
10
109.599
20
-69.9698
11
109.408
21
-69.8745
0
LINE
8
BLACK
6
CONTINUOUS
10
109.408
20
-69.8745
11
109.313
21
-69.7793
0
LINE
8
BLACK
6
CONTINUOUS
10
109.313
20
-69.7793
11
109.218
21
-69.5888
0
LINE
8
BLACK
6
CONTINUOUS
10
109.218
20
-69.5888
11
109.123
21
-69.2079
0
LINE
8
BLACK
6
CONTINUOUS
10
109.123
20
-69.2079
11
109.123
21
-68.7317
0
LINE
8
BLACK
6
CONTINUOUS
10
109.123
20
-68.7317
11
109.218
21
-68.3507
0
LINE
8
BLACK
6
CONTINUOUS
10
109.218
20
-68.3507
11
109.313
21
-68.1602
0
LINE
8
BLACK
6
CONTINUOUS
10
109.313
20
-68.1602
11
109.408
21
-68.065
0
LINE
8
BLACK
6
CONTINUOUS
10
109.408
20
-68.065
11
109.599
21
-67.9698
0
LINE
8
BLACK
6
CONTINUOUS
10
111.123
20
-69.9698
11
111.123
21
-68.6364
0
LINE
8
BLACK
6
CONTINUOUS
10
111.123
20
-68.8269
11
111.218
21
-68.7317
0
LINE
8
BLACK
6
CONTINUOUS
10
111.218
20
-68.7317
11
111.408
21
-68.6364
0
LINE
8
BLACK
6
CONTINUOUS
10
111.408
20
-68.6364
11
111.694
21
-68.6364
0
LINE
8
BLACK
6
CONTINUOUS
10
111.694
20
-68.6364
11
111.885
21
-68.7317
0
LINE
8
BLACK
6
CONTINUOUS
10
111.885
20
-68.7317
11
111.98
21
-68.9221
0
LINE
8
BLACK
6
CONTINUOUS
10
111.98
20
-68.9221
11
111.98
21
-69.9698
0
LINE
8
BLACK
6
CONTINUOUS
10
111.98
20
-68.9221
11
112.075
21
-68.7317
0
LINE
8
BLACK
6
CONTINUOUS
10
112.075
20
-68.7317
11
112.265
21
-68.6364
0
LINE
8
BLACK
6
CONTINUOUS
10
112.265
20
-68.6364
11
112.551
21
-68.6364
0
LINE
8
BLACK
6
CONTINUOUS
10
112.551
20
-68.6364
11
112.742
21
-68.7317
0
LINE
8
BLACK
6
CONTINUOUS
10
112.742
20
-68.7317
11
112.837
21
-68.9221
0
LINE
8
BLACK
6
CONTINUOUS
10
112.837
20
-68.9221
11
112.837
21
-69.9698
0
LINE
8
BLACK
6
CONTINUOUS
10
113.789
20
-69.9698
11
113.789
21
-68.6364
0
LINE
8
BLACK
6
CONTINUOUS
10
113.789
20
-68.8269
11
113.885
21
-68.7317
0
LINE
8
BLACK
6
CONTINUOUS
10
113.885
20
-68.7317
11
114.075
21
-68.6364
0
LINE
8
BLACK
6
CONTINUOUS
10
114.075
20
-68.6364
11
114.361
21
-68.6364
0
LINE
8
BLACK
6
CONTINUOUS
10
114.361
20
-68.6364
11
114.551
21
-68.7317
0
LINE
8
BLACK
6
CONTINUOUS
10
114.551
20
-68.7317
11
114.646
21
-68.9221
0
LINE
8
BLACK
6
CONTINUOUS
10
114.646
20
-68.9221
11
114.646
21
-69.9698
0
LINE
8
BLACK
6
CONTINUOUS
10
114.646
20
-68.9221
11
114.742
21
-68.7317
0
LINE
8
BLACK
6
CONTINUOUS
10
114.742
20
-68.7317
11
114.932
21
-68.6364
0
LINE
8
BLACK
6
CONTINUOUS
10
114.932
20
-68.6364
11
115.218
21
-68.6364
0
LINE
8
BLACK
6
CONTINUOUS
10
115.218
20
-68.6364
11
115.408
21
-68.7317
0
LINE
8
BLACK
6
CONTINUOUS
10
115.408
20
-68.7317
11
115.504
21
-68.9221
0
LINE
8
BLACK
6
CONTINUOUS
10
115.504
20
-68.9221
11
115.504
21
-69.9698
0
LINE
8
BLACK
6
CONTINUOUS
10
119.408
20
-67.8745
11
117.694
21
-70.446
0
LINE
8
BLACK
6
CONTINUOUS
10
121.98
20
-67.9698
11
122.17
21
-67.9698
0
LINE
8
BLACK
6
CONTINUOUS
10
122.17
20
-67.9698
11
122.361
21
-68.065
0
LINE
8
BLACK
6
CONTINUOUS
10
122.361
20
-68.065
11
122.456
21
-68.1602
0
LINE
8
BLACK
6
CONTINUOUS
10
122.456
20
-68.1602
11
122.551
21
-68.3507
0
LINE
8
BLACK
6
CONTINUOUS
10
122.551
20
-68.3507
11
122.646
21
-68.7317
0
LINE
8
BLACK
6
CONTINUOUS
10
122.646
20
-68.7317
11
122.646
21
-69.2079
0
LINE
8
BLACK
6
CONTINUOUS
10
122.646
20
-69.2079
11
122.551
21
-69.5888
0
LINE
8
BLACK
6
CONTINUOUS
10
122.551
20
-69.5888
11
122.456
21
-69.7793
0
LINE
8
BLACK
6
CONTINUOUS
10
122.456
20
-69.7793
11
122.361
21
-69.8745
0
LINE
8
BLACK
6
CONTINUOUS
10
122.361
20
-69.8745
11
122.17
21
-69.9698
0
LINE
8
BLACK
6
CONTINUOUS
10
122.17
20
-69.9698
11
121.98
21
-69.9698
0
LINE
8
BLACK
6
CONTINUOUS
10
121.98
20
-69.9698
11
121.789
21
-69.8745
0
LINE
8
BLACK
6
CONTINUOUS
10
121.789
20
-69.8745
11
121.694
21
-69.7793
0
LINE
8
BLACK
6
CONTINUOUS
10
121.694
20
-69.7793
11
121.599
21
-69.5888
0
LINE
8
BLACK
6
CONTINUOUS
10
121.599
20
-69.5888
11
121.504
21
-69.2079
0
LINE
8
BLACK
6
CONTINUOUS
10
121.504
20
-69.2079
11
121.504
21
-68.7317
0
LINE
8
BLACK
6
CONTINUOUS
10
121.504
20
-68.7317
11
121.599
21
-68.3507
0
LINE
8
BLACK
6
CONTINUOUS
10
121.599
20
-68.3507
11
121.694
21
-68.1602
0
LINE
8
BLACK
6
CONTINUOUS
10
121.694
20
-68.1602
11
121.789
21
-68.065
0
LINE
8
BLACK
6
CONTINUOUS
10
121.789
20
-68.065
11
121.98
21
-67.9698
0
LINE
8
BLACK
6
CONTINUOUS
10
123.504
20
-69.7793
11
123.599
21
-69.8745
0
LINE
8
BLACK
6
CONTINUOUS
10
123.599
20
-69.8745
11
123.504
21
-69.9698
0
LINE
8
BLACK
6
CONTINUOUS
10
123.504
20
-69.9698
11
123.408
21
-69.8745
0
LINE
8
BLACK
6
CONTINUOUS
10
123.408
20
-69.8745
11
123.504
21
-69.7793
0
LINE
8
BLACK
6
CONTINUOUS
10
123.504
20
-69.7793
11
123.504
21
-69.9698
0
LINE
8
BLACK
6
CONTINUOUS
10
124.837
20
-67.9698
11
125.027
21
-67.9698
0
LINE
8
BLACK
6
CONTINUOUS
10
125.027
20
-67.9698
11
125.218
21
-68.065
0
LINE
8
BLACK
6
CONTINUOUS
10
125.218
20
-68.065
11
125.313
21
-68.1602
0
LINE
8
BLACK
6
CONTINUOUS
10
125.313
20
-68.1602
11
125.408
21
-68.3507
0
LINE
8
BLACK
6
CONTINUOUS
10
125.408
20
-68.3507
11
125.504
21
-68.7317
0
LINE
8
BLACK
6
CONTINUOUS
10
125.504
20
-68.7317
11
125.504
21
-69.2079
0
LINE
8
BLACK
6
CONTINUOUS
10
125.504
20
-69.2079
11
125.408
21
-69.5888
0
LINE
8
BLACK
6
CONTINUOUS
10
125.408
20
-69.5888
11
125.313
21
-69.7793
0
LINE
8
BLACK
6
CONTINUOUS
10
125.313
20
-69.7793
11
125.218
21
-69.8745
0
LINE
8
BLACK
6
CONTINUOUS
10
125.218
20
-69.8745
11
125.027
21
-69.9698
0
LINE
8
BLACK
6
CONTINUOUS
10
125.027
20
-69.9698
11
124.837
21
-69.9698
0
LINE
8
BLACK
6
CONTINUOUS
10
124.837
20
-69.9698
11
124.646
21
-69.8745
0
LINE
8
BLACK
6
CONTINUOUS
10
124.646
20
-69.8745
11
124.551
21
-69.7793
0
LINE
8
BLACK
6
CONTINUOUS
10
124.551
20
-69.7793
11
124.456
21
-69.5888
0
LINE
8
BLACK
6
CONTINUOUS
10
124.456
20
-69.5888
11
124.361
21
-69.2079
0
LINE
8
BLACK
6
CONTINUOUS
10
124.361
20
-69.2079
11
124.361
21
-68.7317
0
LINE
8
BLACK
6
CONTINUOUS
10
124.361
20
-68.7317
11
124.456
21
-68.3507
0
LINE
8
BLACK
6
CONTINUOUS
10
124.456
20
-68.3507
11
124.551
21
-68.1602
0
LINE
8
BLACK
6
CONTINUOUS
10
124.551
20
-68.1602
11
124.646
21
-68.065
0
LINE
8
BLACK
6
CONTINUOUS
10
124.646
20
-68.065
11
124.837
21
-67.9698
0
LINE
8
BLACK
6
CONTINUOUS
10
126.17
20
-67.9698
11
127.408
21
-67.9698
0
LINE
8
BLACK
6
CONTINUOUS
10
127.408
20
-67.9698
11
126.742
21
-68.7317
0
LINE
8
BLACK
6
CONTINUOUS
10
126.742
20
-68.7317
11
127.027
21
-68.7317
0
LINE
8
BLACK
6
CONTINUOUS
10
127.027
20
-68.7317
11
127.218
21
-68.8269
0
LINE
8
BLACK
6
CONTINUOUS
10
127.218
20
-68.8269
11
127.313
21
-68.9221
0
LINE
8
BLACK
6
CONTINUOUS
10
127.313
20
-68.9221
11
127.408
21
-69.1126
0
LINE
8
BLACK
6
CONTINUOUS
10
127.408
20
-69.1126
11
127.408
21
-69.5888
0
LINE
8
BLACK
6
CONTINUOUS
10
127.408
20
-69.5888
11
127.313
21
-69.7793
0
LINE
8
BLACK
6
CONTINUOUS
10
127.313
20
-69.7793
11
127.218
21
-69.8745
0
LINE
8
BLACK
6
CONTINUOUS
10
127.218
20
-69.8745
11
127.027
21
-69.9698
0
LINE
8
BLACK
6
CONTINUOUS
10
127.027
20
-69.9698
11
126.456
21
-69.9698
0
LINE
8
BLACK
6
CONTINUOUS
10
126.456
20
-69.9698
11
126.265
21
-69.8745
0
LINE
8
BLACK
6
CONTINUOUS
10
126.265
20
-69.8745
11
126.17
21
-69.7793
0
LINE
8
BLACK
6
CONTINUOUS
10
129.313
20
-69.9698
11
128.17
21
-69.9698
0
LINE
8
BLACK
6
CONTINUOUS
10
128.742
20
-69.9698
11
128.742
21
-67.9698
0
LINE
8
BLACK
6
CONTINUOUS
10
128.742
20
-67.9698
11
128.551
21
-68.2555
0
LINE
8
BLACK
6
CONTINUOUS
10
128.551
20
-68.2555
11
128.361
21
-68.446
0
LINE
8
BLACK
6
CONTINUOUS
10
128.361
20
-68.446
11
128.17
21
-68.5412
0
LINE
8
BLACK
6
CONTINUOUS
10
131.123
20
-67.9698
11
130.17
21
-67.9698
0
LINE
8
BLACK
6
CONTINUOUS
10
130.17
20
-67.9698
11
130.075
21
-68.9221
0
LINE
8
BLACK
6
CONTINUOUS
10
130.075
20
-68.9221
11
130.17
21
-68.8269
0
LINE
8
BLACK
6
CONTINUOUS
10
130.17
20
-68.8269
11
130.361
21
-68.7317
0
LINE
8
BLACK
6
CONTINUOUS
10
130.361
20
-68.7317
11
130.837
21
-68.7317
0
LINE
8
BLACK
6
CONTINUOUS
10
130.837
20
-68.7317
11
131.027
21
-68.8269
0
LINE
8
BLACK
6
CONTINUOUS
10
131.027
20
-68.8269
11
131.123
21
-68.9221
0
LINE
8
BLACK
6
CONTINUOUS
10
131.123
20
-68.9221
11
131.218
21
-69.1126
0
LINE
8
BLACK
6
CONTINUOUS
10
131.218
20
-69.1126
11
131.218
21
-69.5888
0
LINE
8
BLACK
6
CONTINUOUS
10
131.218
20
-69.5888
11
131.123
21
-69.7793
0
LINE
8
BLACK
6
CONTINUOUS
10
131.123
20
-69.7793
11
131.027
21
-69.8745
0
LINE
8
BLACK
6
CONTINUOUS
10
131.027
20
-69.8745
11
130.837
21
-69.9698
0
LINE
8
BLACK
6
CONTINUOUS
10
130.837
20
-69.9698
11
130.361
21
-69.9698
0
LINE
8
BLACK
6
CONTINUOUS
10
130.361
20
-69.9698
11
130.17
21
-69.8745
0
LINE
8
BLACK
6
CONTINUOUS
10
130.17
20
-69.8745
11
130.075
21
-69.7793
0
LINE
8
BLACK
6
CONTINUOUS
10
131.98
20
-67.9698
11
131.98
21
-68.3507
0
LINE
8
BLACK
6
CONTINUOUS
10
132.742
20
-67.9698
11
132.742
21
-68.3507
0
LINE
8
BLACK
6
CONTINUOUS
10
135.694
20
-70.7317
11
135.599
21
-70.6364
0
LINE
8
BLACK
6
CONTINUOUS
10
135.599
20
-70.6364
11
135.408
21
-70.3507
0
LINE
8
BLACK
6
CONTINUOUS
10
135.408
20
-70.3507
11
135.313
21
-70.1602
0
LINE
8
BLACK
6
CONTINUOUS
10
135.313
20
-70.1602
11
135.218
21
-69.8745
0
LINE
8
BLACK
6
CONTINUOUS
10
135.218
20
-69.8745
11
135.123
21
-69.3983
0
LINE
8
BLACK
6
CONTINUOUS
10
135.123
20
-69.3983
11
135.123
21
-69.0174
0
LINE
8
BLACK
6
CONTINUOUS
10
135.123
20
-69.0174
11
135.218
21
-68.5412
0
LINE
8
BLACK
6
CONTINUOUS
10
135.218
20
-68.5412
11
135.313
21
-68.2555
0
LINE
8
BLACK
6
CONTINUOUS
10
135.313
20
-68.2555
11
135.408
21
-68.065
0
LINE
8
BLACK
6
CONTINUOUS
10
135.408
20
-68.065
11
135.599
21
-67.7793
0
LINE
8
BLACK
6
CONTINUOUS
10
135.599
20
-67.7793
11
135.694
21
-67.684
0
LINE
8
BLACK
6
CONTINUOUS
10
136.361
20
-68.1602
11
136.456
21
-68.065
0
LINE
8
BLACK
6
CONTINUOUS
10
136.456
20
-68.065
11
136.646
21
-67.9698
0
LINE
8
BLACK
6
CONTINUOUS
10
136.646
20
-67.9698
11
137.123
21
-67.9698
0
LINE
8
BLACK
6
CONTINUOUS
10
137.123
20
-67.9698
11
137.313
21
-68.065
0
LINE
8
BLACK
6
CONTINUOUS
10
137.313
20
-68.065
11
137.408
21
-68.1602
0
LINE
8
BLACK
6
CONTINUOUS
10
137.408
20
-68.1602
11
137.504
21
-68.3507
0
LINE
8
BLACK
6
CONTINUOUS
10
137.504
20
-68.3507
11
137.504
21
-68.5412
0
LINE
8
BLACK
6
CONTINUOUS
10
137.504
20
-68.5412
11
137.408
21
-68.8269
0
LINE
8
BLACK
6
CONTINUOUS
10
137.408
20
-68.8269
11
136.265
21
-69.9698
0
LINE
8
BLACK
6
CONTINUOUS
10
136.265
20
-69.9698
11
137.504
21
-69.9698
0
LINE
8
BLACK
6
CONTINUOUS
10
138.646
20
-68.8269
11
138.456
21
-68.7317
0
LINE
8
BLACK
6
CONTINUOUS
10
138.456
20
-68.7317
11
138.361
21
-68.6364
0
LINE
8
BLACK
6
CONTINUOUS
10
138.361
20
-68.6364
11
138.265
21
-68.446
0
LINE
8
BLACK
6
CONTINUOUS
10
138.265
20
-68.446
11
138.265
21
-68.3507
0
LINE
8
BLACK
6
CONTINUOUS
10
138.265
20
-68.3507
11
138.361
21
-68.1602
0
LINE
8
BLACK
6
CONTINUOUS
10
138.361
20
-68.1602
11
138.456
21
-68.065
0
LINE
8
BLACK
6
CONTINUOUS
10
138.456
20
-68.065
11
138.646
21
-67.9698
0
LINE
8
BLACK
6
CONTINUOUS
10
138.646
20
-67.9698
11
139.027
21
-67.9698
0
LINE
8
BLACK
6
CONTINUOUS
10
139.027
20
-67.9698
11
139.218
21
-68.065
0
LINE
8
BLACK
6
CONTINUOUS
10
139.218
20
-68.065
11
139.313
21
-68.1602
0
LINE
8
BLACK
6
CONTINUOUS
10
139.313
20
-68.1602
11
139.408
21
-68.3507
0
LINE
8
BLACK
6
CONTINUOUS
10
139.408
20
-68.3507
11
139.408
21
-68.446
0
LINE
8
BLACK
6
CONTINUOUS
10
139.408
20
-68.446
11
139.313
21
-68.6364
0
LINE
8
BLACK
6
CONTINUOUS
10
139.313
20
-68.6364
11
139.218
21
-68.7317
0
LINE
8
BLACK
6
CONTINUOUS
10
139.218
20
-68.7317
11
139.027
21
-68.8269
0
LINE
8
BLACK
6
CONTINUOUS
10
139.027
20
-68.8269
11
138.646
21
-68.8269
0
LINE
8
BLACK
6
CONTINUOUS
10
138.646
20
-68.8269
11
138.456
21
-68.9221
0
LINE
8
BLACK
6
CONTINUOUS
10
138.456
20
-68.9221
11
138.361
21
-69.0174
0
LINE
8
BLACK
6
CONTINUOUS
10
138.361
20
-69.0174
11
138.265
21
-69.2079
0
LINE
8
BLACK
6
CONTINUOUS
10
138.265
20
-69.2079
11
138.265
21
-69.5888
0
LINE
8
BLACK
6
CONTINUOUS
10
138.265
20
-69.5888
11
138.361
21
-69.7793
0
LINE
8
BLACK
6
CONTINUOUS
10
138.361
20
-69.7793
11
138.456
21
-69.8745
0
LINE
8
BLACK
6
CONTINUOUS
10
138.456
20
-69.8745
11
138.646
21
-69.9698
0
LINE
8
BLACK
6
CONTINUOUS
10
138.646
20
-69.9698
11
139.027
21
-69.9698
0
LINE
8
BLACK
6
CONTINUOUS
10
139.027
20
-69.9698
11
139.218
21
-69.8745
0
LINE
8
BLACK
6
CONTINUOUS
10
139.218
20
-69.8745
11
139.313
21
-69.7793
0
LINE
8
BLACK
6
CONTINUOUS
10
139.313
20
-69.7793
11
139.408
21
-69.5888
0
LINE
8
BLACK
6
CONTINUOUS
10
139.408
20
-69.5888
11
139.408
21
-69.2079
0
LINE
8
BLACK
6
CONTINUOUS
10
139.408
20
-69.2079
11
139.313
21
-69.0174
0
LINE
8
BLACK
6
CONTINUOUS
10
139.313
20
-69.0174
11
139.218
21
-68.9221
0
LINE
8
BLACK
6
CONTINUOUS
10
139.218
20
-68.9221
11
139.027
21
-68.8269
0
LINE
8
BLACK
6
CONTINUOUS
10
141.789
20
-69.9698
11
141.789
21
-67.9698
0
LINE
8
BLACK
6
CONTINUOUS
10
142.646
20
-69.9698
11
142.646
21
-68.9221
0
LINE
8
BLACK
6
CONTINUOUS
10
142.646
20
-68.9221
11
142.551
21
-68.7317
0
LINE
8
BLACK
6
CONTINUOUS
10
142.551
20
-68.7317
11
142.361
21
-68.6364
0
LINE
8
BLACK
6
CONTINUOUS
10
142.361
20
-68.6364
11
142.075
21
-68.6364
0
LINE
8
BLACK
6
CONTINUOUS
10
142.075
20
-68.6364
11
141.885
21
-68.7317
0
LINE
8
BLACK
6
CONTINUOUS
10
141.885
20
-68.7317
11
141.789
21
-68.8269
0
LINE
8
BLACK
6
CONTINUOUS
10
143.885
20
-69.9698
11
143.694
21
-69.8745
0
LINE
8
BLACK
6
CONTINUOUS
10
143.694
20
-69.8745
11
143.599
21
-69.7793
0
LINE
8
BLACK
6
CONTINUOUS
10
143.599
20
-69.7793
11
143.504
21
-69.5888
0
LINE
8
BLACK
6
CONTINUOUS
10
143.504
20
-69.5888
11
143.504
21
-69.0174
0
LINE
8
BLACK
6
CONTINUOUS
10
143.504
20
-69.0174
11
143.599
21
-68.8269
0
LINE
8
BLACK
6
CONTINUOUS
10
143.599
20
-68.8269
11
143.694
21
-68.7317
0
LINE
8
BLACK
6
CONTINUOUS
10
143.694
20
-68.7317
11
143.885
21
-68.6364
0
LINE
8
BLACK
6
CONTINUOUS
10
143.885
20
-68.6364
11
144.17
21
-68.6364
0
LINE
8
BLACK
6
CONTINUOUS
10
144.17
20
-68.6364
11
144.361
21
-68.7317
0
LINE
8
BLACK
6
CONTINUOUS
10
144.361
20
-68.7317
11
144.456
21
-68.8269
0
LINE
8
BLACK
6
CONTINUOUS
10
144.456
20
-68.8269
11
144.551
21
-69.0174
0
LINE
8
BLACK
6
CONTINUOUS
10
144.551
20
-69.0174
11
144.551
21
-69.5888
0
LINE
8
BLACK
6
CONTINUOUS
10
144.551
20
-69.5888
11
144.456
21
-69.7793
0
LINE
8
BLACK
6
CONTINUOUS
10
144.456
20
-69.7793
11
144.361
21
-69.8745
0
LINE
8
BLACK
6
CONTINUOUS
10
144.361
20
-69.8745
11
144.17
21
-69.9698
0
LINE
8
BLACK
6
CONTINUOUS
10
144.17
20
-69.9698
11
143.885
21
-69.9698
0
LINE
8
BLACK
6
CONTINUOUS
10
145.694
20
-69.9698
11
145.504
21
-69.8745
0
LINE
8
BLACK
6
CONTINUOUS
10
145.504
20
-69.8745
11
145.408
21
-69.684
0
LINE
8
BLACK
6
CONTINUOUS
10
145.408
20
-69.684
11
145.408
21
-67.9698
0
LINE
8
BLACK
6
CONTINUOUS
10
147.218
20
-69.8745
11
147.027
21
-69.9698
0
LINE
8
BLACK
6
CONTINUOUS
10
147.027
20
-69.9698
11
146.646
21
-69.9698
0
LINE
8
BLACK
6
CONTINUOUS
10
146.646
20
-69.9698
11
146.456
21
-69.8745
0
LINE
8
BLACK
6
CONTINUOUS
10
146.456
20
-69.8745
11
146.361
21
-69.684
0
LINE
8
BLACK
6
CONTINUOUS
10
146.361
20
-69.684
11
146.361
21
-68.9221
0
LINE
8
BLACK
6
CONTINUOUS
10
146.361
20
-68.9221
11
146.456
21
-68.7317
0
LINE
8
BLACK
6
CONTINUOUS
10
146.456
20
-68.7317
11
146.646
21
-68.6364
0
LINE
8
BLACK
6
CONTINUOUS
10
146.646
20
-68.6364
11
147.027
21
-68.6364
0
LINE
8
BLACK
6
CONTINUOUS
10
147.027
20
-68.6364
11
147.218
21
-68.7317
0
LINE
8
BLACK
6
CONTINUOUS
10
147.218
20
-68.7317
11
147.313
21
-68.9221
0
LINE
8
BLACK
6
CONTINUOUS
10
147.313
20
-68.9221
11
147.313
21
-69.1126
0
LINE
8
BLACK
6
CONTINUOUS
10
147.313
20
-69.1126
11
146.361
21
-69.3031
0
LINE
8
BLACK
6
CONTINUOUS
10
148.075
20
-69.8745
11
148.265
21
-69.9698
0
LINE
8
BLACK
6
CONTINUOUS
10
148.265
20
-69.9698
11
148.646
21
-69.9698
0
LINE
8
BLACK
6
CONTINUOUS
10
148.646
20
-69.9698
11
148.837
21
-69.8745
0
LINE
8
BLACK
6
CONTINUOUS
10
148.837
20
-69.8745
11
148.932
21
-69.684
0
LINE
8
BLACK
6
CONTINUOUS
10
148.932
20
-69.684
11
148.932
21
-69.5888
0
LINE
8
BLACK
6
CONTINUOUS
10
148.932
20
-69.5888
11
148.837
21
-69.3983
0
LINE
8
BLACK
6
CONTINUOUS
10
148.837
20
-69.3983
11
148.646
21
-69.3031
0
LINE
8
BLACK
6
CONTINUOUS
10
148.646
20
-69.3031
11
148.361
21
-69.3031
0
LINE
8
BLACK
6
CONTINUOUS
10
148.361
20
-69.3031
11
148.17
21
-69.2079
0
LINE
8
BLACK
6
CONTINUOUS
10
148.17
20
-69.2079
11
148.075
21
-69.0174
0
LINE
8
BLACK
6
CONTINUOUS
10
148.075
20
-69.0174
11
148.075
21
-68.9221
0
LINE
8
BLACK
6
CONTINUOUS
10
148.075
20
-68.9221
11
148.17
21
-68.7317
0
LINE
8
BLACK
6
CONTINUOUS
10
148.17
20
-68.7317
11
148.361
21
-68.6364
0
LINE
8
BLACK
6
CONTINUOUS
10
148.361
20
-68.6364
11
148.646
21
-68.6364
0
LINE
8
BLACK
6
CONTINUOUS
10
148.646
20
-68.6364
11
148.837
21
-68.7317
0
LINE
8
BLACK
6
CONTINUOUS
10
149.599
20
-70.7317
11
149.694
21
-70.6364
0
LINE
8
BLACK
6
CONTINUOUS
10
149.694
20
-70.6364
11
149.885
21
-70.3507
0
LINE
8
BLACK
6
CONTINUOUS
10
149.885
20
-70.3507
11
149.98
21
-70.1602
0
LINE
8
BLACK
6
CONTINUOUS
10
149.98
20
-70.1602
11
150.075
21
-69.8745
0
LINE
8
BLACK
6
CONTINUOUS
10
150.075
20
-69.8745
11
150.17
21
-69.3983
0
LINE
8
BLACK
6
CONTINUOUS
10
150.17
20
-69.3983
11
150.17
21
-69.0174
0
LINE
8
BLACK
6
CONTINUOUS
10
150.17
20
-69.0174
11
150.075
21
-68.5412
0
LINE
8
BLACK
6
CONTINUOUS
10
150.075
20
-68.5412
11
149.98
21
-68.2555
0
LINE
8
BLACK
6
CONTINUOUS
10
149.98
20
-68.2555
11
149.885
21
-68.065
0
LINE
8
BLACK
6
CONTINUOUS
10
149.885
20
-68.065
11
149.694
21
-67.7793
0
LINE
8
BLACK
6
CONTINUOUS
10
149.694
20
-67.7793
11
149.599
21
-67.684
0
LINE
8
BLACK
6
CONTINUOUS
10
99.48
20
-71.21
11
99.48
21
-72.2
0
LINE
8
BLACK
6
CONTINUOUS
10
98.985
20
-71.705
11
99.975
21
-71.705
0
LINE
8
BLACK
6
CONTINUOUS
10
102.932
20
-70.6098
11
103.123
21
-70.6098
0
LINE
8
BLACK
6
CONTINUOUS
10
103.123
20
-70.6098
11
103.313
21
-70.705
0
LINE
8
BLACK
6
CONTINUOUS
10
103.313
20
-70.705
11
103.408
21
-70.8002
0
LINE
8
BLACK
6
CONTINUOUS
10
103.408
20
-70.8002
11
103.504
21
-70.9907
0
LINE
8
BLACK
6
CONTINUOUS
10
103.504
20
-70.9907
11
103.599
21
-71.3717
0
LINE
8
BLACK
6
CONTINUOUS
10
103.599
20
-71.3717
11
103.599
21
-71.8479
0
LINE
8
BLACK
6
CONTINUOUS
10
103.599
20
-71.8479
11
103.504
21
-72.2288
0
LINE
8
BLACK
6
CONTINUOUS
10
103.504
20
-72.2288
11
103.408
21
-72.4193
0
LINE
8
BLACK
6
CONTINUOUS
10
103.408
20
-72.4193
11
103.313
21
-72.5145
0
LINE
8
BLACK
6
CONTINUOUS
10
103.313
20
-72.5145
11
103.123
21
-72.6098
0
LINE
8
BLACK
6
CONTINUOUS
10
103.123
20
-72.6098
11
102.932
21
-72.6098
0
LINE
8
BLACK
6
CONTINUOUS
10
102.932
20
-72.6098
11
102.742
21
-72.5145
0
LINE
8
BLACK
6
CONTINUOUS
10
102.742
20
-72.5145
11
102.646
21
-72.4193
0
LINE
8
BLACK
6
CONTINUOUS
10
102.646
20
-72.4193
11
102.551
21
-72.2288
0
LINE
8
BLACK
6
CONTINUOUS
10
102.551
20
-72.2288
11
102.456
21
-71.8479
0
LINE
8
BLACK
6
CONTINUOUS
10
102.456
20
-71.8479
11
102.456
21
-71.3717
0
LINE
8
BLACK
6
CONTINUOUS
10
102.456
20
-71.3717
11
102.551
21
-70.9907
0
LINE
8
BLACK
6
CONTINUOUS
10
102.551
20
-70.9907
11
102.646
21
-70.8002
0
LINE
8
BLACK
6
CONTINUOUS
10
102.646
20
-70.8002
11
102.742
21
-70.705
0
LINE
8
BLACK
6
CONTINUOUS
10
102.742
20
-70.705
11
102.932
21
-70.6098
0
LINE
8
BLACK
6
CONTINUOUS
10
104.456
20
-72.4193
11
104.551
21
-72.5145
0
LINE
8
BLACK
6
CONTINUOUS
10
104.551
20
-72.5145
11
104.456
21
-72.6098
0
LINE
8
BLACK
6
CONTINUOUS
10
104.456
20
-72.6098
11
104.361
21
-72.5145
0
LINE
8
BLACK
6
CONTINUOUS
10
104.361
20
-72.5145
11
104.456
21
-72.4193
0
LINE
8
BLACK
6
CONTINUOUS
10
104.456
20
-72.4193
11
104.456
21
-72.6098
0
LINE
8
BLACK
6
CONTINUOUS
10
105.504
20
-72.6098
11
105.885
21
-72.6098
0
LINE
8
BLACK
6
CONTINUOUS
10
105.885
20
-72.6098
11
106.075
21
-72.5145
0
LINE
8
BLACK
6
CONTINUOUS
10
106.075
20
-72.5145
11
106.17
21
-72.4193
0
LINE
8
BLACK
6
CONTINUOUS
10
106.17
20
-72.4193
11
106.361
21
-72.1336
0
LINE
8
BLACK
6
CONTINUOUS
10
106.361
20
-72.1336
11
106.456
21
-71.7526
0
LINE
8
BLACK
6
CONTINUOUS
10
106.456
20
-71.7526
11
106.456
21
-70.9907
0
LINE
8
BLACK
6
CONTINUOUS
10
106.456
20
-70.9907
11
106.361
21
-70.8002
0
LINE
8
BLACK
6
CONTINUOUS
10
106.361
20
-70.8002
11
106.265
21
-70.705
0
LINE
8
BLACK
6
CONTINUOUS
10
106.265
20
-70.705
11
106.075
21
-70.6098
0
LINE
8
BLACK
6
CONTINUOUS
10
106.075
20
-70.6098
11
105.694
21
-70.6098
0
LINE
8
BLACK
6
CONTINUOUS
10
105.694
20
-70.6098
11
105.504
21
-70.705
0
LINE
8
BLACK
6
CONTINUOUS
10
105.504
20
-70.705
11
105.408
21
-70.8002
0
LINE
8
BLACK
6
CONTINUOUS
10
105.408
20
-70.8002
11
105.313
21
-70.9907
0
LINE
8
BLACK
6
CONTINUOUS
10
105.313
20
-70.9907
11
105.313
21
-71.4669
0
LINE
8
BLACK
6
CONTINUOUS
10
105.313
20
-71.4669
11
105.408
21
-71.6574
0
LINE
8
BLACK
6
CONTINUOUS
10
105.408
20
-71.6574
11
105.504
21
-71.7526
0
LINE
8
BLACK
6
CONTINUOUS
10
105.504
20
-71.7526
11
105.694
21
-71.8479
0
LINE
8
BLACK
6
CONTINUOUS
10
105.694
20
-71.8479
11
106.075
21
-71.8479
0
LINE
8
BLACK
6
CONTINUOUS
10
106.075
20
-71.8479
11
106.265
21
-71.7526
0
LINE
8
BLACK
6
CONTINUOUS
10
106.265
20
-71.7526
11
106.361
21
-71.6574
0
LINE
8
BLACK
6
CONTINUOUS
10
106.361
20
-71.6574
11
106.456
21
-71.4669
0
LINE
8
BLACK
6
CONTINUOUS
10
107.408
20
-72.6098
11
107.789
21
-72.6098
0
LINE
8
BLACK
6
CONTINUOUS
10
107.789
20
-72.6098
11
107.98
21
-72.5145
0
LINE
8
BLACK
6
CONTINUOUS
10
107.98
20
-72.5145
11
108.075
21
-72.4193
0
LINE
8
BLACK
6
CONTINUOUS
10
108.075
20
-72.4193
11
108.265
21
-72.1336
0
LINE
8
BLACK
6
CONTINUOUS
10
108.265
20
-72.1336
11
108.361
21
-71.7526
0
LINE
8
BLACK
6
CONTINUOUS
10
108.361
20
-71.7526
11
108.361
21
-70.9907
0
LINE
8
BLACK
6
CONTINUOUS
10
108.361
20
-70.9907
11
108.265
21
-70.8002
0
LINE
8
BLACK
6
CONTINUOUS
10
108.265
20
-70.8002
11
108.17
21
-70.705
0
LINE
8
BLACK
6
CONTINUOUS
10
108.17
20
-70.705
11
107.98
21
-70.6098
0
LINE
8
BLACK
6
CONTINUOUS
10
107.98
20
-70.6098
11
107.599
21
-70.6098
0
LINE
8
BLACK
6
CONTINUOUS
10
107.599
20
-70.6098
11
107.408
21
-70.705
0
LINE
8
BLACK
6
CONTINUOUS
10
107.408
20
-70.705
11
107.313
21
-70.8002
0
LINE
8
BLACK
6
CONTINUOUS
10
107.313
20
-70.8002
11
107.218
21
-70.9907
0
LINE
8
BLACK
6
CONTINUOUS
10
107.218
20
-70.9907
11
107.218
21
-71.4669
0
LINE
8
BLACK
6
CONTINUOUS
10
107.218
20
-71.4669
11
107.313
21
-71.6574
0
LINE
8
BLACK
6
CONTINUOUS
10
107.313
20
-71.6574
11
107.408
21
-71.7526
0
LINE
8
BLACK
6
CONTINUOUS
10
107.408
20
-71.7526
11
107.599
21
-71.8479
0
LINE
8
BLACK
6
CONTINUOUS
10
107.599
20
-71.8479
11
107.98
21
-71.8479
0
LINE
8
BLACK
6
CONTINUOUS
10
107.98
20
-71.8479
11
108.17
21
-71.7526
0
LINE
8
BLACK
6
CONTINUOUS
10
108.17
20
-71.7526
11
108.265
21
-71.6574
0
LINE
8
BLACK
6
CONTINUOUS
10
108.265
20
-71.6574
11
108.361
21
-71.4669
0
LINE
8
BLACK
6
CONTINUOUS
10
109.599
20
-70.6098
11
109.789
21
-70.6098
0
LINE
8
BLACK
6
CONTINUOUS
10
109.789
20
-70.6098
11
109.98
21
-70.705
0
LINE
8
BLACK
6
CONTINUOUS
10
109.98
20
-70.705
11
110.075
21
-70.8002
0
LINE
8
BLACK
6
CONTINUOUS
10
110.075
20
-70.8002
11
110.17
21
-70.9907
0
LINE
8
BLACK
6
CONTINUOUS
10
110.17
20
-70.9907
11
110.265
21
-71.3717
0
LINE
8
BLACK
6
CONTINUOUS
10
110.265
20
-71.3717
11
110.265
21
-71.8479
0
LINE
8
BLACK
6
CONTINUOUS
10
110.265
20
-71.8479
11
110.17
21
-72.2288
0
LINE
8
BLACK
6
CONTINUOUS
10
110.17
20
-72.2288
11
110.075
21
-72.4193
0
LINE
8
BLACK
6
CONTINUOUS
10
110.075
20
-72.4193
11
109.98
21
-72.5145
0
LINE
8
BLACK
6
CONTINUOUS
10
109.98
20
-72.5145
11
109.789
21
-72.6098
0
LINE
8
BLACK
6
CONTINUOUS
10
109.789
20
-72.6098
11
109.599
21
-72.6098
0
LINE
8
BLACK
6
CONTINUOUS
10
109.599
20
-72.6098
11
109.408
21
-72.5145
0
LINE
8
BLACK
6
CONTINUOUS
10
109.408
20
-72.5145
11
109.313
21
-72.4193
0
LINE
8
BLACK
6
CONTINUOUS
10
109.313
20
-72.4193
11
109.218
21
-72.2288
0
LINE
8
BLACK
6
CONTINUOUS
10
109.218
20
-72.2288
11
109.123
21
-71.8479
0
LINE
8
BLACK
6
CONTINUOUS
10
109.123
20
-71.8479
11
109.123
21
-71.3717
0
LINE
8
BLACK
6
CONTINUOUS
10
109.123
20
-71.3717
11
109.218
21
-70.9907
0
LINE
8
BLACK
6
CONTINUOUS
10
109.218
20
-70.9907
11
109.313
21
-70.8002
0
LINE
8
BLACK
6
CONTINUOUS
10
109.313
20
-70.8002
11
109.408
21
-70.705
0
LINE
8
BLACK
6
CONTINUOUS
10
109.408
20
-70.705
11
109.599
21
-70.6098
0
LINE
8
BLACK
6
CONTINUOUS
10
111.123
20
-72.6098
11
111.123
21
-71.2764
0
LINE
8
BLACK
6
CONTINUOUS
10
111.123
20
-71.4669
11
111.218
21
-71.3717
0
LINE
8
BLACK
6
CONTINUOUS
10
111.218
20
-71.3717
11
111.408
21
-71.2764
0
LINE
8
BLACK
6
CONTINUOUS
10
111.408
20
-71.2764
11
111.694
21
-71.2764
0
LINE
8
BLACK
6
CONTINUOUS
10
111.694
20
-71.2764
11
111.885
21
-71.3717
0
LINE
8
BLACK
6
CONTINUOUS
10
111.885
20
-71.3717
11
111.98
21
-71.5621
0
LINE
8
BLACK
6
CONTINUOUS
10
111.98
20
-71.5621
11
111.98
21
-72.6098
0
LINE
8
BLACK
6
CONTINUOUS
10
111.98
20
-71.5621
11
112.075
21
-71.3717
0
LINE
8
BLACK
6
CONTINUOUS
10
112.075
20
-71.3717
11
112.265
21
-71.2764
0
LINE
8
BLACK
6
CONTINUOUS
10
112.265
20
-71.2764
11
112.551
21
-71.2764
0
LINE
8
BLACK
6
CONTINUOUS
10
112.551
20
-71.2764
11
112.742
21
-71.3717
0
LINE
8
BLACK
6
CONTINUOUS
10
112.742
20
-71.3717
11
112.837
21
-71.5621
0
LINE
8
BLACK
6
CONTINUOUS
10
112.837
20
-71.5621
11
112.837
21
-72.6098
0
LINE
8
BLACK
6
CONTINUOUS
10
113.789
20
-72.6098
11
113.789
21
-71.2764
0
LINE
8
BLACK
6
CONTINUOUS
10
113.789
20
-71.4669
11
113.885
21
-71.3717
0
LINE
8
BLACK
6
CONTINUOUS
10
113.885
20
-71.3717
11
114.075
21
-71.2764
0
LINE
8
BLACK
6
CONTINUOUS
10
114.075
20
-71.2764
11
114.361
21
-71.2764
0
LINE
8
BLACK
6
CONTINUOUS
10
114.361
20
-71.2764
11
114.551
21
-71.3717
0
LINE
8
BLACK
6
CONTINUOUS
10
114.551
20
-71.3717
11
114.646
21
-71.5621
0
LINE
8
BLACK
6
CONTINUOUS
10
114.646
20
-71.5621
11
114.646
21
-72.6098
0
LINE
8
BLACK
6
CONTINUOUS
10
114.646
20
-71.5621
11
114.742
21
-71.3717
0
LINE
8
BLACK
6
CONTINUOUS
10
114.742
20
-71.3717
11
114.932
21
-71.2764
0
LINE
8
BLACK
6
CONTINUOUS
10
114.932
20
-71.2764
11
115.218
21
-71.2764
0
LINE
8
BLACK
6
CONTINUOUS
10
115.218
20
-71.2764
11
115.408
21
-71.3717
0
LINE
8
BLACK
6
CONTINUOUS
10
115.408
20
-71.3717
11
115.504
21
-71.5621
0
LINE
8
BLACK
6
CONTINUOUS
10
115.504
20
-71.5621
11
115.504
21
-72.6098
0
LINE
8
BLACK
6
CONTINUOUS
10
119.408
20
-70.5145
11
117.694
21
-73.086
0
LINE
8
BLACK
6
CONTINUOUS
10
121.98
20
-70.6098
11
122.17
21
-70.6098
0
LINE
8
BLACK
6
CONTINUOUS
10
122.17
20
-70.6098
11
122.361
21
-70.705
0
LINE
8
BLACK
6
CONTINUOUS
10
122.361
20
-70.705
11
122.456
21
-70.8002
0
LINE
8
BLACK
6
CONTINUOUS
10
122.456
20
-70.8002
11
122.551
21
-70.9907
0
LINE
8
BLACK
6
CONTINUOUS
10
122.551
20
-70.9907
11
122.646
21
-71.3717
0
LINE
8
BLACK
6
CONTINUOUS
10
122.646
20
-71.3717
11
122.646
21
-71.8479
0
LINE
8
BLACK
6
CONTINUOUS
10
122.646
20
-71.8479
11
122.551
21
-72.2288
0
LINE
8
BLACK
6
CONTINUOUS
10
122.551
20
-72.2288
11
122.456
21
-72.4193
0
LINE
8
BLACK
6
CONTINUOUS
10
122.456
20
-72.4193
11
122.361
21
-72.5145
0
LINE
8
BLACK
6
CONTINUOUS
10
122.361
20
-72.5145
11
122.17
21
-72.6098
0
LINE
8
BLACK
6
CONTINUOUS
10
122.17
20
-72.6098
11
121.98
21
-72.6098
0
LINE
8
BLACK
6
CONTINUOUS
10
121.98
20
-72.6098
11
121.789
21
-72.5145
0
LINE
8
BLACK
6
CONTINUOUS
10
121.789
20
-72.5145
11
121.694
21
-72.4193
0
LINE
8
BLACK
6
CONTINUOUS
10
121.694
20
-72.4193
11
121.599
21
-72.2288
0
LINE
8
BLACK
6
CONTINUOUS
10
121.599
20
-72.2288
11
121.504
21
-71.8479
0
LINE
8
BLACK
6
CONTINUOUS
10
121.504
20
-71.8479
11
121.504
21
-71.3717
0
LINE
8
BLACK
6
CONTINUOUS
10
121.504
20
-71.3717
11
121.599
21
-70.9907
0
LINE
8
BLACK
6
CONTINUOUS
10
121.599
20
-70.9907
11
121.694
21
-70.8002
0
LINE
8
BLACK
6
CONTINUOUS
10
121.694
20
-70.8002
11
121.789
21
-70.705
0
LINE
8
BLACK
6
CONTINUOUS
10
121.789
20
-70.705
11
121.98
21
-70.6098
0
LINE
8
BLACK
6
CONTINUOUS
10
123.504
20
-72.4193
11
123.599
21
-72.5145
0
LINE
8
BLACK
6
CONTINUOUS
10
123.599
20
-72.5145
11
123.504
21
-72.6098
0
LINE
8
BLACK
6
CONTINUOUS
10
123.504
20
-72.6098
11
123.408
21
-72.5145
0
LINE
8
BLACK
6
CONTINUOUS
10
123.408
20
-72.5145
11
123.504
21
-72.4193
0
LINE
8
BLACK
6
CONTINUOUS
10
123.504
20
-72.4193
11
123.504
21
-72.6098
0
LINE
8
BLACK
6
CONTINUOUS
10
124.837
20
-70.6098
11
125.027
21
-70.6098
0
LINE
8
BLACK
6
CONTINUOUS
10
125.027
20
-70.6098
11
125.218
21
-70.705
0
LINE
8
BLACK
6
CONTINUOUS
10
125.218
20
-70.705
11
125.313
21
-70.8002
0
LINE
8
BLACK
6
CONTINUOUS
10
125.313
20
-70.8002
11
125.408
21
-70.9907
0
LINE
8
BLACK
6
CONTINUOUS
10
125.408
20
-70.9907
11
125.504
21
-71.3717
0
LINE
8
BLACK
6
CONTINUOUS
10
125.504
20
-71.3717
11
125.504
21
-71.8479
0
LINE
8
BLACK
6
CONTINUOUS
10
125.504
20
-71.8479
11
125.408
21
-72.2288
0
LINE
8
BLACK
6
CONTINUOUS
10
125.408
20
-72.2288
11
125.313
21
-72.4193
0
LINE
8
BLACK
6
CONTINUOUS
10
125.313
20
-72.4193
11
125.218
21
-72.5145
0
LINE
8
BLACK
6
CONTINUOUS
10
125.218
20
-72.5145
11
125.027
21
-72.6098
0
LINE
8
BLACK
6
CONTINUOUS
10
125.027
20
-72.6098
11
124.837
21
-72.6098
0
LINE
8
BLACK
6
CONTINUOUS
10
124.837
20
-72.6098
11
124.646
21
-72.5145
0
LINE
8
BLACK
6
CONTINUOUS
10
124.646
20
-72.5145
11
124.551
21
-72.4193
0
LINE
8
BLACK
6
CONTINUOUS
10
124.551
20
-72.4193
11
124.456
21
-72.2288
0
LINE
8
BLACK
6
CONTINUOUS
10
124.456
20
-72.2288
11
124.361
21
-71.8479
0
LINE
8
BLACK
6
CONTINUOUS
10
124.361
20
-71.8479
11
124.361
21
-71.3717
0
LINE
8
BLACK
6
CONTINUOUS
10
124.361
20
-71.3717
11
124.456
21
-70.9907
0
LINE
8
BLACK
6
CONTINUOUS
10
124.456
20
-70.9907
11
124.551
21
-70.8002
0
LINE
8
BLACK
6
CONTINUOUS
10
124.551
20
-70.8002
11
124.646
21
-70.705
0
LINE
8
BLACK
6
CONTINUOUS
10
124.646
20
-70.705
11
124.837
21
-70.6098
0
LINE
8
BLACK
6
CONTINUOUS
10
126.17
20
-70.6098
11
127.408
21
-70.6098
0
LINE
8
BLACK
6
CONTINUOUS
10
127.408
20
-70.6098
11
126.742
21
-71.3717
0
LINE
8
BLACK
6
CONTINUOUS
10
126.742
20
-71.3717
11
127.027
21
-71.3717
0
LINE
8
BLACK
6
CONTINUOUS
10
127.027
20
-71.3717
11
127.218
21
-71.4669
0
LINE
8
BLACK
6
CONTINUOUS
10
127.218
20
-71.4669
11
127.313
21
-71.5621
0
LINE
8
BLACK
6
CONTINUOUS
10
127.313
20
-71.5621
11
127.408
21
-71.7526
0
LINE
8
BLACK
6
CONTINUOUS
10
127.408
20
-71.7526
11
127.408
21
-72.2288
0
LINE
8
BLACK
6
CONTINUOUS
10
127.408
20
-72.2288
11
127.313
21
-72.4193
0
LINE
8
BLACK
6
CONTINUOUS
10
127.313
20
-72.4193
11
127.218
21
-72.5145
0
LINE
8
BLACK
6
CONTINUOUS
10
127.218
20
-72.5145
11
127.027
21
-72.6098
0
LINE
8
BLACK
6
CONTINUOUS
10
127.027
20
-72.6098
11
126.456
21
-72.6098
0
LINE
8
BLACK
6
CONTINUOUS
10
126.456
20
-72.6098
11
126.265
21
-72.5145
0
LINE
8
BLACK
6
CONTINUOUS
10
126.265
20
-72.5145
11
126.17
21
-72.4193
0
LINE
8
BLACK
6
CONTINUOUS
10
128.361
20
-72.6098
11
128.742
21
-72.6098
0
LINE
8
BLACK
6
CONTINUOUS
10
128.742
20
-72.6098
11
128.932
21
-72.5145
0
LINE
8
BLACK
6
CONTINUOUS
10
128.932
20
-72.5145
11
129.027
21
-72.4193
0
LINE
8
BLACK
6
CONTINUOUS
10
129.027
20
-72.4193
11
129.218
21
-72.1336
0
LINE
8
BLACK
6
CONTINUOUS
10
129.218
20
-72.1336
11
129.313
21
-71.7526
0
LINE
8
BLACK
6
CONTINUOUS
10
129.313
20
-71.7526
11
129.313
21
-70.9907
0
LINE
8
BLACK
6
CONTINUOUS
10
129.313
20
-70.9907
11
129.218
21
-70.8002
0
LINE
8
BLACK
6
CONTINUOUS
10
129.218
20
-70.8002
11
129.123
21
-70.705
0
LINE
8
BLACK
6
CONTINUOUS
10
129.123
20
-70.705
11
128.932
21
-70.6098
0
LINE
8
BLACK
6
CONTINUOUS
10
128.932
20
-70.6098
11
128.551
21
-70.6098
0
LINE
8
BLACK
6
CONTINUOUS
10
128.551
20
-70.6098
11
128.361
21
-70.705
0
LINE
8
BLACK
6
CONTINUOUS
10
128.361
20
-70.705
11
128.265
21
-70.8002
0
LINE
8
BLACK
6
CONTINUOUS
10
128.265
20
-70.8002
11
128.17
21
-70.9907
0
LINE
8
BLACK
6
CONTINUOUS
10
128.17
20
-70.9907
11
128.17
21
-71.4669
0
LINE
8
BLACK
6
CONTINUOUS
10
128.17
20
-71.4669
11
128.265
21
-71.6574
0
LINE
8
BLACK
6
CONTINUOUS
10
128.265
20
-71.6574
11
128.361
21
-71.7526
0
LINE
8
BLACK
6
CONTINUOUS
10
128.361
20
-71.7526
11
128.551
21
-71.8479
0
LINE
8
BLACK
6
CONTINUOUS
10
128.551
20
-71.8479
11
128.932
21
-71.8479
0
LINE
8
BLACK
6
CONTINUOUS
10
128.932
20
-71.8479
11
129.123
21
-71.7526
0
LINE
8
BLACK
6
CONTINUOUS
10
129.123
20
-71.7526
11
129.218
21
-71.6574
0
LINE
8
BLACK
6
CONTINUOUS
10
129.218
20
-71.6574
11
129.313
21
-71.4669
0
LINE
8
BLACK
6
CONTINUOUS
10
130.551
20
-70.6098
11
130.742
21
-70.6098
0
LINE
8
BLACK
6
CONTINUOUS
10
130.742
20
-70.6098
11
130.932
21
-70.705
0
LINE
8
BLACK
6
CONTINUOUS
10
130.932
20
-70.705
11
131.027
21
-70.8002
0
LINE
8
BLACK
6
CONTINUOUS
10
131.027
20
-70.8002
11
131.123
21
-70.9907
0
LINE
8
BLACK
6
CONTINUOUS
10
131.123
20
-70.9907
11
131.218
21
-71.3717
0
LINE
8
BLACK
6
CONTINUOUS
10
131.218
20
-71.3717
11
131.218
21
-71.8479
0
LINE
8
BLACK
6
CONTINUOUS
10
131.218
20
-71.8479
11
131.123
21
-72.2288
0
LINE
8
BLACK
6
CONTINUOUS
10
131.123
20
-72.2288
11
131.027
21
-72.4193
0
LINE
8
BLACK
6
CONTINUOUS
10
131.027
20
-72.4193
11
130.932
21
-72.5145
0
LINE
8
BLACK
6
CONTINUOUS
10
130.932
20
-72.5145
11
130.742
21
-72.6098
0
LINE
8
BLACK
6
CONTINUOUS
10
130.742
20
-72.6098
11
130.551
21
-72.6098
0
LINE
8
BLACK
6
CONTINUOUS
10
130.551
20
-72.6098
11
130.361
21
-72.5145
0
LINE
8
BLACK
6
CONTINUOUS
10
130.361
20
-72.5145
11
130.265
21
-72.4193
0
LINE
8
BLACK
6
CONTINUOUS
10
130.265
20
-72.4193
11
130.17
21
-72.2288
0
LINE
8
BLACK
6
CONTINUOUS
10
130.17
20
-72.2288
11
130.075
21
-71.8479
0
LINE
8
BLACK
6
CONTINUOUS
10
130.075
20
-71.8479
11
130.075
21
-71.3717
0
LINE
8
BLACK
6
CONTINUOUS
10
130.075
20
-71.3717
11
130.17
21
-70.9907
0
LINE
8
BLACK
6
CONTINUOUS
10
130.17
20
-70.9907
11
130.265
21
-70.8002
0
LINE
8
BLACK
6
CONTINUOUS
10
130.265
20
-70.8002
11
130.361
21
-70.705
0
LINE
8
BLACK
6
CONTINUOUS
10
130.361
20
-70.705
11
130.551
21
-70.6098
0
LINE
8
BLACK
6
CONTINUOUS
10
131.98
20
-70.6098
11
131.98
21
-70.9907
0
LINE
8
BLACK
6
CONTINUOUS
10
132.742
20
-70.6098
11
132.742
21
-70.9907
0
LINE
8
BLACK
6
CONTINUOUS
10
135.694
20
-73.3717
11
135.599
21
-73.2764
0
LINE
8
BLACK
6
CONTINUOUS
10
135.599
20
-73.2764
11
135.408
21
-72.9907
0
LINE
8
BLACK
6
CONTINUOUS
10
135.408
20
-72.9907
11
135.313
21
-72.8002
0
LINE
8
BLACK
6
CONTINUOUS
10
135.313
20
-72.8002
11
135.218
21
-72.5145
0
LINE
8
BLACK
6
CONTINUOUS
10
135.218
20
-72.5145
11
135.123
21
-72.0383
0
LINE
8
BLACK
6
CONTINUOUS
10
135.123
20
-72.0383
11
135.123
21
-71.6574
0
LINE
8
BLACK
6
CONTINUOUS
10
135.123
20
-71.6574
11
135.218
21
-71.1812
0
LINE
8
BLACK
6
CONTINUOUS
10
135.218
20
-71.1812
11
135.313
21
-70.8955
0
LINE
8
BLACK
6
CONTINUOUS
10
135.313
20
-70.8955
11
135.408
21
-70.705
0
LINE
8
BLACK
6
CONTINUOUS
10
135.408
20
-70.705
11
135.599
21
-70.4193
0
LINE
8
BLACK
6
CONTINUOUS
10
135.599
20
-70.4193
11
135.694
21
-70.324
0
LINE
8
BLACK
6
CONTINUOUS
10
136.361
20
-70.8002
11
136.456
21
-70.705
0
LINE
8
BLACK
6
CONTINUOUS
10
136.456
20
-70.705
11
136.646
21
-70.6098
0
LINE
8
BLACK
6
CONTINUOUS
10
136.646
20
-70.6098
11
137.123
21
-70.6098
0
LINE
8
BLACK
6
CONTINUOUS
10
137.123
20
-70.6098
11
137.313
21
-70.705
0
LINE
8
BLACK
6
CONTINUOUS
10
137.313
20
-70.705
11
137.408
21
-70.8002
0
LINE
8
BLACK
6
CONTINUOUS
10
137.408
20
-70.8002
11
137.504
21
-70.9907
0
LINE
8
BLACK
6
CONTINUOUS
10
137.504
20
-70.9907
11
137.504
21
-71.1812
0
LINE
8
BLACK
6
CONTINUOUS
10
137.504
20
-71.1812
11
137.408
21
-71.4669
0
LINE
8
BLACK
6
CONTINUOUS
10
137.408
20
-71.4669
11
136.265
21
-72.6098
0
LINE
8
BLACK
6
CONTINUOUS
10
136.265
20
-72.6098
11
137.504
21
-72.6098
0
LINE
8
BLACK
6
CONTINUOUS
10
139.885
20
-72.6098
11
139.885
21
-70.6098
0
LINE
8
BLACK
6
CONTINUOUS
10
140.742
20
-72.6098
11
140.742
21
-71.5621
0
LINE
8
BLACK
6
CONTINUOUS
10
140.742
20
-71.5621
11
140.646
21
-71.3717
0
LINE
8
BLACK
6
CONTINUOUS
10
140.646
20
-71.3717
11
140.456
21
-71.2764
0
LINE
8
BLACK
6
CONTINUOUS
10
140.456
20
-71.2764
11
140.17
21
-71.2764
0
LINE
8
BLACK
6
CONTINUOUS
10
140.17
20
-71.2764
11
139.98
21
-71.3717
0
LINE
8
BLACK
6
CONTINUOUS
10
139.98
20
-71.3717
11
139.885
21
-71.4669
0
LINE
8
BLACK
6
CONTINUOUS
10
141.98
20
-72.6098
11
141.789
21
-72.5145
0
LINE
8
BLACK
6
CONTINUOUS
10
141.789
20
-72.5145
11
141.694
21
-72.4193
0
LINE
8
BLACK
6
CONTINUOUS
10
141.694
20
-72.4193
11
141.599
21
-72.2288
0
LINE
8
BLACK
6
CONTINUOUS
10
141.599
20
-72.2288
11
141.599
21
-71.6574
0
LINE
8
BLACK
6
CONTINUOUS
10
141.599
20
-71.6574
11
141.694
21
-71.4669
0
LINE
8
BLACK
6
CONTINUOUS
10
141.694
20
-71.4669
11
141.789
21
-71.3717
0
LINE
8
BLACK
6
CONTINUOUS
10
141.789
20
-71.3717
11
141.98
21
-71.2764
0
LINE
8
BLACK
6
CONTINUOUS
10
141.98
20
-71.2764
11
142.265
21
-71.2764
0
LINE
8
BLACK
6
CONTINUOUS
10
142.265
20
-71.2764
11
142.456
21
-71.3717
0
LINE
8
BLACK
6
CONTINUOUS
10
142.456
20
-71.3717
11
142.551
21
-71.4669
0
LINE
8
BLACK
6
CONTINUOUS
10
142.551
20
-71.4669
11
142.646
21
-71.6574
0
LINE
8
BLACK
6
CONTINUOUS
10
142.646
20
-71.6574
11
142.646
21
-72.2288
0
LINE
8
BLACK
6
CONTINUOUS
10
142.646
20
-72.2288
11
142.551
21
-72.4193
0
LINE
8
BLACK
6
CONTINUOUS
10
142.551
20
-72.4193
11
142.456
21
-72.5145
0
LINE
8
BLACK
6
CONTINUOUS
10
142.456
20
-72.5145
11
142.265
21
-72.6098
0
LINE
8
BLACK
6
CONTINUOUS
10
142.265
20
-72.6098
11
141.98
21
-72.6098
0
LINE
8
BLACK
6
CONTINUOUS
10
143.789
20
-72.6098
11
143.599
21
-72.5145
0
LINE
8
BLACK
6
CONTINUOUS
10
143.599
20
-72.5145
11
143.504
21
-72.324
0
LINE
8
BLACK
6
CONTINUOUS
10
143.504
20
-72.324
11
143.504
21
-70.6098
0
LINE
8
BLACK
6
CONTINUOUS
10
145.313
20
-72.5145
11
145.123
21
-72.6098
0
LINE
8
BLACK
6
CONTINUOUS
10
145.123
20
-72.6098
11
144.742
21
-72.6098
0
LINE
8
BLACK
6
CONTINUOUS
10
144.742
20
-72.6098
11
144.551
21
-72.5145
0
LINE
8
BLACK
6
CONTINUOUS
10
144.551
20
-72.5145
11
144.456
21
-72.324
0
LINE
8
BLACK
6
CONTINUOUS
10
144.456
20
-72.324
11
144.456
21
-71.5621
0
LINE
8
BLACK
6
CONTINUOUS
10
144.456
20
-71.5621
11
144.551
21
-71.3717
0
LINE
8
BLACK
6
CONTINUOUS
10
144.551
20
-71.3717
11
144.742
21
-71.2764
0
LINE
8
BLACK
6
CONTINUOUS
10
144.742
20
-71.2764
11
145.123
21
-71.2764
0
LINE
8
BLACK
6
CONTINUOUS
10
145.123
20
-71.2764
11
145.313
21
-71.3717
0
LINE
8
BLACK
6
CONTINUOUS
10
145.313
20
-71.3717
11
145.408
21
-71.5621
0
LINE
8
BLACK
6
CONTINUOUS
10
145.408
20
-71.5621
11
145.408
21
-71.7526
0
LINE
8
BLACK
6
CONTINUOUS
10
145.408
20
-71.7526
11
144.456
21
-71.9431
0
LINE
8
BLACK
6
CONTINUOUS
10
146.17
20
-72.5145
11
146.361
21
-72.6098
0
LINE
8
BLACK
6
CONTINUOUS
10
146.361
20
-72.6098
11
146.742
21
-72.6098
0
LINE
8
BLACK
6
CONTINUOUS
10
146.742
20
-72.6098
11
146.932
21
-72.5145
0
LINE
8
BLACK
6
CONTINUOUS
10
146.932
20
-72.5145
11
147.027
21
-72.324
0
LINE
8
BLACK
6
CONTINUOUS
10
147.027
20
-72.324
11
147.027
21
-72.2288
0
LINE
8
BLACK
6
CONTINUOUS
10
147.027
20
-72.2288
11
146.932
21
-72.0383
0
LINE
8
BLACK
6
CONTINUOUS
10
146.932
20
-72.0383
11
146.742
21
-71.9431
0
LINE
8
BLACK
6
CONTINUOUS
10
146.742
20
-71.9431
11
146.456
21
-71.9431
0
LINE
8
BLACK
6
CONTINUOUS
10
146.456
20
-71.9431
11
146.265
21
-71.8479
0
LINE
8
BLACK
6
CONTINUOUS
10
146.265
20
-71.8479
11
146.17
21
-71.6574
0
LINE
8
BLACK
6
CONTINUOUS
10
146.17
20
-71.6574
11
146.17
21
-71.5621
0
LINE
8
BLACK
6
CONTINUOUS
10
146.17
20
-71.5621
11
146.265
21
-71.3717
0
LINE
8
BLACK
6
CONTINUOUS
10
146.265
20
-71.3717
11
146.456
21
-71.2764
0
LINE
8
BLACK
6
CONTINUOUS
10
146.456
20
-71.2764
11
146.742
21
-71.2764
0
LINE
8
BLACK
6
CONTINUOUS
10
146.742
20
-71.2764
11
146.932
21
-71.3717
0
LINE
8
BLACK
6
CONTINUOUS
10
147.694
20
-73.3717
11
147.789
21
-73.2764
0
LINE
8
BLACK
6
CONTINUOUS
10
147.789
20
-73.2764
11
147.98
21
-72.9907
0
LINE
8
BLACK
6
CONTINUOUS
10
147.98
20
-72.9907
11
148.075
21
-72.8002
0
LINE
8
BLACK
6
CONTINUOUS
10
148.075
20
-72.8002
11
148.17
21
-72.5145
0
LINE
8
BLACK
6
CONTINUOUS
10
148.17
20
-72.5145
11
148.265
21
-72.0383
0
LINE
8
BLACK
6
CONTINUOUS
10
148.265
20
-72.0383
11
148.265
21
-71.6574
0
LINE
8
BLACK
6
CONTINUOUS
10
148.265
20
-71.6574
11
148.17
21
-71.1812
0
LINE
8
BLACK
6
CONTINUOUS
10
148.17
20
-71.1812
11
148.075
21
-70.8955
0
LINE
8
BLACK
6
CONTINUOUS
10
148.075
20
-70.8955
11
147.98
21
-70.705
0
LINE
8
BLACK
6
CONTINUOUS
10
147.98
20
-70.705
11
147.789
21
-70.4193
0
LINE
8
BLACK
6
CONTINUOUS
10
147.789
20
-70.4193
11
147.694
21
-70.324
0
LINE
8
BLACK
6
CONTINUOUS
10
99.8286
20
-74.6986
11
99.8286
21
-73.9914
0
LINE
8
BLACK
6
CONTINUOUS
10
99.8286
20
-73.9914
11
99.1214
21
-73.9914
0
LINE
8
BLACK
6
CONTINUOUS
10
99.1214
20
-73.9914
11
99.1214
21
-74.6986
0
LINE
8
BLACK
6
CONTINUOUS
10
99.1214
20
-74.6986
11
99.8286
21
-74.6986
0
LINE
8
BLACK
6
CONTINUOUS
10
103.599
20
-75.2498
11
102.456
21
-75.2498
0
LINE
8
BLACK
6
CONTINUOUS
10
103.027
20
-75.2498
11
103.027
21
-73.2498
0
LINE
8
BLACK
6
CONTINUOUS
10
103.027
20
-73.2498
11
102.837
21
-73.5355
0
LINE
8
BLACK
6
CONTINUOUS
10
102.837
20
-73.5355
11
102.646
21
-73.726
0
LINE
8
BLACK
6
CONTINUOUS
10
102.646
20
-73.726
11
102.456
21
-73.8212
0
LINE
8
BLACK
6
CONTINUOUS
10
104.456
20
-75.0593
11
104.551
21
-75.1545
0
LINE
8
BLACK
6
CONTINUOUS
10
104.551
20
-75.1545
11
104.456
21
-75.2498
0
LINE
8
BLACK
6
CONTINUOUS
10
104.456
20
-75.2498
11
104.361
21
-75.1545
0
LINE
8
BLACK
6
CONTINUOUS
10
104.361
20
-75.1545
11
104.456
21
-75.0593
0
LINE
8
BLACK
6
CONTINUOUS
10
104.456
20
-75.0593
11
104.456
21
-75.2498
0
LINE
8
BLACK
6
CONTINUOUS
10
105.789
20
-73.2498
11
105.98
21
-73.2498
0
LINE
8
BLACK
6
CONTINUOUS
10
105.98
20
-73.2498
11
106.17
21
-73.345
0
LINE
8
BLACK
6
CONTINUOUS
10
106.17
20
-73.345
11
106.265
21
-73.4402
0
LINE
8
BLACK
6
CONTINUOUS
10
106.265
20
-73.4402
11
106.361
21
-73.6307
0
LINE
8
BLACK
6
CONTINUOUS
10
106.361
20
-73.6307
11
106.456
21
-74.0117
0
LINE
8
BLACK
6
CONTINUOUS
10
106.456
20
-74.0117
11
106.456
21
-74.4879
0
LINE
8
BLACK
6
CONTINUOUS
10
106.456
20
-74.4879
11
106.361
21
-74.8688
0
LINE
8
BLACK
6
CONTINUOUS
10
106.361
20
-74.8688
11
106.265
21
-75.0593
0
LINE
8
BLACK
6
CONTINUOUS
10
106.265
20
-75.0593
11
106.17
21
-75.1545
0
LINE
8
BLACK
6
CONTINUOUS
10
106.17
20
-75.1545
11
105.98
21
-75.2498
0
LINE
8
BLACK
6
CONTINUOUS
10
105.98
20
-75.2498
11
105.789
21
-75.2498
0
LINE
8
BLACK
6
CONTINUOUS
10
105.789
20
-75.2498
11
105.599
21
-75.1545
0
LINE
8
BLACK
6
CONTINUOUS
10
105.599
20
-75.1545
11
105.504
21
-75.0593
0
LINE
8
BLACK
6
CONTINUOUS
10
105.504
20
-75.0593
11
105.408
21
-74.8688
0
LINE
8
BLACK
6
CONTINUOUS
10
105.408
20
-74.8688
11
105.313
21
-74.4879
0
LINE
8
BLACK
6
CONTINUOUS
10
105.313
20
-74.4879
11
105.313
21
-74.0117
0
LINE
8
BLACK
6
CONTINUOUS
10
105.313
20
-74.0117
11
105.408
21
-73.6307
0
LINE
8
BLACK
6
CONTINUOUS
10
105.408
20
-73.6307
11
105.504
21
-73.4402
0
LINE
8
BLACK
6
CONTINUOUS
10
105.504
20
-73.4402
11
105.599
21
-73.345
0
LINE
8
BLACK
6
CONTINUOUS
10
105.599
20
-73.345
11
105.789
21
-73.2498
0
LINE
8
BLACK
6
CONTINUOUS
10
107.694
20
-73.2498
11
107.885
21
-73.2498
0
LINE
8
BLACK
6
CONTINUOUS
10
107.885
20
-73.2498
11
108.075
21
-73.345
0
LINE
8
BLACK
6
CONTINUOUS
10
108.075
20
-73.345
11
108.17
21
-73.4402
0
LINE
8
BLACK
6
CONTINUOUS
10
108.17
20
-73.4402
11
108.265
21
-73.6307
0
LINE
8
BLACK
6
CONTINUOUS
10
108.265
20
-73.6307
11
108.361
21
-74.0117
0
LINE
8
BLACK
6
CONTINUOUS
10
108.361
20
-74.0117
11
108.361
21
-74.4879
0
LINE
8
BLACK
6
CONTINUOUS
10
108.361
20
-74.4879
11
108.265
21
-74.8688
0
LINE
8
BLACK
6
CONTINUOUS
10
108.265
20
-74.8688
11
108.17
21
-75.0593
0
LINE
8
BLACK
6
CONTINUOUS
10
108.17
20
-75.0593
11
108.075
21
-75.1545
0
LINE
8
BLACK
6
CONTINUOUS
10
108.075
20
-75.1545
11
107.885
21
-75.2498
0
LINE
8
BLACK
6
CONTINUOUS
10
107.885
20
-75.2498
11
107.694
21
-75.2498
0
LINE
8
BLACK
6
CONTINUOUS
10
107.694
20
-75.2498
11
107.504
21
-75.1545
0
LINE
8
BLACK
6
CONTINUOUS
10
107.504
20
-75.1545
11
107.408
21
-75.0593
0
LINE
8
BLACK
6
CONTINUOUS
10
107.408
20
-75.0593
11
107.313
21
-74.8688
0
LINE
8
BLACK
6
CONTINUOUS
10
107.313
20
-74.8688
11
107.218
21
-74.4879
0
LINE
8
BLACK
6
CONTINUOUS
10
107.218
20
-74.4879
11
107.218
21
-74.0117
0
LINE
8
BLACK
6
CONTINUOUS
10
107.218
20
-74.0117
11
107.313
21
-73.6307
0
LINE
8
BLACK
6
CONTINUOUS
10
107.313
20
-73.6307
11
107.408
21
-73.4402
0
LINE
8
BLACK
6
CONTINUOUS
10
107.408
20
-73.4402
11
107.504
21
-73.345
0
LINE
8
BLACK
6
CONTINUOUS
10
107.504
20
-73.345
11
107.694
21
-73.2498
0
LINE
8
BLACK
6
CONTINUOUS
10
109.599
20
-73.2498
11
109.789
21
-73.2498
0
LINE
8
BLACK
6
CONTINUOUS
10
109.789
20
-73.2498
11
109.98
21
-73.345
0
LINE
8
BLACK
6
CONTINUOUS
10
109.98
20
-73.345
11
110.075
21
-73.4402
0
LINE
8
BLACK
6
CONTINUOUS
10
110.075
20
-73.4402
11
110.17
21
-73.6307
0
LINE
8
BLACK
6
CONTINUOUS
10
110.17
20
-73.6307
11
110.265
21
-74.0117
0
LINE
8
BLACK
6
CONTINUOUS
10
110.265
20
-74.0117
11
110.265
21
-74.4879
0
LINE
8
BLACK
6
CONTINUOUS
10
110.265
20
-74.4879
11
110.17
21
-74.8688
0
LINE
8
BLACK
6
CONTINUOUS
10
110.17
20
-74.8688
11
110.075
21
-75.0593
0
LINE
8
BLACK
6
CONTINUOUS
10
110.075
20
-75.0593
11
109.98
21
-75.1545
0
LINE
8
BLACK
6
CONTINUOUS
10
109.98
20
-75.1545
11
109.789
21
-75.2498
0
LINE
8
BLACK
6
CONTINUOUS
10
109.789
20
-75.2498
11
109.599
21
-75.2498
0
LINE
8
BLACK
6
CONTINUOUS
10
109.599
20
-75.2498
11
109.408
21
-75.1545
0
LINE
8
BLACK
6
CONTINUOUS
10
109.408
20
-75.1545
11
109.313
21
-75.0593
0
LINE
8
BLACK
6
CONTINUOUS
10
109.313
20
-75.0593
11
109.218
21
-74.8688
0
LINE
8
BLACK
6
CONTINUOUS
10
109.218
20
-74.8688
11
109.123
21
-74.4879
0
LINE
8
BLACK
6
CONTINUOUS
10
109.123
20
-74.4879
11
109.123
21
-74.0117
0
LINE
8
BLACK
6
CONTINUOUS
10
109.123
20
-74.0117
11
109.218
21
-73.6307
0
LINE
8
BLACK
6
CONTINUOUS
10
109.218
20
-73.6307
11
109.313
21
-73.4402
0
LINE
8
BLACK
6
CONTINUOUS
10
109.313
20
-73.4402
11
109.408
21
-73.345
0
LINE
8
BLACK
6
CONTINUOUS
10
109.408
20
-73.345
11
109.599
21
-73.2498
0
LINE
8
BLACK
6
CONTINUOUS
10
111.123
20
-75.2498
11
111.123
21
-73.9164
0
LINE
8
BLACK
6
CONTINUOUS
10
111.123
20
-74.1069
11
111.218
21
-74.0117
0
LINE
8
BLACK
6
CONTINUOUS
10
111.218
20
-74.0117
11
111.408
21
-73.9164
0
LINE
8
BLACK
6
CONTINUOUS
10
111.408
20
-73.9164
11
111.694
21
-73.9164
0
LINE
8
BLACK
6
CONTINUOUS
10
111.694
20
-73.9164
11
111.885
21
-74.0117
0
LINE
8
BLACK
6
CONTINUOUS
10
111.885
20
-74.0117
11
111.98
21
-74.2021
0
LINE
8
BLACK
6
CONTINUOUS
10
111.98
20
-74.2021
11
111.98
21
-75.2498
0
LINE
8
BLACK
6
CONTINUOUS
10
111.98
20
-74.2021
11
112.075
21
-74.0117
0
LINE
8
BLACK
6
CONTINUOUS
10
112.075
20
-74.0117
11
112.265
21
-73.9164
0
LINE
8
BLACK
6
CONTINUOUS
10
112.265
20
-73.9164
11
112.551
21
-73.9164
0
LINE
8
BLACK
6
CONTINUOUS
10
112.551
20
-73.9164
11
112.742
21
-74.0117
0
LINE
8
BLACK
6
CONTINUOUS
10
112.742
20
-74.0117
11
112.837
21
-74.2021
0
LINE
8
BLACK
6
CONTINUOUS
10
112.837
20
-74.2021
11
112.837
21
-75.2498
0
LINE
8
BLACK
6
CONTINUOUS
10
113.789
20
-75.2498
11
113.789
21
-73.9164
0
LINE
8
BLACK
6
CONTINUOUS
10
113.789
20
-74.1069
11
113.885
21
-74.0117
0
LINE
8
BLACK
6
CONTINUOUS
10
113.885
20
-74.0117
11
114.075
21
-73.9164
0
LINE
8
BLACK
6
CONTINUOUS
10
114.075
20
-73.9164
11
114.361
21
-73.9164
0
LINE
8
BLACK
6
CONTINUOUS
10
114.361
20
-73.9164
11
114.551
21
-74.0117
0
LINE
8
BLACK
6
CONTINUOUS
10
114.551
20
-74.0117
11
114.646
21
-74.2021
0
LINE
8
BLACK
6
CONTINUOUS
10
114.646
20
-74.2021
11
114.646
21
-75.2498
0
LINE
8
BLACK
6
CONTINUOUS
10
114.646
20
-74.2021
11
114.742
21
-74.0117
0
LINE
8
BLACK
6
CONTINUOUS
10
114.742
20
-74.0117
11
114.932
21
-73.9164
0
LINE
8
BLACK
6
CONTINUOUS
10
114.932
20
-73.9164
11
115.218
21
-73.9164
0
LINE
8
BLACK
6
CONTINUOUS
10
115.218
20
-73.9164
11
115.408
21
-74.0117
0
LINE
8
BLACK
6
CONTINUOUS
10
115.408
20
-74.0117
11
115.504
21
-74.2021
0
LINE
8
BLACK
6
CONTINUOUS
10
115.504
20
-74.2021
11
115.504
21
-75.2498
0
LINE
8
BLACK
6
CONTINUOUS
10
119.408
20
-73.1545
11
117.694
21
-75.726
0
LINE
8
BLACK
6
CONTINUOUS
10
121.98
20
-73.2498
11
122.17
21
-73.2498
0
LINE
8
BLACK
6
CONTINUOUS
10
122.17
20
-73.2498
11
122.361
21
-73.345
0
LINE
8
BLACK
6
CONTINUOUS
10
122.361
20
-73.345
11
122.456
21
-73.4402
0
LINE
8
BLACK
6
CONTINUOUS
10
122.456
20
-73.4402
11
122.551
21
-73.6307
0
LINE
8
BLACK
6
CONTINUOUS
10
122.551
20
-73.6307
11
122.646
21
-74.0117
0
LINE
8
BLACK
6
CONTINUOUS
10
122.646
20
-74.0117
11
122.646
21
-74.4879
0
LINE
8
BLACK
6
CONTINUOUS
10
122.646
20
-74.4879
11
122.551
21
-74.8688
0
LINE
8
BLACK
6
CONTINUOUS
10
122.551
20
-74.8688
11
122.456
21
-75.0593
0
LINE
8
BLACK
6
CONTINUOUS
10
122.456
20
-75.0593
11
122.361
21
-75.1545
0
LINE
8
BLACK
6
CONTINUOUS
10
122.361
20
-75.1545
11
122.17
21
-75.2498
0
LINE
8
BLACK
6
CONTINUOUS
10
122.17
20
-75.2498
11
121.98
21
-75.2498
0
LINE
8
BLACK
6
CONTINUOUS
10
121.98
20
-75.2498
11
121.789
21
-75.1545
0
LINE
8
BLACK
6
CONTINUOUS
10
121.789
20
-75.1545
11
121.694
21
-75.0593
0
LINE
8
BLACK
6
CONTINUOUS
10
121.694
20
-75.0593
11
121.599
21
-74.8688
0
LINE
8
BLACK
6
CONTINUOUS
10
121.599
20
-74.8688
11
121.504
21
-74.4879
0
LINE
8
BLACK
6
CONTINUOUS
10
121.504
20
-74.4879
11
121.504
21
-74.0117
0
LINE
8
BLACK
6
CONTINUOUS
10
121.504
20
-74.0117
11
121.599
21
-73.6307
0
LINE
8
BLACK
6
CONTINUOUS
10
121.599
20
-73.6307
11
121.694
21
-73.4402
0
LINE
8
BLACK
6
CONTINUOUS
10
121.694
20
-73.4402
11
121.789
21
-73.345
0
LINE
8
BLACK
6
CONTINUOUS
10
121.789
20
-73.345
11
121.98
21
-73.2498
0
LINE
8
BLACK
6
CONTINUOUS
10
123.504
20
-75.0593
11
123.599
21
-75.1545
0
LINE
8
BLACK
6
CONTINUOUS
10
123.599
20
-75.1545
11
123.504
21
-75.2498
0
LINE
8
BLACK
6
CONTINUOUS
10
123.504
20
-75.2498
11
123.408
21
-75.1545
0
LINE
8
BLACK
6
CONTINUOUS
10
123.408
20
-75.1545
11
123.504
21
-75.0593
0
LINE
8
BLACK
6
CONTINUOUS
10
123.504
20
-75.0593
11
123.504
21
-75.2498
0
LINE
8
BLACK
6
CONTINUOUS
10
124.837
20
-73.2498
11
125.027
21
-73.2498
0
LINE
8
BLACK
6
CONTINUOUS
10
125.027
20
-73.2498
11
125.218
21
-73.345
0
LINE
8
BLACK
6
CONTINUOUS
10
125.218
20
-73.345
11
125.313
21
-73.4402
0
LINE
8
BLACK
6
CONTINUOUS
10
125.313
20
-73.4402
11
125.408
21
-73.6307
0
LINE
8
BLACK
6
CONTINUOUS
10
125.408
20
-73.6307
11
125.504
21
-74.0117
0
LINE
8
BLACK
6
CONTINUOUS
10
125.504
20
-74.0117
11
125.504
21
-74.4879
0
LINE
8
BLACK
6
CONTINUOUS
10
125.504
20
-74.4879
11
125.408
21
-74.8688
0
LINE
8
BLACK
6
CONTINUOUS
10
125.408
20
-74.8688
11
125.313
21
-75.0593
0
LINE
8
BLACK
6
CONTINUOUS
10
125.313
20
-75.0593
11
125.218
21
-75.1545
0
LINE
8
BLACK
6
CONTINUOUS
10
125.218
20
-75.1545
11
125.027
21
-75.2498
0
LINE
8
BLACK
6
CONTINUOUS
10
125.027
20
-75.2498
11
124.837
21
-75.2498
0
LINE
8
BLACK
6
CONTINUOUS
10
124.837
20
-75.2498
11
124.646
21
-75.1545
0
LINE
8
BLACK
6
CONTINUOUS
10
124.646
20
-75.1545
11
124.551
21
-75.0593
0
LINE
8
BLACK
6
CONTINUOUS
10
124.551
20
-75.0593
11
124.456
21
-74.8688
0
LINE
8
BLACK
6
CONTINUOUS
10
124.456
20
-74.8688
11
124.361
21
-74.4879
0
LINE
8
BLACK
6
CONTINUOUS
10
124.361
20
-74.4879
11
124.361
21
-74.0117
0
LINE
8
BLACK
6
CONTINUOUS
10
124.361
20
-74.0117
11
124.456
21
-73.6307
0
LINE
8
BLACK
6
CONTINUOUS
10
124.456
20
-73.6307
11
124.551
21
-73.4402
0
LINE
8
BLACK
6
CONTINUOUS
10
124.551
20
-73.4402
11
124.646
21
-73.345
0
LINE
8
BLACK
6
CONTINUOUS
10
124.646
20
-73.345
11
124.837
21
-73.2498
0
LINE
8
BLACK
6
CONTINUOUS
10
126.17
20
-73.2498
11
127.408
21
-73.2498
0
LINE
8
BLACK
6
CONTINUOUS
10
127.408
20
-73.2498
11
126.742
21
-74.0117
0
LINE
8
BLACK
6
CONTINUOUS
10
126.742
20
-74.0117
11
127.027
21
-74.0117
0
LINE
8
BLACK
6
CONTINUOUS
10
127.027
20
-74.0117
11
127.218
21
-74.1069
0
LINE
8
BLACK
6
CONTINUOUS
10
127.218
20
-74.1069
11
127.313
21
-74.2021
0
LINE
8
BLACK
6
CONTINUOUS
10
127.313
20
-74.2021
11
127.408
21
-74.3926
0
LINE
8
BLACK
6
CONTINUOUS
10
127.408
20
-74.3926
11
127.408
21
-74.8688
0
LINE
8
BLACK
6
CONTINUOUS
10
127.408
20
-74.8688
11
127.313
21
-75.0593
0
LINE
8
BLACK
6
CONTINUOUS
10
127.313
20
-75.0593
11
127.218
21
-75.1545
0
LINE
8
BLACK
6
CONTINUOUS
10
127.218
20
-75.1545
11
127.027
21
-75.2498
0
LINE
8
BLACK
6
CONTINUOUS
10
127.027
20
-75.2498
11
126.456
21
-75.2498
0
LINE
8
BLACK
6
CONTINUOUS
10
126.456
20
-75.2498
11
126.265
21
-75.1545
0
LINE
8
BLACK
6
CONTINUOUS
10
126.265
20
-75.1545
11
126.17
21
-75.0593
0
LINE
8
BLACK
6
CONTINUOUS
10
128.361
20
-75.2498
11
128.742
21
-75.2498
0
LINE
8
BLACK
6
CONTINUOUS
10
128.742
20
-75.2498
11
128.932
21
-75.1545
0
LINE
8
BLACK
6
CONTINUOUS
10
128.932
20
-75.1545
11
129.027
21
-75.0593
0
LINE
8
BLACK
6
CONTINUOUS
10
129.027
20
-75.0593
11
129.218
21
-74.7736
0
LINE
8
BLACK
6
CONTINUOUS
10
129.218
20
-74.7736
11
129.313
21
-74.3926
0
LINE
8
BLACK
6
CONTINUOUS
10
129.313
20
-74.3926
11
129.313
21
-73.6307
0
LINE
8
BLACK
6
CONTINUOUS
10
129.313
20
-73.6307
11
129.218
21
-73.4402
0
LINE
8
BLACK
6
CONTINUOUS
10
129.218
20
-73.4402
11
129.123
21
-73.345
0
LINE
8
BLACK
6
CONTINUOUS
10
129.123
20
-73.345
11
128.932
21
-73.2498
0
LINE
8
BLACK
6
CONTINUOUS
10
128.932
20
-73.2498
11
128.551
21
-73.2498
0
LINE
8
BLACK
6
CONTINUOUS
10
128.551
20
-73.2498
11
128.361
21
-73.345
0
LINE
8
BLACK
6
CONTINUOUS
10
128.361
20
-73.345
11
128.265
21
-73.4402
0
LINE
8
BLACK
6
CONTINUOUS
10
128.265
20
-73.4402
11
128.17
21
-73.6307
0
LINE
8
BLACK
6
CONTINUOUS
10
128.17
20
-73.6307
11
128.17
21
-74.1069
0
LINE
8
BLACK
6
CONTINUOUS
10
128.17
20
-74.1069
11
128.265
21
-74.2974
0
LINE
8
BLACK
6
CONTINUOUS
10
128.265
20
-74.2974
11
128.361
21
-74.3926
0
LINE
8
BLACK
6
CONTINUOUS
10
128.361
20
-74.3926
11
128.551
21
-74.4879
0
LINE
8
BLACK
6
CONTINUOUS
10
128.551
20
-74.4879
11
128.932
21
-74.4879
0
LINE
8
BLACK
6
CONTINUOUS
10
128.932
20
-74.4879
11
129.123
21
-74.3926
0
LINE
8
BLACK
6
CONTINUOUS
10
129.123
20
-74.3926
11
129.218
21
-74.2974
0
LINE
8
BLACK
6
CONTINUOUS
10
129.218
20
-74.2974
11
129.313
21
-74.1069
0
LINE
8
BLACK
6
CONTINUOUS
10
131.027
20
-73.9164
11
131.027
21
-75.2498
0
LINE
8
BLACK
6
CONTINUOUS
10
130.551
20
-73.1545
11
130.075
21
-74.5831
0
LINE
8
BLACK
6
CONTINUOUS
10
130.075
20
-74.5831
11
131.313
21
-74.5831
0
LINE
8
BLACK
6
CONTINUOUS
10
131.98
20
-73.2498
11
131.98
21
-73.6307
0
LINE
8
BLACK
6
CONTINUOUS
10
132.742
20
-73.2498
11
132.742
21
-73.6307
0
LINE
8
BLACK
6
CONTINUOUS
10
135.694
20
-76.0117
11
135.599
21
-75.9164
0
LINE
8
BLACK
6
CONTINUOUS
10
135.599
20
-75.9164
11
135.408
21
-75.6307
0
LINE
8
BLACK
6
CONTINUOUS
10
135.408
20
-75.6307
11
135.313
21
-75.4402
0
LINE
8
BLACK
6
CONTINUOUS
10
135.313
20
-75.4402
11
135.218
21
-75.1545
0
LINE
8
BLACK
6
CONTINUOUS
10
135.218
20
-75.1545
11
135.123
21
-74.6783
0
LINE
8
BLACK
6
CONTINUOUS
10
135.123
20
-74.6783
11
135.123
21
-74.2974
0
LINE
8
BLACK
6
CONTINUOUS
10
135.123
20
-74.2974
11
135.218
21
-73.8212
0
LINE
8
BLACK
6
CONTINUOUS
10
135.218
20
-73.8212
11
135.313
21
-73.5355
0
LINE
8
BLACK
6
CONTINUOUS
10
135.313
20
-73.5355
11
135.408
21
-73.345
0
LINE
8
BLACK
6
CONTINUOUS
10
135.408
20
-73.345
11
135.599
21
-73.0593
0
LINE
8
BLACK
6
CONTINUOUS
10
135.599
20
-73.0593
11
135.694
21
-72.964
0
LINE
8
BLACK
6
CONTINUOUS
10
137.313
20
-73.2498
11
136.932
21
-73.2498
0
LINE
8
BLACK
6
CONTINUOUS
10
136.932
20
-73.2498
11
136.742
21
-73.345
0
LINE
8
BLACK
6
CONTINUOUS
10
136.742
20
-73.345
11
136.646
21
-73.4402
0
LINE
8
BLACK
6
CONTINUOUS
10
136.646
20
-73.4402
11
136.456
21
-73.726
0
LINE
8
BLACK
6
CONTINUOUS
10
136.456
20
-73.726
11
136.361
21
-74.1069
0
LINE
8
BLACK
6
CONTINUOUS
10
136.361
20
-74.1069
11
136.361
21
-74.8688
0
LINE
8
BLACK
6
CONTINUOUS
10
136.361
20
-74.8688
11
136.456
21
-75.0593
0
LINE
8
BLACK
6
CONTINUOUS
10
136.456
20
-75.0593
11
136.551
21
-75.1545
0
LINE
8
BLACK
6
CONTINUOUS
10
136.551
20
-75.1545
11
136.742
21
-75.2498
0
LINE
8
BLACK
6
CONTINUOUS
10
136.742
20
-75.2498
11
137.123
21
-75.2498
0
LINE
8
BLACK
6
CONTINUOUS
10
137.123
20
-75.2498
11
137.313
21
-75.1545
0
LINE
8
BLACK
6
CONTINUOUS
10
137.313
20
-75.1545
11
137.408
21
-75.0593
0
LINE
8
BLACK
6
CONTINUOUS
10
137.408
20
-75.0593
11
137.504
21
-74.8688
0
LINE
8
BLACK
6
CONTINUOUS
10
137.504
20
-74.8688
11
137.504
21
-74.3926
0
LINE
8
BLACK
6
CONTINUOUS
10
137.504
20
-74.3926
11
137.408
21
-74.2021
0
LINE
8
BLACK
6
CONTINUOUS
10
137.408
20
-74.2021
11
137.313
21
-74.1069
0
LINE
8
BLACK
6
CONTINUOUS
10
137.313
20
-74.1069
11
137.123
21
-74.0117
0
LINE
8
BLACK
6
CONTINUOUS
10
137.123
20
-74.0117
11
136.742
21
-74.0117
0
LINE
8
BLACK
6
CONTINUOUS
10
136.742
20
-74.0117
11
136.551
21
-74.1069
0
LINE
8
BLACK
6
CONTINUOUS
10
136.551
20
-74.1069
11
136.456
21
-74.2021
0
LINE
8
BLACK
6
CONTINUOUS
10
136.456
20
-74.2021
11
136.361
21
-74.3926
0
LINE
8
BLACK
6
CONTINUOUS
10
139.885
20
-75.2498
11
139.885
21
-73.2498
0
LINE
8
BLACK
6
CONTINUOUS
10
140.742
20
-75.2498
11
140.742
21
-74.2021
0
LINE
8
BLACK
6
CONTINUOUS
10
140.742
20
-74.2021
11
140.646
21
-74.0117
0
LINE
8
BLACK
6
CONTINUOUS
10
140.646
20
-74.0117
11
140.456
21
-73.9164
0
LINE
8
BLACK
6
CONTINUOUS
10
140.456
20
-73.9164
11
140.17
21
-73.9164
0
LINE
8
BLACK
6
CONTINUOUS
10
140.17
20
-73.9164
11
139.98
21
-74.0117
0
LINE
8
BLACK
6
CONTINUOUS
10
139.98
20
-74.0117
11
139.885
21
-74.1069
0
LINE
8
BLACK
6
CONTINUOUS
10
141.98
20
-75.2498
11
141.789
21
-75.1545
0
LINE
8
BLACK
6
CONTINUOUS
10
141.789
20
-75.1545
11
141.694
21
-75.0593
0
LINE
8
BLACK
6
CONTINUOUS
10
141.694
20
-75.0593
11
141.599
21
-74.8688
0
LINE
8
BLACK
6
CONTINUOUS
10
141.599
20
-74.8688
11
141.599
21
-74.2974
0
LINE
8
BLACK
6
CONTINUOUS
10
141.599
20
-74.2974
11
141.694
21
-74.1069
0
LINE
8
BLACK
6
CONTINUOUS
10
141.694
20
-74.1069
11
141.789
21
-74.0117
0
LINE
8
BLACK
6
CONTINUOUS
10
141.789
20
-74.0117
11
141.98
21
-73.9164
0
LINE
8
BLACK
6
CONTINUOUS
10
141.98
20
-73.9164
11
142.265
21
-73.9164
0
LINE
8
BLACK
6
CONTINUOUS
10
142.265
20
-73.9164
11
142.456
21
-74.0117
0
LINE
8
BLACK
6
CONTINUOUS
10
142.456
20
-74.0117
11
142.551
21
-74.1069
0
LINE
8
BLACK
6
CONTINUOUS
10
142.551
20
-74.1069
11
142.646
21
-74.2974
0
LINE
8
BLACK
6
CONTINUOUS
10
142.646
20
-74.2974
11
142.646
21
-74.8688
0
LINE
8
BLACK
6
CONTINUOUS
10
142.646
20
-74.8688
11
142.551
21
-75.0593
0
LINE
8
BLACK
6
CONTINUOUS
10
142.551
20
-75.0593
11
142.456
21
-75.1545
0
LINE
8
BLACK
6
CONTINUOUS
10
142.456
20
-75.1545
11
142.265
21
-75.2498
0
LINE
8
BLACK
6
CONTINUOUS
10
142.265
20
-75.2498
11
141.98
21
-75.2498
0
LINE
8
BLACK
6
CONTINUOUS
10
143.789
20
-75.2498
11
143.599
21
-75.1545
0
LINE
8
BLACK
6
CONTINUOUS
10
143.599
20
-75.1545
11
143.504
21
-74.964
0
LINE
8
BLACK
6
CONTINUOUS
10
143.504
20
-74.964
11
143.504
21
-73.2498
0
LINE
8
BLACK
6
CONTINUOUS
10
145.313
20
-75.1545
11
145.123
21
-75.2498
0
LINE
8
BLACK
6
CONTINUOUS
10
145.123
20
-75.2498
11
144.742
21
-75.2498
0
LINE
8
BLACK
6
CONTINUOUS
10
144.742
20
-75.2498
11
144.551
21
-75.1545
0
LINE
8
BLACK
6
CONTINUOUS
10
144.551
20
-75.1545
11
144.456
21
-74.964
0
LINE
8
BLACK
6
CONTINUOUS
10
144.456
20
-74.964
11
144.456
21
-74.2021
0
LINE
8
BLACK
6
CONTINUOUS
10
144.456
20
-74.2021
11
144.551
21
-74.0117
0
LINE
8
BLACK
6
CONTINUOUS
10
144.551
20
-74.0117
11
144.742
21
-73.9164
0
LINE
8
BLACK
6
CONTINUOUS
10
144.742
20
-73.9164
11
145.123
21
-73.9164
0
LINE
8
BLACK
6
CONTINUOUS
10
145.123
20
-73.9164
11
145.313
21
-74.0117
0
LINE
8
BLACK
6
CONTINUOUS
10
145.313
20
-74.0117
11
145.408
21
-74.2021
0
LINE
8
BLACK
6
CONTINUOUS
10
145.408
20
-74.2021
11
145.408
21
-74.3926
0
LINE
8
BLACK
6
CONTINUOUS
10
145.408
20
-74.3926
11
144.456
21
-74.5831
0
LINE
8
BLACK
6
CONTINUOUS
10
146.17
20
-75.1545
11
146.361
21
-75.2498
0
LINE
8
BLACK
6
CONTINUOUS
10
146.361
20
-75.2498
11
146.742
21
-75.2498
0
LINE
8
BLACK
6
CONTINUOUS
10
146.742
20
-75.2498
11
146.932
21
-75.1545
0
LINE
8
BLACK
6
CONTINUOUS
10
146.932
20
-75.1545
11
147.027
21
-74.964
0
LINE
8
BLACK
6
CONTINUOUS
10
147.027
20
-74.964
11
147.027
21
-74.8688
0
LINE
8
BLACK
6
CONTINUOUS
10
147.027
20
-74.8688
11
146.932
21
-74.6783
0
LINE
8
BLACK
6
CONTINUOUS
10
146.932
20
-74.6783
11
146.742
21
-74.5831
0
LINE
8
BLACK
6
CONTINUOUS
10
146.742
20
-74.5831
11
146.456
21
-74.5831
0
LINE
8
BLACK
6
CONTINUOUS
10
146.456
20
-74.5831
11
146.265
21
-74.4879
0
LINE
8
BLACK
6
CONTINUOUS
10
146.265
20
-74.4879
11
146.17
21
-74.2974
0
LINE
8
BLACK
6
CONTINUOUS
10
146.17
20
-74.2974
11
146.17
21
-74.2021
0
LINE
8
BLACK
6
CONTINUOUS
10
146.17
20
-74.2021
11
146.265
21
-74.0117
0
LINE
8
BLACK
6
CONTINUOUS
10
146.265
20
-74.0117
11
146.456
21
-73.9164
0
LINE
8
BLACK
6
CONTINUOUS
10
146.456
20
-73.9164
11
146.742
21
-73.9164
0
LINE
8
BLACK
6
CONTINUOUS
10
146.742
20
-73.9164
11
146.932
21
-74.0117
0
LINE
8
BLACK
6
CONTINUOUS
10
147.694
20
-76.0117
11
147.789
21
-75.9164
0
LINE
8
BLACK
6
CONTINUOUS
10
147.789
20
-75.9164
11
147.98
21
-75.6307
0
LINE
8
BLACK
6
CONTINUOUS
10
147.98
20
-75.6307
11
148.075
21
-75.4402
0
LINE
8
BLACK
6
CONTINUOUS
10
148.075
20
-75.4402
11
148.17
21
-75.1545
0
LINE
8
BLACK
6
CONTINUOUS
10
148.17
20
-75.1545
11
148.265
21
-74.6783
0
LINE
8
BLACK
6
CONTINUOUS
10
148.265
20
-74.6783
11
148.265
21
-74.2974
0
LINE
8
BLACK
6
CONTINUOUS
10
148.265
20
-74.2974
11
148.17
21
-73.8212
0
LINE
8
BLACK
6
CONTINUOUS
10
148.17
20
-73.8212
11
148.075
21
-73.5355
0
LINE
8
BLACK
6
CONTINUOUS
10
148.075
20
-73.5355
11
147.98
21
-73.345
0
LINE
8
BLACK
6
CONTINUOUS
10
147.98
20
-73.345
11
147.789
21
-73.0593
0
LINE
8
BLACK
6
CONTINUOUS
10
147.789
20
-73.0593
11
147.694
21
-72.964
0
LINE
8
BLACK
6
CONTINUOUS
10
99.325
20
-77.635
11
99.975
21
-76.985
0
LINE
8
BLACK
6
CONTINUOUS
10
99.975
20
-76.985
11
99.325
21
-76.335
0
LINE
8
BLACK
6
CONTINUOUS
10
99.325
20
-76.335
11
98.675
21
-76.985
0
LINE
8
BLACK
6
CONTINUOUS
10
98.675
20
-76.985
11
99.325
21
-77.635
0
LINE
8
BLACK
6
CONTINUOUS
10
103.599
20
-77.8898
11
102.456
21
-77.8898
0
LINE
8
BLACK
6
CONTINUOUS
10
103.027
20
-77.8898
11
103.027
21
-75.8898
0
LINE
8
BLACK
6
CONTINUOUS
10
103.027
20
-75.8898
11
102.837
21
-76.1755
0
LINE
8
BLACK
6
CONTINUOUS
10
102.837
20
-76.1755
11
102.646
21
-76.366
0
LINE
8
BLACK
6
CONTINUOUS
10
102.646
20
-76.366
11
102.456
21
-76.4612
0
LINE
8
BLACK
6
CONTINUOUS
10
104.456
20
-77.6993
11
104.551
21
-77.7945
0
LINE
8
BLACK
6
CONTINUOUS
10
104.551
20
-77.7945
11
104.456
21
-77.8898
0
LINE
8
BLACK
6
CONTINUOUS
10
104.456
20
-77.8898
11
104.361
21
-77.7945
0
LINE
8
BLACK
6
CONTINUOUS
10
104.361
20
-77.7945
11
104.456
21
-77.6993
0
LINE
8
BLACK
6
CONTINUOUS
10
104.456
20
-77.6993
11
104.456
21
-77.8898
0
LINE
8
BLACK
6
CONTINUOUS
10
105.218
20
-75.8898
11
106.456
21
-75.8898
0
LINE
8
BLACK
6
CONTINUOUS
10
106.456
20
-75.8898
11
105.789
21
-76.6517
0
LINE
8
BLACK
6
CONTINUOUS
10
105.789
20
-76.6517
11
106.075
21
-76.6517
0
LINE
8
BLACK
6
CONTINUOUS
10
106.075
20
-76.6517
11
106.265
21
-76.7469
0
LINE
8
BLACK
6
CONTINUOUS
10
106.265
20
-76.7469
11
106.361
21
-76.8421
0
LINE
8
BLACK
6
CONTINUOUS
10
106.361
20
-76.8421
11
106.456
21
-77.0326
0
LINE
8
BLACK
6
CONTINUOUS
10
106.456
20
-77.0326
11
106.456
21
-77.5088
0
LINE
8
BLACK
6
CONTINUOUS
10
106.456
20
-77.5088
11
106.361
21
-77.6993
0
LINE
8
BLACK
6
CONTINUOUS
10
106.361
20
-77.6993
11
106.265
21
-77.7945
0
LINE
8
BLACK
6
CONTINUOUS
10
106.265
20
-77.7945
11
106.075
21
-77.8898
0
LINE
8
BLACK
6
CONTINUOUS
10
106.075
20
-77.8898
11
105.504
21
-77.8898
0
LINE
8
BLACK
6
CONTINUOUS
10
105.504
20
-77.8898
11
105.313
21
-77.7945
0
LINE
8
BLACK
6
CONTINUOUS
10
105.313
20
-77.7945
11
105.218
21
-77.6993
0
LINE
8
BLACK
6
CONTINUOUS
10
107.694
20
-75.8898
11
107.885
21
-75.8898
0
LINE
8
BLACK
6
CONTINUOUS
10
107.885
20
-75.8898
11
108.075
21
-75.985
0
LINE
8
BLACK
6
CONTINUOUS
10
108.075
20
-75.985
11
108.17
21
-76.0802
0
LINE
8
BLACK
6
CONTINUOUS
10
108.17
20
-76.0802
11
108.265
21
-76.2707
0
LINE
8
BLACK
6
CONTINUOUS
10
108.265
20
-76.2707
11
108.361
21
-76.6517
0
LINE
8
BLACK
6
CONTINUOUS
10
108.361
20
-76.6517
11
108.361
21
-77.1279
0
LINE
8
BLACK
6
CONTINUOUS
10
108.361
20
-77.1279
11
108.265
21
-77.5088
0
LINE
8
BLACK
6
CONTINUOUS
10
108.265
20
-77.5088
11
108.17
21
-77.6993
0
LINE
8
BLACK
6
CONTINUOUS
10
108.17
20
-77.6993
11
108.075
21
-77.7945
0
LINE
8
BLACK
6
CONTINUOUS
10
108.075
20
-77.7945
11
107.885
21
-77.8898
0
LINE
8
BLACK
6
CONTINUOUS
10
107.885
20
-77.8898
11
107.694
21
-77.8898
0
LINE
8
BLACK
6
CONTINUOUS
10
107.694
20
-77.8898
11
107.504
21
-77.7945
0
LINE
8
BLACK
6
CONTINUOUS
10
107.504
20
-77.7945
11
107.408
21
-77.6993
0
LINE
8
BLACK
6
CONTINUOUS
10
107.408
20
-77.6993
11
107.313
21
-77.5088
0
LINE
8
BLACK
6
CONTINUOUS
10
107.313
20
-77.5088
11
107.218
21
-77.1279
0
LINE
8
BLACK
6
CONTINUOUS
10
107.218
20
-77.1279
11
107.218
21
-76.6517
0
LINE
8
BLACK
6
CONTINUOUS
10
107.218
20
-76.6517
11
107.313
21
-76.2707
0
LINE
8
BLACK
6
CONTINUOUS
10
107.313
20
-76.2707
11
107.408
21
-76.0802
0
LINE
8
BLACK
6
CONTINUOUS
10
107.408
20
-76.0802
11
107.504
21
-75.985
0
LINE
8
BLACK
6
CONTINUOUS
10
107.504
20
-75.985
11
107.694
21
-75.8898
0
LINE
8
BLACK
6
CONTINUOUS
10
109.599
20
-75.8898
11
109.789
21
-75.8898
0
LINE
8
BLACK
6
CONTINUOUS
10
109.789
20
-75.8898
11
109.98
21
-75.985
0
LINE
8
BLACK
6
CONTINUOUS
10
109.98
20
-75.985
11
110.075
21
-76.0802
0
LINE
8
BLACK
6
CONTINUOUS
10
110.075
20
-76.0802
11
110.17
21
-76.2707
0
LINE
8
BLACK
6
CONTINUOUS
10
110.17
20
-76.2707
11
110.265
21
-76.6517
0
LINE
8
BLACK
6
CONTINUOUS
10
110.265
20
-76.6517
11
110.265
21
-77.1279
0
LINE
8
BLACK
6
CONTINUOUS
10
110.265
20
-77.1279
11
110.17
21
-77.5088
0
LINE
8
BLACK
6
CONTINUOUS
10
110.17
20
-77.5088
11
110.075
21
-77.6993
0
LINE
8
BLACK
6
CONTINUOUS
10
110.075
20
-77.6993
11
109.98
21
-77.7945
0
LINE
8
BLACK
6
CONTINUOUS
10
109.98
20
-77.7945
11
109.789
21
-77.8898
0
LINE
8
BLACK
6
CONTINUOUS
10
109.789
20
-77.8898
11
109.599
21
-77.8898
0
LINE
8
BLACK
6
CONTINUOUS
10
109.599
20
-77.8898
11
109.408
21
-77.7945
0
LINE
8
BLACK
6
CONTINUOUS
10
109.408
20
-77.7945
11
109.313
21
-77.6993
0
LINE
8
BLACK
6
CONTINUOUS
10
109.313
20
-77.6993
11
109.218
21
-77.5088
0
LINE
8
BLACK
6
CONTINUOUS
10
109.218
20
-77.5088
11
109.123
21
-77.1279
0
LINE
8
BLACK
6
CONTINUOUS
10
109.123
20
-77.1279
11
109.123
21
-76.6517
0
LINE
8
BLACK
6
CONTINUOUS
10
109.123
20
-76.6517
11
109.218
21
-76.2707
0
LINE
8
BLACK
6
CONTINUOUS
10
109.218
20
-76.2707
11
109.313
21
-76.0802
0
LINE
8
BLACK
6
CONTINUOUS
10
109.313
20
-76.0802
11
109.408
21
-75.985
0
LINE
8
BLACK
6
CONTINUOUS
10
109.408
20
-75.985
11
109.599
21
-75.8898
0
LINE
8
BLACK
6
CONTINUOUS
10
111.123
20
-77.8898
11
111.123
21
-76.5564
0
LINE
8
BLACK
6
CONTINUOUS
10
111.123
20
-76.7469
11
111.218
21
-76.6517
0
LINE
8
BLACK
6
CONTINUOUS
10
111.218
20
-76.6517
11
111.408
21
-76.5564
0
LINE
8
BLACK
6
CONTINUOUS
10
111.408
20
-76.5564
11
111.694
21
-76.5564
0
LINE
8
BLACK
6
CONTINUOUS
10
111.694
20
-76.5564
11
111.885
21
-76.6517
0
LINE
8
BLACK
6
CONTINUOUS
10
111.885
20
-76.6517
11
111.98
21
-76.8421
0
LINE
8
BLACK
6
CONTINUOUS
10
111.98
20
-76.8421
11
111.98
21
-77.8898
0
LINE
8
BLACK
6
CONTINUOUS
10
111.98
20
-76.8421
11
112.075
21
-76.6517
0
LINE
8
BLACK
6
CONTINUOUS
10
112.075
20
-76.6517
11
112.265
21
-76.5564
0
LINE
8
BLACK
6
CONTINUOUS
10
112.265
20
-76.5564
11
112.551
21
-76.5564
0
LINE
8
BLACK
6
CONTINUOUS
10
112.551
20
-76.5564
11
112.742
21
-76.6517
0
LINE
8
BLACK
6
CONTINUOUS
10
112.742
20
-76.6517
11
112.837
21
-76.8421
0
LINE
8
BLACK
6
CONTINUOUS
10
112.837
20
-76.8421
11
112.837
21
-77.8898
0
LINE
8
BLACK
6
CONTINUOUS
10
113.789
20
-77.8898
11
113.789
21
-76.5564
0
LINE
8
BLACK
6
CONTINUOUS
10
113.789
20
-76.7469
11
113.885
21
-76.6517
0
LINE
8
BLACK
6
CONTINUOUS
10
113.885
20
-76.6517
11
114.075
21
-76.5564
0
LINE
8
BLACK
6
CONTINUOUS
10
114.075
20
-76.5564
11
114.361
21
-76.5564
0
LINE
8
BLACK
6
CONTINUOUS
10
114.361
20
-76.5564
11
114.551
21
-76.6517
0
LINE
8
BLACK
6
CONTINUOUS
10
114.551
20
-76.6517
11
114.646
21
-76.8421
0
LINE
8
BLACK
6
CONTINUOUS
10
114.646
20
-76.8421
11
114.646
21
-77.8898
0
LINE
8
BLACK
6
CONTINUOUS
10
114.646
20
-76.8421
11
114.742
21
-76.6517
0
LINE
8
BLACK
6
CONTINUOUS
10
114.742
20
-76.6517
11
114.932
21
-76.5564
0
LINE
8
BLACK
6
CONTINUOUS
10
114.932
20
-76.5564
11
115.218
21
-76.5564
0
LINE
8
BLACK
6
CONTINUOUS
10
115.218
20
-76.5564
11
115.408
21
-76.6517
0
LINE
8
BLACK
6
CONTINUOUS
10
115.408
20
-76.6517
11
115.504
21
-76.8421
0
LINE
8
BLACK
6
CONTINUOUS
10
115.504
20
-76.8421
11
115.504
21
-77.8898
0
LINE
8
BLACK
6
CONTINUOUS
10
119.408
20
-75.7945
11
117.694
21
-78.366
0
LINE
8
BLACK
6
CONTINUOUS
10
121.98
20
-75.8898
11
122.17
21
-75.8898
0
LINE
8
BLACK
6
CONTINUOUS
10
122.17
20
-75.8898
11
122.361
21
-75.985
0
LINE
8
BLACK
6
CONTINUOUS
10
122.361
20
-75.985
11
122.456
21
-76.0802
0
LINE
8
BLACK
6
CONTINUOUS
10
122.456
20
-76.0802
11
122.551
21
-76.2707
0
LINE
8
BLACK
6
CONTINUOUS
10
122.551
20
-76.2707
11
122.646
21
-76.6517
0
LINE
8
BLACK
6
CONTINUOUS
10
122.646
20
-76.6517
11
122.646
21
-77.1279
0
LINE
8
BLACK
6
CONTINUOUS
10
122.646
20
-77.1279
11
122.551
21
-77.5088
0
LINE
8
BLACK
6
CONTINUOUS
10
122.551
20
-77.5088
11
122.456
21
-77.6993
0
LINE
8
BLACK
6
CONTINUOUS
10
122.456
20
-77.6993
11
122.361
21
-77.7945
0
LINE
8
BLACK
6
CONTINUOUS
10
122.361
20
-77.7945
11
122.17
21
-77.8898
0
LINE
8
BLACK
6
CONTINUOUS
10
122.17
20
-77.8898
11
121.98
21
-77.8898
0
LINE
8
BLACK
6
CONTINUOUS
10
121.98
20
-77.8898
11
121.789
21
-77.7945
0
LINE
8
BLACK
6
CONTINUOUS
10
121.789
20
-77.7945
11
121.694
21
-77.6993
0
LINE
8
BLACK
6
CONTINUOUS
10
121.694
20
-77.6993
11
121.599
21
-77.5088
0
LINE
8
BLACK
6
CONTINUOUS
10
121.599
20
-77.5088
11
121.504
21
-77.1279
0
LINE
8
BLACK
6
CONTINUOUS
10
121.504
20
-77.1279
11
121.504
21
-76.6517
0
LINE
8
BLACK
6
CONTINUOUS
10
121.504
20
-76.6517
11
121.599
21
-76.2707
0
LINE
8
BLACK
6
CONTINUOUS
10
121.599
20
-76.2707
11
121.694
21
-76.0802
0
LINE
8
BLACK
6
CONTINUOUS
10
121.694
20
-76.0802
11
121.789
21
-75.985
0
LINE
8
BLACK
6
CONTINUOUS
10
121.789
20
-75.985
11
121.98
21
-75.8898
0
LINE
8
BLACK
6
CONTINUOUS
10
123.504
20
-77.6993
11
123.599
21
-77.7945
0
LINE
8
BLACK
6
CONTINUOUS
10
123.599
20
-77.7945
11
123.504
21
-77.8898
0
LINE
8
BLACK
6
CONTINUOUS
10
123.504
20
-77.8898
11
123.408
21
-77.7945
0
LINE
8
BLACK
6
CONTINUOUS
10
123.408
20
-77.7945
11
123.504
21
-77.6993
0
LINE
8
BLACK
6
CONTINUOUS
10
123.504
20
-77.6993
11
123.504
21
-77.8898
0
LINE
8
BLACK
6
CONTINUOUS
10
124.837
20
-75.8898
11
125.027
21
-75.8898
0
LINE
8
BLACK
6
CONTINUOUS
10
125.027
20
-75.8898
11
125.218
21
-75.985
0
LINE
8
BLACK
6
CONTINUOUS
10
125.218
20
-75.985
11
125.313
21
-76.0802
0
LINE
8
BLACK
6
CONTINUOUS
10
125.313
20
-76.0802
11
125.408
21
-76.2707
0
LINE
8
BLACK
6
CONTINUOUS
10
125.408
20
-76.2707
11
125.504
21
-76.6517
0
LINE
8
BLACK
6
CONTINUOUS
10
125.504
20
-76.6517
11
125.504
21
-77.1279
0
LINE
8
BLACK
6
CONTINUOUS
10
125.504
20
-77.1279
11
125.408
21
-77.5088
0
LINE
8
BLACK
6
CONTINUOUS
10
125.408
20
-77.5088
11
125.313
21
-77.6993
0
LINE
8
BLACK
6
CONTINUOUS
10
125.313
20
-77.6993
11
125.218
21
-77.7945
0
LINE
8
BLACK
6
CONTINUOUS
10
125.218
20
-77.7945
11
125.027
21
-77.8898
0
LINE
8
BLACK
6
CONTINUOUS
10
125.027
20
-77.8898
11
124.837
21
-77.8898
0
LINE
8
BLACK
6
CONTINUOUS
10
124.837
20
-77.8898
11
124.646
21
-77.7945
0
LINE
8
BLACK
6
CONTINUOUS
10
124.646
20
-77.7945
11
124.551
21
-77.6993
0
LINE
8
BLACK
6
CONTINUOUS
10
124.551
20
-77.6993
11
124.456
21
-77.5088
0
LINE
8
BLACK
6
CONTINUOUS
10
124.456
20
-77.5088
11
124.361
21
-77.1279
0
LINE
8
BLACK
6
CONTINUOUS
10
124.361
20
-77.1279
11
124.361
21
-76.6517
0
LINE
8
BLACK
6
CONTINUOUS
10
124.361
20
-76.6517
11
124.456
21
-76.2707
0
LINE
8
BLACK
6
CONTINUOUS
10
124.456
20
-76.2707
11
124.551
21
-76.0802
0
LINE
8
BLACK
6
CONTINUOUS
10
124.551
20
-76.0802
11
124.646
21
-75.985
0
LINE
8
BLACK
6
CONTINUOUS
10
124.646
20
-75.985
11
124.837
21
-75.8898
0
LINE
8
BLACK
6
CONTINUOUS
10
127.313
20
-75.8898
11
126.361
21
-75.8898
0
LINE
8
BLACK
6
CONTINUOUS
10
126.361
20
-75.8898
11
126.265
21
-76.8421
0
LINE
8
BLACK
6
CONTINUOUS
10
126.265
20
-76.8421
11
126.361
21
-76.7469
0
LINE
8
BLACK
6
CONTINUOUS
10
126.361
20
-76.7469
11
126.551
21
-76.6517
0
LINE
8
BLACK
6
CONTINUOUS
10
126.551
20
-76.6517
11
127.027
21
-76.6517
0
LINE
8
BLACK
6
CONTINUOUS
10
127.027
20
-76.6517
11
127.218
21
-76.7469
0
LINE
8
BLACK
6
CONTINUOUS
10
127.218
20
-76.7469
11
127.313
21
-76.8421
0
LINE
8
BLACK
6
CONTINUOUS
10
127.313
20
-76.8421
11
127.408
21
-77.0326
0
LINE
8
BLACK
6
CONTINUOUS
10
127.408
20
-77.0326
11
127.408
21
-77.5088
0
LINE
8
BLACK
6
CONTINUOUS
10
127.408
20
-77.5088
11
127.313
21
-77.6993
0
LINE
8
BLACK
6
CONTINUOUS
10
127.313
20
-77.6993
11
127.218
21
-77.7945
0
LINE
8
BLACK
6
CONTINUOUS
10
127.218
20
-77.7945
11
127.027
21
-77.8898
0
LINE
8
BLACK
6
CONTINUOUS
10
127.027
20
-77.8898
11
126.551
21
-77.8898
0
LINE
8
BLACK
6
CONTINUOUS
10
126.551
20
-77.8898
11
126.361
21
-77.7945
0
LINE
8
BLACK
6
CONTINUOUS
10
126.361
20
-77.7945
11
126.265
21
-77.6993
0
LINE
8
BLACK
6
CONTINUOUS
10
129.313
20
-77.8898
11
128.17
21
-77.8898
0
LINE
8
BLACK
6
CONTINUOUS
10
128.742
20
-77.8898
11
128.742
21
-75.8898
0
LINE
8
BLACK
6
CONTINUOUS
10
128.742
20
-75.8898
11
128.551
21
-76.1755
0
LINE
8
BLACK
6
CONTINUOUS
10
128.551
20
-76.1755
11
128.361
21
-76.366
0
LINE
8
BLACK
6
CONTINUOUS
10
128.361
20
-76.366
11
128.17
21
-76.4612
0
LINE
8
BLACK
6
CONTINUOUS
10
130.075
20
-76.0802
11
130.17
21
-75.985
0
LINE
8
BLACK
6
CONTINUOUS
10
130.17
20
-75.985
11
130.361
21
-75.8898
0
LINE
8
BLACK
6
CONTINUOUS
10
130.361
20
-75.8898
11
130.837
21
-75.8898
0
LINE
8
BLACK
6
CONTINUOUS
10
130.837
20
-75.8898
11
131.027
21
-75.985
0
LINE
8
BLACK
6
CONTINUOUS
10
131.027
20
-75.985
11
131.123
21
-76.0802
0
LINE
8
BLACK
6
CONTINUOUS
10
131.123
20
-76.0802
11
131.218
21
-76.2707
0
LINE
8
BLACK
6
CONTINUOUS
10
131.218
20
-76.2707
11
131.218
21
-76.4612
0
LINE
8
BLACK
6
CONTINUOUS
10
131.218
20
-76.4612
11
131.123
21
-76.7469
0
LINE
8
BLACK
6
CONTINUOUS
10
131.123
20
-76.7469
11
129.98
21
-77.8898
0
LINE
8
BLACK
6
CONTINUOUS
10
129.98
20
-77.8898
11
131.218
21
-77.8898
0
LINE
8
BLACK
6
CONTINUOUS
10
131.98
20
-75.8898
11
131.98
21
-76.2707
0
LINE
8
BLACK
6
CONTINUOUS
10
132.742
20
-75.8898
11
132.742
21
-76.2707
0
LINE
8
BLACK
6
CONTINUOUS
10
135.694
20
-78.6517
11
135.599
21
-78.5564
0
LINE
8
BLACK
6
CONTINUOUS
10
135.599
20
-78.5564
11
135.408
21
-78.2707
0
LINE
8
BLACK
6
CONTINUOUS
10
135.408
20
-78.2707
11
135.313
21
-78.0802
0
LINE
8
BLACK
6
CONTINUOUS
10
135.313
20
-78.0802
11
135.218
21
-77.7945
0
LINE
8
BLACK
6
CONTINUOUS
10
135.218
20
-77.7945
11
135.123
21
-77.3183
0
LINE
8
BLACK
6
CONTINUOUS
10
135.123
20
-77.3183
11
135.123
21
-76.9374
0
LINE
8
BLACK
6
CONTINUOUS
10
135.123
20
-76.9374
11
135.218
21
-76.4612
0
LINE
8
BLACK
6
CONTINUOUS
10
135.218
20
-76.4612
11
135.313
21
-76.1755
0
LINE
8
BLACK
6
CONTINUOUS
10
135.313
20
-76.1755
11
135.408
21
-75.985
0
LINE
8
BLACK
6
CONTINUOUS
10
135.408
20
-75.985
11
135.599
21
-75.6993
0
LINE
8
BLACK
6
CONTINUOUS
10
135.599
20
-75.6993
11
135.694
21
-75.604
0
LINE
8
BLACK
6
CONTINUOUS
10
136.361
20
-76.0802
11
136.456
21
-75.985
0
LINE
8
BLACK
6
CONTINUOUS
10
136.456
20
-75.985
11
136.646
21
-75.8898
0
LINE
8
BLACK
6
CONTINUOUS
10
136.646
20
-75.8898
11
137.123
21
-75.8898
0
LINE
8
BLACK
6
CONTINUOUS
10
137.123
20
-75.8898
11
137.313
21
-75.985
0
LINE
8
BLACK
6
CONTINUOUS
10
137.313
20
-75.985
11
137.408
21
-76.0802
0
LINE
8
BLACK
6
CONTINUOUS
10
137.408
20
-76.0802
11
137.504
21
-76.2707
0
LINE
8
BLACK
6
CONTINUOUS
10
137.504
20
-76.2707
11
137.504
21
-76.4612
0
LINE
8
BLACK
6
CONTINUOUS
10
137.504
20
-76.4612
11
137.408
21
-76.7469
0
LINE
8
BLACK
6
CONTINUOUS
10
137.408
20
-76.7469
11
136.265
21
-77.8898
0
LINE
8
BLACK
6
CONTINUOUS
10
136.265
20
-77.8898
11
137.504
21
-77.8898
0
LINE
8
BLACK
6
CONTINUOUS
10
139.885
20
-77.8898
11
139.885
21
-75.8898
0
LINE
8
BLACK
6
CONTINUOUS
10
140.742
20
-77.8898
11
140.742
21
-76.8421
0
LINE
8
BLACK
6
CONTINUOUS
10
140.742
20
-76.8421
11
140.646
21
-76.6517
0
LINE
8
BLACK
6
CONTINUOUS
10
140.646
20
-76.6517
11
140.456
21
-76.5564
0
LINE
8
BLACK
6
CONTINUOUS
10
140.456
20
-76.5564
11
140.17
21
-76.5564
0
LINE
8
BLACK
6
CONTINUOUS
10
140.17
20
-76.5564
11
139.98
21
-76.6517
0
LINE
8
BLACK
6
CONTINUOUS
10
139.98
20
-76.6517
11
139.885
21
-76.7469
0
LINE
8
BLACK
6
CONTINUOUS
10
141.98
20
-77.8898
11
141.789
21
-77.7945
0
LINE
8
BLACK
6
CONTINUOUS
10
141.789
20
-77.7945
11
141.694
21
-77.6993
0
LINE
8
BLACK
6
CONTINUOUS
10
141.694
20
-77.6993
11
141.599
21
-77.5088
0
LINE
8
BLACK
6
CONTINUOUS
10
141.599
20
-77.5088
11
141.599
21
-76.9374
0
LINE
8
BLACK
6
CONTINUOUS
10
141.599
20
-76.9374
11
141.694
21
-76.7469
0
LINE
8
BLACK
6
CONTINUOUS
10
141.694
20
-76.7469
11
141.789
21
-76.6517
0
LINE
8
BLACK
6
CONTINUOUS
10
141.789
20
-76.6517
11
141.98
21
-76.5564
0
LINE
8
BLACK
6
CONTINUOUS
10
141.98
20
-76.5564
11
142.265
21
-76.5564
0
LINE
8
BLACK
6
CONTINUOUS
10
142.265
20
-76.5564
11
142.456
21
-76.6517
0
LINE
8
BLACK
6
CONTINUOUS
10
142.456
20
-76.6517
11
142.551
21
-76.7469
0
LINE
8
BLACK
6
CONTINUOUS
10
142.551
20
-76.7469
11
142.646
21
-76.9374
0
LINE
8
BLACK
6
CONTINUOUS
10
142.646
20
-76.9374
11
142.646
21
-77.5088
0
LINE
8
BLACK
6
CONTINUOUS
10
142.646
20
-77.5088
11
142.551
21
-77.6993
0
LINE
8
BLACK
6
CONTINUOUS
10
142.551
20
-77.6993
11
142.456
21
-77.7945
0
LINE
8
BLACK
6
CONTINUOUS
10
142.456
20
-77.7945
11
142.265
21
-77.8898
0
LINE
8
BLACK
6
CONTINUOUS
10
142.265
20
-77.8898
11
141.98
21
-77.8898
0
LINE
8
BLACK
6
CONTINUOUS
10
143.789
20
-77.8898
11
143.599
21
-77.7945
0
LINE
8
BLACK
6
CONTINUOUS
10
143.599
20
-77.7945
11
143.504
21
-77.604
0
LINE
8
BLACK
6
CONTINUOUS
10
143.504
20
-77.604
11
143.504
21
-75.8898
0
LINE
8
BLACK
6
CONTINUOUS
10
145.313
20
-77.7945
11
145.123
21
-77.8898
0
LINE
8
BLACK
6
CONTINUOUS
10
145.123
20
-77.8898
11
144.742
21
-77.8898
0
LINE
8
BLACK
6
CONTINUOUS
10
144.742
20
-77.8898
11
144.551
21
-77.7945
0
LINE
8
BLACK
6
CONTINUOUS
10
144.551
20
-77.7945
11
144.456
21
-77.604
0
LINE
8
BLACK
6
CONTINUOUS
10
144.456
20
-77.604
11
144.456
21
-76.8421
0
LINE
8
BLACK
6
CONTINUOUS
10
144.456
20
-76.8421
11
144.551
21
-76.6517
0
LINE
8
BLACK
6
CONTINUOUS
10
144.551
20
-76.6517
11
144.742
21
-76.5564
0
LINE
8
BLACK
6
CONTINUOUS
10
144.742
20
-76.5564
11
145.123
21
-76.5564
0
LINE
8
BLACK
6
CONTINUOUS
10
145.123
20
-76.5564
11
145.313
21
-76.6517
0
LINE
8
BLACK
6
CONTINUOUS
10
145.313
20
-76.6517
11
145.408
21
-76.8421
0
LINE
8
BLACK
6
CONTINUOUS
10
145.408
20
-76.8421
11
145.408
21
-77.0326
0
LINE
8
BLACK
6
CONTINUOUS
10
145.408
20
-77.0326
11
144.456
21
-77.2231
0
LINE
8
BLACK
6
CONTINUOUS
10
146.17
20
-77.7945
11
146.361
21
-77.8898
0
LINE
8
BLACK
6
CONTINUOUS
10
146.361
20
-77.8898
11
146.742
21
-77.8898
0
LINE
8
BLACK
6
CONTINUOUS
10
146.742
20
-77.8898
11
146.932
21
-77.7945
0
LINE
8
BLACK
6
CONTINUOUS
10
146.932
20
-77.7945
11
147.027
21
-77.604
0
LINE
8
BLACK
6
CONTINUOUS
10
147.027
20
-77.604
11
147.027
21
-77.5088
0
LINE
8
BLACK
6
CONTINUOUS
10
147.027
20
-77.5088
11
146.932
21
-77.3183
0
LINE
8
BLACK
6
CONTINUOUS
10
146.932
20
-77.3183
11
146.742
21
-77.2231
0
LINE
8
BLACK
6
CONTINUOUS
10
146.742
20
-77.2231
11
146.456
21
-77.2231
0
LINE
8
BLACK
6
CONTINUOUS
10
146.456
20
-77.2231
11
146.265
21
-77.1279
0
LINE
8
BLACK
6
CONTINUOUS
10
146.265
20
-77.1279
11
146.17
21
-76.9374
0
LINE
8
BLACK
6
CONTINUOUS
10
146.17
20
-76.9374
11
146.17
21
-76.8421
0
LINE
8
BLACK
6
CONTINUOUS
10
146.17
20
-76.8421
11
146.265
21
-76.6517
0
LINE
8
BLACK
6
CONTINUOUS
10
146.265
20
-76.6517
11
146.456
21
-76.5564
0
LINE
8
BLACK
6
CONTINUOUS
10
146.456
20
-76.5564
11
146.742
21
-76.5564
0
LINE
8
BLACK
6
CONTINUOUS
10
146.742
20
-76.5564
11
146.932
21
-76.6517
0
LINE
8
BLACK
6
CONTINUOUS
10
147.694
20
-78.6517
11
147.789
21
-78.5564
0
LINE
8
BLACK
6
CONTINUOUS
10
147.789
20
-78.5564
11
147.98
21
-78.2707
0
LINE
8
BLACK
6
CONTINUOUS
10
147.98
20
-78.2707
11
148.075
21
-78.0802
0
LINE
8
BLACK
6
CONTINUOUS
10
148.075
20
-78.0802
11
148.17
21
-77.7945
0
LINE
8
BLACK
6
CONTINUOUS
10
148.17
20
-77.7945
11
148.265
21
-77.3183
0
LINE
8
BLACK
6
CONTINUOUS
10
148.265
20
-77.3183
11
148.265
21
-76.9374
0
LINE
8
BLACK
6
CONTINUOUS
10
148.265
20
-76.9374
11
148.17
21
-76.4612
0
LINE
8
BLACK
6
CONTINUOUS
10
148.17
20
-76.4612
11
148.075
21
-76.1755
0
LINE
8
BLACK
6
CONTINUOUS
10
148.075
20
-76.1755
11
147.98
21
-75.985
0
LINE
8
BLACK
6
CONTINUOUS
10
147.98
20
-75.985
11
147.789
21
-75.6993
0
LINE
8
BLACK
6
CONTINUOUS
10
147.789
20
-75.6993
11
147.694
21
-75.604
  0
ENDSEC
  0
EOF
