M48
; DRILL file {KiCad 5.1.9-73d0e3b20d~88~ubuntu20.04.1} date Wed Jan 27 00:13:22 2021
; FORMAT={-:-/ absolute / metric / decimal}
; #@! TF.CreationDate,2021-01-27T00:13:22+01:00
; #@! TF.GenerationSoftware,Kicad,Pcbnew,5.1.9-73d0e3b20d~88~ubuntu20.04.1
; #@! TF.FileFunction,Plated,1,4,PTH
FMAT,2
METRIC
T1C0.400
T2C0.800
T3C1.000
%
G90
G05
T1
X109.851Y-25.625
X110.258Y-42.236
X111.934Y-24.558
X111.934Y-26.59
X112.086Y-36.191
X115.744Y-30.654
X115.744Y-37.258
X117.522Y-30.908
X117.522Y-35.988
X120.824Y-42.084
X120.824Y-55.8
X121.992Y-24.761
X122.856Y-57.578
X126.412Y-43.862
X126.412Y-45.03
X126.564Y-36.344
X126.564Y-49.806
X126.793Y-47.418
X130.476Y-55.165
X130.73Y-47.926
X130.73Y-53.895
X131.936Y-42.274
X132.0Y-50.402
X132.406Y-32.686
X132.508Y-38.528
X132.559Y-23.694
X133.905Y-53.895
X135.302Y-53.895
X135.81Y-42.135
X136.826Y-45.843
X137.131Y-48.891
X138.096Y-44.878
X138.413Y-38.528
X138.502Y-47.012
X138.502Y-48.129
X138.731Y-49.895
X140.687Y-57.578
X140.738Y-36.787
X141.652Y-30.4
X141.652Y-33.448
X142.596Y-38.687
X142.922Y-51.99
X153.031Y-38.782
T2
X147.38Y-22.98
X147.38Y-25.52
X147.38Y-28.06
X147.38Y-30.6
X147.38Y-33.14
X147.38Y-35.68
X147.38Y-38.22
X147.38Y-40.76
X147.38Y-43.3
X147.38Y-45.84
X147.38Y-48.38
X147.38Y-50.92
X147.38Y-53.46
X147.38Y-56.0
X155.0Y-22.98
X155.0Y-25.52
X155.0Y-28.06
X155.0Y-30.6
X155.0Y-33.14
X155.0Y-35.68
X155.0Y-38.22
X155.0Y-40.76
X155.0Y-43.3
X155.0Y-45.84
X155.0Y-48.38
X155.0Y-50.92
X155.0Y-53.46
X155.0Y-56.0
T3
X124.38Y-23.796
X124.38Y-26.336
X130.12Y-23.694
X130.12Y-26.234
X134.946Y-23.694
X134.946Y-26.234
T0
M30
