G04 #@! TF.GenerationSoftware,KiCad,Pcbnew,6.0.2-378541a8eb~116~ubuntu20.04.1*
G04 #@! TF.CreationDate,2022-02-17T23:44:56+01:00*
G04 #@! TF.ProjectId,minimig-arm-controller-0805,6d696e69-6d69-4672-9d61-726d2d636f6e,rev?*
G04 #@! TF.SameCoordinates,Original*
G04 #@! TF.FileFunction,Profile,NP*
%FSLAX46Y46*%
G04 Gerber Fmt 4.6, Leading zero omitted, Abs format (unit mm)*
G04 Created by KiCad (PCBNEW 6.0.2-378541a8eb~116~ubuntu20.04.1) date 2022-02-17 23:44:56*
%MOMM*%
%LPD*%
G01*
G04 APERTURE LIST*
G04 #@! TA.AperFunction,Profile*
%ADD10C,0.050000*%
G04 #@! TD*
G04 APERTURE END LIST*
D10*
X100000000Y-58000000D02*
X100000000Y-22500000D01*
X110250000Y-58250000D02*
X110250000Y-55750000D01*
X109750000Y-55750000D02*
X109750000Y-58250000D01*
X110250000Y-54750000D02*
X110250000Y-52500000D01*
X109750000Y-52500000D02*
X109750000Y-54750000D01*
X101750000Y-49750000D02*
X104500000Y-49750000D01*
X104500000Y-50250000D02*
X101750000Y-50250000D01*
X107500000Y-50250000D02*
G75*
G03*
X107500000Y-49750000I0J250000D01*
G01*
X105500000Y-49750000D02*
G75*
G03*
X105500000Y-50250000I0J-250000D01*
G01*
X105500000Y-49750000D02*
X107500000Y-49750000D01*
X107500000Y-50250000D02*
X105500000Y-50250000D01*
X108500000Y-49750000D02*
G75*
G03*
X108500000Y-50250000I0J-250000D01*
G01*
X109750000Y-51500000D02*
G75*
G03*
X110250000Y-51500000I250000J0D01*
G01*
X102000000Y-20500000D02*
X158000000Y-20500000D01*
X110250000Y-55750000D02*
G75*
G03*
X109750000Y-55750000I-250000J0D01*
G01*
X101750000Y-49750000D02*
G75*
G03*
X101750000Y-50250000I0J-250000D01*
G01*
X110250000Y-52500000D02*
G75*
G03*
X109750000Y-52500000I-250000J0D01*
G01*
X102000000Y-20500000D02*
G75*
G03*
X100000000Y-22500000I-1J-1999999D01*
G01*
X109750000Y-58250000D02*
G75*
G03*
X110250000Y-58250000I250000J0D01*
G01*
X106700000Y-55000000D02*
G75*
G03*
X106700000Y-55000000I-1700000J0D01*
G01*
X109750000Y-51500000D02*
G75*
G03*
X108500000Y-50250000I-1250002J-2D01*
G01*
X110250000Y-51500000D02*
G75*
G03*
X108500000Y-49750000I-1750000J0D01*
G01*
X109750000Y-54750000D02*
G75*
G03*
X110250000Y-54750000I250000J0D01*
G01*
X104500000Y-50250000D02*
G75*
G03*
X104500000Y-49750000I0J250000D01*
G01*
X158000000Y-60000000D02*
X102000000Y-60000000D01*
X160000000Y-22500000D02*
X160000000Y-58000000D01*
X100000000Y-58000000D02*
G75*
G03*
X102000000Y-60000000I1999999J-1D01*
G01*
X160000000Y-22500000D02*
G75*
G03*
X158000000Y-20500000I-1999999J1D01*
G01*
X158000000Y-60000000D02*
G75*
G03*
X160000000Y-58000000I1J1999999D01*
G01*
M02*
