G04 #@! TF.GenerationSoftware,KiCad,Pcbnew,6.0.2-378541a8eb~116~ubuntu20.04.1*
G04 #@! TF.CreationDate,2022-02-16T17:00:19+01:00*
G04 #@! TF.ProjectId,minimig-arm-controller-0805,6d696e69-6d69-4672-9d61-726d2d636f6e,rev?*
G04 #@! TF.SameCoordinates,Original*
G04 #@! TF.FileFunction,Legend,Top*
G04 #@! TF.FilePolarity,Positive*
%FSLAX46Y46*%
G04 Gerber Fmt 4.6, Leading zero omitted, Abs format (unit mm)*
G04 Created by KiCad (PCBNEW 6.0.2-378541a8eb~116~ubuntu20.04.1) date 2022-02-16 17:00:19*
%MOMM*%
%LPD*%
G01*
G04 APERTURE LIST*
%ADD10C,0.250000*%
%ADD11C,0.100000*%
%ADD12C,0.450000*%
%ADD13C,0.120000*%
%ADD14C,0.150000*%
G04 APERTURE END LIST*
D10*
X102364285Y-48302380D02*
X102030952Y-47826190D01*
X101792857Y-48302380D02*
X101792857Y-47302380D01*
X102173809Y-47302380D01*
X102269047Y-47350000D01*
X102316666Y-47397619D01*
X102364285Y-47492857D01*
X102364285Y-47635714D01*
X102316666Y-47730952D01*
X102269047Y-47778571D01*
X102173809Y-47826190D01*
X101792857Y-47826190D01*
X103173809Y-48254761D02*
X103078571Y-48302380D01*
X102888095Y-48302380D01*
X102792857Y-48254761D01*
X102745238Y-48159523D01*
X102745238Y-47778571D01*
X102792857Y-47683333D01*
X102888095Y-47635714D01*
X103078571Y-47635714D01*
X103173809Y-47683333D01*
X103221428Y-47778571D01*
X103221428Y-47873809D01*
X102745238Y-47969047D01*
X103554761Y-47635714D02*
X103792857Y-48302380D01*
X104030952Y-47635714D01*
X105697619Y-48302380D02*
X105126190Y-48302380D01*
X105411904Y-48302380D02*
X105411904Y-47302380D01*
X105316666Y-47445238D01*
X105221428Y-47540476D01*
X105126190Y-47588095D01*
X106126190Y-48207142D02*
X106173809Y-48254761D01*
X106126190Y-48302380D01*
X106078571Y-48254761D01*
X106126190Y-48207142D01*
X106126190Y-48302380D01*
X106792857Y-47302380D02*
X106888095Y-47302380D01*
X106983333Y-47350000D01*
X107030952Y-47397619D01*
X107078571Y-47492857D01*
X107126190Y-47683333D01*
X107126190Y-47921428D01*
X107078571Y-48111904D01*
X107030952Y-48207142D01*
X106983333Y-48254761D01*
X106888095Y-48302380D01*
X106792857Y-48302380D01*
X106697619Y-48254761D01*
X106650000Y-48207142D01*
X106602380Y-48111904D01*
X106554761Y-47921428D01*
X106554761Y-47683333D01*
X106602380Y-47492857D01*
X106650000Y-47397619D01*
X106697619Y-47350000D01*
X106792857Y-47302380D01*
X107554761Y-48207142D02*
X107602380Y-48254761D01*
X107554761Y-48302380D01*
X107507142Y-48254761D01*
X107554761Y-48207142D01*
X107554761Y-48302380D01*
X107983333Y-47397619D02*
X108030952Y-47350000D01*
X108126190Y-47302380D01*
X108364285Y-47302380D01*
X108459523Y-47350000D01*
X108507142Y-47397619D01*
X108554761Y-47492857D01*
X108554761Y-47588095D01*
X108507142Y-47730952D01*
X107935714Y-48302380D01*
X108554761Y-48302380D01*
X138802428Y-35759352D02*
X138802428Y-34997447D01*
X139183380Y-35378400D02*
X138421476Y-35378400D01*
X127186652Y-26277271D02*
X126424747Y-26277271D01*
X126800928Y-24176952D02*
X126800928Y-23415047D01*
X127181880Y-23796000D02*
X126419976Y-23796000D01*
D11*
X120723695Y-22037004D02*
X120647504Y-21998909D01*
X120609409Y-21960814D01*
X120571314Y-21884623D01*
X120571314Y-21656052D01*
X120609409Y-21579861D01*
X120647504Y-21541766D01*
X120723695Y-21503671D01*
X120837980Y-21503671D01*
X120914171Y-21541766D01*
X120952266Y-21579861D01*
X120990361Y-21656052D01*
X120990361Y-21884623D01*
X120952266Y-21960814D01*
X120914171Y-21998909D01*
X120837980Y-22037004D01*
X120723695Y-22037004D01*
X121333219Y-21503671D02*
X121333219Y-22303671D01*
X121333219Y-21541766D02*
X121409409Y-21503671D01*
X121561790Y-21503671D01*
X121637980Y-21541766D01*
X121676076Y-21579861D01*
X121714171Y-21656052D01*
X121714171Y-21884623D01*
X121676076Y-21960814D01*
X121637980Y-21998909D01*
X121561790Y-22037004D01*
X121409409Y-22037004D01*
X121333219Y-21998909D01*
X121942742Y-21503671D02*
X122247504Y-21503671D01*
X122057028Y-21237004D02*
X122057028Y-21922719D01*
X122095123Y-21998909D01*
X122171314Y-22037004D01*
X122247504Y-22037004D01*
X122514171Y-21960814D02*
X122552266Y-21998909D01*
X122514171Y-22037004D01*
X122476076Y-21998909D01*
X122514171Y-21960814D01*
X122514171Y-22037004D01*
X123428457Y-21237004D02*
X123923695Y-21237004D01*
X123657028Y-21541766D01*
X123771314Y-21541766D01*
X123847504Y-21579861D01*
X123885600Y-21617957D01*
X123923695Y-21694147D01*
X123923695Y-21884623D01*
X123885600Y-21960814D01*
X123847504Y-21998909D01*
X123771314Y-22037004D01*
X123542742Y-22037004D01*
X123466552Y-21998909D01*
X123428457Y-21960814D01*
X124190361Y-21503671D02*
X124380838Y-22037004D01*
X124571314Y-21503671D01*
X124799885Y-21237004D02*
X125295123Y-21237004D01*
X125028457Y-21541766D01*
X125142742Y-21541766D01*
X125218933Y-21579861D01*
X125257028Y-21617957D01*
X125295123Y-21694147D01*
X125295123Y-21884623D01*
X125257028Y-21960814D01*
X125218933Y-21998909D01*
X125142742Y-22037004D01*
X124914171Y-22037004D01*
X124837980Y-21998909D01*
X124799885Y-21960814D01*
X125866552Y-22341766D02*
X125828457Y-22303671D01*
X125752266Y-22189385D01*
X125714171Y-22113195D01*
X125676076Y-21998909D01*
X125637980Y-21808433D01*
X125637980Y-21656052D01*
X125676076Y-21465576D01*
X125714171Y-21351290D01*
X125752266Y-21275100D01*
X125828457Y-21160814D01*
X125866552Y-21122719D01*
X126171314Y-21960814D02*
X126209409Y-21998909D01*
X126171314Y-22037004D01*
X126133219Y-21998909D01*
X126171314Y-21960814D01*
X126171314Y-22037004D01*
X126171314Y-21732242D02*
X126133219Y-21275100D01*
X126171314Y-21237004D01*
X126209409Y-21275100D01*
X126171314Y-21732242D01*
X126171314Y-21237004D01*
X126476076Y-22341766D02*
X126514171Y-22303671D01*
X126590361Y-22189385D01*
X126628457Y-22113195D01*
X126666552Y-21998909D01*
X126704647Y-21808433D01*
X126704647Y-21656052D01*
X126666552Y-21465576D01*
X126628457Y-21351290D01*
X126590361Y-21275100D01*
X126514171Y-21160814D01*
X126476076Y-21122719D01*
X127580838Y-21503671D02*
X127885600Y-21503671D01*
X127695123Y-22037004D02*
X127695123Y-21351290D01*
X127733219Y-21275100D01*
X127809409Y-21237004D01*
X127885600Y-21237004D01*
X128266552Y-22037004D02*
X128190361Y-21998909D01*
X128152266Y-21960814D01*
X128114171Y-21884623D01*
X128114171Y-21656052D01*
X128152266Y-21579861D01*
X128190361Y-21541766D01*
X128266552Y-21503671D01*
X128380838Y-21503671D01*
X128457028Y-21541766D01*
X128495123Y-21579861D01*
X128533219Y-21656052D01*
X128533219Y-21884623D01*
X128495123Y-21960814D01*
X128457028Y-21998909D01*
X128380838Y-22037004D01*
X128266552Y-22037004D01*
X128876076Y-22037004D02*
X128876076Y-21503671D01*
X128876076Y-21656052D02*
X128914171Y-21579861D01*
X128952266Y-21541766D01*
X129028457Y-21503671D01*
X129104647Y-21503671D01*
X129942742Y-21998909D02*
X130018933Y-22037004D01*
X130171314Y-22037004D01*
X130247504Y-21998909D01*
X130285600Y-21922719D01*
X130285600Y-21884623D01*
X130247504Y-21808433D01*
X130171314Y-21770338D01*
X130057028Y-21770338D01*
X129980838Y-21732242D01*
X129942742Y-21656052D01*
X129942742Y-21617957D01*
X129980838Y-21541766D01*
X130057028Y-21503671D01*
X130171314Y-21503671D01*
X130247504Y-21541766D01*
X130514171Y-21503671D02*
X130818933Y-21503671D01*
X130628457Y-21237004D02*
X130628457Y-21922719D01*
X130666552Y-21998909D01*
X130742742Y-22037004D01*
X130818933Y-22037004D01*
X131428457Y-22037004D02*
X131428457Y-21617957D01*
X131390361Y-21541766D01*
X131314171Y-21503671D01*
X131161790Y-21503671D01*
X131085600Y-21541766D01*
X131428457Y-21998909D02*
X131352266Y-22037004D01*
X131161790Y-22037004D01*
X131085600Y-21998909D01*
X131047504Y-21922719D01*
X131047504Y-21846528D01*
X131085600Y-21770338D01*
X131161790Y-21732242D01*
X131352266Y-21732242D01*
X131428457Y-21694147D01*
X131809409Y-21503671D02*
X131809409Y-22037004D01*
X131809409Y-21579861D02*
X131847504Y-21541766D01*
X131923695Y-21503671D01*
X132037980Y-21503671D01*
X132114171Y-21541766D01*
X132152266Y-21617957D01*
X132152266Y-22037004D01*
X132876076Y-22037004D02*
X132876076Y-21237004D01*
X132876076Y-21998909D02*
X132799885Y-22037004D01*
X132647504Y-22037004D01*
X132571314Y-21998909D01*
X132533219Y-21960814D01*
X132495123Y-21884623D01*
X132495123Y-21656052D01*
X132533219Y-21579861D01*
X132571314Y-21541766D01*
X132647504Y-21503671D01*
X132799885Y-21503671D01*
X132876076Y-21541766D01*
X133599885Y-22037004D02*
X133599885Y-21617957D01*
X133561790Y-21541766D01*
X133485600Y-21503671D01*
X133333219Y-21503671D01*
X133257028Y-21541766D01*
X133599885Y-21998909D02*
X133523695Y-22037004D01*
X133333219Y-22037004D01*
X133257028Y-21998909D01*
X133218933Y-21922719D01*
X133218933Y-21846528D01*
X133257028Y-21770338D01*
X133333219Y-21732242D01*
X133523695Y-21732242D01*
X133599885Y-21694147D01*
X134095123Y-22037004D02*
X134018933Y-21998909D01*
X133980838Y-21922719D01*
X133980838Y-21237004D01*
X134514171Y-22037004D02*
X134437980Y-21998909D01*
X134399885Y-21960814D01*
X134361790Y-21884623D01*
X134361790Y-21656052D01*
X134399885Y-21579861D01*
X134437980Y-21541766D01*
X134514171Y-21503671D01*
X134628457Y-21503671D01*
X134704647Y-21541766D01*
X134742742Y-21579861D01*
X134780838Y-21656052D01*
X134780838Y-21884623D01*
X134742742Y-21960814D01*
X134704647Y-21998909D01*
X134628457Y-22037004D01*
X134514171Y-22037004D01*
X135123695Y-21503671D02*
X135123695Y-22037004D01*
X135123695Y-21579861D02*
X135161790Y-21541766D01*
X135237980Y-21503671D01*
X135352266Y-21503671D01*
X135428457Y-21541766D01*
X135466552Y-21617957D01*
X135466552Y-22037004D01*
X136152266Y-21998909D02*
X136076076Y-22037004D01*
X135923695Y-22037004D01*
X135847504Y-21998909D01*
X135809409Y-21922719D01*
X135809409Y-21617957D01*
X135847504Y-21541766D01*
X135923695Y-21503671D01*
X136076076Y-21503671D01*
X136152266Y-21541766D01*
X136190361Y-21617957D01*
X136190361Y-21694147D01*
X135809409Y-21770338D01*
X137028457Y-21503671D02*
X137333219Y-21503671D01*
X137142742Y-22037004D02*
X137142742Y-21351290D01*
X137180838Y-21275100D01*
X137257028Y-21237004D01*
X137333219Y-21237004D01*
X137714171Y-22037004D02*
X137637980Y-21998909D01*
X137599885Y-21922719D01*
X137599885Y-21237004D01*
X138361790Y-22037004D02*
X138361790Y-21617957D01*
X138323695Y-21541766D01*
X138247504Y-21503671D01*
X138095123Y-21503671D01*
X138018933Y-21541766D01*
X138361790Y-21998909D02*
X138285600Y-22037004D01*
X138095123Y-22037004D01*
X138018933Y-21998909D01*
X137980838Y-21922719D01*
X137980838Y-21846528D01*
X138018933Y-21770338D01*
X138095123Y-21732242D01*
X138285600Y-21732242D01*
X138361790Y-21694147D01*
X138704647Y-21998909D02*
X138780838Y-22037004D01*
X138933219Y-22037004D01*
X139009409Y-21998909D01*
X139047504Y-21922719D01*
X139047504Y-21884623D01*
X139009409Y-21808433D01*
X138933219Y-21770338D01*
X138818933Y-21770338D01*
X138742742Y-21732242D01*
X138704647Y-21656052D01*
X138704647Y-21617957D01*
X138742742Y-21541766D01*
X138818933Y-21503671D01*
X138933219Y-21503671D01*
X139009409Y-21541766D01*
X139390361Y-22037004D02*
X139390361Y-21237004D01*
X139733219Y-22037004D02*
X139733219Y-21617957D01*
X139695123Y-21541766D01*
X139618933Y-21503671D01*
X139504647Y-21503671D01*
X139428457Y-21541766D01*
X139390361Y-21579861D01*
X140114171Y-22037004D02*
X140114171Y-21503671D01*
X140114171Y-21237004D02*
X140076076Y-21275100D01*
X140114171Y-21313195D01*
X140152266Y-21275100D01*
X140114171Y-21237004D01*
X140114171Y-21313195D01*
X140495123Y-21503671D02*
X140495123Y-22037004D01*
X140495123Y-21579861D02*
X140533219Y-21541766D01*
X140609409Y-21503671D01*
X140723695Y-21503671D01*
X140799885Y-21541766D01*
X140837980Y-21617957D01*
X140837980Y-22037004D01*
X141561790Y-21503671D02*
X141561790Y-22151290D01*
X141523695Y-22227480D01*
X141485600Y-22265576D01*
X141409409Y-22303671D01*
X141295123Y-22303671D01*
X141218933Y-22265576D01*
X141561790Y-21998909D02*
X141485600Y-22037004D01*
X141333219Y-22037004D01*
X141257028Y-21998909D01*
X141218933Y-21960814D01*
X141180838Y-21884623D01*
X141180838Y-21656052D01*
X141218933Y-21579861D01*
X141257028Y-21541766D01*
X141333219Y-21503671D01*
X141485600Y-21503671D01*
X141561790Y-21541766D01*
D12*
X151991285Y-54507428D02*
X150191285Y-54507428D01*
X151477000Y-53907428D01*
X150191285Y-53307428D01*
X151991285Y-53307428D01*
X151991285Y-52450285D02*
X150791285Y-52450285D01*
X150191285Y-52450285D02*
X150277000Y-52536000D01*
X150362714Y-52450285D01*
X150277000Y-52364571D01*
X150191285Y-52450285D01*
X150362714Y-52450285D01*
X150791285Y-51593142D02*
X151991285Y-51593142D01*
X150962714Y-51593142D02*
X150877000Y-51507428D01*
X150791285Y-51336000D01*
X150791285Y-51078857D01*
X150877000Y-50907428D01*
X151048428Y-50821714D01*
X151991285Y-50821714D01*
X151991285Y-49964571D02*
X150791285Y-49964571D01*
X150191285Y-49964571D02*
X150277000Y-50050285D01*
X150362714Y-49964571D01*
X150277000Y-49878857D01*
X150191285Y-49964571D01*
X150362714Y-49964571D01*
X151991285Y-49107428D02*
X150791285Y-49107428D01*
X150962714Y-49107428D02*
X150877000Y-49021714D01*
X150791285Y-48850285D01*
X150791285Y-48593142D01*
X150877000Y-48421714D01*
X151048428Y-48336000D01*
X151991285Y-48336000D01*
X151048428Y-48336000D02*
X150877000Y-48250285D01*
X150791285Y-48078857D01*
X150791285Y-47821714D01*
X150877000Y-47650285D01*
X151048428Y-47564571D01*
X151991285Y-47564571D01*
X151991285Y-46707428D02*
X150791285Y-46707428D01*
X150191285Y-46707428D02*
X150277000Y-46793142D01*
X150362714Y-46707428D01*
X150277000Y-46621714D01*
X150191285Y-46707428D01*
X150362714Y-46707428D01*
X150791285Y-45078857D02*
X152248428Y-45078857D01*
X152419857Y-45164571D01*
X152505571Y-45250285D01*
X152591285Y-45421714D01*
X152591285Y-45678857D01*
X152505571Y-45850285D01*
X151905571Y-45078857D02*
X151991285Y-45250285D01*
X151991285Y-45593142D01*
X151905571Y-45764571D01*
X151819857Y-45850285D01*
X151648428Y-45936000D01*
X151134142Y-45936000D01*
X150962714Y-45850285D01*
X150877000Y-45764571D01*
X150791285Y-45593142D01*
X150791285Y-45250285D01*
X150877000Y-45078857D01*
X151477000Y-42936000D02*
X151477000Y-42078857D01*
X151991285Y-43107428D02*
X150191285Y-42507428D01*
X151991285Y-41907428D01*
X151991285Y-40278857D02*
X151134142Y-40878857D01*
X151991285Y-41307428D02*
X150191285Y-41307428D01*
X150191285Y-40621714D01*
X150277000Y-40450285D01*
X150362714Y-40364571D01*
X150534142Y-40278857D01*
X150791285Y-40278857D01*
X150962714Y-40364571D01*
X151048428Y-40450285D01*
X151134142Y-40621714D01*
X151134142Y-41307428D01*
X151991285Y-39507428D02*
X150191285Y-39507428D01*
X151477000Y-38907428D01*
X150191285Y-38307428D01*
X151991285Y-38307428D01*
X151819857Y-35050285D02*
X151905571Y-35136000D01*
X151991285Y-35393142D01*
X151991285Y-35564571D01*
X151905571Y-35821714D01*
X151734142Y-35993142D01*
X151562714Y-36078857D01*
X151219857Y-36164571D01*
X150962714Y-36164571D01*
X150619857Y-36078857D01*
X150448428Y-35993142D01*
X150277000Y-35821714D01*
X150191285Y-35564571D01*
X150191285Y-35393142D01*
X150277000Y-35136000D01*
X150362714Y-35050285D01*
X151991285Y-34021714D02*
X151905571Y-34193142D01*
X151819857Y-34278857D01*
X151648428Y-34364571D01*
X151134142Y-34364571D01*
X150962714Y-34278857D01*
X150877000Y-34193142D01*
X150791285Y-34021714D01*
X150791285Y-33764571D01*
X150877000Y-33593142D01*
X150962714Y-33507428D01*
X151134142Y-33421714D01*
X151648428Y-33421714D01*
X151819857Y-33507428D01*
X151905571Y-33593142D01*
X151991285Y-33764571D01*
X151991285Y-34021714D01*
X150791285Y-32650285D02*
X151991285Y-32650285D01*
X150962714Y-32650285D02*
X150877000Y-32564571D01*
X150791285Y-32393142D01*
X150791285Y-32136000D01*
X150877000Y-31964571D01*
X151048428Y-31878857D01*
X151991285Y-31878857D01*
X150791285Y-31278857D02*
X150791285Y-30593142D01*
X150191285Y-31021714D02*
X151734142Y-31021714D01*
X151905571Y-30936000D01*
X151991285Y-30764571D01*
X151991285Y-30593142D01*
X151991285Y-29993142D02*
X150791285Y-29993142D01*
X151134142Y-29993142D02*
X150962714Y-29907428D01*
X150877000Y-29821714D01*
X150791285Y-29650285D01*
X150791285Y-29478857D01*
X151991285Y-28621714D02*
X151905571Y-28793142D01*
X151819857Y-28878857D01*
X151648428Y-28964571D01*
X151134142Y-28964571D01*
X150962714Y-28878857D01*
X150877000Y-28793142D01*
X150791285Y-28621714D01*
X150791285Y-28364571D01*
X150877000Y-28193142D01*
X150962714Y-28107428D01*
X151134142Y-28021714D01*
X151648428Y-28021714D01*
X151819857Y-28107428D01*
X151905571Y-28193142D01*
X151991285Y-28364571D01*
X151991285Y-28621714D01*
X151991285Y-26993142D02*
X151905571Y-27164571D01*
X151734142Y-27250285D01*
X150191285Y-27250285D01*
X151991285Y-26050285D02*
X151905571Y-26221714D01*
X151734142Y-26307428D01*
X150191285Y-26307428D01*
X151905571Y-24678857D02*
X151991285Y-24850285D01*
X151991285Y-25193142D01*
X151905571Y-25364571D01*
X151734142Y-25450285D01*
X151048428Y-25450285D01*
X150877000Y-25364571D01*
X150791285Y-25193142D01*
X150791285Y-24850285D01*
X150877000Y-24678857D01*
X151048428Y-24593142D01*
X151219857Y-24593142D01*
X151391285Y-25450285D01*
X151991285Y-23821714D02*
X150791285Y-23821714D01*
X151134142Y-23821714D02*
X150962714Y-23736000D01*
X150877000Y-23650285D01*
X150791285Y-23478857D01*
X150791285Y-23307428D01*
D10*
X127998171Y-28766471D02*
X128331504Y-28766471D01*
X128474361Y-29290280D02*
X127998171Y-29290280D01*
X127998171Y-28290280D01*
X128474361Y-28290280D01*
X129474361Y-29290280D02*
X129141028Y-28814090D01*
X128902933Y-29290280D02*
X128902933Y-28290280D01*
X129283885Y-28290280D01*
X129379123Y-28337900D01*
X129426742Y-28385519D01*
X129474361Y-28480757D01*
X129474361Y-28623614D01*
X129426742Y-28718852D01*
X129379123Y-28766471D01*
X129283885Y-28814090D01*
X128902933Y-28814090D01*
X129855314Y-29004566D02*
X130331504Y-29004566D01*
X129760076Y-29290280D02*
X130093409Y-28290280D01*
X130426742Y-29290280D01*
X130712457Y-29242661D02*
X130855314Y-29290280D01*
X131093409Y-29290280D01*
X131188647Y-29242661D01*
X131236266Y-29195042D01*
X131283885Y-29099804D01*
X131283885Y-29004566D01*
X131236266Y-28909328D01*
X131188647Y-28861709D01*
X131093409Y-28814090D01*
X130902933Y-28766471D01*
X130807695Y-28718852D01*
X130760076Y-28671233D01*
X130712457Y-28575995D01*
X130712457Y-28480757D01*
X130760076Y-28385519D01*
X130807695Y-28337900D01*
X130902933Y-28290280D01*
X131141028Y-28290280D01*
X131283885Y-28337900D01*
X131712457Y-28766471D02*
X132045790Y-28766471D01*
X132188647Y-29290280D02*
X131712457Y-29290280D01*
X131712457Y-28290280D01*
X132188647Y-28290280D01*
X133325761Y-28264880D02*
X133897190Y-28264880D01*
X133611476Y-29264880D02*
X133611476Y-28264880D01*
X134230523Y-28741071D02*
X134563857Y-28741071D01*
X134706714Y-29264880D02*
X134230523Y-29264880D01*
X134230523Y-28264880D01*
X134706714Y-28264880D01*
X135087666Y-29217261D02*
X135230523Y-29264880D01*
X135468619Y-29264880D01*
X135563857Y-29217261D01*
X135611476Y-29169642D01*
X135659095Y-29074404D01*
X135659095Y-28979166D01*
X135611476Y-28883928D01*
X135563857Y-28836309D01*
X135468619Y-28788690D01*
X135278142Y-28741071D01*
X135182904Y-28693452D01*
X135135285Y-28645833D01*
X135087666Y-28550595D01*
X135087666Y-28455357D01*
X135135285Y-28360119D01*
X135182904Y-28312500D01*
X135278142Y-28264880D01*
X135516238Y-28264880D01*
X135659095Y-28312500D01*
X135944809Y-28264880D02*
X136516238Y-28264880D01*
X136230523Y-29264880D02*
X136230523Y-28264880D01*
D13*
X110000000Y-50000000D02*
X110000000Y-60000000D01*
X100000000Y-50000000D02*
X110000000Y-50000000D01*
D14*
G04 #@! TO.C,C17*
X142661714Y-58778114D02*
X142623619Y-58816209D01*
X142509333Y-58854304D01*
X142433142Y-58854304D01*
X142318857Y-58816209D01*
X142242666Y-58740019D01*
X142204571Y-58663828D01*
X142166476Y-58511447D01*
X142166476Y-58397161D01*
X142204571Y-58244780D01*
X142242666Y-58168590D01*
X142318857Y-58092400D01*
X142433142Y-58054304D01*
X142509333Y-58054304D01*
X142623619Y-58092400D01*
X142661714Y-58130495D01*
X143423619Y-58854304D02*
X142966476Y-58854304D01*
X143195047Y-58854304D02*
X143195047Y-58054304D01*
X143118857Y-58168590D01*
X143042666Y-58244780D01*
X142966476Y-58282876D01*
X143690285Y-58054304D02*
X144223619Y-58054304D01*
X143880761Y-58854304D01*
G04 #@! TO.C,C16*
X129615714Y-36115714D02*
X129577619Y-36153809D01*
X129463333Y-36191904D01*
X129387142Y-36191904D01*
X129272857Y-36153809D01*
X129196666Y-36077619D01*
X129158571Y-36001428D01*
X129120476Y-35849047D01*
X129120476Y-35734761D01*
X129158571Y-35582380D01*
X129196666Y-35506190D01*
X129272857Y-35430000D01*
X129387142Y-35391904D01*
X129463333Y-35391904D01*
X129577619Y-35430000D01*
X129615714Y-35468095D01*
X130377619Y-36191904D02*
X129920476Y-36191904D01*
X130149047Y-36191904D02*
X130149047Y-35391904D01*
X130072857Y-35506190D01*
X129996666Y-35582380D01*
X129920476Y-35620476D01*
X131063333Y-35391904D02*
X130910952Y-35391904D01*
X130834761Y-35430000D01*
X130796666Y-35468095D01*
X130720476Y-35582380D01*
X130682380Y-35734761D01*
X130682380Y-36039523D01*
X130720476Y-36115714D01*
X130758571Y-36153809D01*
X130834761Y-36191904D01*
X130987142Y-36191904D01*
X131063333Y-36153809D01*
X131101428Y-36115714D01*
X131139523Y-36039523D01*
X131139523Y-35849047D01*
X131101428Y-35772857D01*
X131063333Y-35734761D01*
X130987142Y-35696666D01*
X130834761Y-35696666D01*
X130758571Y-35734761D01*
X130720476Y-35772857D01*
X130682380Y-35849047D01*
G04 #@! TO.C,C15*
X131739714Y-59286114D02*
X131701619Y-59324209D01*
X131587333Y-59362304D01*
X131511142Y-59362304D01*
X131396857Y-59324209D01*
X131320666Y-59248019D01*
X131282571Y-59171828D01*
X131244476Y-59019447D01*
X131244476Y-58905161D01*
X131282571Y-58752780D01*
X131320666Y-58676590D01*
X131396857Y-58600400D01*
X131511142Y-58562304D01*
X131587333Y-58562304D01*
X131701619Y-58600400D01*
X131739714Y-58638495D01*
X132501619Y-59362304D02*
X132044476Y-59362304D01*
X132273047Y-59362304D02*
X132273047Y-58562304D01*
X132196857Y-58676590D01*
X132120666Y-58752780D01*
X132044476Y-58790876D01*
X133225428Y-58562304D02*
X132844476Y-58562304D01*
X132806380Y-58943257D01*
X132844476Y-58905161D01*
X132920666Y-58867066D01*
X133111142Y-58867066D01*
X133187333Y-58905161D01*
X133225428Y-58943257D01*
X133263523Y-59019447D01*
X133263523Y-59209923D01*
X133225428Y-59286114D01*
X133187333Y-59324209D01*
X133111142Y-59362304D01*
X132920666Y-59362304D01*
X132844476Y-59324209D01*
X132806380Y-59286114D01*
G04 #@! TO.C,C14*
X125155714Y-50175714D02*
X125117619Y-50213809D01*
X125003333Y-50251904D01*
X124927142Y-50251904D01*
X124812857Y-50213809D01*
X124736666Y-50137619D01*
X124698571Y-50061428D01*
X124660476Y-49909047D01*
X124660476Y-49794761D01*
X124698571Y-49642380D01*
X124736666Y-49566190D01*
X124812857Y-49490000D01*
X124927142Y-49451904D01*
X125003333Y-49451904D01*
X125117619Y-49490000D01*
X125155714Y-49528095D01*
X125917619Y-50251904D02*
X125460476Y-50251904D01*
X125689047Y-50251904D02*
X125689047Y-49451904D01*
X125612857Y-49566190D01*
X125536666Y-49642380D01*
X125460476Y-49680476D01*
X126603333Y-49718571D02*
X126603333Y-50251904D01*
X126412857Y-49413809D02*
X126222380Y-49985238D01*
X126717619Y-49985238D01*
G04 #@! TO.C,C8*
X138673866Y-59286114D02*
X138635771Y-59324209D01*
X138521485Y-59362304D01*
X138445295Y-59362304D01*
X138331009Y-59324209D01*
X138254819Y-59248019D01*
X138216723Y-59171828D01*
X138178628Y-59019447D01*
X138178628Y-58905161D01*
X138216723Y-58752780D01*
X138254819Y-58676590D01*
X138331009Y-58600400D01*
X138445295Y-58562304D01*
X138521485Y-58562304D01*
X138635771Y-58600400D01*
X138673866Y-58638495D01*
X139131009Y-58905161D02*
X139054819Y-58867066D01*
X139016723Y-58828971D01*
X138978628Y-58752780D01*
X138978628Y-58714685D01*
X139016723Y-58638495D01*
X139054819Y-58600400D01*
X139131009Y-58562304D01*
X139283390Y-58562304D01*
X139359580Y-58600400D01*
X139397676Y-58638495D01*
X139435771Y-58714685D01*
X139435771Y-58752780D01*
X139397676Y-58828971D01*
X139359580Y-58867066D01*
X139283390Y-58905161D01*
X139131009Y-58905161D01*
X139054819Y-58943257D01*
X139016723Y-58981352D01*
X138978628Y-59057542D01*
X138978628Y-59209923D01*
X139016723Y-59286114D01*
X139054819Y-59324209D01*
X139131009Y-59362304D01*
X139283390Y-59362304D01*
X139359580Y-59324209D01*
X139397676Y-59286114D01*
X139435771Y-59209923D01*
X139435771Y-59057542D01*
X139397676Y-58981352D01*
X139359580Y-58943257D01*
X139283390Y-58905161D01*
G04 #@! TO.C,C7*
X136591066Y-59286114D02*
X136552971Y-59324209D01*
X136438685Y-59362304D01*
X136362495Y-59362304D01*
X136248209Y-59324209D01*
X136172019Y-59248019D01*
X136133923Y-59171828D01*
X136095828Y-59019447D01*
X136095828Y-58905161D01*
X136133923Y-58752780D01*
X136172019Y-58676590D01*
X136248209Y-58600400D01*
X136362495Y-58562304D01*
X136438685Y-58562304D01*
X136552971Y-58600400D01*
X136591066Y-58638495D01*
X136857733Y-58562304D02*
X137391066Y-58562304D01*
X137048209Y-59362304D01*
G04 #@! TO.C,C6*
X134457466Y-59286114D02*
X134419371Y-59324209D01*
X134305085Y-59362304D01*
X134228895Y-59362304D01*
X134114609Y-59324209D01*
X134038419Y-59248019D01*
X134000323Y-59171828D01*
X133962228Y-59019447D01*
X133962228Y-58905161D01*
X134000323Y-58752780D01*
X134038419Y-58676590D01*
X134114609Y-58600400D01*
X134228895Y-58562304D01*
X134305085Y-58562304D01*
X134419371Y-58600400D01*
X134457466Y-58638495D01*
X135143180Y-58562304D02*
X134990800Y-58562304D01*
X134914609Y-58600400D01*
X134876514Y-58638495D01*
X134800323Y-58752780D01*
X134762228Y-58905161D01*
X134762228Y-59209923D01*
X134800323Y-59286114D01*
X134838419Y-59324209D01*
X134914609Y-59362304D01*
X135066990Y-59362304D01*
X135143180Y-59324209D01*
X135181276Y-59286114D01*
X135219371Y-59209923D01*
X135219371Y-59019447D01*
X135181276Y-58943257D01*
X135143180Y-58905161D01*
X135066990Y-58867066D01*
X134914609Y-58867066D01*
X134838419Y-58905161D01*
X134800323Y-58943257D01*
X134762228Y-59019447D01*
G04 #@! TO.C,C3*
X128196666Y-39515714D02*
X128158571Y-39553809D01*
X128044285Y-39591904D01*
X127968095Y-39591904D01*
X127853809Y-39553809D01*
X127777619Y-39477619D01*
X127739523Y-39401428D01*
X127701428Y-39249047D01*
X127701428Y-39134761D01*
X127739523Y-38982380D01*
X127777619Y-38906190D01*
X127853809Y-38830000D01*
X127968095Y-38791904D01*
X128044285Y-38791904D01*
X128158571Y-38830000D01*
X128196666Y-38868095D01*
X128463333Y-38791904D02*
X128958571Y-38791904D01*
X128691904Y-39096666D01*
X128806190Y-39096666D01*
X128882380Y-39134761D01*
X128920476Y-39172857D01*
X128958571Y-39249047D01*
X128958571Y-39439523D01*
X128920476Y-39515714D01*
X128882380Y-39553809D01*
X128806190Y-39591904D01*
X128577619Y-39591904D01*
X128501428Y-39553809D01*
X128463333Y-39515714D01*
G04 #@! TO.C,C5*
X143550666Y-29923714D02*
X143512571Y-29961809D01*
X143398285Y-29999904D01*
X143322095Y-29999904D01*
X143207809Y-29961809D01*
X143131619Y-29885619D01*
X143093523Y-29809428D01*
X143055428Y-29657047D01*
X143055428Y-29542761D01*
X143093523Y-29390380D01*
X143131619Y-29314190D01*
X143207809Y-29238000D01*
X143322095Y-29199904D01*
X143398285Y-29199904D01*
X143512571Y-29238000D01*
X143550666Y-29276095D01*
X144274476Y-29199904D02*
X143893523Y-29199904D01*
X143855428Y-29580857D01*
X143893523Y-29542761D01*
X143969714Y-29504666D01*
X144160190Y-29504666D01*
X144236380Y-29542761D01*
X144274476Y-29580857D01*
X144312571Y-29657047D01*
X144312571Y-29847523D01*
X144274476Y-29923714D01*
X144236380Y-29961809D01*
X144160190Y-29999904D01*
X143969714Y-29999904D01*
X143893523Y-29961809D01*
X143855428Y-29923714D01*
G04 #@! TO.C,C4*
X138724666Y-29034714D02*
X138686571Y-29072809D01*
X138572285Y-29110904D01*
X138496095Y-29110904D01*
X138381809Y-29072809D01*
X138305619Y-28996619D01*
X138267523Y-28920428D01*
X138229428Y-28768047D01*
X138229428Y-28653761D01*
X138267523Y-28501380D01*
X138305619Y-28425190D01*
X138381809Y-28349000D01*
X138496095Y-28310904D01*
X138572285Y-28310904D01*
X138686571Y-28349000D01*
X138724666Y-28387095D01*
X139410380Y-28577571D02*
X139410380Y-29110904D01*
X139219904Y-28272809D02*
X139029428Y-28844238D01*
X139524666Y-28844238D01*
G04 #@! TO.C,R1*
X128916666Y-54021904D02*
X128650000Y-53640952D01*
X128459523Y-54021904D02*
X128459523Y-53221904D01*
X128764285Y-53221904D01*
X128840476Y-53260000D01*
X128878571Y-53298095D01*
X128916666Y-53374285D01*
X128916666Y-53488571D01*
X128878571Y-53564761D01*
X128840476Y-53602857D01*
X128764285Y-53640952D01*
X128459523Y-53640952D01*
X129678571Y-54021904D02*
X129221428Y-54021904D01*
X129450000Y-54021904D02*
X129450000Y-53221904D01*
X129373809Y-53336190D01*
X129297619Y-53412380D01*
X129221428Y-53450476D01*
G04 #@! TO.C,C18*
X115195714Y-48035714D02*
X115157619Y-48073809D01*
X115043333Y-48111904D01*
X114967142Y-48111904D01*
X114852857Y-48073809D01*
X114776666Y-47997619D01*
X114738571Y-47921428D01*
X114700476Y-47769047D01*
X114700476Y-47654761D01*
X114738571Y-47502380D01*
X114776666Y-47426190D01*
X114852857Y-47350000D01*
X114967142Y-47311904D01*
X115043333Y-47311904D01*
X115157619Y-47350000D01*
X115195714Y-47388095D01*
X115957619Y-48111904D02*
X115500476Y-48111904D01*
X115729047Y-48111904D02*
X115729047Y-47311904D01*
X115652857Y-47426190D01*
X115576666Y-47502380D01*
X115500476Y-47540476D01*
X116414761Y-47654761D02*
X116338571Y-47616666D01*
X116300476Y-47578571D01*
X116262380Y-47502380D01*
X116262380Y-47464285D01*
X116300476Y-47388095D01*
X116338571Y-47350000D01*
X116414761Y-47311904D01*
X116567142Y-47311904D01*
X116643333Y-47350000D01*
X116681428Y-47388095D01*
X116719523Y-47464285D01*
X116719523Y-47502380D01*
X116681428Y-47578571D01*
X116643333Y-47616666D01*
X116567142Y-47654761D01*
X116414761Y-47654761D01*
X116338571Y-47692857D01*
X116300476Y-47730952D01*
X116262380Y-47807142D01*
X116262380Y-47959523D01*
X116300476Y-48035714D01*
X116338571Y-48073809D01*
X116414761Y-48111904D01*
X116567142Y-48111904D01*
X116643333Y-48073809D01*
X116681428Y-48035714D01*
X116719523Y-47959523D01*
X116719523Y-47807142D01*
X116681428Y-47730952D01*
X116643333Y-47692857D01*
X116567142Y-47654761D01*
G04 #@! TO.C,C9*
X115494266Y-49936514D02*
X115456171Y-49974609D01*
X115341885Y-50012704D01*
X115265695Y-50012704D01*
X115151409Y-49974609D01*
X115075219Y-49898419D01*
X115037123Y-49822228D01*
X114999028Y-49669847D01*
X114999028Y-49555561D01*
X115037123Y-49403180D01*
X115075219Y-49326990D01*
X115151409Y-49250800D01*
X115265695Y-49212704D01*
X115341885Y-49212704D01*
X115456171Y-49250800D01*
X115494266Y-49288895D01*
X115875219Y-50012704D02*
X116027600Y-50012704D01*
X116103790Y-49974609D01*
X116141885Y-49936514D01*
X116218076Y-49822228D01*
X116256171Y-49669847D01*
X116256171Y-49365085D01*
X116218076Y-49288895D01*
X116179980Y-49250800D01*
X116103790Y-49212704D01*
X115951409Y-49212704D01*
X115875219Y-49250800D01*
X115837123Y-49288895D01*
X115799028Y-49365085D01*
X115799028Y-49555561D01*
X115837123Y-49631752D01*
X115875219Y-49669847D01*
X115951409Y-49707942D01*
X116103790Y-49707942D01*
X116179980Y-49669847D01*
X116218076Y-49631752D01*
X116256171Y-49555561D01*
G04 #@! TO.C,C2*
X125106666Y-59335714D02*
X125068571Y-59373809D01*
X124954285Y-59411904D01*
X124878095Y-59411904D01*
X124763809Y-59373809D01*
X124687619Y-59297619D01*
X124649523Y-59221428D01*
X124611428Y-59069047D01*
X124611428Y-58954761D01*
X124649523Y-58802380D01*
X124687619Y-58726190D01*
X124763809Y-58650000D01*
X124878095Y-58611904D01*
X124954285Y-58611904D01*
X125068571Y-58650000D01*
X125106666Y-58688095D01*
X125411428Y-58688095D02*
X125449523Y-58650000D01*
X125525714Y-58611904D01*
X125716190Y-58611904D01*
X125792380Y-58650000D01*
X125830476Y-58688095D01*
X125868571Y-58764285D01*
X125868571Y-58840476D01*
X125830476Y-58954761D01*
X125373333Y-59411904D01*
X125868571Y-59411904D01*
G04 #@! TO.C,C1*
X127548666Y-59345714D02*
X127510571Y-59383809D01*
X127396285Y-59421904D01*
X127320095Y-59421904D01*
X127205809Y-59383809D01*
X127129619Y-59307619D01*
X127091523Y-59231428D01*
X127053428Y-59079047D01*
X127053428Y-58964761D01*
X127091523Y-58812380D01*
X127129619Y-58736190D01*
X127205809Y-58660000D01*
X127320095Y-58621904D01*
X127396285Y-58621904D01*
X127510571Y-58660000D01*
X127548666Y-58698095D01*
X128310571Y-59421904D02*
X127853428Y-59421904D01*
X128082000Y-59421904D02*
X128082000Y-58621904D01*
X128005809Y-58736190D01*
X127929619Y-58812380D01*
X127853428Y-58850476D01*
G04 #@! TO.C,R4*
X106893666Y-44242904D02*
X106627000Y-43861952D01*
X106436523Y-44242904D02*
X106436523Y-43442904D01*
X106741285Y-43442904D01*
X106817476Y-43481000D01*
X106855571Y-43519095D01*
X106893666Y-43595285D01*
X106893666Y-43709571D01*
X106855571Y-43785761D01*
X106817476Y-43823857D01*
X106741285Y-43861952D01*
X106436523Y-43861952D01*
X107579380Y-43709571D02*
X107579380Y-44242904D01*
X107388904Y-43404809D02*
X107198428Y-43976238D01*
X107693666Y-43976238D01*
G04 #@! TO.C,C13*
X106512714Y-24326714D02*
X106474619Y-24364809D01*
X106360333Y-24402904D01*
X106284142Y-24402904D01*
X106169857Y-24364809D01*
X106093666Y-24288619D01*
X106055571Y-24212428D01*
X106017476Y-24060047D01*
X106017476Y-23945761D01*
X106055571Y-23793380D01*
X106093666Y-23717190D01*
X106169857Y-23641000D01*
X106284142Y-23602904D01*
X106360333Y-23602904D01*
X106474619Y-23641000D01*
X106512714Y-23679095D01*
X107274619Y-24402904D02*
X106817476Y-24402904D01*
X107046047Y-24402904D02*
X107046047Y-23602904D01*
X106969857Y-23717190D01*
X106893666Y-23793380D01*
X106817476Y-23831476D01*
X107541285Y-23602904D02*
X108036523Y-23602904D01*
X107769857Y-23907666D01*
X107884142Y-23907666D01*
X107960333Y-23945761D01*
X107998428Y-23983857D01*
X108036523Y-24060047D01*
X108036523Y-24250523D01*
X107998428Y-24326714D01*
X107960333Y-24364809D01*
X107884142Y-24402904D01*
X107655571Y-24402904D01*
X107579380Y-24364809D01*
X107541285Y-24326714D01*
G04 #@! TO.C,R7*
X123357666Y-39143904D02*
X123091000Y-38762952D01*
X122900523Y-39143904D02*
X122900523Y-38343904D01*
X123205285Y-38343904D01*
X123281476Y-38382000D01*
X123319571Y-38420095D01*
X123357666Y-38496285D01*
X123357666Y-38610571D01*
X123319571Y-38686761D01*
X123281476Y-38724857D01*
X123205285Y-38762952D01*
X122900523Y-38762952D01*
X123624333Y-38343904D02*
X124157666Y-38343904D01*
X123814809Y-39143904D01*
G04 #@! TO.C,R6*
X119366666Y-23361904D02*
X119100000Y-22980952D01*
X118909523Y-23361904D02*
X118909523Y-22561904D01*
X119214285Y-22561904D01*
X119290476Y-22600000D01*
X119328571Y-22638095D01*
X119366666Y-22714285D01*
X119366666Y-22828571D01*
X119328571Y-22904761D01*
X119290476Y-22942857D01*
X119214285Y-22980952D01*
X118909523Y-22980952D01*
X120052380Y-22561904D02*
X119900000Y-22561904D01*
X119823809Y-22600000D01*
X119785714Y-22638095D01*
X119709523Y-22752380D01*
X119671428Y-22904761D01*
X119671428Y-23209523D01*
X119709523Y-23285714D01*
X119747619Y-23323809D01*
X119823809Y-23361904D01*
X119976190Y-23361904D01*
X120052380Y-23323809D01*
X120090476Y-23285714D01*
X120128571Y-23209523D01*
X120128571Y-23019047D01*
X120090476Y-22942857D01*
X120052380Y-22904761D01*
X119976190Y-22866666D01*
X119823809Y-22866666D01*
X119747619Y-22904761D01*
X119709523Y-22942857D01*
X119671428Y-23019047D01*
G04 #@! TO.C,R5*
X113866666Y-23361904D02*
X113600000Y-22980952D01*
X113409523Y-23361904D02*
X113409523Y-22561904D01*
X113714285Y-22561904D01*
X113790476Y-22600000D01*
X113828571Y-22638095D01*
X113866666Y-22714285D01*
X113866666Y-22828571D01*
X113828571Y-22904761D01*
X113790476Y-22942857D01*
X113714285Y-22980952D01*
X113409523Y-22980952D01*
X114590476Y-22561904D02*
X114209523Y-22561904D01*
X114171428Y-22942857D01*
X114209523Y-22904761D01*
X114285714Y-22866666D01*
X114476190Y-22866666D01*
X114552380Y-22904761D01*
X114590476Y-22942857D01*
X114628571Y-23019047D01*
X114628571Y-23209523D01*
X114590476Y-23285714D01*
X114552380Y-23323809D01*
X114476190Y-23361904D01*
X114285714Y-23361904D01*
X114209523Y-23323809D01*
X114171428Y-23285714D01*
G04 #@! TO.C,R3*
X123357666Y-35079904D02*
X123091000Y-34698952D01*
X122900523Y-35079904D02*
X122900523Y-34279904D01*
X123205285Y-34279904D01*
X123281476Y-34318000D01*
X123319571Y-34356095D01*
X123357666Y-34432285D01*
X123357666Y-34546571D01*
X123319571Y-34622761D01*
X123281476Y-34660857D01*
X123205285Y-34698952D01*
X122900523Y-34698952D01*
X123624333Y-34279904D02*
X124119571Y-34279904D01*
X123852904Y-34584666D01*
X123967190Y-34584666D01*
X124043380Y-34622761D01*
X124081476Y-34660857D01*
X124119571Y-34737047D01*
X124119571Y-34927523D01*
X124081476Y-35003714D01*
X124043380Y-35041809D01*
X123967190Y-35079904D01*
X123738619Y-35079904D01*
X123662428Y-35041809D01*
X123624333Y-35003714D01*
G04 #@! TO.C,R2*
X123357666Y-32861904D02*
X123091000Y-32480952D01*
X122900523Y-32861904D02*
X122900523Y-32061904D01*
X123205285Y-32061904D01*
X123281476Y-32100000D01*
X123319571Y-32138095D01*
X123357666Y-32214285D01*
X123357666Y-32328571D01*
X123319571Y-32404761D01*
X123281476Y-32442857D01*
X123205285Y-32480952D01*
X122900523Y-32480952D01*
X123662428Y-32138095D02*
X123700523Y-32100000D01*
X123776714Y-32061904D01*
X123967190Y-32061904D01*
X124043380Y-32100000D01*
X124081476Y-32138095D01*
X124119571Y-32214285D01*
X124119571Y-32290476D01*
X124081476Y-32404761D01*
X123624333Y-32861904D01*
X124119571Y-32861904D01*
G04 #@! TO.C,Q1*
X112424761Y-28277619D02*
X112329523Y-28230000D01*
X112234285Y-28134761D01*
X112091428Y-27991904D01*
X111996190Y-27944285D01*
X111900952Y-27944285D01*
X111948571Y-28182380D02*
X111853333Y-28134761D01*
X111758095Y-28039523D01*
X111710476Y-27849047D01*
X111710476Y-27515714D01*
X111758095Y-27325238D01*
X111853333Y-27230000D01*
X111948571Y-27182380D01*
X112139047Y-27182380D01*
X112234285Y-27230000D01*
X112329523Y-27325238D01*
X112377142Y-27515714D01*
X112377142Y-27849047D01*
X112329523Y-28039523D01*
X112234285Y-28134761D01*
X112139047Y-28182380D01*
X111948571Y-28182380D01*
X113329523Y-28182380D02*
X112758095Y-28182380D01*
X113043809Y-28182380D02*
X113043809Y-27182380D01*
X112948571Y-27325238D01*
X112853333Y-27420476D01*
X112758095Y-27468095D01*
G04 #@! TO.C,CN1*
X101809523Y-41357142D02*
X101761904Y-41404761D01*
X101619047Y-41452380D01*
X101523809Y-41452380D01*
X101380952Y-41404761D01*
X101285714Y-41309523D01*
X101238095Y-41214285D01*
X101190476Y-41023809D01*
X101190476Y-40880952D01*
X101238095Y-40690476D01*
X101285714Y-40595238D01*
X101380952Y-40500000D01*
X101523809Y-40452380D01*
X101619047Y-40452380D01*
X101761904Y-40500000D01*
X101809523Y-40547619D01*
X102238095Y-41452380D02*
X102238095Y-40452380D01*
X102809523Y-41452380D01*
X102809523Y-40452380D01*
X103809523Y-41452380D02*
X103238095Y-41452380D01*
X103523809Y-41452380D02*
X103523809Y-40452380D01*
X103428571Y-40595238D01*
X103333333Y-40690476D01*
X103238095Y-40738095D01*
G04 #@! TO.C,C12*
X123357714Y-37035714D02*
X123319619Y-37073809D01*
X123205333Y-37111904D01*
X123129142Y-37111904D01*
X123014857Y-37073809D01*
X122938666Y-36997619D01*
X122900571Y-36921428D01*
X122862476Y-36769047D01*
X122862476Y-36654761D01*
X122900571Y-36502380D01*
X122938666Y-36426190D01*
X123014857Y-36350000D01*
X123129142Y-36311904D01*
X123205333Y-36311904D01*
X123319619Y-36350000D01*
X123357714Y-36388095D01*
X124119619Y-37111904D02*
X123662476Y-37111904D01*
X123891047Y-37111904D02*
X123891047Y-36311904D01*
X123814857Y-36426190D01*
X123738666Y-36502380D01*
X123662476Y-36540476D01*
X124424380Y-36388095D02*
X124462476Y-36350000D01*
X124538666Y-36311904D01*
X124729142Y-36311904D01*
X124805333Y-36350000D01*
X124843428Y-36388095D01*
X124881523Y-36464285D01*
X124881523Y-36540476D01*
X124843428Y-36654761D01*
X124386285Y-37111904D01*
X124881523Y-37111904D01*
G04 #@! TO.C,C11*
X123484714Y-30685714D02*
X123446619Y-30723809D01*
X123332333Y-30761904D01*
X123256142Y-30761904D01*
X123141857Y-30723809D01*
X123065666Y-30647619D01*
X123027571Y-30571428D01*
X122989476Y-30419047D01*
X122989476Y-30304761D01*
X123027571Y-30152380D01*
X123065666Y-30076190D01*
X123141857Y-30000000D01*
X123256142Y-29961904D01*
X123332333Y-29961904D01*
X123446619Y-30000000D01*
X123484714Y-30038095D01*
X124246619Y-30761904D02*
X123789476Y-30761904D01*
X124018047Y-30761904D02*
X124018047Y-29961904D01*
X123941857Y-30076190D01*
X123865666Y-30152380D01*
X123789476Y-30190476D01*
X125008523Y-30761904D02*
X124551380Y-30761904D01*
X124779952Y-30761904D02*
X124779952Y-29961904D01*
X124703761Y-30076190D01*
X124627571Y-30152380D01*
X124551380Y-30190476D01*
G04 #@! TO.C,C10*
X116118714Y-33987714D02*
X116080619Y-34025809D01*
X115966333Y-34063904D01*
X115890142Y-34063904D01*
X115775857Y-34025809D01*
X115699666Y-33949619D01*
X115661571Y-33873428D01*
X115623476Y-33721047D01*
X115623476Y-33606761D01*
X115661571Y-33454380D01*
X115699666Y-33378190D01*
X115775857Y-33302000D01*
X115890142Y-33263904D01*
X115966333Y-33263904D01*
X116080619Y-33302000D01*
X116118714Y-33340095D01*
X116880619Y-34063904D02*
X116423476Y-34063904D01*
X116652047Y-34063904D02*
X116652047Y-33263904D01*
X116575857Y-33378190D01*
X116499666Y-33454380D01*
X116423476Y-33492476D01*
X117375857Y-33263904D02*
X117452047Y-33263904D01*
X117528238Y-33302000D01*
X117566333Y-33340095D01*
X117604428Y-33416285D01*
X117642523Y-33568666D01*
X117642523Y-33759142D01*
X117604428Y-33911523D01*
X117566333Y-33987714D01*
X117528238Y-34025809D01*
X117452047Y-34063904D01*
X117375857Y-34063904D01*
X117299666Y-34025809D01*
X117261571Y-33987714D01*
X117223476Y-33911523D01*
X117185380Y-33759142D01*
X117185380Y-33568666D01*
X117223476Y-33416285D01*
X117261571Y-33340095D01*
X117299666Y-33302000D01*
X117375857Y-33263904D01*
D13*
G04 #@! TO.C,X1*
X117455000Y-51795000D02*
G75*
G03*
X122505000Y-51795000I2525000J0D01*
G01*
X122505000Y-45545000D02*
G75*
G03*
X117455000Y-45545000I-2525000J0D01*
G01*
X117455000Y-51795000D02*
X117455000Y-45545000D01*
X122505000Y-51795000D02*
X122505000Y-45545000D01*
G04 #@! TO.C,J1*
X123050000Y-27666000D02*
X125710000Y-27666000D01*
X123050000Y-25066000D02*
X123050000Y-27666000D01*
X125710000Y-25066000D02*
X125710000Y-27666000D01*
X123050000Y-25066000D02*
X125710000Y-25066000D01*
X123050000Y-23796000D02*
X123050000Y-22466000D01*
X123050000Y-22466000D02*
X124380000Y-22466000D01*
G04 #@! TO.C,C17*
X144012600Y-55741948D02*
X144012600Y-56264452D01*
X142542600Y-55741948D02*
X142542600Y-56264452D01*
G04 #@! TO.C,C16*
X131671400Y-36046052D02*
X131671400Y-35523548D01*
X133141400Y-36046052D02*
X133141400Y-35523548D01*
G04 #@! TO.C,C15*
X133090600Y-56300748D02*
X133090600Y-56823252D01*
X131620600Y-56300748D02*
X131620600Y-56823252D01*
G04 #@! TO.C,C14*
X125801252Y-50685000D02*
X125278748Y-50685000D01*
X125801252Y-52155000D02*
X125278748Y-52155000D01*
G04 #@! TO.C,C8*
X139593000Y-56300748D02*
X139593000Y-56823252D01*
X138123000Y-56300748D02*
X138123000Y-56823252D01*
G04 #@! TO.C,C7*
X137459400Y-56300748D02*
X137459400Y-56823252D01*
X135989400Y-56300748D02*
X135989400Y-56823252D01*
G04 #@! TO.C,C6*
X135275000Y-56300748D02*
X135275000Y-56823252D01*
X133805000Y-56300748D02*
X133805000Y-56823252D01*
G04 #@! TO.C,C3*
X125829400Y-39551252D02*
X125829400Y-39028748D01*
X127299400Y-39551252D02*
X127299400Y-39028748D01*
G04 #@! TO.C,C5*
X143012500Y-32248752D02*
X143012500Y-31726248D01*
X144482500Y-32248752D02*
X144482500Y-31726248D01*
G04 #@! TO.C,C4*
X137284500Y-30301000D02*
X137284500Y-34686000D01*
X137284500Y-34686000D02*
X140304500Y-34686000D01*
X140304500Y-34686000D02*
X140304500Y-30301000D01*
G04 #@! TO.C,R1*
X126184936Y-54401400D02*
X126639064Y-54401400D01*
X126184936Y-52931400D02*
X126639064Y-52931400D01*
G04 #@! TO.C,C18*
X116515000Y-45451252D02*
X116515000Y-44928748D01*
X115045000Y-45451252D02*
X115045000Y-44928748D01*
G04 #@! TO.C,C9*
X115045000Y-51878748D02*
X115045000Y-52401252D01*
X116515000Y-51878748D02*
X116515000Y-52401252D01*
G04 #@! TO.C,C2*
X124503000Y-56347748D02*
X124503000Y-56870252D01*
X125973000Y-56347748D02*
X125973000Y-56870252D01*
G04 #@! TO.C,C1*
X126947000Y-56347748D02*
X126947000Y-56870252D01*
X128417000Y-56347748D02*
X128417000Y-56870252D01*
G04 #@! TO.C,R4*
X107254064Y-42966000D02*
X106799936Y-42966000D01*
X107254064Y-41496000D02*
X106799936Y-41496000D01*
G04 #@! TO.C,C13*
X106765748Y-24986000D02*
X107288252Y-24986000D01*
X106765748Y-26456000D02*
X107288252Y-26456000D01*
G04 #@! TO.C,R7*
X120906564Y-38047000D02*
X120452436Y-38047000D01*
X120906564Y-39517000D02*
X120452436Y-39517000D01*
G04 #@! TO.C,R6*
X118902500Y-25554936D02*
X118902500Y-26009064D01*
X120372500Y-25554936D02*
X120372500Y-26009064D01*
G04 #@! TO.C,R5*
X115489564Y-23777000D02*
X115035436Y-23777000D01*
X115489564Y-25247000D02*
X115035436Y-25247000D01*
G04 #@! TO.C,R3*
X120906564Y-33983000D02*
X120452436Y-33983000D01*
X120906564Y-35453000D02*
X120452436Y-35453000D01*
G04 #@! TO.C,R2*
X120906564Y-31780500D02*
X120452436Y-31780500D01*
X120906564Y-33250500D02*
X120452436Y-33250500D01*
G04 #@! TO.C,Q1*
X113612500Y-28447000D02*
X113612500Y-26987000D01*
X116772500Y-28447000D02*
X116772500Y-26287000D01*
X116772500Y-28447000D02*
X115842500Y-28447000D01*
X113612500Y-28447000D02*
X114542500Y-28447000D01*
G04 #@! TO.C,JP2*
X136276400Y-27564400D02*
X134946400Y-27564400D01*
X136276400Y-26234400D02*
X136276400Y-27564400D01*
X136276400Y-24964400D02*
X133616400Y-24964400D01*
X133616400Y-24964400D02*
X133616400Y-22364400D01*
X136276400Y-24964400D02*
X136276400Y-22364400D01*
X136276400Y-22364400D02*
X133616400Y-22364400D01*
G04 #@! TO.C,JP1*
X131450400Y-27564400D02*
X130120400Y-27564400D01*
X131450400Y-26234400D02*
X131450400Y-27564400D01*
X131450400Y-24964400D02*
X128790400Y-24964400D01*
X128790400Y-24964400D02*
X128790400Y-22364400D01*
X131450400Y-24964400D02*
X131450400Y-22364400D01*
X131450400Y-22364400D02*
X128790400Y-22364400D01*
G04 #@! TO.C,CN1*
X100590000Y-37936000D02*
X102250000Y-37936000D01*
X100590000Y-30016000D02*
X100590000Y-37936000D01*
X102250000Y-30016000D02*
X100590000Y-30016000D01*
X110060000Y-36026000D02*
X110060000Y-37176000D01*
X110650000Y-31926000D02*
X110650000Y-32626000D01*
X110060000Y-31926000D02*
X110650000Y-31926000D01*
X110060000Y-30776000D02*
X110060000Y-31926000D01*
X107750000Y-37936000D02*
X105150000Y-37936000D01*
X105150000Y-30016000D02*
X107750000Y-30016000D01*
G04 #@! TO.C,C12*
X120940752Y-36015000D02*
X120418248Y-36015000D01*
X120940752Y-37485000D02*
X120418248Y-37485000D01*
G04 #@! TO.C,C11*
X120940752Y-29665000D02*
X120418248Y-29665000D01*
X120940752Y-31135000D02*
X120418248Y-31135000D01*
G04 #@! TO.C,C10*
X113612000Y-33504248D02*
X113612000Y-34026752D01*
X115082000Y-33504248D02*
X115082000Y-34026752D01*
G04 #@! TO.C,U2*
X152190000Y-57330000D02*
X153840000Y-57330000D01*
X153840000Y-57330000D02*
X153840000Y-21650000D01*
X153840000Y-21650000D02*
X148540000Y-21650000D01*
X148540000Y-21650000D02*
X148540000Y-57330000D01*
X148540000Y-57330000D02*
X150190000Y-57330000D01*
X156330000Y-57390000D02*
X156330000Y-21590000D01*
X156330000Y-21590000D02*
X146050000Y-21590000D01*
X146050000Y-21590000D02*
X146050000Y-57390000D01*
X146050000Y-57390000D02*
X156330000Y-57390000D01*
X152190000Y-57330000D02*
G75*
G03*
X150190000Y-57330000I-1000000J0D01*
G01*
G04 #@! TO.C,U1*
X139777000Y-41988000D02*
X139777000Y-41038000D01*
X139777000Y-41038000D02*
X138827000Y-41038000D01*
X139777000Y-50308000D02*
X139777000Y-51258000D01*
X139777000Y-51258000D02*
X138827000Y-51258000D01*
X129557000Y-41988000D02*
X129557000Y-41038000D01*
X129557000Y-41038000D02*
X130507000Y-41038000D01*
X129557000Y-50308000D02*
X129557000Y-51258000D01*
X129557000Y-51258000D02*
X130507000Y-51258000D01*
X130507000Y-51258000D02*
X130507000Y-52598000D01*
G04 #@! TD*
M02*
