G04 #@! TF.GenerationSoftware,KiCad,Pcbnew,5.1.10-88a1d61d58~88~ubuntu20.04.1*
G04 #@! TF.CreationDate,2021-05-22T18:28:42+02:00*
G04 #@! TF.ProjectId,minimig-arm-controller-0805,6d696e69-6d69-4672-9d61-726d2d636f6e,rev?*
G04 #@! TF.SameCoordinates,Original*
G04 #@! TF.FileFunction,Soldermask,Top*
G04 #@! TF.FilePolarity,Negative*
%FSLAX46Y46*%
G04 Gerber Fmt 4.6, Leading zero omitted, Abs format (unit mm)*
G04 Created by KiCad (PCBNEW 5.1.10-88a1d61d58~88~ubuntu20.04.1) date 2021-05-22 18:28:42*
%MOMM*%
%LPD*%
G01*
G04 APERTURE LIST*
%ADD10R,2.000000X7.875000*%
%ADD11O,1.700000X1.700000*%
%ADD12R,1.700000X1.700000*%
%ADD13R,0.800000X0.900000*%
%ADD14C,0.900000*%
%ADD15R,2.500000X0.500000*%
%ADD16R,2.500000X2.000000*%
%ADD17O,1.600000X1.600000*%
%ADD18R,1.600000X1.600000*%
G04 APERTURE END LIST*
D10*
G04 #@! TO.C,X1*
X116840000Y-42894000D03*
X116840000Y-54769000D03*
G04 #@! TD*
D11*
G04 #@! TO.C,J1*
X124380000Y-26336000D03*
D12*
X124380000Y-23796000D03*
G04 #@! TD*
G04 #@! TO.C,C17*
G36*
G01*
X142802600Y-56453200D02*
X143752600Y-56453200D01*
G75*
G02*
X144002600Y-56703200I0J-250000D01*
G01*
X144002600Y-57378200D01*
G75*
G02*
X143752600Y-57628200I-250000J0D01*
G01*
X142802600Y-57628200D01*
G75*
G02*
X142552600Y-57378200I0J250000D01*
G01*
X142552600Y-56703200D01*
G75*
G02*
X142802600Y-56453200I250000J0D01*
G01*
G37*
G36*
G01*
X142802600Y-54378200D02*
X143752600Y-54378200D01*
G75*
G02*
X144002600Y-54628200I0J-250000D01*
G01*
X144002600Y-55303200D01*
G75*
G02*
X143752600Y-55553200I-250000J0D01*
G01*
X142802600Y-55553200D01*
G75*
G02*
X142552600Y-55303200I0J250000D01*
G01*
X142552600Y-54628200D01*
G75*
G02*
X142802600Y-54378200I250000J0D01*
G01*
G37*
G04 #@! TD*
G04 #@! TO.C,C16*
G36*
G01*
X132881400Y-35334800D02*
X131931400Y-35334800D01*
G75*
G02*
X131681400Y-35084800I0J250000D01*
G01*
X131681400Y-34409800D01*
G75*
G02*
X131931400Y-34159800I250000J0D01*
G01*
X132881400Y-34159800D01*
G75*
G02*
X133131400Y-34409800I0J-250000D01*
G01*
X133131400Y-35084800D01*
G75*
G02*
X132881400Y-35334800I-250000J0D01*
G01*
G37*
G36*
G01*
X132881400Y-37409800D02*
X131931400Y-37409800D01*
G75*
G02*
X131681400Y-37159800I0J250000D01*
G01*
X131681400Y-36484800D01*
G75*
G02*
X131931400Y-36234800I250000J0D01*
G01*
X132881400Y-36234800D01*
G75*
G02*
X133131400Y-36484800I0J-250000D01*
G01*
X133131400Y-37159800D01*
G75*
G02*
X132881400Y-37409800I-250000J0D01*
G01*
G37*
G04 #@! TD*
G04 #@! TO.C,C15*
G36*
G01*
X131880600Y-57012000D02*
X132830600Y-57012000D01*
G75*
G02*
X133080600Y-57262000I0J-250000D01*
G01*
X133080600Y-57937000D01*
G75*
G02*
X132830600Y-58187000I-250000J0D01*
G01*
X131880600Y-58187000D01*
G75*
G02*
X131630600Y-57937000I0J250000D01*
G01*
X131630600Y-57262000D01*
G75*
G02*
X131880600Y-57012000I250000J0D01*
G01*
G37*
G36*
G01*
X131880600Y-54937000D02*
X132830600Y-54937000D01*
G75*
G02*
X133080600Y-55187000I0J-250000D01*
G01*
X133080600Y-55862000D01*
G75*
G02*
X132830600Y-56112000I-250000J0D01*
G01*
X131880600Y-56112000D01*
G75*
G02*
X131630600Y-55862000I0J250000D01*
G01*
X131630600Y-55187000D01*
G75*
G02*
X131880600Y-54937000I250000J0D01*
G01*
G37*
G04 #@! TD*
G04 #@! TO.C,C14*
G36*
G01*
X124082400Y-50549800D02*
X124082400Y-51499800D01*
G75*
G02*
X123832400Y-51749800I-250000J0D01*
G01*
X123157400Y-51749800D01*
G75*
G02*
X122907400Y-51499800I0J250000D01*
G01*
X122907400Y-50549800D01*
G75*
G02*
X123157400Y-50299800I250000J0D01*
G01*
X123832400Y-50299800D01*
G75*
G02*
X124082400Y-50549800I0J-250000D01*
G01*
G37*
G36*
G01*
X126157400Y-50549800D02*
X126157400Y-51499800D01*
G75*
G02*
X125907400Y-51749800I-250000J0D01*
G01*
X125232400Y-51749800D01*
G75*
G02*
X124982400Y-51499800I0J250000D01*
G01*
X124982400Y-50549800D01*
G75*
G02*
X125232400Y-50299800I250000J0D01*
G01*
X125907400Y-50299800D01*
G75*
G02*
X126157400Y-50549800I0J-250000D01*
G01*
G37*
G04 #@! TD*
G04 #@! TO.C,C8*
G36*
G01*
X138383000Y-57012000D02*
X139333000Y-57012000D01*
G75*
G02*
X139583000Y-57262000I0J-250000D01*
G01*
X139583000Y-57937000D01*
G75*
G02*
X139333000Y-58187000I-250000J0D01*
G01*
X138383000Y-58187000D01*
G75*
G02*
X138133000Y-57937000I0J250000D01*
G01*
X138133000Y-57262000D01*
G75*
G02*
X138383000Y-57012000I250000J0D01*
G01*
G37*
G36*
G01*
X138383000Y-54937000D02*
X139333000Y-54937000D01*
G75*
G02*
X139583000Y-55187000I0J-250000D01*
G01*
X139583000Y-55862000D01*
G75*
G02*
X139333000Y-56112000I-250000J0D01*
G01*
X138383000Y-56112000D01*
G75*
G02*
X138133000Y-55862000I0J250000D01*
G01*
X138133000Y-55187000D01*
G75*
G02*
X138383000Y-54937000I250000J0D01*
G01*
G37*
G04 #@! TD*
G04 #@! TO.C,C7*
G36*
G01*
X136249400Y-57012000D02*
X137199400Y-57012000D01*
G75*
G02*
X137449400Y-57262000I0J-250000D01*
G01*
X137449400Y-57937000D01*
G75*
G02*
X137199400Y-58187000I-250000J0D01*
G01*
X136249400Y-58187000D01*
G75*
G02*
X135999400Y-57937000I0J250000D01*
G01*
X135999400Y-57262000D01*
G75*
G02*
X136249400Y-57012000I250000J0D01*
G01*
G37*
G36*
G01*
X136249400Y-54937000D02*
X137199400Y-54937000D01*
G75*
G02*
X137449400Y-55187000I0J-250000D01*
G01*
X137449400Y-55862000D01*
G75*
G02*
X137199400Y-56112000I-250000J0D01*
G01*
X136249400Y-56112000D01*
G75*
G02*
X135999400Y-55862000I0J250000D01*
G01*
X135999400Y-55187000D01*
G75*
G02*
X136249400Y-54937000I250000J0D01*
G01*
G37*
G04 #@! TD*
G04 #@! TO.C,C6*
G36*
G01*
X134065000Y-57012000D02*
X135015000Y-57012000D01*
G75*
G02*
X135265000Y-57262000I0J-250000D01*
G01*
X135265000Y-57937000D01*
G75*
G02*
X135015000Y-58187000I-250000J0D01*
G01*
X134065000Y-58187000D01*
G75*
G02*
X133815000Y-57937000I0J250000D01*
G01*
X133815000Y-57262000D01*
G75*
G02*
X134065000Y-57012000I250000J0D01*
G01*
G37*
G36*
G01*
X134065000Y-54937000D02*
X135015000Y-54937000D01*
G75*
G02*
X135265000Y-55187000I0J-250000D01*
G01*
X135265000Y-55862000D01*
G75*
G02*
X135015000Y-56112000I-250000J0D01*
G01*
X134065000Y-56112000D01*
G75*
G02*
X133815000Y-55862000I0J250000D01*
G01*
X133815000Y-55187000D01*
G75*
G02*
X134065000Y-54937000I250000J0D01*
G01*
G37*
G04 #@! TD*
G04 #@! TO.C,C3*
G36*
G01*
X127039400Y-38840000D02*
X126089400Y-38840000D01*
G75*
G02*
X125839400Y-38590000I0J250000D01*
G01*
X125839400Y-37915000D01*
G75*
G02*
X126089400Y-37665000I250000J0D01*
G01*
X127039400Y-37665000D01*
G75*
G02*
X127289400Y-37915000I0J-250000D01*
G01*
X127289400Y-38590000D01*
G75*
G02*
X127039400Y-38840000I-250000J0D01*
G01*
G37*
G36*
G01*
X127039400Y-40915000D02*
X126089400Y-40915000D01*
G75*
G02*
X125839400Y-40665000I0J250000D01*
G01*
X125839400Y-39990000D01*
G75*
G02*
X126089400Y-39740000I250000J0D01*
G01*
X127039400Y-39740000D01*
G75*
G02*
X127289400Y-39990000I0J-250000D01*
G01*
X127289400Y-40665000D01*
G75*
G02*
X127039400Y-40915000I-250000J0D01*
G01*
G37*
G04 #@! TD*
G04 #@! TO.C,C5*
G36*
G01*
X144222500Y-31537500D02*
X143272500Y-31537500D01*
G75*
G02*
X143022500Y-31287500I0J250000D01*
G01*
X143022500Y-30612500D01*
G75*
G02*
X143272500Y-30362500I250000J0D01*
G01*
X144222500Y-30362500D01*
G75*
G02*
X144472500Y-30612500I0J-250000D01*
G01*
X144472500Y-31287500D01*
G75*
G02*
X144222500Y-31537500I-250000J0D01*
G01*
G37*
G36*
G01*
X144222500Y-33612500D02*
X143272500Y-33612500D01*
G75*
G02*
X143022500Y-33362500I0J250000D01*
G01*
X143022500Y-32687500D01*
G75*
G02*
X143272500Y-32437500I250000J0D01*
G01*
X144222500Y-32437500D01*
G75*
G02*
X144472500Y-32687500I0J-250000D01*
G01*
X144472500Y-33362500D01*
G75*
G02*
X144222500Y-33612500I-250000J0D01*
G01*
G37*
G04 #@! TD*
G04 #@! TO.C,C4*
G36*
G01*
X139719500Y-31176000D02*
X137869500Y-31176000D01*
G75*
G02*
X137619500Y-30926000I0J250000D01*
G01*
X137619500Y-29926000D01*
G75*
G02*
X137869500Y-29676000I250000J0D01*
G01*
X139719500Y-29676000D01*
G75*
G02*
X139969500Y-29926000I0J-250000D01*
G01*
X139969500Y-30926000D01*
G75*
G02*
X139719500Y-31176000I-250000J0D01*
G01*
G37*
G36*
G01*
X139719500Y-34426000D02*
X137869500Y-34426000D01*
G75*
G02*
X137619500Y-34176000I0J250000D01*
G01*
X137619500Y-33176000D01*
G75*
G02*
X137869500Y-32926000I250000J0D01*
G01*
X139719500Y-32926000D01*
G75*
G02*
X139969500Y-33176000I0J-250000D01*
G01*
X139969500Y-34176000D01*
G75*
G02*
X139719500Y-34426000I-250000J0D01*
G01*
G37*
G04 #@! TD*
G04 #@! TO.C,R1*
G36*
G01*
X126812000Y-54116401D02*
X126812000Y-53216399D01*
G75*
G02*
X127061999Y-52966400I249999J0D01*
G01*
X127762001Y-52966400D01*
G75*
G02*
X128012000Y-53216399I0J-249999D01*
G01*
X128012000Y-54116401D01*
G75*
G02*
X127762001Y-54366400I-249999J0D01*
G01*
X127061999Y-54366400D01*
G75*
G02*
X126812000Y-54116401I0J249999D01*
G01*
G37*
G36*
G01*
X124812000Y-54116401D02*
X124812000Y-53216399D01*
G75*
G02*
X125061999Y-52966400I249999J0D01*
G01*
X125762001Y-52966400D01*
G75*
G02*
X126012000Y-53216399I0J-249999D01*
G01*
X126012000Y-54116401D01*
G75*
G02*
X125762001Y-54366400I-249999J0D01*
G01*
X125061999Y-54366400D01*
G75*
G02*
X124812000Y-54116401I0J249999D01*
G01*
G37*
G04 #@! TD*
G04 #@! TO.C,C18*
G36*
G01*
X121299000Y-44682000D02*
X120349000Y-44682000D01*
G75*
G02*
X120099000Y-44432000I0J250000D01*
G01*
X120099000Y-43757000D01*
G75*
G02*
X120349000Y-43507000I250000J0D01*
G01*
X121299000Y-43507000D01*
G75*
G02*
X121549000Y-43757000I0J-250000D01*
G01*
X121549000Y-44432000D01*
G75*
G02*
X121299000Y-44682000I-250000J0D01*
G01*
G37*
G36*
G01*
X121299000Y-46757000D02*
X120349000Y-46757000D01*
G75*
G02*
X120099000Y-46507000I0J250000D01*
G01*
X120099000Y-45832000D01*
G75*
G02*
X120349000Y-45582000I250000J0D01*
G01*
X121299000Y-45582000D01*
G75*
G02*
X121549000Y-45832000I0J-250000D01*
G01*
X121549000Y-46507000D01*
G75*
G02*
X121299000Y-46757000I-250000J0D01*
G01*
G37*
G04 #@! TD*
G04 #@! TO.C,C9*
G36*
G01*
X120349000Y-52948000D02*
X121299000Y-52948000D01*
G75*
G02*
X121549000Y-53198000I0J-250000D01*
G01*
X121549000Y-53873000D01*
G75*
G02*
X121299000Y-54123000I-250000J0D01*
G01*
X120349000Y-54123000D01*
G75*
G02*
X120099000Y-53873000I0J250000D01*
G01*
X120099000Y-53198000D01*
G75*
G02*
X120349000Y-52948000I250000J0D01*
G01*
G37*
G36*
G01*
X120349000Y-50873000D02*
X121299000Y-50873000D01*
G75*
G02*
X121549000Y-51123000I0J-250000D01*
G01*
X121549000Y-51798000D01*
G75*
G02*
X121299000Y-52048000I-250000J0D01*
G01*
X120349000Y-52048000D01*
G75*
G02*
X120099000Y-51798000I0J250000D01*
G01*
X120099000Y-51123000D01*
G75*
G02*
X120349000Y-50873000I250000J0D01*
G01*
G37*
G04 #@! TD*
G04 #@! TO.C,C2*
G36*
G01*
X124763000Y-57059000D02*
X125713000Y-57059000D01*
G75*
G02*
X125963000Y-57309000I0J-250000D01*
G01*
X125963000Y-57984000D01*
G75*
G02*
X125713000Y-58234000I-250000J0D01*
G01*
X124763000Y-58234000D01*
G75*
G02*
X124513000Y-57984000I0J250000D01*
G01*
X124513000Y-57309000D01*
G75*
G02*
X124763000Y-57059000I250000J0D01*
G01*
G37*
G36*
G01*
X124763000Y-54984000D02*
X125713000Y-54984000D01*
G75*
G02*
X125963000Y-55234000I0J-250000D01*
G01*
X125963000Y-55909000D01*
G75*
G02*
X125713000Y-56159000I-250000J0D01*
G01*
X124763000Y-56159000D01*
G75*
G02*
X124513000Y-55909000I0J250000D01*
G01*
X124513000Y-55234000D01*
G75*
G02*
X124763000Y-54984000I250000J0D01*
G01*
G37*
G04 #@! TD*
G04 #@! TO.C,C1*
G36*
G01*
X127207000Y-57059000D02*
X128157000Y-57059000D01*
G75*
G02*
X128407000Y-57309000I0J-250000D01*
G01*
X128407000Y-57984000D01*
G75*
G02*
X128157000Y-58234000I-250000J0D01*
G01*
X127207000Y-58234000D01*
G75*
G02*
X126957000Y-57984000I0J250000D01*
G01*
X126957000Y-57309000D01*
G75*
G02*
X127207000Y-57059000I250000J0D01*
G01*
G37*
G36*
G01*
X127207000Y-54984000D02*
X128157000Y-54984000D01*
G75*
G02*
X128407000Y-55234000I0J-250000D01*
G01*
X128407000Y-55909000D01*
G75*
G02*
X128157000Y-56159000I-250000J0D01*
G01*
X127207000Y-56159000D01*
G75*
G02*
X126957000Y-55909000I0J250000D01*
G01*
X126957000Y-55234000D01*
G75*
G02*
X127207000Y-54984000I250000J0D01*
G01*
G37*
G04 #@! TD*
G04 #@! TO.C,R4*
G36*
G01*
X106627000Y-41780999D02*
X106627000Y-42681001D01*
G75*
G02*
X106377001Y-42931000I-249999J0D01*
G01*
X105676999Y-42931000D01*
G75*
G02*
X105427000Y-42681001I0J249999D01*
G01*
X105427000Y-41780999D01*
G75*
G02*
X105676999Y-41531000I249999J0D01*
G01*
X106377001Y-41531000D01*
G75*
G02*
X106627000Y-41780999I0J-249999D01*
G01*
G37*
G36*
G01*
X108627000Y-41780999D02*
X108627000Y-42681001D01*
G75*
G02*
X108377001Y-42931000I-249999J0D01*
G01*
X107676999Y-42931000D01*
G75*
G02*
X107427000Y-42681001I0J249999D01*
G01*
X107427000Y-41780999D01*
G75*
G02*
X107676999Y-41531000I249999J0D01*
G01*
X108377001Y-41531000D01*
G75*
G02*
X108627000Y-41780999I0J-249999D01*
G01*
G37*
G04 #@! TD*
G04 #@! TO.C,C13*
G36*
G01*
X107477000Y-26196000D02*
X107477000Y-25246000D01*
G75*
G02*
X107727000Y-24996000I250000J0D01*
G01*
X108402000Y-24996000D01*
G75*
G02*
X108652000Y-25246000I0J-250000D01*
G01*
X108652000Y-26196000D01*
G75*
G02*
X108402000Y-26446000I-250000J0D01*
G01*
X107727000Y-26446000D01*
G75*
G02*
X107477000Y-26196000I0J250000D01*
G01*
G37*
G36*
G01*
X105402000Y-26196000D02*
X105402000Y-25246000D01*
G75*
G02*
X105652000Y-24996000I250000J0D01*
G01*
X106327000Y-24996000D01*
G75*
G02*
X106577000Y-25246000I0J-250000D01*
G01*
X106577000Y-26196000D01*
G75*
G02*
X106327000Y-26446000I-250000J0D01*
G01*
X105652000Y-26446000D01*
G75*
G02*
X105402000Y-26196000I0J250000D01*
G01*
G37*
G04 #@! TD*
G04 #@! TO.C,R7*
G36*
G01*
X120279500Y-38331999D02*
X120279500Y-39232001D01*
G75*
G02*
X120029501Y-39482000I-249999J0D01*
G01*
X119329499Y-39482000D01*
G75*
G02*
X119079500Y-39232001I0J249999D01*
G01*
X119079500Y-38331999D01*
G75*
G02*
X119329499Y-38082000I249999J0D01*
G01*
X120029501Y-38082000D01*
G75*
G02*
X120279500Y-38331999I0J-249999D01*
G01*
G37*
G36*
G01*
X122279500Y-38331999D02*
X122279500Y-39232001D01*
G75*
G02*
X122029501Y-39482000I-249999J0D01*
G01*
X121329499Y-39482000D01*
G75*
G02*
X121079500Y-39232001I0J249999D01*
G01*
X121079500Y-38331999D01*
G75*
G02*
X121329499Y-38082000I249999J0D01*
G01*
X122029501Y-38082000D01*
G75*
G02*
X122279500Y-38331999I0J-249999D01*
G01*
G37*
G04 #@! TD*
G04 #@! TO.C,R6*
G36*
G01*
X119187499Y-26182000D02*
X120087501Y-26182000D01*
G75*
G02*
X120337500Y-26431999I0J-249999D01*
G01*
X120337500Y-27132001D01*
G75*
G02*
X120087501Y-27382000I-249999J0D01*
G01*
X119187499Y-27382000D01*
G75*
G02*
X118937500Y-27132001I0J249999D01*
G01*
X118937500Y-26431999D01*
G75*
G02*
X119187499Y-26182000I249999J0D01*
G01*
G37*
G36*
G01*
X119187499Y-24182000D02*
X120087501Y-24182000D01*
G75*
G02*
X120337500Y-24431999I0J-249999D01*
G01*
X120337500Y-25132001D01*
G75*
G02*
X120087501Y-25382000I-249999J0D01*
G01*
X119187499Y-25382000D01*
G75*
G02*
X118937500Y-25132001I0J249999D01*
G01*
X118937500Y-24431999D01*
G75*
G02*
X119187499Y-24182000I249999J0D01*
G01*
G37*
G04 #@! TD*
G04 #@! TO.C,R5*
G36*
G01*
X114862500Y-24061999D02*
X114862500Y-24962001D01*
G75*
G02*
X114612501Y-25212000I-249999J0D01*
G01*
X113912499Y-25212000D01*
G75*
G02*
X113662500Y-24962001I0J249999D01*
G01*
X113662500Y-24061999D01*
G75*
G02*
X113912499Y-23812000I249999J0D01*
G01*
X114612501Y-23812000D01*
G75*
G02*
X114862500Y-24061999I0J-249999D01*
G01*
G37*
G36*
G01*
X116862500Y-24061999D02*
X116862500Y-24962001D01*
G75*
G02*
X116612501Y-25212000I-249999J0D01*
G01*
X115912499Y-25212000D01*
G75*
G02*
X115662500Y-24962001I0J249999D01*
G01*
X115662500Y-24061999D01*
G75*
G02*
X115912499Y-23812000I249999J0D01*
G01*
X116612501Y-23812000D01*
G75*
G02*
X116862500Y-24061999I0J-249999D01*
G01*
G37*
G04 #@! TD*
G04 #@! TO.C,R3*
G36*
G01*
X120279500Y-34267999D02*
X120279500Y-35168001D01*
G75*
G02*
X120029501Y-35418000I-249999J0D01*
G01*
X119329499Y-35418000D01*
G75*
G02*
X119079500Y-35168001I0J249999D01*
G01*
X119079500Y-34267999D01*
G75*
G02*
X119329499Y-34018000I249999J0D01*
G01*
X120029501Y-34018000D01*
G75*
G02*
X120279500Y-34267999I0J-249999D01*
G01*
G37*
G36*
G01*
X122279500Y-34267999D02*
X122279500Y-35168001D01*
G75*
G02*
X122029501Y-35418000I-249999J0D01*
G01*
X121329499Y-35418000D01*
G75*
G02*
X121079500Y-35168001I0J249999D01*
G01*
X121079500Y-34267999D01*
G75*
G02*
X121329499Y-34018000I249999J0D01*
G01*
X122029501Y-34018000D01*
G75*
G02*
X122279500Y-34267999I0J-249999D01*
G01*
G37*
G04 #@! TD*
G04 #@! TO.C,R2*
G36*
G01*
X120279500Y-32065499D02*
X120279500Y-32965501D01*
G75*
G02*
X120029501Y-33215500I-249999J0D01*
G01*
X119329499Y-33215500D01*
G75*
G02*
X119079500Y-32965501I0J249999D01*
G01*
X119079500Y-32065499D01*
G75*
G02*
X119329499Y-31815500I249999J0D01*
G01*
X120029501Y-31815500D01*
G75*
G02*
X120279500Y-32065499I0J-249999D01*
G01*
G37*
G36*
G01*
X122279500Y-32065499D02*
X122279500Y-32965501D01*
G75*
G02*
X122029501Y-33215500I-249999J0D01*
G01*
X121329499Y-33215500D01*
G75*
G02*
X121079500Y-32965501I0J249999D01*
G01*
X121079500Y-32065499D01*
G75*
G02*
X121329499Y-31815500I249999J0D01*
G01*
X122029501Y-31815500D01*
G75*
G02*
X122279500Y-32065499I0J-249999D01*
G01*
G37*
G04 #@! TD*
D13*
G04 #@! TO.C,Q1*
X115192500Y-28687000D03*
X114242500Y-26687000D03*
X116142500Y-26687000D03*
G04 #@! TD*
D11*
G04 #@! TO.C,JP2*
X134946400Y-23694400D03*
D12*
X134946400Y-26234400D03*
G04 #@! TD*
D11*
G04 #@! TO.C,JP1*
X130120400Y-23694400D03*
D12*
X130120400Y-26234400D03*
G04 #@! TD*
D14*
G04 #@! TO.C,CN1*
X106600000Y-36176000D03*
X106600000Y-31776000D03*
D15*
X109200000Y-35576000D03*
X109200000Y-34776000D03*
X109200000Y-33976000D03*
X109200000Y-33176000D03*
X109200000Y-32376000D03*
D16*
X109200000Y-38376000D03*
X109200000Y-29576000D03*
X103700000Y-38376000D03*
X103700000Y-29576000D03*
G04 #@! TD*
G04 #@! TO.C,C12*
G36*
G01*
X120229500Y-36275000D02*
X120229500Y-37225000D01*
G75*
G02*
X119979500Y-37475000I-250000J0D01*
G01*
X119304500Y-37475000D01*
G75*
G02*
X119054500Y-37225000I0J250000D01*
G01*
X119054500Y-36275000D01*
G75*
G02*
X119304500Y-36025000I250000J0D01*
G01*
X119979500Y-36025000D01*
G75*
G02*
X120229500Y-36275000I0J-250000D01*
G01*
G37*
G36*
G01*
X122304500Y-36275000D02*
X122304500Y-37225000D01*
G75*
G02*
X122054500Y-37475000I-250000J0D01*
G01*
X121379500Y-37475000D01*
G75*
G02*
X121129500Y-37225000I0J250000D01*
G01*
X121129500Y-36275000D01*
G75*
G02*
X121379500Y-36025000I250000J0D01*
G01*
X122054500Y-36025000D01*
G75*
G02*
X122304500Y-36275000I0J-250000D01*
G01*
G37*
G04 #@! TD*
G04 #@! TO.C,C11*
G36*
G01*
X120229500Y-29925000D02*
X120229500Y-30875000D01*
G75*
G02*
X119979500Y-31125000I-250000J0D01*
G01*
X119304500Y-31125000D01*
G75*
G02*
X119054500Y-30875000I0J250000D01*
G01*
X119054500Y-29925000D01*
G75*
G02*
X119304500Y-29675000I250000J0D01*
G01*
X119979500Y-29675000D01*
G75*
G02*
X120229500Y-29925000I0J-250000D01*
G01*
G37*
G36*
G01*
X122304500Y-29925000D02*
X122304500Y-30875000D01*
G75*
G02*
X122054500Y-31125000I-250000J0D01*
G01*
X121379500Y-31125000D01*
G75*
G02*
X121129500Y-30875000I0J250000D01*
G01*
X121129500Y-29925000D01*
G75*
G02*
X121379500Y-29675000I250000J0D01*
G01*
X122054500Y-29675000D01*
G75*
G02*
X122304500Y-29925000I0J-250000D01*
G01*
G37*
G04 #@! TD*
G04 #@! TO.C,C10*
G36*
G01*
X113872000Y-34215500D02*
X114822000Y-34215500D01*
G75*
G02*
X115072000Y-34465500I0J-250000D01*
G01*
X115072000Y-35140500D01*
G75*
G02*
X114822000Y-35390500I-250000J0D01*
G01*
X113872000Y-35390500D01*
G75*
G02*
X113622000Y-35140500I0J250000D01*
G01*
X113622000Y-34465500D01*
G75*
G02*
X113872000Y-34215500I250000J0D01*
G01*
G37*
G36*
G01*
X113872000Y-32140500D02*
X114822000Y-32140500D01*
G75*
G02*
X115072000Y-32390500I0J-250000D01*
G01*
X115072000Y-33065500D01*
G75*
G02*
X114822000Y-33315500I-250000J0D01*
G01*
X113872000Y-33315500D01*
G75*
G02*
X113622000Y-33065500I0J250000D01*
G01*
X113622000Y-32390500D01*
G75*
G02*
X113872000Y-32140500I250000J0D01*
G01*
G37*
G04 #@! TD*
D17*
G04 #@! TO.C,U2*
X147380000Y-56000000D03*
X155000000Y-22980000D03*
X147380000Y-53460000D03*
X155000000Y-25520000D03*
X147380000Y-50920000D03*
X155000000Y-28060000D03*
X147380000Y-48380000D03*
X155000000Y-30600000D03*
X147380000Y-45840000D03*
X155000000Y-33140000D03*
X147380000Y-43300000D03*
X155000000Y-35680000D03*
X147380000Y-40760000D03*
X155000000Y-38220000D03*
X147380000Y-38220000D03*
X155000000Y-40760000D03*
X147380000Y-35680000D03*
X155000000Y-43300000D03*
X147380000Y-33140000D03*
X155000000Y-45840000D03*
X147380000Y-30600000D03*
X155000000Y-48380000D03*
X147380000Y-28060000D03*
X155000000Y-50920000D03*
X147380000Y-25520000D03*
X155000000Y-53460000D03*
X147380000Y-22980000D03*
D18*
X155000000Y-56000000D03*
G04 #@! TD*
G04 #@! TO.C,U1*
G36*
G01*
X129692000Y-50048000D02*
X128292000Y-50048000D01*
G75*
G02*
X128217000Y-49973000I0J75000D01*
G01*
X128217000Y-49823000D01*
G75*
G02*
X128292000Y-49748000I75000J0D01*
G01*
X129692000Y-49748000D01*
G75*
G02*
X129767000Y-49823000I0J-75000D01*
G01*
X129767000Y-49973000D01*
G75*
G02*
X129692000Y-50048000I-75000J0D01*
G01*
G37*
G36*
G01*
X129692000Y-49548000D02*
X128292000Y-49548000D01*
G75*
G02*
X128217000Y-49473000I0J75000D01*
G01*
X128217000Y-49323000D01*
G75*
G02*
X128292000Y-49248000I75000J0D01*
G01*
X129692000Y-49248000D01*
G75*
G02*
X129767000Y-49323000I0J-75000D01*
G01*
X129767000Y-49473000D01*
G75*
G02*
X129692000Y-49548000I-75000J0D01*
G01*
G37*
G36*
G01*
X129692000Y-49048000D02*
X128292000Y-49048000D01*
G75*
G02*
X128217000Y-48973000I0J75000D01*
G01*
X128217000Y-48823000D01*
G75*
G02*
X128292000Y-48748000I75000J0D01*
G01*
X129692000Y-48748000D01*
G75*
G02*
X129767000Y-48823000I0J-75000D01*
G01*
X129767000Y-48973000D01*
G75*
G02*
X129692000Y-49048000I-75000J0D01*
G01*
G37*
G36*
G01*
X129692000Y-48548000D02*
X128292000Y-48548000D01*
G75*
G02*
X128217000Y-48473000I0J75000D01*
G01*
X128217000Y-48323000D01*
G75*
G02*
X128292000Y-48248000I75000J0D01*
G01*
X129692000Y-48248000D01*
G75*
G02*
X129767000Y-48323000I0J-75000D01*
G01*
X129767000Y-48473000D01*
G75*
G02*
X129692000Y-48548000I-75000J0D01*
G01*
G37*
G36*
G01*
X129692000Y-48048000D02*
X128292000Y-48048000D01*
G75*
G02*
X128217000Y-47973000I0J75000D01*
G01*
X128217000Y-47823000D01*
G75*
G02*
X128292000Y-47748000I75000J0D01*
G01*
X129692000Y-47748000D01*
G75*
G02*
X129767000Y-47823000I0J-75000D01*
G01*
X129767000Y-47973000D01*
G75*
G02*
X129692000Y-48048000I-75000J0D01*
G01*
G37*
G36*
G01*
X129692000Y-47548000D02*
X128292000Y-47548000D01*
G75*
G02*
X128217000Y-47473000I0J75000D01*
G01*
X128217000Y-47323000D01*
G75*
G02*
X128292000Y-47248000I75000J0D01*
G01*
X129692000Y-47248000D01*
G75*
G02*
X129767000Y-47323000I0J-75000D01*
G01*
X129767000Y-47473000D01*
G75*
G02*
X129692000Y-47548000I-75000J0D01*
G01*
G37*
G36*
G01*
X129692000Y-47048000D02*
X128292000Y-47048000D01*
G75*
G02*
X128217000Y-46973000I0J75000D01*
G01*
X128217000Y-46823000D01*
G75*
G02*
X128292000Y-46748000I75000J0D01*
G01*
X129692000Y-46748000D01*
G75*
G02*
X129767000Y-46823000I0J-75000D01*
G01*
X129767000Y-46973000D01*
G75*
G02*
X129692000Y-47048000I-75000J0D01*
G01*
G37*
G36*
G01*
X129692000Y-46548000D02*
X128292000Y-46548000D01*
G75*
G02*
X128217000Y-46473000I0J75000D01*
G01*
X128217000Y-46323000D01*
G75*
G02*
X128292000Y-46248000I75000J0D01*
G01*
X129692000Y-46248000D01*
G75*
G02*
X129767000Y-46323000I0J-75000D01*
G01*
X129767000Y-46473000D01*
G75*
G02*
X129692000Y-46548000I-75000J0D01*
G01*
G37*
G36*
G01*
X129692000Y-46048000D02*
X128292000Y-46048000D01*
G75*
G02*
X128217000Y-45973000I0J75000D01*
G01*
X128217000Y-45823000D01*
G75*
G02*
X128292000Y-45748000I75000J0D01*
G01*
X129692000Y-45748000D01*
G75*
G02*
X129767000Y-45823000I0J-75000D01*
G01*
X129767000Y-45973000D01*
G75*
G02*
X129692000Y-46048000I-75000J0D01*
G01*
G37*
G36*
G01*
X129692000Y-45548000D02*
X128292000Y-45548000D01*
G75*
G02*
X128217000Y-45473000I0J75000D01*
G01*
X128217000Y-45323000D01*
G75*
G02*
X128292000Y-45248000I75000J0D01*
G01*
X129692000Y-45248000D01*
G75*
G02*
X129767000Y-45323000I0J-75000D01*
G01*
X129767000Y-45473000D01*
G75*
G02*
X129692000Y-45548000I-75000J0D01*
G01*
G37*
G36*
G01*
X129692000Y-45048000D02*
X128292000Y-45048000D01*
G75*
G02*
X128217000Y-44973000I0J75000D01*
G01*
X128217000Y-44823000D01*
G75*
G02*
X128292000Y-44748000I75000J0D01*
G01*
X129692000Y-44748000D01*
G75*
G02*
X129767000Y-44823000I0J-75000D01*
G01*
X129767000Y-44973000D01*
G75*
G02*
X129692000Y-45048000I-75000J0D01*
G01*
G37*
G36*
G01*
X129692000Y-44548000D02*
X128292000Y-44548000D01*
G75*
G02*
X128217000Y-44473000I0J75000D01*
G01*
X128217000Y-44323000D01*
G75*
G02*
X128292000Y-44248000I75000J0D01*
G01*
X129692000Y-44248000D01*
G75*
G02*
X129767000Y-44323000I0J-75000D01*
G01*
X129767000Y-44473000D01*
G75*
G02*
X129692000Y-44548000I-75000J0D01*
G01*
G37*
G36*
G01*
X129692000Y-44048000D02*
X128292000Y-44048000D01*
G75*
G02*
X128217000Y-43973000I0J75000D01*
G01*
X128217000Y-43823000D01*
G75*
G02*
X128292000Y-43748000I75000J0D01*
G01*
X129692000Y-43748000D01*
G75*
G02*
X129767000Y-43823000I0J-75000D01*
G01*
X129767000Y-43973000D01*
G75*
G02*
X129692000Y-44048000I-75000J0D01*
G01*
G37*
G36*
G01*
X129692000Y-43548000D02*
X128292000Y-43548000D01*
G75*
G02*
X128217000Y-43473000I0J75000D01*
G01*
X128217000Y-43323000D01*
G75*
G02*
X128292000Y-43248000I75000J0D01*
G01*
X129692000Y-43248000D01*
G75*
G02*
X129767000Y-43323000I0J-75000D01*
G01*
X129767000Y-43473000D01*
G75*
G02*
X129692000Y-43548000I-75000J0D01*
G01*
G37*
G36*
G01*
X129692000Y-43048000D02*
X128292000Y-43048000D01*
G75*
G02*
X128217000Y-42973000I0J75000D01*
G01*
X128217000Y-42823000D01*
G75*
G02*
X128292000Y-42748000I75000J0D01*
G01*
X129692000Y-42748000D01*
G75*
G02*
X129767000Y-42823000I0J-75000D01*
G01*
X129767000Y-42973000D01*
G75*
G02*
X129692000Y-43048000I-75000J0D01*
G01*
G37*
G36*
G01*
X129692000Y-42548000D02*
X128292000Y-42548000D01*
G75*
G02*
X128217000Y-42473000I0J75000D01*
G01*
X128217000Y-42323000D01*
G75*
G02*
X128292000Y-42248000I75000J0D01*
G01*
X129692000Y-42248000D01*
G75*
G02*
X129767000Y-42323000I0J-75000D01*
G01*
X129767000Y-42473000D01*
G75*
G02*
X129692000Y-42548000I-75000J0D01*
G01*
G37*
G36*
G01*
X130992000Y-41248000D02*
X130842000Y-41248000D01*
G75*
G02*
X130767000Y-41173000I0J75000D01*
G01*
X130767000Y-39773000D01*
G75*
G02*
X130842000Y-39698000I75000J0D01*
G01*
X130992000Y-39698000D01*
G75*
G02*
X131067000Y-39773000I0J-75000D01*
G01*
X131067000Y-41173000D01*
G75*
G02*
X130992000Y-41248000I-75000J0D01*
G01*
G37*
G36*
G01*
X131492000Y-41248000D02*
X131342000Y-41248000D01*
G75*
G02*
X131267000Y-41173000I0J75000D01*
G01*
X131267000Y-39773000D01*
G75*
G02*
X131342000Y-39698000I75000J0D01*
G01*
X131492000Y-39698000D01*
G75*
G02*
X131567000Y-39773000I0J-75000D01*
G01*
X131567000Y-41173000D01*
G75*
G02*
X131492000Y-41248000I-75000J0D01*
G01*
G37*
G36*
G01*
X131992000Y-41248000D02*
X131842000Y-41248000D01*
G75*
G02*
X131767000Y-41173000I0J75000D01*
G01*
X131767000Y-39773000D01*
G75*
G02*
X131842000Y-39698000I75000J0D01*
G01*
X131992000Y-39698000D01*
G75*
G02*
X132067000Y-39773000I0J-75000D01*
G01*
X132067000Y-41173000D01*
G75*
G02*
X131992000Y-41248000I-75000J0D01*
G01*
G37*
G36*
G01*
X132492000Y-41248000D02*
X132342000Y-41248000D01*
G75*
G02*
X132267000Y-41173000I0J75000D01*
G01*
X132267000Y-39773000D01*
G75*
G02*
X132342000Y-39698000I75000J0D01*
G01*
X132492000Y-39698000D01*
G75*
G02*
X132567000Y-39773000I0J-75000D01*
G01*
X132567000Y-41173000D01*
G75*
G02*
X132492000Y-41248000I-75000J0D01*
G01*
G37*
G36*
G01*
X132992000Y-41248000D02*
X132842000Y-41248000D01*
G75*
G02*
X132767000Y-41173000I0J75000D01*
G01*
X132767000Y-39773000D01*
G75*
G02*
X132842000Y-39698000I75000J0D01*
G01*
X132992000Y-39698000D01*
G75*
G02*
X133067000Y-39773000I0J-75000D01*
G01*
X133067000Y-41173000D01*
G75*
G02*
X132992000Y-41248000I-75000J0D01*
G01*
G37*
G36*
G01*
X133492000Y-41248000D02*
X133342000Y-41248000D01*
G75*
G02*
X133267000Y-41173000I0J75000D01*
G01*
X133267000Y-39773000D01*
G75*
G02*
X133342000Y-39698000I75000J0D01*
G01*
X133492000Y-39698000D01*
G75*
G02*
X133567000Y-39773000I0J-75000D01*
G01*
X133567000Y-41173000D01*
G75*
G02*
X133492000Y-41248000I-75000J0D01*
G01*
G37*
G36*
G01*
X133992000Y-41248000D02*
X133842000Y-41248000D01*
G75*
G02*
X133767000Y-41173000I0J75000D01*
G01*
X133767000Y-39773000D01*
G75*
G02*
X133842000Y-39698000I75000J0D01*
G01*
X133992000Y-39698000D01*
G75*
G02*
X134067000Y-39773000I0J-75000D01*
G01*
X134067000Y-41173000D01*
G75*
G02*
X133992000Y-41248000I-75000J0D01*
G01*
G37*
G36*
G01*
X134492000Y-41248000D02*
X134342000Y-41248000D01*
G75*
G02*
X134267000Y-41173000I0J75000D01*
G01*
X134267000Y-39773000D01*
G75*
G02*
X134342000Y-39698000I75000J0D01*
G01*
X134492000Y-39698000D01*
G75*
G02*
X134567000Y-39773000I0J-75000D01*
G01*
X134567000Y-41173000D01*
G75*
G02*
X134492000Y-41248000I-75000J0D01*
G01*
G37*
G36*
G01*
X134992000Y-41248000D02*
X134842000Y-41248000D01*
G75*
G02*
X134767000Y-41173000I0J75000D01*
G01*
X134767000Y-39773000D01*
G75*
G02*
X134842000Y-39698000I75000J0D01*
G01*
X134992000Y-39698000D01*
G75*
G02*
X135067000Y-39773000I0J-75000D01*
G01*
X135067000Y-41173000D01*
G75*
G02*
X134992000Y-41248000I-75000J0D01*
G01*
G37*
G36*
G01*
X135492000Y-41248000D02*
X135342000Y-41248000D01*
G75*
G02*
X135267000Y-41173000I0J75000D01*
G01*
X135267000Y-39773000D01*
G75*
G02*
X135342000Y-39698000I75000J0D01*
G01*
X135492000Y-39698000D01*
G75*
G02*
X135567000Y-39773000I0J-75000D01*
G01*
X135567000Y-41173000D01*
G75*
G02*
X135492000Y-41248000I-75000J0D01*
G01*
G37*
G36*
G01*
X135992000Y-41248000D02*
X135842000Y-41248000D01*
G75*
G02*
X135767000Y-41173000I0J75000D01*
G01*
X135767000Y-39773000D01*
G75*
G02*
X135842000Y-39698000I75000J0D01*
G01*
X135992000Y-39698000D01*
G75*
G02*
X136067000Y-39773000I0J-75000D01*
G01*
X136067000Y-41173000D01*
G75*
G02*
X135992000Y-41248000I-75000J0D01*
G01*
G37*
G36*
G01*
X136492000Y-41248000D02*
X136342000Y-41248000D01*
G75*
G02*
X136267000Y-41173000I0J75000D01*
G01*
X136267000Y-39773000D01*
G75*
G02*
X136342000Y-39698000I75000J0D01*
G01*
X136492000Y-39698000D01*
G75*
G02*
X136567000Y-39773000I0J-75000D01*
G01*
X136567000Y-41173000D01*
G75*
G02*
X136492000Y-41248000I-75000J0D01*
G01*
G37*
G36*
G01*
X136992000Y-41248000D02*
X136842000Y-41248000D01*
G75*
G02*
X136767000Y-41173000I0J75000D01*
G01*
X136767000Y-39773000D01*
G75*
G02*
X136842000Y-39698000I75000J0D01*
G01*
X136992000Y-39698000D01*
G75*
G02*
X137067000Y-39773000I0J-75000D01*
G01*
X137067000Y-41173000D01*
G75*
G02*
X136992000Y-41248000I-75000J0D01*
G01*
G37*
G36*
G01*
X137492000Y-41248000D02*
X137342000Y-41248000D01*
G75*
G02*
X137267000Y-41173000I0J75000D01*
G01*
X137267000Y-39773000D01*
G75*
G02*
X137342000Y-39698000I75000J0D01*
G01*
X137492000Y-39698000D01*
G75*
G02*
X137567000Y-39773000I0J-75000D01*
G01*
X137567000Y-41173000D01*
G75*
G02*
X137492000Y-41248000I-75000J0D01*
G01*
G37*
G36*
G01*
X137992000Y-41248000D02*
X137842000Y-41248000D01*
G75*
G02*
X137767000Y-41173000I0J75000D01*
G01*
X137767000Y-39773000D01*
G75*
G02*
X137842000Y-39698000I75000J0D01*
G01*
X137992000Y-39698000D01*
G75*
G02*
X138067000Y-39773000I0J-75000D01*
G01*
X138067000Y-41173000D01*
G75*
G02*
X137992000Y-41248000I-75000J0D01*
G01*
G37*
G36*
G01*
X138492000Y-41248000D02*
X138342000Y-41248000D01*
G75*
G02*
X138267000Y-41173000I0J75000D01*
G01*
X138267000Y-39773000D01*
G75*
G02*
X138342000Y-39698000I75000J0D01*
G01*
X138492000Y-39698000D01*
G75*
G02*
X138567000Y-39773000I0J-75000D01*
G01*
X138567000Y-41173000D01*
G75*
G02*
X138492000Y-41248000I-75000J0D01*
G01*
G37*
G36*
G01*
X141042000Y-42548000D02*
X139642000Y-42548000D01*
G75*
G02*
X139567000Y-42473000I0J75000D01*
G01*
X139567000Y-42323000D01*
G75*
G02*
X139642000Y-42248000I75000J0D01*
G01*
X141042000Y-42248000D01*
G75*
G02*
X141117000Y-42323000I0J-75000D01*
G01*
X141117000Y-42473000D01*
G75*
G02*
X141042000Y-42548000I-75000J0D01*
G01*
G37*
G36*
G01*
X141042000Y-43048000D02*
X139642000Y-43048000D01*
G75*
G02*
X139567000Y-42973000I0J75000D01*
G01*
X139567000Y-42823000D01*
G75*
G02*
X139642000Y-42748000I75000J0D01*
G01*
X141042000Y-42748000D01*
G75*
G02*
X141117000Y-42823000I0J-75000D01*
G01*
X141117000Y-42973000D01*
G75*
G02*
X141042000Y-43048000I-75000J0D01*
G01*
G37*
G36*
G01*
X141042000Y-43548000D02*
X139642000Y-43548000D01*
G75*
G02*
X139567000Y-43473000I0J75000D01*
G01*
X139567000Y-43323000D01*
G75*
G02*
X139642000Y-43248000I75000J0D01*
G01*
X141042000Y-43248000D01*
G75*
G02*
X141117000Y-43323000I0J-75000D01*
G01*
X141117000Y-43473000D01*
G75*
G02*
X141042000Y-43548000I-75000J0D01*
G01*
G37*
G36*
G01*
X141042000Y-44048000D02*
X139642000Y-44048000D01*
G75*
G02*
X139567000Y-43973000I0J75000D01*
G01*
X139567000Y-43823000D01*
G75*
G02*
X139642000Y-43748000I75000J0D01*
G01*
X141042000Y-43748000D01*
G75*
G02*
X141117000Y-43823000I0J-75000D01*
G01*
X141117000Y-43973000D01*
G75*
G02*
X141042000Y-44048000I-75000J0D01*
G01*
G37*
G36*
G01*
X141042000Y-44548000D02*
X139642000Y-44548000D01*
G75*
G02*
X139567000Y-44473000I0J75000D01*
G01*
X139567000Y-44323000D01*
G75*
G02*
X139642000Y-44248000I75000J0D01*
G01*
X141042000Y-44248000D01*
G75*
G02*
X141117000Y-44323000I0J-75000D01*
G01*
X141117000Y-44473000D01*
G75*
G02*
X141042000Y-44548000I-75000J0D01*
G01*
G37*
G36*
G01*
X141042000Y-45048000D02*
X139642000Y-45048000D01*
G75*
G02*
X139567000Y-44973000I0J75000D01*
G01*
X139567000Y-44823000D01*
G75*
G02*
X139642000Y-44748000I75000J0D01*
G01*
X141042000Y-44748000D01*
G75*
G02*
X141117000Y-44823000I0J-75000D01*
G01*
X141117000Y-44973000D01*
G75*
G02*
X141042000Y-45048000I-75000J0D01*
G01*
G37*
G36*
G01*
X141042000Y-45548000D02*
X139642000Y-45548000D01*
G75*
G02*
X139567000Y-45473000I0J75000D01*
G01*
X139567000Y-45323000D01*
G75*
G02*
X139642000Y-45248000I75000J0D01*
G01*
X141042000Y-45248000D01*
G75*
G02*
X141117000Y-45323000I0J-75000D01*
G01*
X141117000Y-45473000D01*
G75*
G02*
X141042000Y-45548000I-75000J0D01*
G01*
G37*
G36*
G01*
X141042000Y-46048000D02*
X139642000Y-46048000D01*
G75*
G02*
X139567000Y-45973000I0J75000D01*
G01*
X139567000Y-45823000D01*
G75*
G02*
X139642000Y-45748000I75000J0D01*
G01*
X141042000Y-45748000D01*
G75*
G02*
X141117000Y-45823000I0J-75000D01*
G01*
X141117000Y-45973000D01*
G75*
G02*
X141042000Y-46048000I-75000J0D01*
G01*
G37*
G36*
G01*
X141042000Y-46548000D02*
X139642000Y-46548000D01*
G75*
G02*
X139567000Y-46473000I0J75000D01*
G01*
X139567000Y-46323000D01*
G75*
G02*
X139642000Y-46248000I75000J0D01*
G01*
X141042000Y-46248000D01*
G75*
G02*
X141117000Y-46323000I0J-75000D01*
G01*
X141117000Y-46473000D01*
G75*
G02*
X141042000Y-46548000I-75000J0D01*
G01*
G37*
G36*
G01*
X141042000Y-47048000D02*
X139642000Y-47048000D01*
G75*
G02*
X139567000Y-46973000I0J75000D01*
G01*
X139567000Y-46823000D01*
G75*
G02*
X139642000Y-46748000I75000J0D01*
G01*
X141042000Y-46748000D01*
G75*
G02*
X141117000Y-46823000I0J-75000D01*
G01*
X141117000Y-46973000D01*
G75*
G02*
X141042000Y-47048000I-75000J0D01*
G01*
G37*
G36*
G01*
X141042000Y-47548000D02*
X139642000Y-47548000D01*
G75*
G02*
X139567000Y-47473000I0J75000D01*
G01*
X139567000Y-47323000D01*
G75*
G02*
X139642000Y-47248000I75000J0D01*
G01*
X141042000Y-47248000D01*
G75*
G02*
X141117000Y-47323000I0J-75000D01*
G01*
X141117000Y-47473000D01*
G75*
G02*
X141042000Y-47548000I-75000J0D01*
G01*
G37*
G36*
G01*
X141042000Y-48048000D02*
X139642000Y-48048000D01*
G75*
G02*
X139567000Y-47973000I0J75000D01*
G01*
X139567000Y-47823000D01*
G75*
G02*
X139642000Y-47748000I75000J0D01*
G01*
X141042000Y-47748000D01*
G75*
G02*
X141117000Y-47823000I0J-75000D01*
G01*
X141117000Y-47973000D01*
G75*
G02*
X141042000Y-48048000I-75000J0D01*
G01*
G37*
G36*
G01*
X141042000Y-48548000D02*
X139642000Y-48548000D01*
G75*
G02*
X139567000Y-48473000I0J75000D01*
G01*
X139567000Y-48323000D01*
G75*
G02*
X139642000Y-48248000I75000J0D01*
G01*
X141042000Y-48248000D01*
G75*
G02*
X141117000Y-48323000I0J-75000D01*
G01*
X141117000Y-48473000D01*
G75*
G02*
X141042000Y-48548000I-75000J0D01*
G01*
G37*
G36*
G01*
X141042000Y-49048000D02*
X139642000Y-49048000D01*
G75*
G02*
X139567000Y-48973000I0J75000D01*
G01*
X139567000Y-48823000D01*
G75*
G02*
X139642000Y-48748000I75000J0D01*
G01*
X141042000Y-48748000D01*
G75*
G02*
X141117000Y-48823000I0J-75000D01*
G01*
X141117000Y-48973000D01*
G75*
G02*
X141042000Y-49048000I-75000J0D01*
G01*
G37*
G36*
G01*
X141042000Y-49548000D02*
X139642000Y-49548000D01*
G75*
G02*
X139567000Y-49473000I0J75000D01*
G01*
X139567000Y-49323000D01*
G75*
G02*
X139642000Y-49248000I75000J0D01*
G01*
X141042000Y-49248000D01*
G75*
G02*
X141117000Y-49323000I0J-75000D01*
G01*
X141117000Y-49473000D01*
G75*
G02*
X141042000Y-49548000I-75000J0D01*
G01*
G37*
G36*
G01*
X141042000Y-50048000D02*
X139642000Y-50048000D01*
G75*
G02*
X139567000Y-49973000I0J75000D01*
G01*
X139567000Y-49823000D01*
G75*
G02*
X139642000Y-49748000I75000J0D01*
G01*
X141042000Y-49748000D01*
G75*
G02*
X141117000Y-49823000I0J-75000D01*
G01*
X141117000Y-49973000D01*
G75*
G02*
X141042000Y-50048000I-75000J0D01*
G01*
G37*
G36*
G01*
X138492000Y-52598000D02*
X138342000Y-52598000D01*
G75*
G02*
X138267000Y-52523000I0J75000D01*
G01*
X138267000Y-51123000D01*
G75*
G02*
X138342000Y-51048000I75000J0D01*
G01*
X138492000Y-51048000D01*
G75*
G02*
X138567000Y-51123000I0J-75000D01*
G01*
X138567000Y-52523000D01*
G75*
G02*
X138492000Y-52598000I-75000J0D01*
G01*
G37*
G36*
G01*
X137992000Y-52598000D02*
X137842000Y-52598000D01*
G75*
G02*
X137767000Y-52523000I0J75000D01*
G01*
X137767000Y-51123000D01*
G75*
G02*
X137842000Y-51048000I75000J0D01*
G01*
X137992000Y-51048000D01*
G75*
G02*
X138067000Y-51123000I0J-75000D01*
G01*
X138067000Y-52523000D01*
G75*
G02*
X137992000Y-52598000I-75000J0D01*
G01*
G37*
G36*
G01*
X137492000Y-52598000D02*
X137342000Y-52598000D01*
G75*
G02*
X137267000Y-52523000I0J75000D01*
G01*
X137267000Y-51123000D01*
G75*
G02*
X137342000Y-51048000I75000J0D01*
G01*
X137492000Y-51048000D01*
G75*
G02*
X137567000Y-51123000I0J-75000D01*
G01*
X137567000Y-52523000D01*
G75*
G02*
X137492000Y-52598000I-75000J0D01*
G01*
G37*
G36*
G01*
X136992000Y-52598000D02*
X136842000Y-52598000D01*
G75*
G02*
X136767000Y-52523000I0J75000D01*
G01*
X136767000Y-51123000D01*
G75*
G02*
X136842000Y-51048000I75000J0D01*
G01*
X136992000Y-51048000D01*
G75*
G02*
X137067000Y-51123000I0J-75000D01*
G01*
X137067000Y-52523000D01*
G75*
G02*
X136992000Y-52598000I-75000J0D01*
G01*
G37*
G36*
G01*
X136492000Y-52598000D02*
X136342000Y-52598000D01*
G75*
G02*
X136267000Y-52523000I0J75000D01*
G01*
X136267000Y-51123000D01*
G75*
G02*
X136342000Y-51048000I75000J0D01*
G01*
X136492000Y-51048000D01*
G75*
G02*
X136567000Y-51123000I0J-75000D01*
G01*
X136567000Y-52523000D01*
G75*
G02*
X136492000Y-52598000I-75000J0D01*
G01*
G37*
G36*
G01*
X135992000Y-52598000D02*
X135842000Y-52598000D01*
G75*
G02*
X135767000Y-52523000I0J75000D01*
G01*
X135767000Y-51123000D01*
G75*
G02*
X135842000Y-51048000I75000J0D01*
G01*
X135992000Y-51048000D01*
G75*
G02*
X136067000Y-51123000I0J-75000D01*
G01*
X136067000Y-52523000D01*
G75*
G02*
X135992000Y-52598000I-75000J0D01*
G01*
G37*
G36*
G01*
X135492000Y-52598000D02*
X135342000Y-52598000D01*
G75*
G02*
X135267000Y-52523000I0J75000D01*
G01*
X135267000Y-51123000D01*
G75*
G02*
X135342000Y-51048000I75000J0D01*
G01*
X135492000Y-51048000D01*
G75*
G02*
X135567000Y-51123000I0J-75000D01*
G01*
X135567000Y-52523000D01*
G75*
G02*
X135492000Y-52598000I-75000J0D01*
G01*
G37*
G36*
G01*
X134992000Y-52598000D02*
X134842000Y-52598000D01*
G75*
G02*
X134767000Y-52523000I0J75000D01*
G01*
X134767000Y-51123000D01*
G75*
G02*
X134842000Y-51048000I75000J0D01*
G01*
X134992000Y-51048000D01*
G75*
G02*
X135067000Y-51123000I0J-75000D01*
G01*
X135067000Y-52523000D01*
G75*
G02*
X134992000Y-52598000I-75000J0D01*
G01*
G37*
G36*
G01*
X134492000Y-52598000D02*
X134342000Y-52598000D01*
G75*
G02*
X134267000Y-52523000I0J75000D01*
G01*
X134267000Y-51123000D01*
G75*
G02*
X134342000Y-51048000I75000J0D01*
G01*
X134492000Y-51048000D01*
G75*
G02*
X134567000Y-51123000I0J-75000D01*
G01*
X134567000Y-52523000D01*
G75*
G02*
X134492000Y-52598000I-75000J0D01*
G01*
G37*
G36*
G01*
X133992000Y-52598000D02*
X133842000Y-52598000D01*
G75*
G02*
X133767000Y-52523000I0J75000D01*
G01*
X133767000Y-51123000D01*
G75*
G02*
X133842000Y-51048000I75000J0D01*
G01*
X133992000Y-51048000D01*
G75*
G02*
X134067000Y-51123000I0J-75000D01*
G01*
X134067000Y-52523000D01*
G75*
G02*
X133992000Y-52598000I-75000J0D01*
G01*
G37*
G36*
G01*
X133492000Y-52598000D02*
X133342000Y-52598000D01*
G75*
G02*
X133267000Y-52523000I0J75000D01*
G01*
X133267000Y-51123000D01*
G75*
G02*
X133342000Y-51048000I75000J0D01*
G01*
X133492000Y-51048000D01*
G75*
G02*
X133567000Y-51123000I0J-75000D01*
G01*
X133567000Y-52523000D01*
G75*
G02*
X133492000Y-52598000I-75000J0D01*
G01*
G37*
G36*
G01*
X132992000Y-52598000D02*
X132842000Y-52598000D01*
G75*
G02*
X132767000Y-52523000I0J75000D01*
G01*
X132767000Y-51123000D01*
G75*
G02*
X132842000Y-51048000I75000J0D01*
G01*
X132992000Y-51048000D01*
G75*
G02*
X133067000Y-51123000I0J-75000D01*
G01*
X133067000Y-52523000D01*
G75*
G02*
X132992000Y-52598000I-75000J0D01*
G01*
G37*
G36*
G01*
X132492000Y-52598000D02*
X132342000Y-52598000D01*
G75*
G02*
X132267000Y-52523000I0J75000D01*
G01*
X132267000Y-51123000D01*
G75*
G02*
X132342000Y-51048000I75000J0D01*
G01*
X132492000Y-51048000D01*
G75*
G02*
X132567000Y-51123000I0J-75000D01*
G01*
X132567000Y-52523000D01*
G75*
G02*
X132492000Y-52598000I-75000J0D01*
G01*
G37*
G36*
G01*
X131992000Y-52598000D02*
X131842000Y-52598000D01*
G75*
G02*
X131767000Y-52523000I0J75000D01*
G01*
X131767000Y-51123000D01*
G75*
G02*
X131842000Y-51048000I75000J0D01*
G01*
X131992000Y-51048000D01*
G75*
G02*
X132067000Y-51123000I0J-75000D01*
G01*
X132067000Y-52523000D01*
G75*
G02*
X131992000Y-52598000I-75000J0D01*
G01*
G37*
G36*
G01*
X131492000Y-52598000D02*
X131342000Y-52598000D01*
G75*
G02*
X131267000Y-52523000I0J75000D01*
G01*
X131267000Y-51123000D01*
G75*
G02*
X131342000Y-51048000I75000J0D01*
G01*
X131492000Y-51048000D01*
G75*
G02*
X131567000Y-51123000I0J-75000D01*
G01*
X131567000Y-52523000D01*
G75*
G02*
X131492000Y-52598000I-75000J0D01*
G01*
G37*
G36*
G01*
X130992000Y-52598000D02*
X130842000Y-52598000D01*
G75*
G02*
X130767000Y-52523000I0J75000D01*
G01*
X130767000Y-51123000D01*
G75*
G02*
X130842000Y-51048000I75000J0D01*
G01*
X130992000Y-51048000D01*
G75*
G02*
X131067000Y-51123000I0J-75000D01*
G01*
X131067000Y-52523000D01*
G75*
G02*
X130992000Y-52598000I-75000J0D01*
G01*
G37*
G04 #@! TD*
M02*
