G04 #@! TF.GenerationSoftware,KiCad,Pcbnew,6.0.2-378541a8eb~116~ubuntu20.04.1*
G04 #@! TF.CreationDate,2022-02-17T23:44:55+01:00*
G04 #@! TF.ProjectId,minimig-arm-controller-0805,6d696e69-6d69-4672-9d61-726d2d636f6e,rev?*
G04 #@! TF.SameCoordinates,Original*
G04 #@! TF.FileFunction,Legend,Top*
G04 #@! TF.FilePolarity,Positive*
%FSLAX46Y46*%
G04 Gerber Fmt 4.6, Leading zero omitted, Abs format (unit mm)*
G04 Created by KiCad (PCBNEW 6.0.2-378541a8eb~116~ubuntu20.04.1) date 2022-02-17 23:44:55*
%MOMM*%
%LPD*%
G01*
G04 APERTURE LIST*
%ADD10C,0.100000*%
%ADD11C,0.250000*%
%ADD12C,0.450000*%
%ADD13C,0.150000*%
%ADD14C,0.120000*%
G04 APERTURE END LIST*
D10*
X120723695Y-22037004D02*
X120647504Y-21998909D01*
X120609409Y-21960814D01*
X120571314Y-21884623D01*
X120571314Y-21656052D01*
X120609409Y-21579861D01*
X120647504Y-21541766D01*
X120723695Y-21503671D01*
X120837980Y-21503671D01*
X120914171Y-21541766D01*
X120952266Y-21579861D01*
X120990361Y-21656052D01*
X120990361Y-21884623D01*
X120952266Y-21960814D01*
X120914171Y-21998909D01*
X120837980Y-22037004D01*
X120723695Y-22037004D01*
X121333219Y-21503671D02*
X121333219Y-22303671D01*
X121333219Y-21541766D02*
X121409409Y-21503671D01*
X121561790Y-21503671D01*
X121637980Y-21541766D01*
X121676076Y-21579861D01*
X121714171Y-21656052D01*
X121714171Y-21884623D01*
X121676076Y-21960814D01*
X121637980Y-21998909D01*
X121561790Y-22037004D01*
X121409409Y-22037004D01*
X121333219Y-21998909D01*
X121942742Y-21503671D02*
X122247504Y-21503671D01*
X122057028Y-21237004D02*
X122057028Y-21922719D01*
X122095123Y-21998909D01*
X122171314Y-22037004D01*
X122247504Y-22037004D01*
X122514171Y-21960814D02*
X122552266Y-21998909D01*
X122514171Y-22037004D01*
X122476076Y-21998909D01*
X122514171Y-21960814D01*
X122514171Y-22037004D01*
X123428457Y-21237004D02*
X123923695Y-21237004D01*
X123657028Y-21541766D01*
X123771314Y-21541766D01*
X123847504Y-21579861D01*
X123885600Y-21617957D01*
X123923695Y-21694147D01*
X123923695Y-21884623D01*
X123885600Y-21960814D01*
X123847504Y-21998909D01*
X123771314Y-22037004D01*
X123542742Y-22037004D01*
X123466552Y-21998909D01*
X123428457Y-21960814D01*
X124190361Y-21503671D02*
X124380838Y-22037004D01*
X124571314Y-21503671D01*
X124799885Y-21237004D02*
X125295123Y-21237004D01*
X125028457Y-21541766D01*
X125142742Y-21541766D01*
X125218933Y-21579861D01*
X125257028Y-21617957D01*
X125295123Y-21694147D01*
X125295123Y-21884623D01*
X125257028Y-21960814D01*
X125218933Y-21998909D01*
X125142742Y-22037004D01*
X124914171Y-22037004D01*
X124837980Y-21998909D01*
X124799885Y-21960814D01*
X125866552Y-22341766D02*
X125828457Y-22303671D01*
X125752266Y-22189385D01*
X125714171Y-22113195D01*
X125676076Y-21998909D01*
X125637980Y-21808433D01*
X125637980Y-21656052D01*
X125676076Y-21465576D01*
X125714171Y-21351290D01*
X125752266Y-21275100D01*
X125828457Y-21160814D01*
X125866552Y-21122719D01*
X126171314Y-21960814D02*
X126209409Y-21998909D01*
X126171314Y-22037004D01*
X126133219Y-21998909D01*
X126171314Y-21960814D01*
X126171314Y-22037004D01*
X126171314Y-21732242D02*
X126133219Y-21275100D01*
X126171314Y-21237004D01*
X126209409Y-21275100D01*
X126171314Y-21732242D01*
X126171314Y-21237004D01*
X126476076Y-22341766D02*
X126514171Y-22303671D01*
X126590361Y-22189385D01*
X126628457Y-22113195D01*
X126666552Y-21998909D01*
X126704647Y-21808433D01*
X126704647Y-21656052D01*
X126666552Y-21465576D01*
X126628457Y-21351290D01*
X126590361Y-21275100D01*
X126514171Y-21160814D01*
X126476076Y-21122719D01*
X127580838Y-21503671D02*
X127885600Y-21503671D01*
X127695123Y-22037004D02*
X127695123Y-21351290D01*
X127733219Y-21275100D01*
X127809409Y-21237004D01*
X127885600Y-21237004D01*
X128266552Y-22037004D02*
X128190361Y-21998909D01*
X128152266Y-21960814D01*
X128114171Y-21884623D01*
X128114171Y-21656052D01*
X128152266Y-21579861D01*
X128190361Y-21541766D01*
X128266552Y-21503671D01*
X128380838Y-21503671D01*
X128457028Y-21541766D01*
X128495123Y-21579861D01*
X128533219Y-21656052D01*
X128533219Y-21884623D01*
X128495123Y-21960814D01*
X128457028Y-21998909D01*
X128380838Y-22037004D01*
X128266552Y-22037004D01*
X128876076Y-22037004D02*
X128876076Y-21503671D01*
X128876076Y-21656052D02*
X128914171Y-21579861D01*
X128952266Y-21541766D01*
X129028457Y-21503671D01*
X129104647Y-21503671D01*
X129942742Y-21998909D02*
X130018933Y-22037004D01*
X130171314Y-22037004D01*
X130247504Y-21998909D01*
X130285600Y-21922719D01*
X130285600Y-21884623D01*
X130247504Y-21808433D01*
X130171314Y-21770338D01*
X130057028Y-21770338D01*
X129980838Y-21732242D01*
X129942742Y-21656052D01*
X129942742Y-21617957D01*
X129980838Y-21541766D01*
X130057028Y-21503671D01*
X130171314Y-21503671D01*
X130247504Y-21541766D01*
X130514171Y-21503671D02*
X130818933Y-21503671D01*
X130628457Y-21237004D02*
X130628457Y-21922719D01*
X130666552Y-21998909D01*
X130742742Y-22037004D01*
X130818933Y-22037004D01*
X131428457Y-22037004D02*
X131428457Y-21617957D01*
X131390361Y-21541766D01*
X131314171Y-21503671D01*
X131161790Y-21503671D01*
X131085600Y-21541766D01*
X131428457Y-21998909D02*
X131352266Y-22037004D01*
X131161790Y-22037004D01*
X131085600Y-21998909D01*
X131047504Y-21922719D01*
X131047504Y-21846528D01*
X131085600Y-21770338D01*
X131161790Y-21732242D01*
X131352266Y-21732242D01*
X131428457Y-21694147D01*
X131809409Y-21503671D02*
X131809409Y-22037004D01*
X131809409Y-21579861D02*
X131847504Y-21541766D01*
X131923695Y-21503671D01*
X132037980Y-21503671D01*
X132114171Y-21541766D01*
X132152266Y-21617957D01*
X132152266Y-22037004D01*
X132876076Y-22037004D02*
X132876076Y-21237004D01*
X132876076Y-21998909D02*
X132799885Y-22037004D01*
X132647504Y-22037004D01*
X132571314Y-21998909D01*
X132533219Y-21960814D01*
X132495123Y-21884623D01*
X132495123Y-21656052D01*
X132533219Y-21579861D01*
X132571314Y-21541766D01*
X132647504Y-21503671D01*
X132799885Y-21503671D01*
X132876076Y-21541766D01*
X133599885Y-22037004D02*
X133599885Y-21617957D01*
X133561790Y-21541766D01*
X133485600Y-21503671D01*
X133333219Y-21503671D01*
X133257028Y-21541766D01*
X133599885Y-21998909D02*
X133523695Y-22037004D01*
X133333219Y-22037004D01*
X133257028Y-21998909D01*
X133218933Y-21922719D01*
X133218933Y-21846528D01*
X133257028Y-21770338D01*
X133333219Y-21732242D01*
X133523695Y-21732242D01*
X133599885Y-21694147D01*
X134095123Y-22037004D02*
X134018933Y-21998909D01*
X133980838Y-21922719D01*
X133980838Y-21237004D01*
X134514171Y-22037004D02*
X134437980Y-21998909D01*
X134399885Y-21960814D01*
X134361790Y-21884623D01*
X134361790Y-21656052D01*
X134399885Y-21579861D01*
X134437980Y-21541766D01*
X134514171Y-21503671D01*
X134628457Y-21503671D01*
X134704647Y-21541766D01*
X134742742Y-21579861D01*
X134780838Y-21656052D01*
X134780838Y-21884623D01*
X134742742Y-21960814D01*
X134704647Y-21998909D01*
X134628457Y-22037004D01*
X134514171Y-22037004D01*
X135123695Y-21503671D02*
X135123695Y-22037004D01*
X135123695Y-21579861D02*
X135161790Y-21541766D01*
X135237980Y-21503671D01*
X135352266Y-21503671D01*
X135428457Y-21541766D01*
X135466552Y-21617957D01*
X135466552Y-22037004D01*
X136152266Y-21998909D02*
X136076076Y-22037004D01*
X135923695Y-22037004D01*
X135847504Y-21998909D01*
X135809409Y-21922719D01*
X135809409Y-21617957D01*
X135847504Y-21541766D01*
X135923695Y-21503671D01*
X136076076Y-21503671D01*
X136152266Y-21541766D01*
X136190361Y-21617957D01*
X136190361Y-21694147D01*
X135809409Y-21770338D01*
X137028457Y-21503671D02*
X137333219Y-21503671D01*
X137142742Y-22037004D02*
X137142742Y-21351290D01*
X137180838Y-21275100D01*
X137257028Y-21237004D01*
X137333219Y-21237004D01*
X137714171Y-22037004D02*
X137637980Y-21998909D01*
X137599885Y-21922719D01*
X137599885Y-21237004D01*
X138361790Y-22037004D02*
X138361790Y-21617957D01*
X138323695Y-21541766D01*
X138247504Y-21503671D01*
X138095123Y-21503671D01*
X138018933Y-21541766D01*
X138361790Y-21998909D02*
X138285600Y-22037004D01*
X138095123Y-22037004D01*
X138018933Y-21998909D01*
X137980838Y-21922719D01*
X137980838Y-21846528D01*
X138018933Y-21770338D01*
X138095123Y-21732242D01*
X138285600Y-21732242D01*
X138361790Y-21694147D01*
X138704647Y-21998909D02*
X138780838Y-22037004D01*
X138933219Y-22037004D01*
X139009409Y-21998909D01*
X139047504Y-21922719D01*
X139047504Y-21884623D01*
X139009409Y-21808433D01*
X138933219Y-21770338D01*
X138818933Y-21770338D01*
X138742742Y-21732242D01*
X138704647Y-21656052D01*
X138704647Y-21617957D01*
X138742742Y-21541766D01*
X138818933Y-21503671D01*
X138933219Y-21503671D01*
X139009409Y-21541766D01*
X139390361Y-22037004D02*
X139390361Y-21237004D01*
X139733219Y-22037004D02*
X139733219Y-21617957D01*
X139695123Y-21541766D01*
X139618933Y-21503671D01*
X139504647Y-21503671D01*
X139428457Y-21541766D01*
X139390361Y-21579861D01*
X140114171Y-22037004D02*
X140114171Y-21503671D01*
X140114171Y-21237004D02*
X140076076Y-21275100D01*
X140114171Y-21313195D01*
X140152266Y-21275100D01*
X140114171Y-21237004D01*
X140114171Y-21313195D01*
X140495123Y-21503671D02*
X140495123Y-22037004D01*
X140495123Y-21579861D02*
X140533219Y-21541766D01*
X140609409Y-21503671D01*
X140723695Y-21503671D01*
X140799885Y-21541766D01*
X140837980Y-21617957D01*
X140837980Y-22037004D01*
X141561790Y-21503671D02*
X141561790Y-22151290D01*
X141523695Y-22227480D01*
X141485600Y-22265576D01*
X141409409Y-22303671D01*
X141295123Y-22303671D01*
X141218933Y-22265576D01*
X141561790Y-21998909D02*
X141485600Y-22037004D01*
X141333219Y-22037004D01*
X141257028Y-21998909D01*
X141218933Y-21960814D01*
X141180838Y-21884623D01*
X141180838Y-21656052D01*
X141218933Y-21579861D01*
X141257028Y-21541766D01*
X141333219Y-21503671D01*
X141485600Y-21503671D01*
X141561790Y-21541766D01*
D11*
X126800928Y-24176952D02*
X126800928Y-23415047D01*
X127181880Y-23796000D02*
X126419976Y-23796000D01*
X127186652Y-26277271D02*
X126424747Y-26277271D01*
X138802428Y-35759352D02*
X138802428Y-34997447D01*
X139183380Y-35378400D02*
X138421476Y-35378400D01*
X127998171Y-28766471D02*
X128331504Y-28766471D01*
X128474361Y-29290280D02*
X127998171Y-29290280D01*
X127998171Y-28290280D01*
X128474361Y-28290280D01*
X129474361Y-29290280D02*
X129141028Y-28814090D01*
X128902933Y-29290280D02*
X128902933Y-28290280D01*
X129283885Y-28290280D01*
X129379123Y-28337900D01*
X129426742Y-28385519D01*
X129474361Y-28480757D01*
X129474361Y-28623614D01*
X129426742Y-28718852D01*
X129379123Y-28766471D01*
X129283885Y-28814090D01*
X128902933Y-28814090D01*
X129855314Y-29004566D02*
X130331504Y-29004566D01*
X129760076Y-29290280D02*
X130093409Y-28290280D01*
X130426742Y-29290280D01*
X130712457Y-29242661D02*
X130855314Y-29290280D01*
X131093409Y-29290280D01*
X131188647Y-29242661D01*
X131236266Y-29195042D01*
X131283885Y-29099804D01*
X131283885Y-29004566D01*
X131236266Y-28909328D01*
X131188647Y-28861709D01*
X131093409Y-28814090D01*
X130902933Y-28766471D01*
X130807695Y-28718852D01*
X130760076Y-28671233D01*
X130712457Y-28575995D01*
X130712457Y-28480757D01*
X130760076Y-28385519D01*
X130807695Y-28337900D01*
X130902933Y-28290280D01*
X131141028Y-28290280D01*
X131283885Y-28337900D01*
X131712457Y-28766471D02*
X132045790Y-28766471D01*
X132188647Y-29290280D02*
X131712457Y-29290280D01*
X131712457Y-28290280D01*
X132188647Y-28290280D01*
X102364285Y-48302380D02*
X102030952Y-47826190D01*
X101792857Y-48302380D02*
X101792857Y-47302380D01*
X102173809Y-47302380D01*
X102269047Y-47350000D01*
X102316666Y-47397619D01*
X102364285Y-47492857D01*
X102364285Y-47635714D01*
X102316666Y-47730952D01*
X102269047Y-47778571D01*
X102173809Y-47826190D01*
X101792857Y-47826190D01*
X103173809Y-48254761D02*
X103078571Y-48302380D01*
X102888095Y-48302380D01*
X102792857Y-48254761D01*
X102745238Y-48159523D01*
X102745238Y-47778571D01*
X102792857Y-47683333D01*
X102888095Y-47635714D01*
X103078571Y-47635714D01*
X103173809Y-47683333D01*
X103221428Y-47778571D01*
X103221428Y-47873809D01*
X102745238Y-47969047D01*
X103554761Y-47635714D02*
X103792857Y-48302380D01*
X104030952Y-47635714D01*
X105697619Y-48302380D02*
X105126190Y-48302380D01*
X105411904Y-48302380D02*
X105411904Y-47302380D01*
X105316666Y-47445238D01*
X105221428Y-47540476D01*
X105126190Y-47588095D01*
X106126190Y-48207142D02*
X106173809Y-48254761D01*
X106126190Y-48302380D01*
X106078571Y-48254761D01*
X106126190Y-48207142D01*
X106126190Y-48302380D01*
X106792857Y-47302380D02*
X106888095Y-47302380D01*
X106983333Y-47350000D01*
X107030952Y-47397619D01*
X107078571Y-47492857D01*
X107126190Y-47683333D01*
X107126190Y-47921428D01*
X107078571Y-48111904D01*
X107030952Y-48207142D01*
X106983333Y-48254761D01*
X106888095Y-48302380D01*
X106792857Y-48302380D01*
X106697619Y-48254761D01*
X106650000Y-48207142D01*
X106602380Y-48111904D01*
X106554761Y-47921428D01*
X106554761Y-47683333D01*
X106602380Y-47492857D01*
X106650000Y-47397619D01*
X106697619Y-47350000D01*
X106792857Y-47302380D01*
X107554761Y-48207142D02*
X107602380Y-48254761D01*
X107554761Y-48302380D01*
X107507142Y-48254761D01*
X107554761Y-48207142D01*
X107554761Y-48302380D01*
X107935714Y-47302380D02*
X108554761Y-47302380D01*
X108221428Y-47683333D01*
X108364285Y-47683333D01*
X108459523Y-47730952D01*
X108507142Y-47778571D01*
X108554761Y-47873809D01*
X108554761Y-48111904D01*
X108507142Y-48207142D01*
X108459523Y-48254761D01*
X108364285Y-48302380D01*
X108078571Y-48302380D01*
X107983333Y-48254761D01*
X107935714Y-48207142D01*
X133325761Y-28264880D02*
X133897190Y-28264880D01*
X133611476Y-29264880D02*
X133611476Y-28264880D01*
X134230523Y-28741071D02*
X134563857Y-28741071D01*
X134706714Y-29264880D02*
X134230523Y-29264880D01*
X134230523Y-28264880D01*
X134706714Y-28264880D01*
X135087666Y-29217261D02*
X135230523Y-29264880D01*
X135468619Y-29264880D01*
X135563857Y-29217261D01*
X135611476Y-29169642D01*
X135659095Y-29074404D01*
X135659095Y-28979166D01*
X135611476Y-28883928D01*
X135563857Y-28836309D01*
X135468619Y-28788690D01*
X135278142Y-28741071D01*
X135182904Y-28693452D01*
X135135285Y-28645833D01*
X135087666Y-28550595D01*
X135087666Y-28455357D01*
X135135285Y-28360119D01*
X135182904Y-28312500D01*
X135278142Y-28264880D01*
X135516238Y-28264880D01*
X135659095Y-28312500D01*
X135944809Y-28264880D02*
X136516238Y-28264880D01*
X136230523Y-29264880D02*
X136230523Y-28264880D01*
D12*
X151991285Y-54507428D02*
X150191285Y-54507428D01*
X151477000Y-53907428D01*
X150191285Y-53307428D01*
X151991285Y-53307428D01*
X151991285Y-52450285D02*
X150791285Y-52450285D01*
X150191285Y-52450285D02*
X150277000Y-52536000D01*
X150362714Y-52450285D01*
X150277000Y-52364571D01*
X150191285Y-52450285D01*
X150362714Y-52450285D01*
X150791285Y-51593142D02*
X151991285Y-51593142D01*
X150962714Y-51593142D02*
X150877000Y-51507428D01*
X150791285Y-51336000D01*
X150791285Y-51078857D01*
X150877000Y-50907428D01*
X151048428Y-50821714D01*
X151991285Y-50821714D01*
X151991285Y-49964571D02*
X150791285Y-49964571D01*
X150191285Y-49964571D02*
X150277000Y-50050285D01*
X150362714Y-49964571D01*
X150277000Y-49878857D01*
X150191285Y-49964571D01*
X150362714Y-49964571D01*
X151991285Y-49107428D02*
X150791285Y-49107428D01*
X150962714Y-49107428D02*
X150877000Y-49021714D01*
X150791285Y-48850285D01*
X150791285Y-48593142D01*
X150877000Y-48421714D01*
X151048428Y-48336000D01*
X151991285Y-48336000D01*
X151048428Y-48336000D02*
X150877000Y-48250285D01*
X150791285Y-48078857D01*
X150791285Y-47821714D01*
X150877000Y-47650285D01*
X151048428Y-47564571D01*
X151991285Y-47564571D01*
X151991285Y-46707428D02*
X150791285Y-46707428D01*
X150191285Y-46707428D02*
X150277000Y-46793142D01*
X150362714Y-46707428D01*
X150277000Y-46621714D01*
X150191285Y-46707428D01*
X150362714Y-46707428D01*
X150791285Y-45078857D02*
X152248428Y-45078857D01*
X152419857Y-45164571D01*
X152505571Y-45250285D01*
X152591285Y-45421714D01*
X152591285Y-45678857D01*
X152505571Y-45850285D01*
X151905571Y-45078857D02*
X151991285Y-45250285D01*
X151991285Y-45593142D01*
X151905571Y-45764571D01*
X151819857Y-45850285D01*
X151648428Y-45936000D01*
X151134142Y-45936000D01*
X150962714Y-45850285D01*
X150877000Y-45764571D01*
X150791285Y-45593142D01*
X150791285Y-45250285D01*
X150877000Y-45078857D01*
X151477000Y-42936000D02*
X151477000Y-42078857D01*
X151991285Y-43107428D02*
X150191285Y-42507428D01*
X151991285Y-41907428D01*
X151991285Y-40278857D02*
X151134142Y-40878857D01*
X151991285Y-41307428D02*
X150191285Y-41307428D01*
X150191285Y-40621714D01*
X150277000Y-40450285D01*
X150362714Y-40364571D01*
X150534142Y-40278857D01*
X150791285Y-40278857D01*
X150962714Y-40364571D01*
X151048428Y-40450285D01*
X151134142Y-40621714D01*
X151134142Y-41307428D01*
X151991285Y-39507428D02*
X150191285Y-39507428D01*
X151477000Y-38907428D01*
X150191285Y-38307428D01*
X151991285Y-38307428D01*
X151819857Y-35050285D02*
X151905571Y-35136000D01*
X151991285Y-35393142D01*
X151991285Y-35564571D01*
X151905571Y-35821714D01*
X151734142Y-35993142D01*
X151562714Y-36078857D01*
X151219857Y-36164571D01*
X150962714Y-36164571D01*
X150619857Y-36078857D01*
X150448428Y-35993142D01*
X150277000Y-35821714D01*
X150191285Y-35564571D01*
X150191285Y-35393142D01*
X150277000Y-35136000D01*
X150362714Y-35050285D01*
X151991285Y-34021714D02*
X151905571Y-34193142D01*
X151819857Y-34278857D01*
X151648428Y-34364571D01*
X151134142Y-34364571D01*
X150962714Y-34278857D01*
X150877000Y-34193142D01*
X150791285Y-34021714D01*
X150791285Y-33764571D01*
X150877000Y-33593142D01*
X150962714Y-33507428D01*
X151134142Y-33421714D01*
X151648428Y-33421714D01*
X151819857Y-33507428D01*
X151905571Y-33593142D01*
X151991285Y-33764571D01*
X151991285Y-34021714D01*
X150791285Y-32650285D02*
X151991285Y-32650285D01*
X150962714Y-32650285D02*
X150877000Y-32564571D01*
X150791285Y-32393142D01*
X150791285Y-32136000D01*
X150877000Y-31964571D01*
X151048428Y-31878857D01*
X151991285Y-31878857D01*
X150791285Y-31278857D02*
X150791285Y-30593142D01*
X150191285Y-31021714D02*
X151734142Y-31021714D01*
X151905571Y-30936000D01*
X151991285Y-30764571D01*
X151991285Y-30593142D01*
X151991285Y-29993142D02*
X150791285Y-29993142D01*
X151134142Y-29993142D02*
X150962714Y-29907428D01*
X150877000Y-29821714D01*
X150791285Y-29650285D01*
X150791285Y-29478857D01*
X151991285Y-28621714D02*
X151905571Y-28793142D01*
X151819857Y-28878857D01*
X151648428Y-28964571D01*
X151134142Y-28964571D01*
X150962714Y-28878857D01*
X150877000Y-28793142D01*
X150791285Y-28621714D01*
X150791285Y-28364571D01*
X150877000Y-28193142D01*
X150962714Y-28107428D01*
X151134142Y-28021714D01*
X151648428Y-28021714D01*
X151819857Y-28107428D01*
X151905571Y-28193142D01*
X151991285Y-28364571D01*
X151991285Y-28621714D01*
X151991285Y-26993142D02*
X151905571Y-27164571D01*
X151734142Y-27250285D01*
X150191285Y-27250285D01*
X151991285Y-26050285D02*
X151905571Y-26221714D01*
X151734142Y-26307428D01*
X150191285Y-26307428D01*
X151905571Y-24678857D02*
X151991285Y-24850285D01*
X151991285Y-25193142D01*
X151905571Y-25364571D01*
X151734142Y-25450285D01*
X151048428Y-25450285D01*
X150877000Y-25364571D01*
X150791285Y-25193142D01*
X150791285Y-24850285D01*
X150877000Y-24678857D01*
X151048428Y-24593142D01*
X151219857Y-24593142D01*
X151391285Y-25450285D01*
X151991285Y-23821714D02*
X150791285Y-23821714D01*
X151134142Y-23821714D02*
X150962714Y-23736000D01*
X150877000Y-23650285D01*
X150791285Y-23478857D01*
X150791285Y-23307428D01*
D13*
G04 #@! TO.C,C2*
X126573166Y-59249214D02*
X126535071Y-59287309D01*
X126420785Y-59325404D01*
X126344595Y-59325404D01*
X126230309Y-59287309D01*
X126154119Y-59211119D01*
X126116023Y-59134928D01*
X126077928Y-58982547D01*
X126077928Y-58868261D01*
X126116023Y-58715880D01*
X126154119Y-58639690D01*
X126230309Y-58563500D01*
X126344595Y-58525404D01*
X126420785Y-58525404D01*
X126535071Y-58563500D01*
X126573166Y-58601595D01*
X126877928Y-58601595D02*
X126916023Y-58563500D01*
X126992214Y-58525404D01*
X127182690Y-58525404D01*
X127258880Y-58563500D01*
X127296976Y-58601595D01*
X127335071Y-58677785D01*
X127335071Y-58753976D01*
X127296976Y-58868261D01*
X126839833Y-59325404D01*
X127335071Y-59325404D01*
G04 #@! TO.C,R1*
X124996666Y-53901904D02*
X124730000Y-53520952D01*
X124539523Y-53901904D02*
X124539523Y-53101904D01*
X124844285Y-53101904D01*
X124920476Y-53140000D01*
X124958571Y-53178095D01*
X124996666Y-53254285D01*
X124996666Y-53368571D01*
X124958571Y-53444761D01*
X124920476Y-53482857D01*
X124844285Y-53520952D01*
X124539523Y-53520952D01*
X125758571Y-53901904D02*
X125301428Y-53901904D01*
X125530000Y-53901904D02*
X125530000Y-53101904D01*
X125453809Y-53216190D01*
X125377619Y-53292380D01*
X125301428Y-53330476D01*
G04 #@! TO.C,C4*
X138724666Y-29034714D02*
X138686571Y-29072809D01*
X138572285Y-29110904D01*
X138496095Y-29110904D01*
X138381809Y-29072809D01*
X138305619Y-28996619D01*
X138267523Y-28920428D01*
X138229428Y-28768047D01*
X138229428Y-28653761D01*
X138267523Y-28501380D01*
X138305619Y-28425190D01*
X138381809Y-28349000D01*
X138496095Y-28310904D01*
X138572285Y-28310904D01*
X138686571Y-28349000D01*
X138724666Y-28387095D01*
X139410380Y-28577571D02*
X139410380Y-29110904D01*
X139219904Y-28272809D02*
X139029428Y-28844238D01*
X139524666Y-28844238D01*
G04 #@! TO.C,C5*
X143550666Y-29923714D02*
X143512571Y-29961809D01*
X143398285Y-29999904D01*
X143322095Y-29999904D01*
X143207809Y-29961809D01*
X143131619Y-29885619D01*
X143093523Y-29809428D01*
X143055428Y-29657047D01*
X143055428Y-29542761D01*
X143093523Y-29390380D01*
X143131619Y-29314190D01*
X143207809Y-29238000D01*
X143322095Y-29199904D01*
X143398285Y-29199904D01*
X143512571Y-29238000D01*
X143550666Y-29276095D01*
X144274476Y-29199904D02*
X143893523Y-29199904D01*
X143855428Y-29580857D01*
X143893523Y-29542761D01*
X143969714Y-29504666D01*
X144160190Y-29504666D01*
X144236380Y-29542761D01*
X144274476Y-29580857D01*
X144312571Y-29657047D01*
X144312571Y-29847523D01*
X144274476Y-29923714D01*
X144236380Y-29961809D01*
X144160190Y-29999904D01*
X143969714Y-29999904D01*
X143893523Y-29961809D01*
X143855428Y-29923714D01*
G04 #@! TO.C,R6*
X119466666Y-25301904D02*
X119200000Y-24920952D01*
X119009523Y-25301904D02*
X119009523Y-24501904D01*
X119314285Y-24501904D01*
X119390476Y-24540000D01*
X119428571Y-24578095D01*
X119466666Y-24654285D01*
X119466666Y-24768571D01*
X119428571Y-24844761D01*
X119390476Y-24882857D01*
X119314285Y-24920952D01*
X119009523Y-24920952D01*
X120152380Y-24501904D02*
X120000000Y-24501904D01*
X119923809Y-24540000D01*
X119885714Y-24578095D01*
X119809523Y-24692380D01*
X119771428Y-24844761D01*
X119771428Y-25149523D01*
X119809523Y-25225714D01*
X119847619Y-25263809D01*
X119923809Y-25301904D01*
X120076190Y-25301904D01*
X120152380Y-25263809D01*
X120190476Y-25225714D01*
X120228571Y-25149523D01*
X120228571Y-24959047D01*
X120190476Y-24882857D01*
X120152380Y-24844761D01*
X120076190Y-24806666D01*
X119923809Y-24806666D01*
X119847619Y-24844761D01*
X119809523Y-24882857D01*
X119771428Y-24959047D01*
G04 #@! TO.C,R3*
X123357666Y-35079904D02*
X123091000Y-34698952D01*
X122900523Y-35079904D02*
X122900523Y-34279904D01*
X123205285Y-34279904D01*
X123281476Y-34318000D01*
X123319571Y-34356095D01*
X123357666Y-34432285D01*
X123357666Y-34546571D01*
X123319571Y-34622761D01*
X123281476Y-34660857D01*
X123205285Y-34698952D01*
X122900523Y-34698952D01*
X123624333Y-34279904D02*
X124119571Y-34279904D01*
X123852904Y-34584666D01*
X123967190Y-34584666D01*
X124043380Y-34622761D01*
X124081476Y-34660857D01*
X124119571Y-34737047D01*
X124119571Y-34927523D01*
X124081476Y-35003714D01*
X124043380Y-35041809D01*
X123967190Y-35079904D01*
X123738619Y-35079904D01*
X123662428Y-35041809D01*
X123624333Y-35003714D01*
G04 #@! TO.C,R7*
X123357666Y-39143904D02*
X123091000Y-38762952D01*
X122900523Y-39143904D02*
X122900523Y-38343904D01*
X123205285Y-38343904D01*
X123281476Y-38382000D01*
X123319571Y-38420095D01*
X123357666Y-38496285D01*
X123357666Y-38610571D01*
X123319571Y-38686761D01*
X123281476Y-38724857D01*
X123205285Y-38762952D01*
X122900523Y-38762952D01*
X123624333Y-38343904D02*
X124157666Y-38343904D01*
X123814809Y-39143904D01*
G04 #@! TO.C,Q1*
X112563809Y-28218095D02*
X112487619Y-28180000D01*
X112411428Y-28103809D01*
X112297142Y-27989523D01*
X112220952Y-27951428D01*
X112144761Y-27951428D01*
X112182857Y-28141904D02*
X112106666Y-28103809D01*
X112030476Y-28027619D01*
X111992380Y-27875238D01*
X111992380Y-27608571D01*
X112030476Y-27456190D01*
X112106666Y-27380000D01*
X112182857Y-27341904D01*
X112335238Y-27341904D01*
X112411428Y-27380000D01*
X112487619Y-27456190D01*
X112525714Y-27608571D01*
X112525714Y-27875238D01*
X112487619Y-28027619D01*
X112411428Y-28103809D01*
X112335238Y-28141904D01*
X112182857Y-28141904D01*
X113287619Y-28141904D02*
X112830476Y-28141904D01*
X113059047Y-28141904D02*
X113059047Y-27341904D01*
X112982857Y-27456190D01*
X112906666Y-27532380D01*
X112830476Y-27570476D01*
G04 #@! TO.C,C12*
X123357714Y-37035714D02*
X123319619Y-37073809D01*
X123205333Y-37111904D01*
X123129142Y-37111904D01*
X123014857Y-37073809D01*
X122938666Y-36997619D01*
X122900571Y-36921428D01*
X122862476Y-36769047D01*
X122862476Y-36654761D01*
X122900571Y-36502380D01*
X122938666Y-36426190D01*
X123014857Y-36350000D01*
X123129142Y-36311904D01*
X123205333Y-36311904D01*
X123319619Y-36350000D01*
X123357714Y-36388095D01*
X124119619Y-37111904D02*
X123662476Y-37111904D01*
X123891047Y-37111904D02*
X123891047Y-36311904D01*
X123814857Y-36426190D01*
X123738666Y-36502380D01*
X123662476Y-36540476D01*
X124424380Y-36388095D02*
X124462476Y-36350000D01*
X124538666Y-36311904D01*
X124729142Y-36311904D01*
X124805333Y-36350000D01*
X124843428Y-36388095D01*
X124881523Y-36464285D01*
X124881523Y-36540476D01*
X124843428Y-36654761D01*
X124386285Y-37111904D01*
X124881523Y-37111904D01*
G04 #@! TO.C,R2*
X123357666Y-32861904D02*
X123091000Y-32480952D01*
X122900523Y-32861904D02*
X122900523Y-32061904D01*
X123205285Y-32061904D01*
X123281476Y-32100000D01*
X123319571Y-32138095D01*
X123357666Y-32214285D01*
X123357666Y-32328571D01*
X123319571Y-32404761D01*
X123281476Y-32442857D01*
X123205285Y-32480952D01*
X122900523Y-32480952D01*
X123662428Y-32138095D02*
X123700523Y-32100000D01*
X123776714Y-32061904D01*
X123967190Y-32061904D01*
X124043380Y-32100000D01*
X124081476Y-32138095D01*
X124119571Y-32214285D01*
X124119571Y-32290476D01*
X124081476Y-32404761D01*
X123624333Y-32861904D01*
X124119571Y-32861904D01*
G04 #@! TO.C,R5*
X115176666Y-23311904D02*
X114910000Y-22930952D01*
X114719523Y-23311904D02*
X114719523Y-22511904D01*
X115024285Y-22511904D01*
X115100476Y-22550000D01*
X115138571Y-22588095D01*
X115176666Y-22664285D01*
X115176666Y-22778571D01*
X115138571Y-22854761D01*
X115100476Y-22892857D01*
X115024285Y-22930952D01*
X114719523Y-22930952D01*
X115900476Y-22511904D02*
X115519523Y-22511904D01*
X115481428Y-22892857D01*
X115519523Y-22854761D01*
X115595714Y-22816666D01*
X115786190Y-22816666D01*
X115862380Y-22854761D01*
X115900476Y-22892857D01*
X115938571Y-22969047D01*
X115938571Y-23159523D01*
X115900476Y-23235714D01*
X115862380Y-23273809D01*
X115786190Y-23311904D01*
X115595714Y-23311904D01*
X115519523Y-23273809D01*
X115481428Y-23235714D01*
G04 #@! TO.C,C9*
X115494266Y-49936514D02*
X115456171Y-49974609D01*
X115341885Y-50012704D01*
X115265695Y-50012704D01*
X115151409Y-49974609D01*
X115075219Y-49898419D01*
X115037123Y-49822228D01*
X114999028Y-49669847D01*
X114999028Y-49555561D01*
X115037123Y-49403180D01*
X115075219Y-49326990D01*
X115151409Y-49250800D01*
X115265695Y-49212704D01*
X115341885Y-49212704D01*
X115456171Y-49250800D01*
X115494266Y-49288895D01*
X115875219Y-50012704D02*
X116027600Y-50012704D01*
X116103790Y-49974609D01*
X116141885Y-49936514D01*
X116218076Y-49822228D01*
X116256171Y-49669847D01*
X116256171Y-49365085D01*
X116218076Y-49288895D01*
X116179980Y-49250800D01*
X116103790Y-49212704D01*
X115951409Y-49212704D01*
X115875219Y-49250800D01*
X115837123Y-49288895D01*
X115799028Y-49365085D01*
X115799028Y-49555561D01*
X115837123Y-49631752D01*
X115875219Y-49669847D01*
X115951409Y-49707942D01*
X116103790Y-49707942D01*
X116179980Y-49669847D01*
X116218076Y-49631752D01*
X116256171Y-49555561D01*
G04 #@! TO.C,C18*
X115195714Y-48035714D02*
X115157619Y-48073809D01*
X115043333Y-48111904D01*
X114967142Y-48111904D01*
X114852857Y-48073809D01*
X114776666Y-47997619D01*
X114738571Y-47921428D01*
X114700476Y-47769047D01*
X114700476Y-47654761D01*
X114738571Y-47502380D01*
X114776666Y-47426190D01*
X114852857Y-47350000D01*
X114967142Y-47311904D01*
X115043333Y-47311904D01*
X115157619Y-47350000D01*
X115195714Y-47388095D01*
X115957619Y-48111904D02*
X115500476Y-48111904D01*
X115729047Y-48111904D02*
X115729047Y-47311904D01*
X115652857Y-47426190D01*
X115576666Y-47502380D01*
X115500476Y-47540476D01*
X116414761Y-47654761D02*
X116338571Y-47616666D01*
X116300476Y-47578571D01*
X116262380Y-47502380D01*
X116262380Y-47464285D01*
X116300476Y-47388095D01*
X116338571Y-47350000D01*
X116414761Y-47311904D01*
X116567142Y-47311904D01*
X116643333Y-47350000D01*
X116681428Y-47388095D01*
X116719523Y-47464285D01*
X116719523Y-47502380D01*
X116681428Y-47578571D01*
X116643333Y-47616666D01*
X116567142Y-47654761D01*
X116414761Y-47654761D01*
X116338571Y-47692857D01*
X116300476Y-47730952D01*
X116262380Y-47807142D01*
X116262380Y-47959523D01*
X116300476Y-48035714D01*
X116338571Y-48073809D01*
X116414761Y-48111904D01*
X116567142Y-48111904D01*
X116643333Y-48073809D01*
X116681428Y-48035714D01*
X116719523Y-47959523D01*
X116719523Y-47807142D01*
X116681428Y-47730952D01*
X116643333Y-47692857D01*
X116567142Y-47654761D01*
G04 #@! TO.C,C1*
X129015166Y-59259214D02*
X128977071Y-59297309D01*
X128862785Y-59335404D01*
X128786595Y-59335404D01*
X128672309Y-59297309D01*
X128596119Y-59221119D01*
X128558023Y-59144928D01*
X128519928Y-58992547D01*
X128519928Y-58878261D01*
X128558023Y-58725880D01*
X128596119Y-58649690D01*
X128672309Y-58573500D01*
X128786595Y-58535404D01*
X128862785Y-58535404D01*
X128977071Y-58573500D01*
X129015166Y-58611595D01*
X129777071Y-59335404D02*
X129319928Y-59335404D01*
X129548500Y-59335404D02*
X129548500Y-58535404D01*
X129472309Y-58649690D01*
X129396119Y-58725880D01*
X129319928Y-58763976D01*
G04 #@! TO.C,C6*
X125826666Y-50025714D02*
X125788571Y-50063809D01*
X125674285Y-50101904D01*
X125598095Y-50101904D01*
X125483809Y-50063809D01*
X125407619Y-49987619D01*
X125369523Y-49911428D01*
X125331428Y-49759047D01*
X125331428Y-49644761D01*
X125369523Y-49492380D01*
X125407619Y-49416190D01*
X125483809Y-49340000D01*
X125598095Y-49301904D01*
X125674285Y-49301904D01*
X125788571Y-49340000D01*
X125826666Y-49378095D01*
X126512380Y-49301904D02*
X126360000Y-49301904D01*
X126283809Y-49340000D01*
X126245714Y-49378095D01*
X126169523Y-49492380D01*
X126131428Y-49644761D01*
X126131428Y-49949523D01*
X126169523Y-50025714D01*
X126207619Y-50063809D01*
X126283809Y-50101904D01*
X126436190Y-50101904D01*
X126512380Y-50063809D01*
X126550476Y-50025714D01*
X126588571Y-49949523D01*
X126588571Y-49759047D01*
X126550476Y-49682857D01*
X126512380Y-49644761D01*
X126436190Y-49606666D01*
X126283809Y-49606666D01*
X126207619Y-49644761D01*
X126169523Y-49682857D01*
X126131428Y-49759047D01*
G04 #@! TO.C,C7*
X134263066Y-59324114D02*
X134224971Y-59362209D01*
X134110685Y-59400304D01*
X134034495Y-59400304D01*
X133920209Y-59362209D01*
X133844019Y-59286019D01*
X133805923Y-59209828D01*
X133767828Y-59057447D01*
X133767828Y-58943161D01*
X133805923Y-58790780D01*
X133844019Y-58714590D01*
X133920209Y-58638400D01*
X134034495Y-58600304D01*
X134110685Y-58600304D01*
X134224971Y-58638400D01*
X134263066Y-58676495D01*
X134529733Y-58600304D02*
X135063066Y-58600304D01*
X134720209Y-59400304D01*
G04 #@! TO.C,C8*
X136345866Y-59324114D02*
X136307771Y-59362209D01*
X136193485Y-59400304D01*
X136117295Y-59400304D01*
X136003009Y-59362209D01*
X135926819Y-59286019D01*
X135888723Y-59209828D01*
X135850628Y-59057447D01*
X135850628Y-58943161D01*
X135888723Y-58790780D01*
X135926819Y-58714590D01*
X136003009Y-58638400D01*
X136117295Y-58600304D01*
X136193485Y-58600304D01*
X136307771Y-58638400D01*
X136345866Y-58676495D01*
X136803009Y-58943161D02*
X136726819Y-58905066D01*
X136688723Y-58866971D01*
X136650628Y-58790780D01*
X136650628Y-58752685D01*
X136688723Y-58676495D01*
X136726819Y-58638400D01*
X136803009Y-58600304D01*
X136955390Y-58600304D01*
X137031580Y-58638400D01*
X137069676Y-58676495D01*
X137107771Y-58752685D01*
X137107771Y-58790780D01*
X137069676Y-58866971D01*
X137031580Y-58905066D01*
X136955390Y-58943161D01*
X136803009Y-58943161D01*
X136726819Y-58981257D01*
X136688723Y-59019352D01*
X136650628Y-59095542D01*
X136650628Y-59247923D01*
X136688723Y-59324114D01*
X136726819Y-59362209D01*
X136803009Y-59400304D01*
X136955390Y-59400304D01*
X137031580Y-59362209D01*
X137069676Y-59324114D01*
X137107771Y-59247923D01*
X137107771Y-59095542D01*
X137069676Y-59019352D01*
X137031580Y-58981257D01*
X136955390Y-58943161D01*
G04 #@! TO.C,C16*
X129615714Y-36115714D02*
X129577619Y-36153809D01*
X129463333Y-36191904D01*
X129387142Y-36191904D01*
X129272857Y-36153809D01*
X129196666Y-36077619D01*
X129158571Y-36001428D01*
X129120476Y-35849047D01*
X129120476Y-35734761D01*
X129158571Y-35582380D01*
X129196666Y-35506190D01*
X129272857Y-35430000D01*
X129387142Y-35391904D01*
X129463333Y-35391904D01*
X129577619Y-35430000D01*
X129615714Y-35468095D01*
X130377619Y-36191904D02*
X129920476Y-36191904D01*
X130149047Y-36191904D02*
X130149047Y-35391904D01*
X130072857Y-35506190D01*
X129996666Y-35582380D01*
X129920476Y-35620476D01*
X131063333Y-35391904D02*
X130910952Y-35391904D01*
X130834761Y-35430000D01*
X130796666Y-35468095D01*
X130720476Y-35582380D01*
X130682380Y-35734761D01*
X130682380Y-36039523D01*
X130720476Y-36115714D01*
X130758571Y-36153809D01*
X130834761Y-36191904D01*
X130987142Y-36191904D01*
X131063333Y-36153809D01*
X131101428Y-36115714D01*
X131139523Y-36039523D01*
X131139523Y-35849047D01*
X131101428Y-35772857D01*
X131063333Y-35734761D01*
X130987142Y-35696666D01*
X130834761Y-35696666D01*
X130758571Y-35734761D01*
X130720476Y-35772857D01*
X130682380Y-35849047D01*
G04 #@! TO.C,C13*
X106512714Y-24425714D02*
X106474619Y-24463809D01*
X106360333Y-24501904D01*
X106284142Y-24501904D01*
X106169857Y-24463809D01*
X106093666Y-24387619D01*
X106055571Y-24311428D01*
X106017476Y-24159047D01*
X106017476Y-24044761D01*
X106055571Y-23892380D01*
X106093666Y-23816190D01*
X106169857Y-23740000D01*
X106284142Y-23701904D01*
X106360333Y-23701904D01*
X106474619Y-23740000D01*
X106512714Y-23778095D01*
X107274619Y-24501904D02*
X106817476Y-24501904D01*
X107046047Y-24501904D02*
X107046047Y-23701904D01*
X106969857Y-23816190D01*
X106893666Y-23892380D01*
X106817476Y-23930476D01*
X107541285Y-23701904D02*
X108036523Y-23701904D01*
X107769857Y-24006666D01*
X107884142Y-24006666D01*
X107960333Y-24044761D01*
X107998428Y-24082857D01*
X108036523Y-24159047D01*
X108036523Y-24349523D01*
X107998428Y-24425714D01*
X107960333Y-24463809D01*
X107884142Y-24501904D01*
X107655571Y-24501904D01*
X107579380Y-24463809D01*
X107541285Y-24425714D01*
G04 #@! TO.C,C10*
X116118714Y-33987714D02*
X116080619Y-34025809D01*
X115966333Y-34063904D01*
X115890142Y-34063904D01*
X115775857Y-34025809D01*
X115699666Y-33949619D01*
X115661571Y-33873428D01*
X115623476Y-33721047D01*
X115623476Y-33606761D01*
X115661571Y-33454380D01*
X115699666Y-33378190D01*
X115775857Y-33302000D01*
X115890142Y-33263904D01*
X115966333Y-33263904D01*
X116080619Y-33302000D01*
X116118714Y-33340095D01*
X116880619Y-34063904D02*
X116423476Y-34063904D01*
X116652047Y-34063904D02*
X116652047Y-33263904D01*
X116575857Y-33378190D01*
X116499666Y-33454380D01*
X116423476Y-33492476D01*
X117375857Y-33263904D02*
X117452047Y-33263904D01*
X117528238Y-33302000D01*
X117566333Y-33340095D01*
X117604428Y-33416285D01*
X117642523Y-33568666D01*
X117642523Y-33759142D01*
X117604428Y-33911523D01*
X117566333Y-33987714D01*
X117528238Y-34025809D01*
X117452047Y-34063904D01*
X117375857Y-34063904D01*
X117299666Y-34025809D01*
X117261571Y-33987714D01*
X117223476Y-33911523D01*
X117185380Y-33759142D01*
X117185380Y-33568666D01*
X117223476Y-33416285D01*
X117261571Y-33340095D01*
X117299666Y-33302000D01*
X117375857Y-33263904D01*
G04 #@! TO.C,R4*
X106893666Y-44242904D02*
X106627000Y-43861952D01*
X106436523Y-44242904D02*
X106436523Y-43442904D01*
X106741285Y-43442904D01*
X106817476Y-43481000D01*
X106855571Y-43519095D01*
X106893666Y-43595285D01*
X106893666Y-43709571D01*
X106855571Y-43785761D01*
X106817476Y-43823857D01*
X106741285Y-43861952D01*
X106436523Y-43861952D01*
X107579380Y-43709571D02*
X107579380Y-44242904D01*
X107388904Y-43404809D02*
X107198428Y-43976238D01*
X107693666Y-43976238D01*
G04 #@! TO.C,C11*
X123484714Y-30685714D02*
X123446619Y-30723809D01*
X123332333Y-30761904D01*
X123256142Y-30761904D01*
X123141857Y-30723809D01*
X123065666Y-30647619D01*
X123027571Y-30571428D01*
X122989476Y-30419047D01*
X122989476Y-30304761D01*
X123027571Y-30152380D01*
X123065666Y-30076190D01*
X123141857Y-30000000D01*
X123256142Y-29961904D01*
X123332333Y-29961904D01*
X123446619Y-30000000D01*
X123484714Y-30038095D01*
X124246619Y-30761904D02*
X123789476Y-30761904D01*
X124018047Y-30761904D02*
X124018047Y-29961904D01*
X123941857Y-30076190D01*
X123865666Y-30152380D01*
X123789476Y-30190476D01*
X125008523Y-30761904D02*
X124551380Y-30761904D01*
X124779952Y-30761904D02*
X124779952Y-29961904D01*
X124703761Y-30076190D01*
X124627571Y-30152380D01*
X124551380Y-30190476D01*
G04 #@! TO.C,CN1*
X101809523Y-41357142D02*
X101761904Y-41404761D01*
X101619047Y-41452380D01*
X101523809Y-41452380D01*
X101380952Y-41404761D01*
X101285714Y-41309523D01*
X101238095Y-41214285D01*
X101190476Y-41023809D01*
X101190476Y-40880952D01*
X101238095Y-40690476D01*
X101285714Y-40595238D01*
X101380952Y-40500000D01*
X101523809Y-40452380D01*
X101619047Y-40452380D01*
X101761904Y-40500000D01*
X101809523Y-40547619D01*
X102238095Y-41452380D02*
X102238095Y-40452380D01*
X102809523Y-41452380D01*
X102809523Y-40452380D01*
X103809523Y-41452380D02*
X103238095Y-41452380D01*
X103523809Y-41452380D02*
X103523809Y-40452380D01*
X103428571Y-40595238D01*
X103333333Y-40690476D01*
X103238095Y-40738095D01*
D14*
G04 #@! TO.C,U1*
X129557000Y-41038000D02*
X130507000Y-41038000D01*
X139777000Y-51258000D02*
X138827000Y-51258000D01*
X129557000Y-41988000D02*
X129557000Y-41038000D01*
X139777000Y-50308000D02*
X139777000Y-51258000D01*
X129557000Y-50308000D02*
X129557000Y-51258000D01*
X139777000Y-41988000D02*
X139777000Y-41038000D01*
X129557000Y-51258000D02*
X130507000Y-51258000D01*
X139777000Y-41038000D02*
X138827000Y-41038000D01*
X130507000Y-51258000D02*
X130507000Y-52598000D01*
G04 #@! TO.C,U2*
X146050000Y-57390000D02*
X156330000Y-57390000D01*
X153840000Y-57330000D02*
X153840000Y-21650000D01*
X156330000Y-21590000D02*
X146050000Y-21590000D01*
X146050000Y-21590000D02*
X146050000Y-57390000D01*
X148540000Y-21650000D02*
X148540000Y-57330000D01*
X148540000Y-57330000D02*
X150190000Y-57330000D01*
X152190000Y-57330000D02*
X153840000Y-57330000D01*
X153840000Y-21650000D02*
X148540000Y-21650000D01*
X156330000Y-57390000D02*
X156330000Y-21590000D01*
X152190000Y-57330000D02*
G75*
G03*
X150190000Y-57330000I-1000000J0D01*
G01*
G04 #@! TO.C,JP1*
X128790400Y-24964400D02*
X128790400Y-22364400D01*
X131450400Y-24964400D02*
X128790400Y-24964400D01*
X131450400Y-24964400D02*
X131450400Y-22364400D01*
X131450400Y-27564400D02*
X130120400Y-27564400D01*
X131450400Y-26234400D02*
X131450400Y-27564400D01*
X131450400Y-22364400D02*
X128790400Y-22364400D01*
G04 #@! TO.C,JP2*
X136276400Y-24964400D02*
X136276400Y-22364400D01*
X136276400Y-27564400D02*
X134946400Y-27564400D01*
X136276400Y-26234400D02*
X136276400Y-27564400D01*
X136276400Y-24964400D02*
X133616400Y-24964400D01*
X136276400Y-22364400D02*
X133616400Y-22364400D01*
X133616400Y-24964400D02*
X133616400Y-22364400D01*
G04 #@! TO.C,C2*
X125969500Y-56261248D02*
X125969500Y-56783752D01*
X127439500Y-56261248D02*
X127439500Y-56783752D01*
G04 #@! TO.C,R1*
X127651436Y-54314900D02*
X128105564Y-54314900D01*
X127651436Y-52844900D02*
X128105564Y-52844900D01*
G04 #@! TO.C,C4*
X137284500Y-34686000D02*
X140304500Y-34686000D01*
X140304500Y-34686000D02*
X140304500Y-30301000D01*
X137284500Y-30301000D02*
X137284500Y-34686000D01*
G04 #@! TO.C,C5*
X144482500Y-32248752D02*
X144482500Y-31726248D01*
X143012500Y-32248752D02*
X143012500Y-31726248D01*
G04 #@! TO.C,R6*
X119864564Y-25835000D02*
X119410436Y-25835000D01*
X119864564Y-27305000D02*
X119410436Y-27305000D01*
G04 #@! TO.C,R3*
X120906564Y-33983000D02*
X120452436Y-33983000D01*
X120906564Y-35453000D02*
X120452436Y-35453000D01*
G04 #@! TO.C,R7*
X120906564Y-38047000D02*
X120452436Y-38047000D01*
X120906564Y-39517000D02*
X120452436Y-39517000D01*
G04 #@! TO.C,Q1*
X113612500Y-28447000D02*
X113612500Y-26987000D01*
X116772500Y-28447000D02*
X116772500Y-26287000D01*
X116772500Y-28447000D02*
X115842500Y-28447000D01*
X113612500Y-28447000D02*
X114542500Y-28447000D01*
G04 #@! TO.C,C12*
X120940752Y-36015000D02*
X120418248Y-36015000D01*
X120940752Y-37485000D02*
X120418248Y-37485000D01*
G04 #@! TO.C,R2*
X120906564Y-31780500D02*
X120452436Y-31780500D01*
X120906564Y-33250500D02*
X120452436Y-33250500D01*
G04 #@! TO.C,R5*
X115489564Y-23777000D02*
X115035436Y-23777000D01*
X115489564Y-25247000D02*
X115035436Y-25247000D01*
G04 #@! TO.C,C9*
X116515000Y-51878748D02*
X116515000Y-52401252D01*
X115045000Y-51878748D02*
X115045000Y-52401252D01*
G04 #@! TO.C,C18*
X115045000Y-45451252D02*
X115045000Y-44928748D01*
X116515000Y-45451252D02*
X116515000Y-44928748D01*
G04 #@! TO.C,X1*
X122505000Y-51795000D02*
X122505000Y-45545000D01*
X117455000Y-51795000D02*
X117455000Y-45545000D01*
X122505000Y-45545000D02*
G75*
G03*
X117455000Y-45545000I-2525000J0D01*
G01*
X117455000Y-51795000D02*
G75*
G03*
X122505000Y-51795000I2525000J0D01*
G01*
G04 #@! TO.C,C1*
X129883500Y-56261248D02*
X129883500Y-56783752D01*
X128413500Y-56261248D02*
X128413500Y-56783752D01*
G04 #@! TO.C,C6*
X125933752Y-52085000D02*
X125411248Y-52085000D01*
X125933752Y-50615000D02*
X125411248Y-50615000D01*
G04 #@! TO.C,C7*
X135131400Y-56338748D02*
X135131400Y-56861252D01*
X133661400Y-56338748D02*
X133661400Y-56861252D01*
G04 #@! TO.C,C8*
X135795000Y-56338748D02*
X135795000Y-56861252D01*
X137265000Y-56338748D02*
X137265000Y-56861252D01*
G04 #@! TO.C,C16*
X131671400Y-36046052D02*
X131671400Y-35523548D01*
X133141400Y-36046052D02*
X133141400Y-35523548D01*
G04 #@! TO.C,J1*
X123050000Y-22466000D02*
X124380000Y-22466000D01*
X123050000Y-25066000D02*
X125710000Y-25066000D01*
X125710000Y-25066000D02*
X125710000Y-27666000D01*
X123050000Y-25066000D02*
X123050000Y-27666000D01*
X123050000Y-27666000D02*
X125710000Y-27666000D01*
X123050000Y-23796000D02*
X123050000Y-22466000D01*
G04 #@! TO.C,C13*
X106765748Y-26456000D02*
X107288252Y-26456000D01*
X106765748Y-24986000D02*
X107288252Y-24986000D01*
G04 #@! TO.C,C10*
X113612000Y-33504248D02*
X113612000Y-34026752D01*
X115082000Y-33504248D02*
X115082000Y-34026752D01*
G04 #@! TO.C,R4*
X107254064Y-41496000D02*
X106799936Y-41496000D01*
X107254064Y-42966000D02*
X106799936Y-42966000D01*
G04 #@! TO.C,C11*
X120940752Y-31135000D02*
X120418248Y-31135000D01*
X120940752Y-29665000D02*
X120418248Y-29665000D01*
G04 #@! TO.C,CN1*
X102250000Y-30016000D02*
X100590000Y-30016000D01*
X100590000Y-37936000D02*
X102250000Y-37936000D01*
X110060000Y-36026000D02*
X110060000Y-37176000D01*
X110060000Y-31926000D02*
X110650000Y-31926000D01*
X110650000Y-31926000D02*
X110650000Y-32626000D01*
X110060000Y-30776000D02*
X110060000Y-31926000D01*
X100590000Y-30016000D02*
X100590000Y-37936000D01*
X105150000Y-30016000D02*
X107750000Y-30016000D01*
X107750000Y-37936000D02*
X105150000Y-37936000D01*
G04 #@! TD*
M02*
