G04 #@! TF.GenerationSoftware,KiCad,Pcbnew,6.0.2-378541a8eb~116~ubuntu20.04.1*
G04 #@! TF.CreationDate,2022-02-16T17:00:19+01:00*
G04 #@! TF.ProjectId,minimig-arm-controller-0805,6d696e69-6d69-4672-9d61-726d2d636f6e,rev?*
G04 #@! TF.SameCoordinates,Original*
G04 #@! TF.FileFunction,Copper,L1,Top*
G04 #@! TF.FilePolarity,Positive*
%FSLAX46Y46*%
G04 Gerber Fmt 4.6, Leading zero omitted, Abs format (unit mm)*
G04 Created by KiCad (PCBNEW 6.0.2-378541a8eb~116~ubuntu20.04.1) date 2022-02-16 17:00:19*
%MOMM*%
%LPD*%
G01*
G04 APERTURE LIST*
G04 Aperture macros list*
%AMRoundRect*
0 Rectangle with rounded corners*
0 $1 Rounding radius*
0 $2 $3 $4 $5 $6 $7 $8 $9 X,Y pos of 4 corners*
0 Add a 4 corners polygon primitive as box body*
4,1,4,$2,$3,$4,$5,$6,$7,$8,$9,$2,$3,0*
0 Add four circle primitives for the rounded corners*
1,1,$1+$1,$2,$3*
1,1,$1+$1,$4,$5*
1,1,$1+$1,$6,$7*
1,1,$1+$1,$8,$9*
0 Add four rect primitives between the rounded corners*
20,1,$1+$1,$2,$3,$4,$5,0*
20,1,$1+$1,$4,$5,$6,$7,0*
20,1,$1+$1,$6,$7,$8,$9,0*
20,1,$1+$1,$8,$9,$2,$3,0*%
G04 Aperture macros list end*
G04 #@! TA.AperFunction,ComponentPad*
%ADD10C,1.500000*%
G04 #@! TD*
G04 #@! TA.AperFunction,ComponentPad*
%ADD11O,1.700000X1.700000*%
G04 #@! TD*
G04 #@! TA.AperFunction,ComponentPad*
%ADD12R,1.700000X1.700000*%
G04 #@! TD*
G04 #@! TA.AperFunction,SMDPad,CuDef*
%ADD13RoundRect,0.250000X-0.475000X0.337500X-0.475000X-0.337500X0.475000X-0.337500X0.475000X0.337500X0*%
G04 #@! TD*
G04 #@! TA.AperFunction,SMDPad,CuDef*
%ADD14RoundRect,0.250000X0.475000X-0.337500X0.475000X0.337500X-0.475000X0.337500X-0.475000X-0.337500X0*%
G04 #@! TD*
G04 #@! TA.AperFunction,SMDPad,CuDef*
%ADD15RoundRect,0.250000X0.337500X0.475000X-0.337500X0.475000X-0.337500X-0.475000X0.337500X-0.475000X0*%
G04 #@! TD*
G04 #@! TA.AperFunction,SMDPad,CuDef*
%ADD16RoundRect,0.250000X0.925000X-0.500000X0.925000X0.500000X-0.925000X0.500000X-0.925000X-0.500000X0*%
G04 #@! TD*
G04 #@! TA.AperFunction,SMDPad,CuDef*
%ADD17RoundRect,0.249999X-0.350001X-0.450001X0.350001X-0.450001X0.350001X0.450001X-0.350001X0.450001X0*%
G04 #@! TD*
G04 #@! TA.AperFunction,SMDPad,CuDef*
%ADD18RoundRect,0.249999X0.350001X0.450001X-0.350001X0.450001X-0.350001X-0.450001X0.350001X-0.450001X0*%
G04 #@! TD*
G04 #@! TA.AperFunction,SMDPad,CuDef*
%ADD19RoundRect,0.250000X-0.337500X-0.475000X0.337500X-0.475000X0.337500X0.475000X-0.337500X0.475000X0*%
G04 #@! TD*
G04 #@! TA.AperFunction,SMDPad,CuDef*
%ADD20RoundRect,0.249999X-0.450001X0.350001X-0.450001X-0.350001X0.450001X-0.350001X0.450001X0.350001X0*%
G04 #@! TD*
G04 #@! TA.AperFunction,SMDPad,CuDef*
%ADD21R,0.800000X0.900000*%
G04 #@! TD*
G04 #@! TA.AperFunction,SMDPad,CuDef*
%ADD22R,2.500000X0.500000*%
G04 #@! TD*
G04 #@! TA.AperFunction,SMDPad,CuDef*
%ADD23R,2.500000X2.000000*%
G04 #@! TD*
G04 #@! TA.AperFunction,ComponentPad*
%ADD24O,1.600000X1.600000*%
G04 #@! TD*
G04 #@! TA.AperFunction,ComponentPad*
%ADD25R,1.600000X1.600000*%
G04 #@! TD*
G04 #@! TA.AperFunction,SMDPad,CuDef*
%ADD26RoundRect,0.075000X0.700000X-0.075000X0.700000X0.075000X-0.700000X0.075000X-0.700000X-0.075000X0*%
G04 #@! TD*
G04 #@! TA.AperFunction,SMDPad,CuDef*
%ADD27RoundRect,0.075000X0.075000X-0.700000X0.075000X0.700000X-0.075000X0.700000X-0.075000X-0.700000X0*%
G04 #@! TD*
G04 #@! TA.AperFunction,ViaPad*
%ADD28C,0.800000*%
G04 #@! TD*
G04 #@! TA.AperFunction,Conductor*
%ADD29C,0.250000*%
G04 #@! TD*
G04 #@! TA.AperFunction,Conductor*
%ADD30C,0.500000*%
G04 #@! TD*
G04 #@! TA.AperFunction,Conductor*
%ADD31C,0.400000*%
G04 #@! TD*
G04 APERTURE END LIST*
D10*
G04 #@! TO.P,X1,2,2*
G04 #@! TO.N,Net-(C18-Pad1)*
X119980000Y-46230000D03*
G04 #@! TO.P,X1,1,1*
G04 #@! TO.N,Net-(C9-Pad1)*
X119980000Y-51110000D03*
G04 #@! TD*
D11*
G04 #@! TO.P,J1,2,Pin_2*
G04 #@! TO.N,GND*
X124380000Y-26336000D03*
D12*
G04 #@! TO.P,J1,1,Pin_1*
G04 #@! TO.N,VDDIN*
X124380000Y-23796000D03*
G04 #@! TD*
D13*
G04 #@! TO.P,C17,2*
G04 #@! TO.N,GND*
X143277600Y-57040700D03*
G04 #@! TO.P,C17,1*
G04 #@! TO.N,VDDIN*
X143277600Y-54965700D03*
G04 #@! TD*
D14*
G04 #@! TO.P,C16,2*
G04 #@! TO.N,GND*
X132406400Y-34747300D03*
G04 #@! TO.P,C16,1*
G04 #@! TO.N,VDDIN*
X132406400Y-36822300D03*
G04 #@! TD*
D13*
G04 #@! TO.P,C15,2*
G04 #@! TO.N,GND*
X132355600Y-57599500D03*
G04 #@! TO.P,C15,1*
G04 #@! TO.N,VDDIN*
X132355600Y-55524500D03*
G04 #@! TD*
D15*
G04 #@! TO.P,C14,1*
G04 #@! TO.N,VDDIN*
X126577500Y-51420000D03*
G04 #@! TO.P,C14,2*
G04 #@! TO.N,GND*
X124502500Y-51420000D03*
G04 #@! TD*
D13*
G04 #@! TO.P,C8,2*
G04 #@! TO.N,GND*
X138858000Y-57599500D03*
G04 #@! TO.P,C8,1*
G04 #@! TO.N,VDDCORE*
X138858000Y-55524500D03*
G04 #@! TD*
G04 #@! TO.P,C7,2*
G04 #@! TO.N,GND*
X136724400Y-57599500D03*
G04 #@! TO.P,C7,1*
G04 #@! TO.N,VDDCORE*
X136724400Y-55524500D03*
G04 #@! TD*
G04 #@! TO.P,C6,2*
G04 #@! TO.N,GND*
X134540000Y-57599500D03*
G04 #@! TO.P,C6,1*
G04 #@! TO.N,VDDCORE*
X134540000Y-55524500D03*
G04 #@! TD*
D14*
G04 #@! TO.P,C3,2*
G04 #@! TO.N,GND*
X126564400Y-38252500D03*
G04 #@! TO.P,C3,1*
G04 #@! TO.N,VDDIN*
X126564400Y-40327500D03*
G04 #@! TD*
G04 #@! TO.P,C5,2*
G04 #@! TO.N,GND*
X143747500Y-30950000D03*
G04 #@! TO.P,C5,1*
G04 #@! TO.N,VDDIN*
X143747500Y-33025000D03*
G04 #@! TD*
D16*
G04 #@! TO.P,C4,2*
G04 #@! TO.N,GND*
X138794500Y-30426000D03*
G04 #@! TO.P,C4,1*
G04 #@! TO.N,VDDIN*
X138794500Y-33676000D03*
G04 #@! TD*
D17*
G04 #@! TO.P,R1,2*
G04 #@! TO.N,Net-(C1-Pad1)*
X127412000Y-53666400D03*
G04 #@! TO.P,R1,1*
G04 #@! TO.N,Net-(C2-Pad1)*
X125412000Y-53666400D03*
G04 #@! TD*
D14*
G04 #@! TO.P,C18,2*
G04 #@! TO.N,GND*
X115780000Y-44152500D03*
G04 #@! TO.P,C18,1*
G04 #@! TO.N,Net-(C18-Pad1)*
X115780000Y-46227500D03*
G04 #@! TD*
D13*
G04 #@! TO.P,C9,2*
G04 #@! TO.N,GND*
X115780000Y-53177500D03*
G04 #@! TO.P,C9,1*
G04 #@! TO.N,Net-(C9-Pad1)*
X115780000Y-51102500D03*
G04 #@! TD*
G04 #@! TO.P,C2,2*
G04 #@! TO.N,GND*
X125238000Y-57646500D03*
G04 #@! TO.P,C2,1*
G04 #@! TO.N,Net-(C2-Pad1)*
X125238000Y-55571500D03*
G04 #@! TD*
G04 #@! TO.P,C1,2*
G04 #@! TO.N,GND*
X127682000Y-57646500D03*
G04 #@! TO.P,C1,1*
G04 #@! TO.N,Net-(C1-Pad1)*
X127682000Y-55571500D03*
G04 #@! TD*
D18*
G04 #@! TO.P,R4,2*
G04 #@! TO.N,SHIELD*
X106027000Y-42231000D03*
G04 #@! TO.P,R4,1*
G04 #@! TO.N,GND*
X108027000Y-42231000D03*
G04 #@! TD*
D19*
G04 #@! TO.P,C13,2*
G04 #@! TO.N,GND*
X108064500Y-25721000D03*
G04 #@! TO.P,C13,1*
G04 #@! TO.N,SHIELD*
X105989500Y-25721000D03*
G04 #@! TD*
D18*
G04 #@! TO.P,R7,2*
G04 #@! TO.N,Net-(Q1-Pad3)*
X119679500Y-38782000D03*
G04 #@! TO.P,R7,1*
G04 #@! TO.N,DDP*
X121679500Y-38782000D03*
G04 #@! TD*
D20*
G04 #@! TO.P,R6,2*
G04 #@! TO.N,Net-(Q1-Pad1)*
X119637500Y-26782000D03*
G04 #@! TO.P,R6,1*
G04 #@! TO.N,USB_PULLUP*
X119637500Y-24782000D03*
G04 #@! TD*
D18*
G04 #@! TO.P,R5,2*
G04 #@! TO.N,VDDIN*
X114262500Y-24512000D03*
G04 #@! TO.P,R5,1*
G04 #@! TO.N,Net-(Q1-Pad1)*
X116262500Y-24512000D03*
G04 #@! TD*
G04 #@! TO.P,R3,2*
G04 #@! TO.N,USB_DP*
X119679500Y-34718000D03*
G04 #@! TO.P,R3,1*
G04 #@! TO.N,DDP*
X121679500Y-34718000D03*
G04 #@! TD*
G04 #@! TO.P,R2,2*
G04 #@! TO.N,USB_DM*
X119679500Y-32515500D03*
G04 #@! TO.P,R2,1*
G04 #@! TO.N,DDM*
X121679500Y-32515500D03*
G04 #@! TD*
D21*
G04 #@! TO.P,Q1,3,C*
G04 #@! TO.N,Net-(Q1-Pad3)*
X115192500Y-28687000D03*
G04 #@! TO.P,Q1,2,E*
G04 #@! TO.N,VDDIN*
X114242500Y-26687000D03*
G04 #@! TO.P,Q1,1,B*
G04 #@! TO.N,Net-(Q1-Pad1)*
X116142500Y-26687000D03*
G04 #@! TD*
D11*
G04 #@! TO.P,JP2,2,Pin_2*
G04 #@! TO.N,VDDIN*
X134946400Y-23694400D03*
D12*
G04 #@! TO.P,JP2,1,Pin_1*
G04 #@! TO.N,TST*
X134946400Y-26234400D03*
G04 #@! TD*
D11*
G04 #@! TO.P,JP1,2,Pin_2*
G04 #@! TO.N,VDDIN*
X130120400Y-23694400D03*
D12*
G04 #@! TO.P,JP1,1,Pin_1*
G04 #@! TO.N,ERASE*
X130120400Y-26234400D03*
G04 #@! TD*
D22*
G04 #@! TO.P,CN1,5,GND*
G04 #@! TO.N,GND*
X109200000Y-35576000D03*
G04 #@! TO.P,CN1,4,ID*
G04 #@! TO.N,unconnected-(CN1-Pad4)*
X109200000Y-34776000D03*
G04 #@! TO.P,CN1,3,D+*
G04 #@! TO.N,USB_DP*
X109200000Y-33976000D03*
G04 #@! TO.P,CN1,2,D-*
G04 #@! TO.N,USB_DM*
X109200000Y-33176000D03*
G04 #@! TO.P,CN1,1,VBUS*
G04 #@! TO.N,unconnected-(CN1-Pad1)*
X109200000Y-32376000D03*
D23*
G04 #@! TO.P,CN1,6,Shield*
G04 #@! TO.N,SHIELD*
X109200000Y-38376000D03*
X109200000Y-29576000D03*
X103700000Y-38376000D03*
X103700000Y-29576000D03*
G04 #@! TD*
D15*
G04 #@! TO.P,C12,2*
G04 #@! TO.N,GND*
X119642000Y-36750000D03*
G04 #@! TO.P,C12,1*
G04 #@! TO.N,DDP*
X121717000Y-36750000D03*
G04 #@! TD*
G04 #@! TO.P,C11,2*
G04 #@! TO.N,GND*
X119642000Y-30400000D03*
G04 #@! TO.P,C11,1*
G04 #@! TO.N,DDM*
X121717000Y-30400000D03*
G04 #@! TD*
D13*
G04 #@! TO.P,C10,2*
G04 #@! TO.N,USB_DP*
X114347000Y-34803000D03*
G04 #@! TO.P,C10,1*
G04 #@! TO.N,USB_DM*
X114347000Y-32728000D03*
G04 #@! TD*
D24*
G04 #@! TO.P,U2,28,RB7/PGD*
G04 #@! TO.N,DIN*
X147380000Y-56000000D03*
G04 #@! TO.P,U2,14,RC3/SCL*
G04 #@! TO.N,SCK*
X155000000Y-22980000D03*
G04 #@! TO.P,U2,27,RB6/PGC*
G04 #@! TO.N,FPGA2*
X147380000Y-53460000D03*
G04 #@! TO.P,U2,13,RC2/CCP1*
G04 #@! TO.N,unconnected-(U2-Pad13)*
X155000000Y-25520000D03*
G04 #@! TO.P,U2,26,RB5*
G04 #@! TO.N,FPGA1*
X147380000Y-50920000D03*
G04 #@! TO.P,U2,12,RC1/T1OSI*
G04 #@! TO.N,unconnected-(U2-Pad12)*
X155000000Y-28060000D03*
G04 #@! TO.P,U2,25,RB4*
G04 #@! TO.N,DISKLED*
X147380000Y-48380000D03*
G04 #@! TO.P,U2,11,RC0/T1OSO*
G04 #@! TO.N,MMC_SEL*
X155000000Y-30600000D03*
G04 #@! TO.P,U2,24,RB3/PGM*
G04 #@! TO.N,DONE*
X147380000Y-45840000D03*
G04 #@! TO.P,U2,10,OSC2/CLKO*
G04 #@! TO.N,unconnected-(U2-Pad10)*
X155000000Y-33140000D03*
G04 #@! TO.P,U2,23,RB2*
G04 #@! TO.N,unconnected-(U2-Pad23)*
X147380000Y-43300000D03*
G04 #@! TO.P,U2,9,OSC1/CLKI*
G04 #@! TO.N,unconnected-(U2-Pad9)*
X155000000Y-35680000D03*
G04 #@! TO.P,U2,22,RB1*
G04 #@! TO.N,unconnected-(U2-Pad22)*
X147380000Y-40760000D03*
G04 #@! TO.P,U2,8,VSS*
G04 #@! TO.N,GND*
X155000000Y-38220000D03*
G04 #@! TO.P,U2,21,RB0/INT*
G04 #@! TO.N,BUTTON*
X147380000Y-38220000D03*
G04 #@! TO.P,U2,7,RA5/AN4*
G04 #@! TO.N,CCLK*
X155000000Y-40760000D03*
G04 #@! TO.P,U2,20,VDD*
G04 #@! TO.N,VDDIN*
X147380000Y-35680000D03*
G04 #@! TO.P,U2,6,RA4/T0CKI*
G04 #@! TO.N,unconnected-(U2-Pad6)*
X155000000Y-43300000D03*
G04 #@! TO.P,U2,19,VSS*
G04 #@! TO.N,GND*
X147380000Y-33140000D03*
G04 #@! TO.P,U2,5,RA3/AN3*
G04 #@! TO.N,INIT*
X155000000Y-45840000D03*
G04 #@! TO.P,U2,18,RC7/RX/DT*
G04 #@! TO.N,RXD*
X147380000Y-30600000D03*
G04 #@! TO.P,U2,4,RA2/AN2*
G04 #@! TO.N,PROG*
X155000000Y-48380000D03*
G04 #@! TO.P,U2,17,RC6/TX/CK*
G04 #@! TO.N,TXD*
X147380000Y-28060000D03*
G04 #@! TO.P,U2,3,RA1/AN1*
G04 #@! TO.N,FPGA0*
X155000000Y-50920000D03*
G04 #@! TO.P,U2,16,RC5/SDO*
G04 #@! TO.N,SDO*
X147380000Y-25520000D03*
G04 #@! TO.P,U2,2,RA0/AN0*
G04 #@! TO.N,CLKEN*
X155000000Y-53460000D03*
G04 #@! TO.P,U2,15,RC4/SDA*
G04 #@! TO.N,SDI*
X147380000Y-22980000D03*
D25*
G04 #@! TO.P,U2,1,~{MCLR}/VPP*
G04 #@! TO.N,MCLR*
X155000000Y-56000000D03*
G04 #@! TD*
D26*
G04 #@! TO.P,U1,64,VDDPLL*
G04 #@! TO.N,VDDCORE*
X128992000Y-49898000D03*
G04 #@! TO.P,U1,63,PLLRC*
G04 #@! TO.N,Net-(C1-Pad1)*
X128992000Y-49398000D03*
G04 #@! TO.P,U1,62,XIN*
G04 #@! TO.N,Net-(C9-Pad1)*
X128992000Y-48898000D03*
G04 #@! TO.P,U1,61,XOUT*
G04 #@! TO.N,Net-(C18-Pad1)*
X128992000Y-48398000D03*
G04 #@! TO.P,U1,60,GND*
G04 #@! TO.N,GND*
X128992000Y-47898000D03*
G04 #@! TO.P,U1,59,VDDFLASH*
G04 #@! TO.N,VDDIN*
X128992000Y-47398000D03*
G04 #@! TO.P,U1,58,VDDIO*
X128992000Y-46898000D03*
G04 #@! TO.P,U1,57,DPP*
G04 #@! TO.N,DDP*
X128992000Y-46398000D03*
G04 #@! TO.P,U1,56,DDM*
G04 #@! TO.N,DDM*
X128992000Y-45898000D03*
G04 #@! TO.P,U1,55,ERASE*
G04 #@! TO.N,ERASE*
X128992000Y-45398000D03*
G04 #@! TO.P,U1,54,VDDCORE*
G04 #@! TO.N,VDDCORE*
X128992000Y-44898000D03*
G04 #@! TO.P,U1,53,TCK*
G04 #@! TO.N,VDDIN*
X128992000Y-44398000D03*
G04 #@! TO.P,U1,52,PA31*
G04 #@! TO.N,unconnected-(U1-Pad52)*
X128992000Y-43898000D03*
G04 #@! TO.P,U1,51,TMS*
G04 #@! TO.N,VDDIN*
X128992000Y-43398000D03*
G04 #@! TO.P,U1,50,JTAGSEL*
G04 #@! TO.N,unconnected-(U1-Pad50)*
X128992000Y-42898000D03*
G04 #@! TO.P,U1,49,TDO*
G04 #@! TO.N,unconnected-(U1-Pad49)*
X128992000Y-42398000D03*
D27*
G04 #@! TO.P,U1,48,PA0*
G04 #@! TO.N,unconnected-(U1-Pad48)*
X130917000Y-40473000D03*
G04 #@! TO.P,U1,47,PA1*
G04 #@! TO.N,unconnected-(U1-Pad47)*
X131417000Y-40473000D03*
G04 #@! TO.P,U1,46,GND*
G04 #@! TO.N,GND*
X131917000Y-40473000D03*
G04 #@! TO.P,U1,45,VDDIO*
G04 #@! TO.N,VDDIN*
X132417000Y-40473000D03*
G04 #@! TO.P,U1,44,PA2*
G04 #@! TO.N,unconnected-(U1-Pad44)*
X132917000Y-40473000D03*
G04 #@! TO.P,U1,43,PA3*
G04 #@! TO.N,unconnected-(U1-Pad43)*
X133417000Y-40473000D03*
G04 #@! TO.P,U1,42,PA30*
G04 #@! TO.N,unconnected-(U1-Pad42)*
X133917000Y-40473000D03*
G04 #@! TO.P,U1,41,PA29*
G04 #@! TO.N,unconnected-(U1-Pad41)*
X134417000Y-40473000D03*
G04 #@! TO.P,U1,40,TST*
G04 #@! TO.N,TST*
X134917000Y-40473000D03*
G04 #@! TO.P,U1,39,NRST*
G04 #@! TO.N,MCLR*
X135417000Y-40473000D03*
G04 #@! TO.P,U1,38,PA28*
G04 #@! TO.N,BUTTON*
X135917000Y-40473000D03*
G04 #@! TO.P,U1,37,PA27*
G04 #@! TO.N,MMC_SEL*
X136417000Y-40473000D03*
G04 #@! TO.P,U1,36,PA4*
G04 #@! TO.N,CCLK*
X136917000Y-40473000D03*
G04 #@! TO.P,U1,35,PA5*
G04 #@! TO.N,RXD*
X137417000Y-40473000D03*
G04 #@! TO.P,U1,34,PA6*
G04 #@! TO.N,TXD*
X137917000Y-40473000D03*
G04 #@! TO.P,U1,33,TDI*
G04 #@! TO.N,VDDIN*
X138417000Y-40473000D03*
D26*
G04 #@! TO.P,U1,32,PA7*
G04 #@! TO.N,INIT*
X140342000Y-42398000D03*
G04 #@! TO.P,U1,31,PA8*
G04 #@! TO.N,DONE*
X140342000Y-42898000D03*
G04 #@! TO.P,U1,30,PA9*
G04 #@! TO.N,PROG*
X140342000Y-43398000D03*
G04 #@! TO.P,U1,29,PA10*
G04 #@! TO.N,DISKLED*
X140342000Y-43898000D03*
G04 #@! TO.P,U1,28,PA11*
G04 #@! TO.N,unconnected-(U1-Pad28)*
X140342000Y-44398000D03*
G04 #@! TO.P,U1,27,PA12*
G04 #@! TO.N,SDI*
X140342000Y-44898000D03*
G04 #@! TO.P,U1,26,PA26*
G04 #@! TO.N,FPGA0*
X140342000Y-45398000D03*
G04 #@! TO.P,U1,25,PA25*
G04 #@! TO.N,FPGA1*
X140342000Y-45898000D03*
G04 #@! TO.P,U1,24,VDDCORE*
G04 #@! TO.N,VDDCORE*
X140342000Y-46398000D03*
G04 #@! TO.P,U1,23,PA24*
G04 #@! TO.N,CLKEN*
X140342000Y-46898000D03*
G04 #@! TO.P,U1,22,PA13*
G04 #@! TO.N,SDO*
X140342000Y-47398000D03*
G04 #@! TO.P,U1,21,PA14*
G04 #@! TO.N,SCK*
X140342000Y-47898000D03*
G04 #@! TO.P,U1,20,PA15*
G04 #@! TO.N,FPGA2*
X140342000Y-48398000D03*
G04 #@! TO.P,U1,19,PA16*
G04 #@! TO.N,USB_PULLUP*
X140342000Y-48898000D03*
G04 #@! TO.P,U1,18,VDDIO*
G04 #@! TO.N,VDDIN*
X140342000Y-49398000D03*
G04 #@! TO.P,U1,17,GND*
G04 #@! TO.N,GND*
X140342000Y-49898000D03*
D27*
G04 #@! TO.P,U1,16,PA20/AD3*
G04 #@! TO.N,DIN*
X138417000Y-51823000D03*
G04 #@! TO.P,U1,15,PA23*
G04 #@! TO.N,unconnected-(U1-Pad15)*
X137917000Y-51823000D03*
G04 #@! TO.P,U1,14,PA22*
G04 #@! TO.N,unconnected-(U1-Pad14)*
X137417000Y-51823000D03*
G04 #@! TO.P,U1,13,PA19/AD2*
G04 #@! TO.N,unconnected-(U1-Pad13)*
X136917000Y-51823000D03*
G04 #@! TO.P,U1,12,VDDCORE*
G04 #@! TO.N,VDDCORE*
X136417000Y-51823000D03*
G04 #@! TO.P,U1,11,PA21*
G04 #@! TO.N,unconnected-(U1-Pad11)*
X135917000Y-51823000D03*
G04 #@! TO.P,U1,10,PA18/AD1*
G04 #@! TO.N,unconnected-(U1-Pad10)*
X135417000Y-51823000D03*
G04 #@! TO.P,U1,9,PA17/AD0*
G04 #@! TO.N,unconnected-(U1-Pad9)*
X134917000Y-51823000D03*
G04 #@! TO.P,U1,8,VDDOUT*
G04 #@! TO.N,VDDCORE*
X134417000Y-51823000D03*
G04 #@! TO.P,U1,7,VDDIN*
G04 #@! TO.N,VDDIN*
X133917000Y-51823000D03*
G04 #@! TO.P,U1,6,AD7*
G04 #@! TO.N,GND*
X133417000Y-51823000D03*
G04 #@! TO.P,U1,5,AD6*
X132917000Y-51823000D03*
G04 #@! TO.P,U1,4,AD5*
X132417000Y-51823000D03*
G04 #@! TO.P,U1,3,AD4*
X131917000Y-51823000D03*
G04 #@! TO.P,U1,2,GND*
X131417000Y-51823000D03*
G04 #@! TO.P,U1,1,ADREF*
X130917000Y-51823000D03*
G04 #@! TD*
D28*
G04 #@! TO.N,GND*
X123470000Y-57640000D03*
X130490000Y-57600000D03*
X124510000Y-49820000D03*
X115780000Y-42420000D03*
X115780000Y-55040000D03*
X138731000Y-49894500D03*
X132000000Y-50402500D03*
X130730000Y-47926000D03*
X131936500Y-42274500D03*
X141652000Y-30400000D03*
X140686800Y-57578000D03*
X117522000Y-35988000D03*
X117522000Y-30908000D03*
X112086400Y-36191200D03*
X109851200Y-25624800D03*
X110257600Y-42236400D03*
X132406400Y-32686000D03*
X126564400Y-36343600D03*
G04 #@! TO.N,BUTTON*
X153031200Y-38782000D03*
X135810000Y-42134800D03*
G04 #@! TO.N,MMC_SEL*
X142596404Y-38687010D03*
X140737600Y-36787000D03*
G04 #@! TO.N,SDO*
X138502400Y-47011600D03*
G04 #@! TO.N,SCK*
X138502400Y-48129200D03*
G04 #@! TO.N,Net-(Q1-Pad3)*
X115744000Y-30654000D03*
X115744000Y-37258000D03*
G04 #@! TO.N,USB_PULLUP*
X137130800Y-48891200D03*
X121992400Y-24761200D03*
G04 #@! TO.N,VDDIN*
X138413500Y-38528000D03*
X141652000Y-33448000D03*
X132508000Y-38528000D03*
X126412000Y-43862000D03*
X133905000Y-53895000D03*
X142922000Y-51990000D03*
X111934000Y-24558000D03*
X111934000Y-26590000D03*
X132558800Y-23694400D03*
X126793000Y-47418000D03*
X126564400Y-49805600D03*
X130476000Y-55165000D03*
G04 #@! TO.N,SDI*
X138096000Y-44878000D03*
G04 #@! TO.N,VDDCORE*
X126412000Y-45030400D03*
X135302000Y-53895000D03*
X136826000Y-45843200D03*
X130730000Y-53895000D03*
G04 #@! TD*
D29*
G04 #@! TO.N,Net-(C9-Pad1)*
X128992000Y-48898000D02*
X122192000Y-48898000D01*
X122192000Y-48898000D02*
X119980000Y-51110000D01*
G04 #@! TO.N,Net-(C18-Pad1)*
X128992000Y-48398000D02*
X122148000Y-48398000D01*
X122148000Y-48398000D02*
X119980000Y-46230000D01*
X115780000Y-46227500D02*
X115782500Y-46230000D01*
X115782500Y-46230000D02*
X119980000Y-46230000D01*
G04 #@! TO.N,Net-(C9-Pad1)*
X115780000Y-51102500D02*
X115787500Y-51110000D01*
X115787500Y-51110000D02*
X119980000Y-51110000D01*
G04 #@! TO.N,GND*
X115780000Y-53177500D02*
X115780000Y-55040000D01*
X115780000Y-44152500D02*
X115780000Y-42420000D01*
G04 #@! TO.N,DDP*
X123130756Y-40793521D02*
X123194165Y-40815709D01*
X123251046Y-40851450D02*
X123298549Y-40898953D01*
X122533834Y-40756290D02*
X122597243Y-40778478D01*
X121679500Y-34718000D02*
X122348000Y-34718000D01*
X122476953Y-40720549D02*
X122533834Y-40756290D01*
X122429450Y-40673046D02*
X122476953Y-40720549D01*
X123334290Y-40016165D02*
X123298549Y-40073046D01*
X122393709Y-40616165D02*
X122429450Y-40673046D01*
X123064000Y-40786000D02*
X123130756Y-40793521D01*
X122371521Y-40552756D02*
X122393709Y-40616165D01*
X123364000Y-41086000D02*
X123364000Y-45640000D01*
X122664000Y-40786000D02*
X123064000Y-40786000D01*
X122597243Y-40778478D02*
X122664000Y-40786000D01*
X122364000Y-40486000D02*
X122371521Y-40552756D01*
X122371521Y-40419243D02*
X122364000Y-40486000D01*
X122393709Y-40355834D02*
X122371521Y-40419243D01*
X122429450Y-40298953D02*
X122393709Y-40355834D01*
X122476953Y-40251450D02*
X122429450Y-40298953D01*
X123334290Y-40955834D02*
X123356478Y-41019243D01*
X122533834Y-40215709D02*
X122476953Y-40251450D01*
X122597243Y-40193521D02*
X122533834Y-40215709D01*
X123064000Y-40186000D02*
X122664000Y-40186000D01*
X122348000Y-34718000D02*
X123364000Y-35734000D01*
X123364000Y-35734000D02*
X123364000Y-39886000D01*
X123364000Y-39886000D02*
X123356478Y-39952756D01*
X123194165Y-40156290D02*
X123130756Y-40178478D01*
X123356478Y-39952756D02*
X123334290Y-40016165D01*
X123298549Y-40073046D02*
X123251046Y-40120549D01*
X123251046Y-40120549D02*
X123194165Y-40156290D01*
X123130756Y-40178478D02*
X123064000Y-40186000D01*
X123194165Y-40815709D02*
X123251046Y-40851450D01*
X122664000Y-40186000D02*
X122597243Y-40193521D01*
X123298549Y-40898953D02*
X123334290Y-40955834D01*
X123356478Y-41019243D02*
X123364000Y-41086000D01*
X123364000Y-45640000D02*
X124126000Y-46402000D01*
X124126000Y-46402000D02*
X128988000Y-46402000D01*
X128988000Y-46402000D02*
X128992000Y-46398000D01*
G04 #@! TO.N,DDM*
X124041835Y-39148290D02*
X123984954Y-39112549D01*
X124498738Y-39290953D02*
X124451235Y-39243450D01*
X124394354Y-39207709D02*
X124330945Y-39185521D01*
X124172000Y-39178000D02*
X124105244Y-39170478D01*
X124330945Y-39185521D02*
X124264188Y-39178000D01*
X123937451Y-39065046D02*
X123901710Y-39008165D01*
X124451235Y-39243450D02*
X124394354Y-39207709D01*
X124556667Y-39544756D02*
X124564188Y-39478000D01*
X123901710Y-39947834D02*
X123937451Y-39890953D01*
X124534479Y-39347834D02*
X124498738Y-39290953D01*
X123879522Y-40011243D02*
X123901710Y-39947834D01*
X124556667Y-39411243D02*
X124534479Y-39347834D01*
X124105244Y-39170478D02*
X124041835Y-39148290D01*
X121771100Y-32515500D02*
X121679500Y-32515500D01*
X124564188Y-39478000D02*
X124556667Y-39411243D01*
X124498738Y-39665046D02*
X124534479Y-39608165D01*
X124451235Y-39712549D02*
X124498738Y-39665046D01*
X128992000Y-45898000D02*
X124434800Y-45898000D01*
X124434800Y-45898000D02*
X123872000Y-45335200D01*
X123872000Y-45335200D02*
X123872000Y-40078000D01*
X123872000Y-40078000D02*
X123879522Y-40011243D01*
X124534479Y-39608165D02*
X124556667Y-39544756D01*
X124041835Y-39807709D02*
X124105244Y-39785521D01*
X124394354Y-39748290D02*
X124451235Y-39712549D01*
X123937451Y-39890953D02*
X123984954Y-39843450D01*
X124105244Y-39785521D02*
X124172000Y-39778000D01*
X124264188Y-39178000D02*
X124172000Y-39178000D01*
X123879522Y-38944756D02*
X123872000Y-38878000D01*
X123984954Y-39843450D02*
X124041835Y-39807709D01*
X124172000Y-39778000D02*
X124264188Y-39778000D01*
X124330945Y-39770478D02*
X124394354Y-39748290D01*
X124264188Y-39778000D02*
X124330945Y-39770478D01*
X123984954Y-39112549D02*
X123937451Y-39065046D01*
X123901710Y-39008165D02*
X123879522Y-38944756D01*
X123872000Y-38878000D02*
X123872000Y-34616400D01*
X123872000Y-34616400D02*
X121771100Y-32515500D01*
G04 #@! TO.N,GND*
X124502500Y-51420000D02*
X124502500Y-49827500D01*
X124502500Y-49827500D02*
X124510000Y-49820000D01*
G04 #@! TO.N,VDDIN*
X126564400Y-49805600D02*
X126564400Y-51406900D01*
X126564400Y-51406900D02*
X126577500Y-51420000D01*
G04 #@! TO.N,Net-(C1-Pad1)*
X127740000Y-53338400D02*
X127740000Y-49690000D01*
X127412000Y-53666400D02*
X127740000Y-53338400D01*
X127740000Y-49690000D02*
X128032000Y-49398000D01*
X128032000Y-49398000D02*
X128992000Y-49398000D01*
D30*
G04 #@! TO.N,GND*
X123476500Y-57646500D02*
X123470000Y-57640000D01*
X125238000Y-57646500D02*
X123476500Y-57646500D01*
X130490500Y-57599500D02*
X130490000Y-57600000D01*
X132355600Y-57599500D02*
X130490500Y-57599500D01*
D29*
G04 #@! TO.N,FPGA2*
X144270744Y-52457927D02*
X144270746Y-52457928D01*
X145185470Y-52400767D02*
X145180953Y-52396251D01*
X141579207Y-48794506D02*
G75*
G03*
X141994439Y-48794506I207616J207617D01*
G01*
X144964301Y-51349138D02*
G75*
G02*
X144964300Y-51764367I-207614J-207614D01*
G01*
X144270746Y-52457928D02*
X144964301Y-51764368D01*
X145817351Y-52202185D02*
G75*
G02*
X145817351Y-52617417I-207617J-207616D01*
G01*
X145817351Y-52202185D02*
X145808318Y-52193152D01*
X144115768Y-50500603D02*
X144106735Y-50491570D01*
X142418705Y-48803540D02*
X142418704Y-48803539D01*
X146244702Y-53460000D02*
X145817351Y-53032649D01*
X145180953Y-52396251D02*
X144695009Y-52882192D01*
X142418704Y-48803541D02*
G75*
G02*
X142418703Y-49218770I-207614J-207614D01*
G01*
X142383737Y-49934524D02*
G75*
G03*
X142551481Y-49934524I83872J83868D01*
G01*
X143232269Y-50783056D02*
X142975749Y-50526536D01*
X142127217Y-49510260D02*
G75*
G03*
X142127218Y-49678003I83871J-83871D01*
G01*
X141994439Y-48794506D02*
G75*
G02*
X142409671Y-48794506I207616J-207617D01*
G01*
X145817351Y-52617419D02*
G75*
G03*
X145817352Y-53032648I207614J-207614D01*
G01*
X143669701Y-51361907D02*
X144115768Y-50915835D01*
X145817350Y-52617418D02*
X145817351Y-52617417D01*
X143059621Y-50274919D02*
X143267236Y-50067303D01*
X144270746Y-52882191D02*
G75*
G03*
X144695008Y-52882191I212131J212131D01*
G01*
X144540036Y-51340103D02*
X144332420Y-51547718D01*
X143669701Y-51786170D02*
G75*
G03*
X144093963Y-51786170I212131J212131D01*
G01*
X142975749Y-50358792D02*
G75*
G03*
X142975750Y-50526535I83871J-83871D01*
G01*
X143691503Y-50491570D02*
G75*
G02*
X144106735Y-50491570I207616J-207617D01*
G01*
X143267236Y-49652073D02*
G75*
G02*
X143267235Y-50067302I-207614J-207614D01*
G01*
X145393086Y-52193152D02*
G75*
G02*
X145808318Y-52193152I207616J-207617D01*
G01*
X141579207Y-48794506D02*
X141241845Y-48457143D01*
X144270744Y-52457927D02*
G75*
G03*
X144270745Y-52882192I212135J-212132D01*
G01*
X144115768Y-50500605D02*
G75*
G02*
X144115767Y-50915834I-207614J-207614D01*
G01*
X142842971Y-49643038D02*
G75*
G02*
X143258203Y-49643038I207616J-207617D01*
G01*
X143669699Y-51361906D02*
G75*
G03*
X143669700Y-51786171I212135J-212132D01*
G01*
X147380000Y-53460000D02*
X146244702Y-53460000D01*
X142127218Y-49510260D02*
X142211089Y-49426387D01*
X145393086Y-52193152D02*
X145185470Y-52400767D01*
X144540036Y-51340103D02*
G75*
G02*
X144955268Y-51340103I207616J-207617D01*
G01*
X143232269Y-50783056D02*
G75*
G03*
X143400013Y-50783056I83872J83868D01*
G01*
X144115769Y-50500604D02*
X144115768Y-50500603D01*
X144964302Y-51349137D02*
X144964301Y-51349136D01*
X142975748Y-50358791D02*
X142975750Y-50358792D01*
X144964301Y-51349136D02*
X144955268Y-51340103D01*
X144332420Y-51547718D02*
X144093964Y-51786171D01*
X143669699Y-51361906D02*
X143669701Y-51361907D01*
X143691503Y-50491570D02*
X143483887Y-50699185D01*
X141241845Y-48457143D02*
X141182702Y-48398000D01*
X143483887Y-50699185D02*
X143400013Y-50783056D01*
X142975750Y-50358792D02*
X143059621Y-50274919D01*
X143267237Y-49652072D02*
X143267236Y-49652071D01*
X143267236Y-49652071D02*
X143258203Y-49643038D01*
X142842971Y-49643038D02*
X142635355Y-49850653D01*
X142635355Y-49850653D02*
X142551481Y-49934524D01*
X142383737Y-49934524D02*
X142127217Y-49678004D01*
X142127216Y-49510259D02*
X142127218Y-49510260D01*
X142211089Y-49426387D02*
X142418704Y-49218771D01*
X142418704Y-48803539D02*
X142409671Y-48794506D01*
X141182702Y-48398000D02*
X140342000Y-48398000D01*
G04 #@! TO.N,FPGA1*
X145163102Y-48490969D02*
X144844903Y-48172770D01*
X144615095Y-49145044D02*
X144615097Y-49145045D01*
X144314568Y-47642437D02*
G75*
G02*
X144314568Y-47748501I-53032J-53032D01*
G01*
X145534336Y-49074336D02*
X145039360Y-49569309D01*
X144615097Y-49145045D02*
X145163102Y-48597035D01*
X143466036Y-46793903D02*
X143147837Y-46475704D01*
X146170734Y-50134999D02*
X145887892Y-50417842D01*
X142382990Y-45922990D02*
X140410990Y-45922990D01*
X146170735Y-50134999D02*
X146170734Y-50134999D01*
X147380000Y-50920000D02*
X146595000Y-50135000D01*
X145587370Y-49021303D02*
X145534336Y-49074336D01*
X145587371Y-49021304D02*
G75*
G02*
X145693435Y-49021304I53032J-53032D01*
G01*
X142935703Y-46475704D02*
G75*
G03*
X143041771Y-46475704I53034J53035D01*
G01*
X145463627Y-49993577D02*
X145463627Y-49993576D01*
X143041772Y-46475705D02*
G75*
G02*
X143147836Y-46475705I53032J-53032D01*
G01*
X142918029Y-47447978D02*
G75*
G03*
X142918030Y-47872243I212135J-212132D01*
G01*
X142918031Y-47872242D02*
G75*
G03*
X143342293Y-47872242I212131J212131D01*
G01*
X143766564Y-48720775D02*
G75*
G03*
X144190826Y-48720775I212131J212131D01*
G01*
X145463627Y-49993577D02*
G75*
G03*
X145463628Y-50417842I212128J-212132D01*
G01*
X143766562Y-48296511D02*
G75*
G03*
X143766563Y-48720776I212135J-212132D01*
G01*
X143890305Y-47324238D02*
G75*
G02*
X143996369Y-47324238I53032J-53032D01*
G01*
X146011634Y-49339503D02*
G75*
G02*
X146011634Y-49445567I-53032J-53032D01*
G01*
X145463627Y-49993576D02*
X146011635Y-49445568D01*
X145463629Y-50417841D02*
G75*
G03*
X145887891Y-50417841I212131J212131D01*
G01*
X144738838Y-48172771D02*
G75*
G02*
X144844902Y-48172771I53032J-53032D01*
G01*
X144615097Y-49569308D02*
G75*
G03*
X145039359Y-49569308I212131J212131D01*
G01*
X142918029Y-47447978D02*
X142918031Y-47447979D01*
X144615095Y-49145044D02*
G75*
G03*
X144615096Y-49569309I212135J-212132D01*
G01*
X145163101Y-48490970D02*
G75*
G02*
X145163101Y-48597034I-53032J-53032D01*
G01*
X146011635Y-49339502D02*
X145693436Y-49021303D01*
X143890304Y-47324237D02*
X143837270Y-47377270D01*
X146170735Y-50134999D02*
G75*
G02*
X146595000Y-50135000I212132J-212128D01*
G01*
X143466035Y-46793904D02*
G75*
G02*
X143466035Y-46899968I-53032J-53032D01*
G01*
X144738837Y-48172770D02*
X144685803Y-48225803D01*
X144685803Y-48225803D02*
X144190827Y-48720776D01*
X143766562Y-48296511D02*
X143766564Y-48296512D01*
X143766564Y-48296512D02*
X144314569Y-47748502D01*
X144314569Y-47642436D02*
X143996370Y-47324237D01*
X143837270Y-47377270D02*
X143342294Y-47872243D01*
X142918031Y-47447979D02*
X143466036Y-46899969D01*
X142935703Y-46475704D02*
X142935704Y-46475704D01*
X142935704Y-46475704D02*
X142382990Y-45922990D01*
X140410990Y-45922990D02*
X140386000Y-45898000D01*
X140386000Y-45898000D02*
X140342000Y-45898000D01*
G04 #@! TO.N,VDDCORE*
X135302000Y-54762500D02*
X135302000Y-53895000D01*
X136417000Y-52780000D02*
X136417000Y-51823000D01*
G04 #@! TO.N,Net-(C2-Pad1)*
X125238000Y-55571500D02*
X125238000Y-53840400D01*
X125238000Y-53840400D02*
X125412000Y-53666400D01*
G04 #@! TO.N,BUTTON*
X135917000Y-40473000D02*
X135917000Y-42027800D01*
X135917000Y-42027800D02*
X135810000Y-42134800D01*
G04 #@! TO.N,VDDCORE*
X134417000Y-51823000D02*
X134417000Y-53010000D01*
X134417000Y-53010000D02*
X135302000Y-53895000D01*
X136417000Y-52780000D02*
X135302000Y-53895000D01*
G04 #@! TO.N,GND*
X138734500Y-49898000D02*
X138731000Y-49894500D01*
X140342000Y-49898000D02*
X138734500Y-49898000D01*
X131917000Y-50485500D02*
X132000000Y-50402500D01*
X131917000Y-51823000D02*
X131917000Y-50485500D01*
X132000000Y-50402500D02*
X131428500Y-50402500D01*
X131428500Y-51811500D02*
X131417000Y-51823000D01*
X131428500Y-50402500D02*
X131428500Y-51811500D01*
X130917000Y-51823000D02*
X130917000Y-50406000D01*
X130920500Y-50402500D02*
X131428500Y-50402500D01*
X130917000Y-50406000D02*
X130920500Y-50402500D01*
X132417000Y-51823000D02*
X132417000Y-50430000D01*
X132389500Y-50402500D02*
X132000000Y-50402500D01*
X132417000Y-50430000D02*
X132389500Y-50402500D01*
X132917000Y-51823000D02*
X132917000Y-50494000D01*
X132853000Y-50430000D02*
X132417000Y-50430000D01*
X132917000Y-50494000D02*
X132853000Y-50430000D01*
X133417000Y-51525500D02*
X133397000Y-51505500D01*
X133417000Y-51823000D02*
X133417000Y-51525500D01*
X133397000Y-51505500D02*
X133397000Y-50402500D01*
X133397000Y-50402500D02*
X132000000Y-50402500D01*
X130702000Y-47898000D02*
X130730000Y-47926000D01*
X128992000Y-47898000D02*
X130702000Y-47898000D01*
X131917000Y-42255000D02*
X131936500Y-42274500D01*
X131917000Y-40473000D02*
X131917000Y-42255000D01*
D30*
X125238000Y-57646500D02*
X127682000Y-57646500D01*
X118030000Y-30400000D02*
X117522000Y-30908000D01*
X119642000Y-30400000D02*
X118030000Y-30400000D01*
D29*
X109755000Y-25721000D02*
X109851200Y-25624800D01*
D30*
X108064500Y-25721000D02*
X109755000Y-25721000D01*
D29*
X110252200Y-42231000D02*
X110257600Y-42236400D01*
D30*
X108027000Y-42231000D02*
X110252200Y-42231000D01*
X132406400Y-34747300D02*
X132406400Y-32686000D01*
D29*
X142740300Y-57578000D02*
X143277600Y-57040700D01*
D30*
X140686800Y-57578000D02*
X142740300Y-57578000D01*
X126564400Y-38252500D02*
X126564400Y-36343600D01*
D29*
X138879500Y-57578000D02*
X138858000Y-57599500D01*
D30*
X140686800Y-57578000D02*
X138879500Y-57578000D01*
X138858000Y-57599500D02*
X136724400Y-57599500D01*
X136724400Y-57599500D02*
X134540000Y-57599500D01*
X134540000Y-57599500D02*
X132355600Y-57599500D01*
X141626000Y-30426000D02*
X141652000Y-30400000D01*
X138794500Y-30426000D02*
X141626000Y-30426000D01*
X142202000Y-30950000D02*
X141652000Y-30400000D01*
X143747500Y-30950000D02*
X142202000Y-30950000D01*
D29*
X111471200Y-35576000D02*
X112086400Y-36191200D01*
X109200000Y-35576000D02*
X111471200Y-35576000D01*
X119642000Y-36750000D02*
X119200000Y-36750000D01*
D30*
X118438000Y-35988000D02*
X117522000Y-35988000D01*
X119200000Y-36750000D02*
X118438000Y-35988000D01*
D29*
G04 #@! TO.N,MCLR*
X155000000Y-56000000D02*
X156082400Y-56000000D01*
X157596850Y-28991848D02*
X157596850Y-54485550D01*
X155540001Y-26934999D02*
X157596850Y-28991848D01*
X156082400Y-56000000D02*
X157596850Y-54485550D01*
X146839999Y-26934999D02*
X155540001Y-26934999D01*
X146254999Y-27519999D02*
X146839999Y-26934999D01*
X146254999Y-30851601D02*
X146254999Y-27519999D01*
X145017500Y-32089100D02*
X146254999Y-30851601D01*
X138143210Y-32089100D02*
X145017500Y-32089100D01*
X135417000Y-34815310D02*
X138143210Y-32089100D01*
X135417000Y-40473000D02*
X135417000Y-34815310D01*
G04 #@! TO.N,BUTTON*
X152469200Y-38220000D02*
X153031200Y-38782000D01*
X147380000Y-38220000D02*
X152469200Y-38220000D01*
G04 #@! TO.N,MMC_SEL*
X144543810Y-38687010D02*
X142596404Y-38687010D01*
X146108018Y-37122802D02*
X144543810Y-38687010D01*
X146108018Y-35286980D02*
X146108018Y-37122802D01*
X146839999Y-34554999D02*
X146108018Y-35286980D01*
X151045001Y-34554999D02*
X146839999Y-34554999D01*
X155000000Y-30600000D02*
X151045001Y-34554999D01*
X138445088Y-36787000D02*
X140737600Y-36787000D01*
X136417000Y-38815088D02*
X138445088Y-36787000D01*
X136417000Y-40473000D02*
X136417000Y-38815088D01*
G04 #@! TO.N,CCLK*
X137626318Y-42023020D02*
X136917000Y-41313702D01*
X136917000Y-41313702D02*
X136917000Y-40473000D01*
X138844092Y-42023020D02*
X137626318Y-42023020D01*
X141232113Y-39634999D02*
X138844092Y-42023020D01*
X153874999Y-39634999D02*
X141232113Y-39634999D01*
X155000000Y-40760000D02*
X153874999Y-39634999D01*
G04 #@! TO.N,RXD*
X144446000Y-37512000D02*
X145208000Y-36750000D01*
X137441990Y-38426508D02*
X138356498Y-37512000D01*
X137441990Y-40452010D02*
X137441990Y-38426508D01*
X137421000Y-40473000D02*
X137441990Y-40452010D01*
X145208000Y-32772000D02*
X147380000Y-30600000D01*
X145208000Y-36750000D02*
X145208000Y-32772000D01*
X138356498Y-37512000D02*
X144446000Y-37512000D01*
X137417000Y-40473000D02*
X137421000Y-40473000D01*
G04 #@! TO.N,TXD*
X138657692Y-41573010D02*
X138176308Y-41573010D01*
X144632400Y-37962010D02*
X142268692Y-37962010D01*
X145658009Y-36936401D02*
X144632400Y-37962010D01*
X138176308Y-41573010D02*
X137917000Y-41313702D01*
X142268692Y-37962010D02*
X138657692Y-41573010D01*
X147630003Y-32014999D02*
X146839999Y-32014999D01*
X145658010Y-33196988D02*
X145658009Y-36936401D01*
X148505001Y-31140001D02*
X147630003Y-32014999D01*
X146839999Y-32014999D02*
X145658010Y-33196988D01*
X148505001Y-29185001D02*
X148505001Y-31140001D01*
X137917000Y-41313702D02*
X137917000Y-40473000D01*
X147380000Y-28060000D02*
X148505001Y-29185001D01*
G04 #@! TO.N,INIT*
X155000000Y-45840000D02*
X151180500Y-42020500D01*
X142862000Y-42398000D02*
X140342000Y-42398000D01*
X143239500Y-42020500D02*
X142862000Y-42398000D01*
X151180500Y-42020500D02*
X143239500Y-42020500D01*
G04 #@! TO.N,DONE*
X147380000Y-45840000D02*
X144449500Y-42909500D01*
X140353500Y-42909500D02*
X140342000Y-42898000D01*
X144449500Y-42909500D02*
X140353500Y-42909500D01*
G04 #@! TO.N,PROG*
X153874999Y-47254999D02*
X147076999Y-47254999D01*
X155000000Y-48380000D02*
X153874999Y-47254999D01*
X143220000Y-43398000D02*
X140342000Y-43398000D01*
X147076999Y-47254999D02*
X143220000Y-43398000D01*
G04 #@! TO.N,DISKLED*
X142898000Y-43898000D02*
X140342000Y-43898000D01*
X147380000Y-48380000D02*
X142898000Y-43898000D01*
G04 #@! TO.N,FPGA0*
X153874999Y-49794999D02*
X155000000Y-50920000D01*
X147129997Y-49794999D02*
X153874999Y-49794999D01*
X142757988Y-45422990D02*
X147129997Y-49794999D01*
X140355490Y-45422990D02*
X142757988Y-45422990D01*
X140342000Y-45409500D02*
X140355490Y-45422990D01*
X140342000Y-45398000D02*
X140342000Y-45409500D01*
G04 #@! TO.N,CLKEN*
X141182702Y-46898000D02*
X140342000Y-46898000D01*
X146329703Y-52045001D02*
X141182702Y-46898000D01*
X153585001Y-52045001D02*
X146329703Y-52045001D01*
X155000000Y-53460000D02*
X153585001Y-52045001D01*
G04 #@! TO.N,SDO*
X138888800Y-47398000D02*
X140342000Y-47398000D01*
X138502400Y-47011600D02*
X138888800Y-47398000D01*
G04 #@! TO.N,SCK*
X138733600Y-47898000D02*
X140342000Y-47898000D01*
X138502400Y-48129200D02*
X138733600Y-47898000D01*
G04 #@! TO.N,DIN*
X142594000Y-56000000D02*
X138417000Y-51823000D01*
X147380000Y-56000000D02*
X142594000Y-56000000D01*
G04 #@! TO.N,ERASE*
X130092010Y-26262790D02*
X130120400Y-26234400D01*
X130092010Y-45138692D02*
X130092010Y-26262790D01*
X129832702Y-45398000D02*
X130092010Y-45138692D01*
X128992000Y-45398000D02*
X129832702Y-45398000D01*
G04 #@! TO.N,TST*
X134941990Y-40221510D02*
X134941990Y-26238810D01*
X134917000Y-40246500D02*
X134941990Y-40221510D01*
X134941990Y-26238810D02*
X134946400Y-26234400D01*
X134917000Y-40473000D02*
X134917000Y-40246500D01*
G04 #@! TO.N,USB_DP*
X114432000Y-34718000D02*
X114347000Y-34803000D01*
X119679500Y-34718000D02*
X114432000Y-34718000D01*
X113520000Y-33976000D02*
X109200000Y-33976000D01*
X114347000Y-34803000D02*
X113520000Y-33976000D01*
G04 #@! TO.N,USB_DM*
X114559500Y-32515500D02*
X114347000Y-32728000D01*
X119679500Y-32515500D02*
X114559500Y-32515500D01*
X113899000Y-33176000D02*
X109200000Y-33176000D01*
X114347000Y-32728000D02*
X113899000Y-33176000D01*
G04 #@! TO.N,DDM*
X121717000Y-32478000D02*
X121679500Y-32515500D01*
X121717000Y-30400000D02*
X121717000Y-32478000D01*
G04 #@! TO.N,DDP*
X121679500Y-36712500D02*
X121717000Y-36750000D01*
X121679500Y-34718000D02*
X121679500Y-36712500D01*
X121717000Y-38744500D02*
X121679500Y-38782000D01*
X121717000Y-36750000D02*
X121717000Y-38744500D01*
D31*
G04 #@! TO.N,SHIELD*
X109200000Y-38376000D02*
X103700000Y-38376000D01*
X103700000Y-38376000D02*
X103700000Y-29576000D01*
X103700000Y-28010500D02*
X105989500Y-25721000D01*
X103700000Y-29576000D02*
X103700000Y-28010500D01*
X106027000Y-40703000D02*
X103700000Y-38376000D01*
X106027000Y-42231000D02*
X106027000Y-40703000D01*
X103700000Y-29576000D02*
X109200000Y-29576000D01*
D29*
G04 #@! TO.N,Net-(Q1-Pad3)*
X115192500Y-30102500D02*
X115744000Y-30654000D01*
X115192500Y-28687000D02*
X115192500Y-30102500D01*
X118155500Y-37258000D02*
X115744000Y-37258000D01*
X119679500Y-38782000D02*
X118155500Y-37258000D01*
G04 #@! TO.N,Net-(Q1-Pad1)*
X116262500Y-26567000D02*
X116142500Y-26687000D01*
X116262500Y-24512000D02*
X116262500Y-26567000D01*
X119542500Y-26687000D02*
X119637500Y-26782000D01*
X116142500Y-26687000D02*
X119542500Y-26687000D01*
G04 #@! TO.N,USB_PULLUP*
X137137600Y-48898000D02*
X137130800Y-48891200D01*
X140342000Y-48898000D02*
X137137600Y-48898000D01*
X121971600Y-24782000D02*
X121992400Y-24761200D01*
X119637500Y-24782000D02*
X121971600Y-24782000D01*
G04 #@! TO.N,Net-(C1-Pad1)*
X127682000Y-53936400D02*
X127412000Y-53666400D01*
X127682000Y-55571500D02*
X127682000Y-53936400D01*
G04 #@! TO.N,VDDIN*
X138417000Y-38531500D02*
X138413500Y-38528000D01*
X138417000Y-40473000D02*
X138417000Y-38531500D01*
X132417000Y-38619000D02*
X132508000Y-38528000D01*
X132417000Y-40473000D02*
X132417000Y-38619000D01*
X133917000Y-53883000D02*
X133905000Y-53895000D01*
X133917000Y-51823000D02*
X133917000Y-53883000D01*
X142922000Y-51137298D02*
X142922000Y-51990000D01*
X141182702Y-49398000D02*
X142922000Y-51137298D01*
X140342000Y-49398000D02*
X141182702Y-49398000D01*
X111980000Y-24512000D02*
X111934000Y-24558000D01*
X114262500Y-24512000D02*
X111980000Y-24512000D01*
X112031000Y-26687000D02*
X111934000Y-26590000D01*
X114242500Y-26687000D02*
X112031000Y-26687000D01*
X126876000Y-43398000D02*
X126412000Y-43862000D01*
X128992000Y-43398000D02*
X126876000Y-43398000D01*
X126948000Y-44398000D02*
X126412000Y-43862000D01*
X128992000Y-44398000D02*
X126948000Y-44398000D01*
X130120400Y-23694400D02*
X132558800Y-23694400D01*
X134946400Y-23694400D02*
X132558800Y-23694400D01*
X142922000Y-54610100D02*
X143277600Y-54965700D01*
X142922000Y-51990000D02*
X142922000Y-54610100D01*
X132508000Y-36923900D02*
X132406400Y-36822300D01*
X132508000Y-38528000D02*
X132508000Y-36923900D01*
X126412000Y-40479900D02*
X126564400Y-40327500D01*
X126412000Y-43862000D02*
X126412000Y-40479900D01*
X128972000Y-47418000D02*
X128992000Y-47398000D01*
X126793000Y-47418000D02*
X128972000Y-47418000D01*
X130835500Y-55524500D02*
X130476000Y-55165000D01*
X132355600Y-55524500D02*
X130835500Y-55524500D01*
X128992000Y-46898000D02*
X128992000Y-47398000D01*
D30*
X141424000Y-33676000D02*
X141652000Y-33448000D01*
X138794500Y-33676000D02*
X141424000Y-33676000D01*
X142075000Y-33025000D02*
X141652000Y-33448000D01*
X143747500Y-33025000D02*
X142075000Y-33025000D01*
D29*
G04 #@! TO.N,SDI*
X138116000Y-44898000D02*
X138096000Y-44878000D01*
X140342000Y-44898000D02*
X138116000Y-44898000D01*
G04 #@! TO.N,VDDCORE*
X128992000Y-52157000D02*
X130730000Y-53895000D01*
X128992000Y-49898000D02*
X128992000Y-52157000D01*
X126519410Y-44922990D02*
X126412000Y-45030400D01*
X128957810Y-44922990D02*
X126519410Y-44922990D01*
X128982800Y-44898000D02*
X128957810Y-44922990D01*
X128992000Y-44898000D02*
X128982800Y-44898000D01*
X140259410Y-46373010D02*
X139286210Y-46373010D01*
X140284400Y-46398000D02*
X140259410Y-46373010D01*
X140342000Y-46398000D02*
X140284400Y-46398000D01*
X139286210Y-46373010D02*
X138756400Y-45843200D01*
X138756400Y-45843200D02*
X136826000Y-45843200D01*
X130730000Y-53895000D02*
X132838200Y-53895000D01*
X134467700Y-55524500D02*
X134540000Y-55524500D01*
X132838200Y-53895000D02*
X134467700Y-55524500D01*
X138858000Y-55524500D02*
X136724400Y-55524500D01*
X136724400Y-55524500D02*
X134540000Y-55524500D01*
X135302000Y-54762500D02*
X134540000Y-55524500D01*
G04 #@! TD*
M02*
